<?xml version="1.0" encoding="UTF-8"?>
<!DOCTYPE svg PUBLIC "-//W3C//DTD SVG 1.1//EN" "http://www.w3.org/Graphics/SVG/1.1/DTD/svg11.dtd">
<!-- Creator: CorelDRAW X7 -->
<svg xmlns="http://www.w3.org/2000/svg" xml:space="preserve" width="6523px" height="10078px" version="1.1" style="shape-rendering:geometricPrecision; text-rendering:geometricPrecision; image-rendering:optimizeQuality; fill-rule:evenodd; clip-rule:evenodd"
viewBox="0 0 5727 8848"
 xmlns:xlink="http://www.w3.org/1999/xlink">
 <defs>
  <style type="text/css">
   <![CDATA[
    .fil2 {fill:none}
    .fil0 {fill:#FEFEFE}
    .fil1 {fill:#D7AC4D}
   ]]>
  </style>
 </defs>
 <g id="Слой_x0020_1">
  <metadata id="CorelCorpID_0Corel-Layer"/>
  <g id="_618271096">
   <path class="fil0" d="M4538 5747c103,-211 -90,-366 -7,-582 251,-165 1055,-48 1114,-495 21,-164 -53,-195 -91,-294 -30,-79 -24,-132 -19,-156 8,-44 112,-101 96,-232 -7,-53 -66,-55 -72,-90 -3,-17 15,-44 25,-81 11,-41 17,-92 13,-117 -14,-40 -72,-66 -85,-118 -121,-486 127,-126 131,-561l-614 -539c-196,-275 224,-140 -360,-725 -71,-71 -381,-522 -389,-523 -686,-140 -431,269 -940,313 -159,14 182,929 225,1122 36,167 27,378 -9,572 -46,251 -457,434 46,1226 9,14 -429,-33 -583,-517 -112,-350 -176,-651 -232,-730 -157,-216 -482,-416 -765,-174 -497,426 134,1074 187,1293 4,15 -29,441 27,787 0,0 85,502 -149,738l-369 371 33 29c108,27 1144,500 1274,580 628,388 531,463 1407,601 -174,-501 -124,-1221 106,-1698z"/>
   <g>
    <path class="fil1" d="M1950 3637c122,387 807,760 1066,480 3,-3 6,-12 7,-16 1,7 2,13 -2,20 -209,304 -1005,-45 -1071,-484z"/>
   </g>
   <path class="fil2" d="M1950 3637c34,318 741,782 1046,501 23,-21 25,-13 27,-37"/>
   <g>
    <path class="fil1" d="M3160 4756c892,151 976,272 1946,200 -796,125 -1192,-4 -1946,-200z"/>
   </g>
   <path class="fil2" d="M3160 4756c802,166 1065,313 1946,200"/>
   <g>
    <path class="fil1" d="M5586 3866c-158,59 -296,90 -435,175 -9,6 -9,5 -20,6l8 -7c143,-128 256,-142 447,-174z"/>
   </g>
   <path class="fil2" d="M5586 3866c-165,44 -255,65 -406,140 -17,8 -20,31 -49,41"/>
   <g>
    <path class="fil1" d="M5085 3123c43,225 76,210 303,242 -223,26 -315,-9 -303,-242z"/>
   </g>
   <path class="fil2" d="M5085 3123c0,231 108,242 303,242"/>
   <g>
    <path class="fil1" d="M5347 3331c-180,-54 140,-107 193,-140 -69,142 -300,33 -193,140z"/>
   </g>
   <path class="fil2" d="M5347 3331c-148,-78 138,-56 193,-140"/>
   <path class="fil1" d="M5570 3370c-392,174 -705,338 -646,813 49,403 -737,113 -908,-84 -268,-309 -357,-838 -708,-1061 -103,-66 -321,273 -73,548 155,172 -83,840 330,983 454,157 1731,614 2080,265 112,-112 53,-244 -3,-374 -147,85 -300,91 -393,-50 -362,-552 -38,-617 300,-777 10,-4 22,-10 36,-17 -43,-87 -81,-191 -15,-246z"/>
   <path class="fil0" d="M4522 5747c103,-211 -90,-366 -7,-582 251,-165 1055,-48 1114,-495 21,-164 -53,-195 -91,-294 -44,-117 -33,-141 -13,-173 12,-19 121,-118 90,-214 -26,-79 -80,-53 -74,-100 2,-23 25,-60 33,-102 10,-50 4,-104 -1,-106 -31,-34 -68,-56 -81,-109 -118,-477 131,-118 135,-551l-614 -539c-196,-275 224,-140 -360,-725 -262,-325 -390,-531 -398,-532 -686,-140 -422,278 -931,322 -159,14 -108,523 23,670 170,191 213,903 213,1330 0,83 -213,200 -247,220 -25,15 -150,-300 -361,-402 -239,-117 -663,-561 -946,-319 -497,426 134,1074 187,1293 13,52 -15,124 -138,288 -21,27 -40,52 -58,76 112,155 204,310 223,423 0,0 85,502 -149,738l-369 371 33 29c108,27 1144,500 1274,580 628,388 531,463 1407,601 -100,-289 -25,-1425 106,-1698z"/>
   <path class="fil1" d="M4609 5856c106,-220 -84,-433 2,-657 261,-171 1051,-34 1112,-498 22,-171 -55,-203 -94,-306 -76,-201 29,-186 47,-336 11,-93 -40,-142 -72,-177 -3,-4 104,-189 15,-262 -102,-85 -86,-232 -63,-272 42,-75 163,-55 165,-359l-637 -560c-204,-286 232,-146 -374,-753 -113,-113 -217,-293 -348,-425 217,-679 -507,-1457 -1217,-1201 -538,193 -603,145 -1129,205 -903,103 -1464,540 -1695,1660 -124,600 229,1695 1054,2295 173,182 669,623 714,898 0,0 88,521 -155,766l-373 376 -1224 452c-571,695 -502,1692 874,1775 1450,141 2037,-1519 3922,371 -7,-22 -627,-1371 -633,-1408 -10,-57 -19,-130 -25,-215l-2 -1c-22,-437 0,-1138 136,-1368zm-203 1555c-848,-135 -757,-211 -1375,-592 -129,-79 -1154,-548 -1262,-575l-33 -28 207 -209 -10 -5 138 -138c234,-236 149,-738 149,-738 -19,-113 -111,-268 -223,-423 18,-24 37,-49 58,-76 123,-164 151,-236 138,-288 -53,-219 -684,-867 -187,-1293 283,-242 707,202 946,319 211,102 336,417 361,402 34,-20 247,-137 247,-220 0,-427 -43,-1139 -213,-1330 -131,-147 -182,-656 -23,-670 509,-44 245,-462 931,-322 8,1 136,207 398,532 584,585 164,450 360,725l614 539c-4,433 -253,74 -135,551 13,53 50,75 81,109 5,2 11,56 1,106 -8,42 -31,79 -33,102 -6,47 48,21 74,100 31,96 -78,195 -90,214 -20,32 -31,56 13,173 38,99 112,130 91,294 -59,447 -863,330 -1114,495 -83,216 110,371 7,582 -127,263 -201,1329 -116,1664z"/>
   <g>
    <path class="fil1" d="M1941 3618c122,387 807,760 1066,480 3,-3 6,-12 7,-16 1,7 2,13 -2,20 -209,304 -1005,-45 -1071,-484z"/>
   </g>
   <path class="fil2" d="M1941 3618c34,318 741,782 1046,501 23,-21 25,-14 27,-37"/>
   <g>
    <path class="fil1" d="M3151 4736c892,152 976,272 1946,201 -796,125 -1192,-4 -1946,-201z"/>
   </g>
   <path class="fil2" d="M3151 4736c802,167 1065,314 1946,201"/>
   <g>
    <path class="fil1" d="M5568 3866c-157,59 -295,90 -434,175 -9,6 -9,5 -20,6l8 -7c142,-128 255,-142 446,-174z"/>
   </g>
   <path class="fil2" d="M5568 3866c-164,44 -254,65 -405,140 -17,8 -20,31 -49,41"/>
   <g>
    <path class="fil1" d="M5068 3123c43,225 76,210 303,242 -223,26 -316,-9 -303,-242z"/>
   </g>
   <path class="fil2" d="M5068 3123c0,231 108,242 303,242"/>
   <g>
    <path class="fil1" d="M5330 3331c-180,-54 140,-107 193,-140 -69,142 -300,33 -193,140z"/>
   </g>
   <path class="fil2" d="M5330 3331c-148,-78 137,-56 193,-140"/>
   <path class="fil1" d="M5520 3370c-392,174 -704,338 -646,813 50,403 -737,113 -908,-84 -170,-196 -358,-601 -422,-1020 -24,-157 -158,40 -286,-41 -103,-66 -321,273 -73,548 155,172 7,964 326,1263 224,209 810,350 1319,381 436,26 815,-12 876,-354 11,-65 13,-151 21,-225 9,-85 -102,-115 -135,-191 -146,85 -300,91 -393,-50 -362,-552 -38,-617 300,-777 10,-4 22,-10 36,-17 -43,-87 -81,-191 -15,-246z"/>
  </g>
 </g>
</svg>
