<?xml version="1.0" encoding="utf-8"?>
<!-- Generator: Adobe Illustrator 17.1.0, SVG Export Plug-In . SVG Version: 6.00 Build 0)  -->
<!DOCTYPE svg PUBLIC "-//W3C//DTD SVG 1.1//EN" "http://www.w3.org/Graphics/SVG/1.1/DTD/svg11.dtd">
<svg version="1.1" id="Layer_1" xmlns="http://www.w3.org/2000/svg" xmlns:xlink="http://www.w3.org/1999/xlink" x="0px" y="0px"
	 viewBox="0 0 6519 9445" enable-background="new 0 0 6519 9445" xml:space="preserve">
<g id="Слой_x0020_1">
	<g id="_707703400">
		<path fill="#D7AC4D" d="M5255.4,5957.8c120-247.1-91.8-427.1,3.5-681.2c296.5-190.6,1189.4-38.8,1256.5-561.2
			c24.7-194.1-63.5-229.4-105.9-345.9c-31.8-81.2-38.8-130.6-38.8-169.4c3.5-67.1,56.5-109.4,81.2-211.8
			c21.2-105.9-74.1-208.2-74.1-208.2c42.4-60,63.5-144.7,14.1-243.5c-105.9-215.3-105.9-271.8-84.7-331.8
			c38.8-105.9,204.7-63.5,204.7-420L5795.5,2153c-232.9-324.7,261.2-165.9-423.5-850.6c-134.1-134.1-261.2-335.3-420-487.1
			l21.2-257.7C2650.7-1323.5-416.5,1966,1778.9,4295.4c194.1,204.7,585.9,568.3,635.3,878.8c0,0,98.8,589.4-172.9,864.7
			l-434.1,437.7L384.7,6999c-649.4,794.1-571.8,1930.6,995.3,2022.4C3031.8,9183.8,3698.9,7292,5848.4,9445
			c-10.6-24.7-716.5-1560-723.5-1602.4C5068.4,7500.2,5040.1,6632,5255.4,5957.8z M5160.1,5897.8c116.5-240-102.4-416.5-7.1-660
			c282.4-183.5,1189.4-52.9,1256.5-557.7c24.7-183.5-60-218.8-102.4-331.8c-28.2-77.6-31.8-127.1-31.8-151.8
			c7.1-95.3,137.7-112.9,112.9-264.7c-7.1-35.3-24.7-67.1-42.4-77.6c-17.6-14.1-38.8-14.1-42.4-52.9c-3.5-38.8,60-67.1,45.9-218.8
			c-10.6-28.2-91.8-84.7-112.9-165.9c-112.9-504.7,165.9-116.5,169.4-596.5L5714.3,2213c-222.4-310.6,254.1-158.8-405.9-818.8
			c-49.4-49.4-458.8-614.1-465.9-617.7c-773-155.3-458.8,331.8-1034.1,381.2c-180,14.1-63.5,600,74.1,780
			c377.7,497.7-172.9,469.4-116.5,755.3c70.6,345.9,109.4,292.9,95.3,695.3c-7.1,123.5,148.2,144.7-67.1,275.3
			c-24.7,14.1-165.9-338.8-405.9-455.3c-268.2-130.6-748.3-635.3-1065.9-360c-561.2,480,148.2,1210.6,208.2,1461.2
			c14.1,56.5-14.1,137.7-155.3,321.2c-21.2,31.8-45.9,60-63.5,88.2c127.1,172.9,229.4,349.4,250.6,476.5c0,0,95.3,564.7-169.4,833
			l-416.5,420l38.8,31.8c123.5,31.8,1291.8,564.7,1436.5,653c709.4,437.7,600,522.4,1588.3,677.7
			C4927.2,7486.1,5011.9,6204.9,5160.1,5897.8z"/>
		<path fill="#FEFEFE" d="M5160.1,5897.8c116.5-240-102.4-416.5-7.1-660c282.4-183.5,1189.4-52.9,1256.5-557.7
			c24.7-183.5-60-218.8-102.4-331.8c-28.2-77.6-31.8-127.1-31.8-151.8c7.1-95.3,137.7-112.9,112.9-264.7
			c-7.1-35.3-24.7-67.1-42.4-77.6c-17.6-14.1-38.8-14.1-42.4-52.9c-3.5-38.8,60-67.1,45.9-218.8c-10.6-28.2-91.8-84.7-112.9-165.9
			c-112.9-504.7,165.9-116.5,169.4-596.5L5714.3,2213c-222.4-310.6,254.1-158.8-405.9-818.8c-49.4-49.4-458.8-614.1-465.9-617.7
			c-773-155.3-458.8,331.8-1034.1,381.2c-180,14.1-63.5,600,74.1,780c377.7,497.7-172.9,469.4-116.5,755.3
			c70.6,345.9,109.4,292.9,95.3,695.3c-7.1,123.5,148.2,144.7-67.1,275.3c-24.7,14.1-165.9-338.8-405.9-455.3
			c-268.2-130.6-748.3-635.3-1065.9-360c-561.2,480,148.2,1210.6,208.2,1461.2c14.1,56.5-14.1,137.7-155.3,321.2
			c-21.2,31.8-45.9,60-63.5,88.2c127.1,172.9,229.4,349.4,250.6,476.5c0,0,95.3,564.7-169.4,833l-416.5,420l38.8,31.8
			c123.5,31.8,1291.8,564.7,1436.5,653c709.4,437.7,600,522.4,1588.3,677.7C4927.2,7486.1,5011.9,6204.9,5160.1,5897.8z"/>
		<g>
			<path fill="#D7AC4D" d="M2234.2,3508.3c137.7,441.2,917.7,864.7,1214.2,547.1c3.5-3.5,7.1-14.1,7.1-17.6
				c3.5,7.1,3.5,14.1-3.5,21.2C3215.4,4408.4,2308.3,4009.5,2234.2,3508.3z"/>
		</g>
		<path fill="none" d="M2234.2,3508.3c38.8,363.5,843.6,889.4,1193,571.8c24.7-24.7,24.7-17.6,28.2-42.4"/>
		<g>
			<path fill="#D7AC4D" d="M3610.7,4782.5c1016.5,172.9,1111.8,310.6,2216.5,229.4C4923.7,5153.1,4471.9,5004.9,3610.7,4782.5z"/>
		</g>
		<path fill="none" d="M3610.7,4782.5c914.1,190.6,1214.2,356.5,2216.5,229.4"/>
		<g>
			<path fill="#D7AC4D" d="M6349.6,3769.5c-180,67.1-338.8,102.4-494.1,201.2c-14.1,7.1-10.6,3.5-24.7,7.1l10.6-7.1
				C6003.7,3822.5,6130.8,3808.4,6349.6,3769.5z"/>
		</g>
		<path fill="none" d="M6349.6,3769.5c-187.1,52.9-289.4,74.1-462.4,158.8c-21.2,10.6-24.7,38.8-56.5,49.4"/>
		<g>
			<path fill="#D7AC4D" d="M5777.8,2926c49.4,254.1,88.2,236.5,345.9,275.3C5869.6,3229.5,5763.7,3190.7,5777.8,2926z"/>
		</g>
		<path fill="none" d="M5777.8,2926c0,261.2,123.5,275.3,345.9,275.3"/>
		<g>
			<path fill="#D7AC4D" d="M6077.8,3162.5c-204.7-63.5,158.8-123.5,218.8-158.8C6219,3162.5,5954.3,3038.9,6077.8,3162.5z"/>
		</g>
		<path fill="none" d="M6077.8,3162.5c-169.4-88.2,155.3-63.5,218.8-158.8"/>
		<path fill="#D7AC4D" d="M6307.2,3204.8c-444.7,201.2-801.2,384.7-734.1,928.3c56.5,458.8-840,127.1-1034.1-95.3
			c-250.6-289.4-533-525.9-691.8-1002.4c-24.7-77.6-42.4-162.4-116.5-208.2c-116.5-74.1-363.5,310.6-81.2,624.7
			c176.5,197.7-95.3,956.5,374.1,1118.9c518.8,180,1973,698.8,2368.3,303.5c130.6-127.1,60-278.8-3.5-427.1
			c-165.9,95.3-338.8,105.9-444.7-56.5c-413-628.3-45.9-702.4,338.8-885.9c14.1-3.5,28.2-10.6,42.4-17.6
			C6275.5,3388.3,6233.1,3268.3,6307.2,3204.8z"/>
	</g>
</g>
</svg>
