<?xml version="1.0" encoding="utf-8"?>
<!-- Generator: Adobe Illustrator 17.1.0, SVG Export Plug-In . SVG Version: 6.00 Build 0)  -->
<!DOCTYPE svg PUBLIC "-//W3C//DTD SVG 1.1//EN" "http://www.w3.org/Graphics/SVG/1.1/DTD/svg11.dtd">
<svg version="1.1" id="Layer_1" xmlns="http://www.w3.org/2000/svg" xmlns:xlink="http://www.w3.org/1999/xlink" x="0px" y="0px"
	 viewBox="0 0 640 640" enable-background="new 0 0 640 640" xml:space="preserve">
<path fill-rule="evenodd" clip-rule="evenodd" fill="#D4A253" d="M320.1,277.3l79.8-92.1l61-70.5H320.1H179.3l61,70.5L320.1,277.3
	L320.1,277.3z M356.5,319.4l85,98.1l100.6,116.2c10,11.5,8.7,28.9-2.8,38.9c-5.2,4.5-11.6,6.7-18,6.7v0.1H320.1H118.8
	c-15.3,0-27.7-12.4-27.7-27.7c0-7.7,3.2-14.7,8.2-19.7l99.2-114.5l85-98.1l-85-98.1L99.4,106.7c-5.1-5-8.2-12-8.2-19.7
	c0-15.3,12.4-27.7,27.7-27.7h201.2h201.2v0.1c6.4,0,12.8,2.2,18,6.7c11.5,10,12.8,27.4,2.8,38.9L441.5,221.2L356.5,319.4
	L356.5,319.4z M399.8,453.6l-79.8-92.1l-79.8,92.1l-61,70.5h140.8h140.8L399.8,453.6z"/>
</svg>
