<?xml version="1.0" encoding="utf-8"?>
<!-- Generator: Adobe Illustrator 17.1.0, SVG Export Plug-In . SVG Version: 6.00 Build 0)  -->
<!DOCTYPE svg PUBLIC "-//W3C//DTD SVG 1.1//EN" "http://www.w3.org/Graphics/SVG/1.1/DTD/svg11.dtd">
<svg version="1.1" id="Layer_1" xmlns="http://www.w3.org/2000/svg" xmlns:xlink="http://www.w3.org/1999/xlink" x="0px" y="0px"
	 viewBox="0 0 640 640" enable-background="new 0 0 640 640" xml:space="preserve">
<path fill-rule="evenodd" clip-rule="evenodd" fill="#D4A253" d="M356.1,319.4l84.9-98l100.5-116c10-11.5,8.7-28.9-2.8-38.9
	c-5.2-4.5-11.6-6.7-18-6.7v-0.1h-201h-201c-15.3,0-27.6,12.4-27.6,27.6c0,7.7,3.1,14.7,8.2,19.7l99.1,114.4l84.9,98l-84.9,98
	L99.3,531.8c-5.1,5-8.2,12-8.2,19.7c0,15.3,12.4,27.6,27.6,27.6h201h201V579c6.4,0,12.8-2.2,18-6.7c11.5-10,12.8-27.3,2.8-38.8
	L441,417.4L356.1,319.4L356.1,319.4z M399.3,185.3H240l-61-70.4h140.6h140.6L399.3,185.3z"/>
</svg>
