<?xml version="1.0" encoding="utf-8"?>
<!-- Generator: Adobe Illustrator 17.1.0, SVG Export Plug-In . SVG Version: 6.00 Build 0)  -->
<!DOCTYPE svg PUBLIC "-//W3C//DTD SVG 1.1//EN" "http://www.w3.org/Graphics/SVG/1.1/DTD/svg11.dtd">
<svg version="1.1" id="Layer_1" xmlns="http://www.w3.org/2000/svg" xmlns:xlink="http://www.w3.org/1999/xlink" x="0px" y="0px"
	 viewBox="0 0 640 640" enable-background="new 0 0 640 640" xml:space="preserve">
<path fill-rule="evenodd" clip-rule="evenodd" fill="#D4A253" d="M356,319.4l85-98.2L541.6,105c10-11.5,8.7-28.9-2.8-38.9
	c-5.2-4.5-11.6-6.7-18-6.7v-0.1H319.5H118.2C103,59.3,90.6,71.7,90.6,87c0,7.7,3.2,14.7,8.2,19.7L198,221.2l85,98.2l-85,98.2
	L98.8,532.1c-5.1,5-8.2,12-8.2,19.7c0,15.3,12.4,27.7,27.7,27.7h201.3h201.3v-0.1c6.4,0,12.8-2.2,18-6.7c11.5-10,12.8-27.4,2.8-38.9
	L441,417.5L356,319.4L356,319.4z M399.3,185.1l-79.8,92.1l-79.8-92.1l-61-70.5h140.8h140.8L399.3,185.1z"/>
</svg>
