<?xml version="1.0" encoding="utf-8"?>
<!-- Generator: Adobe Illustrator 17.1.0, SVG Export Plug-In . SVG Version: 6.00 Build 0)  -->
<!DOCTYPE svg PUBLIC "-//W3C//DTD SVG 1.1//EN" "http://www.w3.org/Graphics/SVG/1.1/DTD/svg11.dtd">
<svg version="1.1" id="Layer_1" xmlns="http://www.w3.org/2000/svg" xmlns:xlink="http://www.w3.org/1999/xlink" x="0px" y="0px"
	 viewBox="0 0 459 163" enable-background="new 0 0 459 163" xml:space="preserve">
<polyline fill="#FFFFFF" points="-10,157 230,95 469,157 "/>
<g id="_688827688">
	<polygon fill="#FFFFFF" points="469,67 469,177 -10,177 -10,67 230,4 	"/>
	<polygon fill="#F2F2F2" points="-10,96 230,34 469,96 469,87 230,25 -10,87 	"/>
	<polygon fill="#E5E5E5" points="-10,90 230,28 469,90 469,81 230,19 -10,81 	"/>
	<polygon fill="#CCCCCC" points="-10,84 230,22 469,84 469,75 230,13 -10,75 	"/>
	<polygon fill="#B2B2B2" points="-10,78 230,16 469,78 469,69 230,7 -10,69 	"/>
	<polygon fill="#999999" points="-10,72 230,10 469,72 469,66 230,4 -10,66 	"/>
</g>
</svg>
