<?xml version="1.0" encoding="UTF-8"?>
<!DOCTYPE svg PUBLIC "-//W3C//DTD SVG 1.1//EN" "http://www.w3.org/Graphics/SVG/1.1/DTD/svg11.dtd">
<!-- Creator: CorelDRAW X7 -->
<svg xmlns="http://www.w3.org/2000/svg" xml:space="preserve" width="850px" height="874px" version="1.1" style="shape-rendering:geometricPrecision; text-rendering:geometricPrecision; image-rendering:optimizeQuality; fill-rule:evenodd; clip-rule:evenodd"
viewBox="0 0 850 874"
 xmlns:xlink="http://www.w3.org/1999/xlink">
 <defs>
  <style type="text/css">
   <![CDATA[
    .fil4 {fill:none;fill-rule:nonzero}
    .fil1 {fill:black}
    .fil2 {fill:white}
    .fil3 {fill:black;fill-rule:nonzero}
    .fil0 {fill:white;fill-rule:nonzero}
   ]]>
  </style>
 </defs>
 <g id="Слой_x0020_1">
  <metadata id="CorelCorpID_0Corel-Layer"/>
  <g id="_671417368">
   <path class="fil0" d="M719 664c-6,1 -7,-2 -8,2 0,3 -1,5 -1,8 -1,4 -2,2 2,4 3,1 6,2 10,4 7,3 15,6 23,11l1 1 0 0c1,0 1,0 1,0l1 0c0,1 4,3 11,5 7,3 16,5 25,5l0 0 0 0 0 0 0 0 1 0 1 0 0 0 0 0 0 0 0 0 0 0c1,0 3,0 5,0 2,0 4,0 6,-1 2,0 5,-1 7,-1 2,-1 3,-1 3,-1 1,-1 2,-1 3,-1l0 0 0 0c2,0 3,-1 4,-1 4,0 8,2 11,5 1,0 1,0 2,1 3,3 5,7 5,12 0,0 0,-1 0,5l0 0 0 0 0 0 0 0 0 0 0 0 0 0c0,5 0,13 -9,23 -3,3 0,1 4,5 4,3 6,7 7,11 1,5 -1,10 -3,13l0 0 -1 1c0,0 -1,2 -5,6 0,0 0,0 -1,1l0 0c-2,2 -5,6 -12,11 -6,4 -16,7 -29,10 0,0 0,0 -1,0 -7,1 -13,1 -20,1l0 0c-6,0 -12,-1 -17,-2 -5,-1 -10,-3 -14,-5 -18,-7 -14,-12 -19,10 -1,2 -1,4 -2,6 0,0 0,1 0,1 -1,1 -1,2 -1,3 -1,0 -1,1 -2,2 -2,4 -5,6 -8,8 -4,2 -8,3 -12,3 -3,0 -5,0 -8,-1 -2,0 -5,-1 -7,-2 -3,-1 -6,-2 -8,-3 -3,-2 -6,-3 -8,-5l0 0 0 0 0 0 -1 0c0,0 -1,-1 -3,-2 -2,-1 -5,-2 -8,-3 -6,-2 -4,7 -7,16 -4,13 -11,25 -24,32 -2,1 -3,2 -4,2 -2,1 -4,1 -6,2 -3,1 -7,1 -11,1 -3,0 -6,0 -10,-1 -3,0 -6,-1 -10,-1l0 0c-1,-1 -1,-1 -1,-1 -18,-5 -34,-9 -48,-13 -19,-5 -30,-11 -47,-4 -3,1 -5,2 -8,4 -5,2 -8,4 -12,7l-1 0 0 0 0 0 0 0 0 0c-23,16 -33,19 -56,3 -3,-2 -5,-3 -7,-5 -3,-2 -6,-3 -9,-5 -3,-1 -6,-3 -9,-4 -16,-7 -28,0 -45,4 -15,4 -31,8 -48,13l0 0 0 0 0 0 0 0 0 0c-4,1 -8,2 -11,2 -4,1 -7,1 -10,1 -3,0 -6,0 -9,-1 -2,0 -4,-1 -6,-2 0,0 0,0 -1,0 0,0 0,0 -1,0 -1,0 -2,-1 -4,-2 -13,-7 -20,-19 -24,-32 -3,-9 -1,-18 -7,-16 -3,1 -6,2 -8,3 -1,1 -2,1 -3,2l0 0 -1 0 0 0 0 0c-2,2 -5,3 -8,5 -2,1 -5,2 -8,3 -2,1 -5,2 -7,2 -3,1 -5,1 -8,1 -4,0 -8,-1 -12,-3 -3,-2 -6,-4 -8,-8 -1,-1 -1,-2 -2,-2l0 0 0 0c0,-1 -1,-2 -1,-3l0 0c0,-1 -1,-4 -2,-7 0,-3 -1,-6 -2,-10 -1,-8 1,-8 -6,-4 -3,1 -6,3 -11,4 -4,2 -9,4 -14,5 -5,1 -11,2 -17,2 -7,0 -13,0 -20,-1l0 0c-14,-2 -23,-6 -30,-10 -7,-5 -10,-9 -12,-11l0 0 0 0 -1 -1c0,-1 -2,-2 -2,-3 -2,-1 -2,-2 -3,-3 -1,-1 -2,-2 -2,-4 -1,-1 -2,-3 -2,-5l0 0 0 0c-1,-5 1,-9 4,-13 6,-8 11,-3 5,-10 -7,-8 -7,-15 -7,-20 0,0 0,-1 0,-1l0 0 0 0 0 0 0 0c0,-3 0,-5 0,-5 0,-1 0,-1 0,-2 1,-2 1,-3 1,-4 1,-1 1,-1 1,-2 1,-2 3,-4 5,-6 4,-3 9,-4 13,-3 3,0 5,1 7,2 2,0 5,1 8,1 2,1 4,1 6,1 2,0 4,0 5,0l0 0 0 0 1 0 0 0 0 0 0 0c1,0 1,0 1,0 1,0 1,0 1,0 9,0 17,-2 23,-5 7,-2 11,-4 12,-5 0,0 0,0 1,0 0,0 0,0 1,0l0 -1c9,-4 17,-8 24,-11 13,-6 11,-2 9,-15 -1,-5 -2,-2 -8,-3 -3,-1 -7,-3 -9,-7l-1 0 0 0 0 0 0 0 0 0 0 -1 0 0 0 0c0,0 0,0 0,0l-1 0 0 0 0 -1c-1,-1 -1,-3 -2,-4 -1,-2 -1,-4 -2,-6 0,-2 0,-4 0,-6 0,-2 0,-3 1,-6 0,-1 1,-3 1,-5l0 0 0 0 0 0c1,-2 1,-3 2,-5l0 0 0 0c1,-4 1,-7 1,-9 0,-1 0,-3 0,-3 -2,-4 -5,3 -10,7 -2,2 -7,4 -12,6 -3,2 -8,3 -13,4 -4,1 -8,1 -13,1 -4,-1 -8,-2 -12,-4 -1,-1 -3,-2 -4,-3 -1,-1 -2,-3 -2,-4 0,0 -1,0 -1,0 -1,-4 -2,-7 -2,-10 0,-3 1,-5 1,-8 0,-2 1,-5 1,-7 0,-2 -1,-5 -2,-7 -4,-8 -8,-12 -12,-16 0,0 0,-1 -1,-1l0 0 0 0 0 0 0 0 0 0c-11,-12 -21,-22 -25,-67l0 0c-1,-1 -1,-2 -1,-2l0 0 0 0c-2,-3 -3,-7 -5,-11 -1,-4 -2,-10 -3,-17 0,-3 0,-7 0,-11 0,-3 1,-7 1,-10 1,-4 2,-7 3,-10 1,-2 2,-4 4,-6l0 -1c0,-1 1,-2 1,-2 4,-6 15,-15 12,-17 -3,-3 -5,-6 -6,-10 0,0 0,0 0,-1l0 0 0 0c-1,-3 -2,-6 -1,-10 1,-9 12,-20 18,-26 3,-2 5,-3 8,-5 1,0 1,0 1,-1 3,-1 7,-3 11,-4 13,-5 23,-6 32,-5 7,1 5,2 7,-4 0,-3 1,-5 3,-8 1,-2 2,-5 4,-7 1,-2 3,-4 5,-6 2,-2 5,-4 8,-5 2,-1 5,-1 8,-1 9,2 8,2 3,-10 -2,-7 3,-6 -8,-6 -5,1 -11,0 -16,-2 -6,-1 -11,-4 -18,-8l0 0c-1,0 -1,-1 -1,-1l0 0 0 0 0 0c-3,-1 -5,-3 -7,-4 -3,-2 -5,-5 -7,-8 -1,-1 -1,-1 -1,-1l0 0 0 0c-1,-2 0,0 -1,-1 -2,-2 -3,-4 -5,-7 -2,-3 -3,-7 -4,-11 0,-5 1,-9 4,-12 6,-8 11,-3 4,-9l-1 -1c-2,-2 -3,-4 -5,-6 -2,-2 -3,-5 -4,-7 -8,-12 -9,-25 -9,-36 1,-11 3,-19 5,-26 0,0 0,-1 0,-1l0 0 1 0 0 0 0 0c0,-2 1,-4 1,-4 0,-19 2,-30 5,-39 3,-9 7,-15 11,-21 0,-1 0,-1 0,-1l0 0c2,-3 4,-6 6,-10 2,-3 4,-8 6,-14 5,-14 3,-8 2,-18 -1,-2 -1,-5 0,-8l0 0c0,-3 1,-5 3,-6 0,-1 0,-1 1,-2 4,-5 10,-6 17,-6 3,0 6,0 10,1 3,1 6,2 9,3 18,9 9,1 6,-14 0,-3 0,-6 0,-9l0 0c0,-4 2,-8 5,-11 9,-7 21,-3 29,3l0 0c0,1 -1,0 1,1l0 0c1,1 2,2 3,3l0 0c5,3 9,6 13,10 4,4 8,10 11,18 4,10 4,20 3,29 -2,10 -3,6 8,10 4,2 7,3 10,5 4,2 7,6 8,10l0 0 0 0c1,4 1,8 -2,12 0,1 -1,3 -2,4 -1,1 -3,1 -4,2l-2 2c-1,0 -1,0 -2,0l0 1 0 0c0,0 -1,0 -1,0 -1,1 -2,1 -2,2 -1,1 -2,2 -4,4 -1,2 -2,3 -4,5 -1,2 -3,4 -5,6 -2,3 6,10 8,12 4,3 7,6 12,8 4,2 10,4 16,5l0 0c7,1 15,1 23,1 27,-1 52,-7 75,-13 3,-1 1,-3 1,-7l0 -21c0,-3 1,-5 2,-8l0 0c1,-2 2,-4 4,-6l0 0 0 0c2,-2 4,-3 7,-5 1,-1 14,-22 22,-28 7,-6 14,-11 22,-14 4,-2 2,-3 2,-8 0,-10 4,-20 11,-27 7,-7 17,-11 27,-11 10,0 20,4 26,10 1,1 1,1 1,1 7,7 11,17 11,27 0,6 -2,6 3,8 8,4 15,8 21,14 13,11 15,22 27,31 5,3 9,8 9,16l0 21c0,6 -3,7 1,8 23,6 46,11 71,12 9,0 16,0 23,-1l0 0 0 0c7,-1 12,-3 17,-5 4,-2 8,-5 11,-8 12,-10 10,-8 3,-18 -2,-2 -3,-3 -4,-5 -1,-2 -2,-3 -3,-4 -1,-1 -2,-1 -2,-2l0 0c-1,0 -1,0 -1,0 0,0 0,0 -1,0l0 -1 0 0 0 0 0 0 -4 -2c-1,-1 -2,-1 -3,-2 -1,-1 -2,-3 -3,-4 -2,-4 -2,-8 -2,-11 0,-1 1,-1 1,-1 1,-4 3,-8 7,-10 4,-2 7,-3 10,-5 12,-4 10,0 9,-10 -2,-9 -1,-19 3,-29 3,-8 7,-14 11,-18 4,-4 8,-7 12,-10l0 0c1,-1 2,-2 4,-3l0 0c1,-1 0,0 1,-1l0 0c4,-3 8,-6 15,-7 1,0 1,0 1,0l0 0 0 0 0 0c5,0 9,1 12,4 3,3 5,6 6,11 0,0 0,0 0,0 0,3 0,6 -1,9 0,2 -1,4 -1,6 0,1 0,1 0,1l0 0 0 0 0 0 0 0c-5,19 -4,13 7,7 3,-1 7,-2 10,-3 3,-1 7,-1 10,-1 3,0 7,0 10,1l0 0c3,1 5,3 7,5l0 0c2,2 3,4 3,7 0,0 0,0 1,1 0,3 0,6 0,8 -1,2 -1,4 -2,5 0,0 0,0 0,1 0,2 1,6 4,12 2,6 4,11 6,14 2,4 3,7 5,10l0 0 0 0 0 0 0 0 0 0c5,7 8,12 11,22 3,9 5,20 6,39 0,0 0,1 1,3 0,1 0,1 0,1l0 0 0 0c2,7 5,16 5,27 1,11 -1,24 -8,36 -1,2 -3,5 -5,7 -1,2 -3,4 -5,6l0 1c-7,6 -2,1 4,9 2,3 4,7 3,12 -1,4 -2,8 -4,11 -1,3 -3,5 -4,7 -1,1 -1,0 -1,0 0,1 0,1 0,1 0,0 -1,0 -1,1 -2,3 -5,6 -7,8 -2,1 -4,2 -6,4 -1,0 -1,0 -1,0l0 0 0 0 -2 1c-6,4 -12,7 -17,8 -16,5 -22,-4 -24,7 -1,0 -1,1 -1,1l0 0 0 0c0,2 -1,3 -2,4 0,0 0,0 0,0 0,1 -1,2 -1,2 -1,4 -3,7 3,5 1,-1 3,-1 4,-1l0 0c2,0 3,0 4,0l0 0c2,0 3,1 4,1 3,1 6,3 8,5 2,2 4,4 5,6 2,2 3,5 4,7 2,3 3,5 3,8 2,6 0,5 7,4 9,-1 19,0 32,5 4,1 8,3 11,4l0 0 0 1c3,1 6,3 9,5 2,2 5,5 7,7l0 0 0 0c2,3 4,5 6,8l0 0c3,4 5,8 5,11 1,4 0,7 -1,10l0 0c0,1 0,1 0,1 -1,4 -3,7 -6,10 -3,2 8,11 12,17 0,0 1,1 1,2l0 1c2,2 3,4 4,6 1,3 2,6 3,10 0,3 1,7 1,10 0,4 0,8 0,11 -1,7 -2,13 -3,17 -2,4 -3,7 -4,10 0,0 0,0 -1,1l0 0 0 0 0 0 0 0c0,1 -1,1 -1,2 -4,44 -13,55 -25,67 0,0 0,0 0,0l0 0 0 0 0 0c-4,4 -9,9 -13,17 -1,2 -2,5 -2,7 0,2 1,5 1,7 0,3 1,5 1,8 0,3 -1,6 -2,10l0 0c-1,1 -2,2 -3,4 -1,1 -3,2 -4,3 -4,2 -8,3 -12,4 -5,0 -9,0 -13,-1 -5,-1 -10,-2 -13,-4 -5,-2 -10,-4 -12,-6 -5,-4 -8,-11 -10,-7 0,0 0,2 0,3 0,2 0,5 1,8 0,1 0,1 0,1 1,2 1,3 2,5l0 0 0 0 0 0c0,2 1,4 1,5 1,3 1,4 1,6 0,2 0,4 0,6 -1,2 -1,4 -2,6 0,1 -1,2 -2,4 0,0 0,0 -1,1 0,0 0,1 0,1l0 0 0 0c-3,4 -7,6 -10,7z"/>
   <path class="fil1" d="M79 492c-1,-3 -1,-6 -1,-10 0,-3 0,-6 1,-9 -2,1 -4,3 -6,4 -3,3 -6,6 -8,8l1 1c0,0 0,0 1,0 1,2 6,4 12,6zm704 -6c-1,2 -6,4 -12,6 1,-3 1,-6 1,-10 0,-3 0,-6 -1,-9 2,1 4,3 6,4 3,3 6,6 8,8l-1 1c0,0 0,0 -1,0zm-35 15c-9,3 -19,6 -26,8 3,-6 5,-14 6,-20 2,1 5,2 8,4 4,2 8,4 12,8zm-56 18c-4,1 -7,3 -11,5 -1,-6 -2,-12 -3,-18 1,1 2,2 3,3 4,2 8,6 11,10zm10 126c4,3 7,6 10,7 2,1 6,0 7,-2l0 0c0,0 0,0 0,0l1 -1 0 0c1,-2 2,-4 2,-6 0,-2 0,-4 0,-7 -1,-1 -1,-3 -2,-5 0,-2 -1,-4 -1,-5 -2,-9 -2,-15 -1,-20 2,-4 6,-8 11,-13 2,-1 4,-3 7,-5 1,2 1,5 2,7 1,5 4,10 8,13 3,3 11,7 20,8 6,1 12,1 17,-2 1,0 2,-1 2,-2 1,-2 1,-6 0,-10 0,-6 -1,-13 2,-21 5,-10 11,-15 15,-20 10,-10 19,-19 23,-60 0,-2 1,-4 2,-6 2,-5 5,-12 6,-24 1,-6 0,-12 -1,-18 -1,-5 -3,-9 -6,-13 0,-1 0,-2 0,-2 -10,-16 -22,-21 -34,-25 -1,0 -2,0 -3,-1 3,-1 6,-2 8,-3 5,-4 8,-3 14,-3 1,0 2,0 3,0 2,0 4,-1 5,-3 0,-1 0,-2 0,-2 1,-4 2,-6 -2,-11l0 0c-4,-5 -7,-9 -12,-12 -4,-4 -9,-7 -16,-9 -23,-8 -34,-4 -44,2 0,-6 0,-12 -2,-19 -1,-4 -3,-8 -5,-11 -2,-3 -5,-6 -8,-7 -1,0 -2,0 -2,0l0 0c-4,0 -9,3 -14,7 -5,3 -10,7 -15,10l2 -4c1,-2 1,-5 -1,-7l-44 -40c8,3 14,7 20,11l0 0 0 0c2,1 4,3 6,5 5,4 10,8 14,9 1,1 2,1 3,0 6,-2 7,-6 9,-11 1,-1 2,-3 3,-5 0,0 0,-1 0,-2l0 0c1,-2 1,-2 1,-2 0,-4 1,-7 1,-11 0,-2 0,-3 0,-5 6,3 12,5 18,6 8,0 16,-2 27,-9 1,0 1,-1 2,-1 4,-3 7,-4 10,-9 1,-1 2,-2 2,-3 3,-3 6,-6 6,-12 1,-2 -1,-4 -3,-5 -1,0 -1,0 -1,0l0 0c-2,0 -3,1 -4,1 -4,0 -6,0 -7,0 -1,-1 -3,-2 -6,-4 0,0 0,0 -1,0l0 0 0 0c-3,-2 -6,-4 -9,-5 2,0 5,-1 7,-2 4,-2 7,-3 9,-4 4,-3 8,-6 11,-9 0,0 0,0 1,0 3,-3 6,-7 8,-11 11,-20 5,-41 2,-54 -1,-3 -2,-6 -2,-7 -1,-34 -7,-43 -14,-55l-1 0c-3,-6 -8,-13 -13,-26 -5,-15 -4,-18 -3,-21 1,-2 2,-4 1,-7 0,-2 -1,-3 -3,-4l0 0c-4,-1 -9,-1 -13,0 -6,2 -12,5 -15,7 -4,3 -6,7 -8,12 0,1 0,3 -1,5 -1,-1 -2,-3 -4,-5 -2,-4 -5,-8 -6,-12 -2,-8 0,-17 2,-24 1,-5 2,-9 2,-13 0,-2 -2,-4 -5,-4l0 0c-5,0 -7,2 -10,5 0,0 -1,1 -2,1 -1,1 -2,2 -3,2 -8,6 -14,10 -19,23 -7,17 -2,30 4,42 -5,0 -9,0 -13,1 -6,2 -12,4 -18,7 -2,1 -3,4 -2,6 1,1 1,2 2,2l4 2c0,0 0,0 0,0l0 0c5,2 8,6 11,10 2,3 4,7 8,10 1,1 2,2 3,3 7,8 11,11 25,17l4 1c6,3 15,6 23,10 -1,1 -2,3 -3,4 -1,1 -1,2 -2,3 -1,0 -2,1 -3,2 -1,1 -2,2 -4,3 -2,1 -5,3 -8,4 0,1 -1,1 -1,1 0,-2 0,-5 -1,-7 0,-5 -2,-9 -4,-14 -2,-3 -6,-8 -10,-11 -4,-2 -8,-4 -12,-4 -2,0 -3,1 -4,3l0 0c-7,11 -15,19 -26,24 -12,5 -26,7 -45,7 -32,-1 -61,-9 -88,-17l-5 -1 0 -5c0,0 0,0 0,0 2,0 4,-1 6,-2 2,-2 3,-4 3,-7l0 -21c0,-6 -6,-9 -12,-10 -8,-22 -27,-39 -51,-45 2,-4 4,-9 4,-14 0,-14 -12,-26 -27,-26 -14,0 -26,12 -26,26 0,5 1,10 4,14 -25,6 -44,23 -51,45 -5,1 -8,2 -10,4 -1,2 -2,4 -2,6l0 21c0,3 1,5 3,7 1,1 3,2 5,2 1,0 1,0 1,0l0 4c-3,1 -6,2 -9,2 -27,8 -56,16 -87,17 -19,0 -34,-2 -45,-7 -11,-5 -20,-13 -27,-24l0 0c0,-2 -2,-3 -3,-3 -5,0 -9,2 -12,4 -5,3 -8,8 -10,11 -3,5 -4,9 -5,14 0,2 0,5 0,7 -1,0 -1,0 -2,-1 -3,-1 -6,-3 -8,-4 -1,-1 -2,-2 -4,-3 -1,-1 -2,-2 -3,-2 0,-1 -1,-2 -1,-3 -1,-1 -2,-3 -4,-4 9,-4 17,-7 24,-10l3 -1c14,-6 18,-9 26,-17 1,-1 2,-2 3,-3 3,-3 6,-7 8,-10 3,-4 6,-8 10,-10l0 0c0,0 0,0 1,0l3 -2c1,0 2,-1 2,-2 1,-2 1,-5 -2,-6 -5,-3 -11,-5 -18,-7 -4,-1 -8,-1 -12,-1 6,-12 10,-25 4,-42 -5,-13 -12,-17 -19,-23 -2,0 -3,-1 -4,-2 0,0 -1,-1 -2,-1 -2,-3 -5,-5 -9,-5l-1 0c-2,0 -4,2 -4,4 -1,4 0,8 1,13 2,7 4,16 2,24 -1,4 -3,8 -6,12 -1,2 -3,4 -4,5 0,-2 0,-4 -1,-5 -1,-5 -4,-9 -8,-12 -3,-2 -8,-5 -14,-7 -5,-1 -9,-1 -14,0l0 0c-1,1 -2,2 -2,4 -1,3 0,5 0,7 1,3 3,6 -3,21 -5,13 -9,20 -13,26l0 0c-8,12 -13,21 -14,55 0,1 -1,4 -2,7 -4,13 -10,34 2,54 2,4 5,8 8,11 0,0 0,0 0,0 3,3 7,6 11,9 2,1 6,2 10,4 2,1 4,2 6,2 -3,1 -6,3 -9,5l0 0 0 0c0,0 0,0 0,0 -4,2 -5,3 -7,4 -1,0 -3,0 -6,0 -1,0 -2,-1 -4,-1l0 0c-1,0 -1,0 -1,0 -2,1 -4,3 -4,5 1,6 3,9 6,12 1,1 2,2 2,3 3,5 6,6 11,9 0,0 0,1 1,1 11,7 20,9 28,9 6,-1 12,-3 18,-6 0,2 0,3 0,5 0,4 0,7 1,11 0,0 0,0 0,2l0 0c0,1 1,2 1,2 1,2 2,4 2,5 2,5 4,9 10,11 1,1 2,1 3,0 4,-1 9,-5 14,-9 2,-2 4,-4 5,-5l0 0 0 0c6,-4 13,-8 21,-12l-44 41 0 0c-2,2 -2,5 -1,7 1,1 1,2 2,4 -5,-3 -11,-7 -15,-10 -5,-4 -10,-7 -14,-7l0 0c0,0 -1,0 -2,0 -3,1 -6,4 -8,7 -2,3 -4,7 -5,11 -2,7 -2,13 -2,19 -10,-6 -21,-10 -44,-2 -7,2 -12,5 -16,9 -5,3 -8,7 -12,12l0 0c-4,5 -3,7 -2,11 0,0 0,1 0,2 1,2 3,3 5,3 1,0 2,0 3,0 6,0 9,-1 14,3 2,1 5,2 8,3 -1,1 -2,1 -3,1 -12,4 -24,9 -34,25 0,0 0,1 0,2 -3,4 -5,8 -6,13 -1,6 -2,12 -1,18 1,12 4,19 6,24 1,2 2,4 2,6 4,41 13,50 23,60 4,5 10,10 15,20 3,8 2,15 2,21 -1,4 -1,8 0,10 0,1 1,2 2,2 5,3 11,3 17,2 9,-1 17,-5 20,-8 4,-3 7,-8 8,-13 1,-2 1,-5 2,-7 3,2 5,4 7,5 5,5 9,9 11,13 1,5 1,11 -1,20 0,1 -1,3 -1,5 -1,2 -1,4 -2,5 0,3 0,5 0,7 0,2 1,4 2,6l0 0 1 1c0,0 0,0 0,0l0 0c1,2 5,3 7,2 3,-1 6,-4 10,-7 1,13 3,26 8,40 -12,3 -28,9 -44,19l-1 0c-1,0 -1,0 -1,1 -2,1 -20,11 -42,11l0 0 0 0 0 0 0 0 0 0c-1,0 -1,0 -1,0 -5,0 -10,0 -14,-1 -7,-1 -10,-1 -10,-1 -2,-3 -6,-4 -9,-2 -1,2 -2,3 -2,5l0 0c0,0 0,3 0,5l0 0c0,4 0,14 18,25l0 0c2,2 5,3 8,5 -10,5 -21,6 -23,6l0 0 0 0 0 0c-3,0 -6,3 -5,7 0,1 0,2 1,3 1,1 2,3 5,6l0 0c0,0 0,0 1,0 3,4 11,13 35,17l0 0c12,2 23,1 32,-1 10,-2 17,-5 23,-8 0,0 0,0 0,0 6,-3 13,-7 19,-10 1,9 3,16 4,23 1,7 2,13 3,15l0 0c1,1 1,2 1,3 3,3 7,5 11,5 4,0 8,-1 11,-2 5,-2 10,-4 14,-7l0 0c3,-2 8,-4 14,-6 6,-2 13,-4 18,-6 1,17 2,44 23,55 1,1 2,1 3,1 3,1 7,2 12,2 5,0 11,0 18,-2l0 0 0 0c35,-10 63,-17 88,-22 4,2 8,3 13,5 6,3 14,6 20,11 2,1 2,1 2,1 3,2 6,4 8,5 3,2 5,4 8,5l6 2 0 0c1,0 3,0 4,0l6 -2c2,-1 5,-3 8,-5 2,-1 5,-3 8,-5 0,0 1,0 2,-1 0,-1 2,-1 2,-1 6,-4 12,-7 18,-10 5,-2 10,-4 14,-5 25,4 53,12 89,22 0,0 0,0 0,0 8,2 14,2 18,2 30,0 37,-32 38,-58 5,2 12,4 18,6 6,2 11,4 14,6l0 0 0 0c4,3 9,5 14,7 3,1 7,2 11,2 4,0 8,-2 10,-5 1,-1 1,-2 2,-3 0,0 0,0 0,0 1,-3 2,-8 3,-15 1,-7 3,-14 4,-23 6,3 13,7 19,10l0 0 0 0c6,3 13,6 23,8 9,2 20,3 32,1l1 0c23,-4 31,-13 34,-17 1,0 1,0 1,-1l0 1c4,-4 5,-7 5,-7 2,-2 2,-6 -1,-8 -1,0 -2,-1 -3,-1l0 0 0 0 0 0c-3,0 -13,-2 -23,-6 3,-2 6,-3 8,-5l0 0c18,-11 18,-21 18,-25l0 0 0 0c0,-1 0,-5 0,-5 0,-3 -3,-6 -6,-6 -1,0 -2,0 -2,1 -2,0 -7,2 -13,3 -4,1 -9,1 -14,1 0,0 0,0 -1,0l0 0 0 0 0 0c-22,0 -40,-10 -42,-11l0 -1 0 0c0,0 0,0 -1,0l0 0 -1 0c-17,-10 -32,-16 -44,-19 -1,0 -1,0 -2,0 5,-14 7,-27 8,-40zm-534 -121c1,-6 2,-12 3,-17 -1,0 -1,1 -2,2 -4,2 -8,6 -11,10 4,1 7,3 10,5zm-40 -15c-3,-6 -5,-14 -6,-20 -2,1 -5,2 -8,4 -4,2 -8,4 -12,8 9,3 19,6 26,8zm606 -346c7,3 12,6 16,9 -2,4 -6,8 -10,12 -1,1 -3,3 -4,4 1,-2 1,-6 1,-10 0,-5 -1,-11 -3,-15l0 0zm-619 0c-6,3 -12,6 -15,9 2,4 5,8 9,12 2,1 3,3 5,4 -1,-2 -1,-6 -1,-10 0,-5 0,-11 2,-15l0 0zm-71 554c0,0 0,-1 0,0l0 0z"/>
   <path class="fil2" d="M542 487c1,0 2,1 2,2 1,0 1,0 0,1 0,1 -1,1 -2,2 0,0 0,0 0,0 -1,0 -2,1 -3,1 -3,0 -4,0 -7,-1 0,0 0,0 0,-1 -1,0 -1,0 0,-1 0,0 1,-1 3,-2 0,-1 1,-1 2,-1 0,0 1,0 1,0 2,-1 2,0 4,0zm-229 76c8,-5 14,-12 17,-21l0 0c2,-5 3,-11 1,-17 -3,-6 -2,-14 2,-21 6,-12 19,-18 29,-13 4,3 5,1 9,-2l8 -8c0,-1 0,-2 0,-2 1,-4 4,-6 7,-5 4,0 6,4 5,7 0,3 -4,6 -7,5l-1 0 -7 7c-5,5 -6,5 -5,12 1,5 0,12 -3,17 -3,8 -9,12 -16,14 -5,2 -10,5 -13,10l0 0c-5,8 -11,16 -17,23 -1,-1 -1,-1 -3,-2 0,0 0,0 0,-1l-6 -3zm-7 28l-2 4c-6,7 -11,17 -17,26l-1 -2 1 -4c1,-2 1,-3 1,-5 -1,-2 -1,-3 -3,-4l-5 -5 5 -12c3,-5 6,-9 10,-13l1 1 0 0 0 0 0 0c0,0 0,1 0,1l0 0 10 13zm-30 47c-11,18 -21,34 -21,34 -1,-4 -1,-9 1,-14l12 -29 6 6 2 3zm67 -109c6,3 15,-1 19,-10 5,-8 3,-18 -4,-21 -6,-4 -15,1 -20,9 -4,9 -2,18 5,22zm-89 -38c10,-5 23,1 30,13 3,7 4,14 2,21 -2,5 -2,11 0,17l0 0c4,9 11,17 20,22l11 6c6,5 11,11 15,19l8 19c-3,4 -7,7 -10,10 -6,-8 -11,-16 -16,-23l-14 -20c-1,0 -1,0 -1,-1 -7,-9 -14,-18 -21,-28l0 0c-3,-5 -8,-8 -14,-10 -6,-2 -12,-6 -16,-13 -6,-12 -3,-26 6,-32zm54 81c-1,0 -2,1 -2,2 0,2 1,3 2,3 2,0 3,-1 3,-3 0,-1 -1,-2 -3,-2zm46 66l9 19c1,5 2,10 0,14 0,0 -7,-12 -17,-27 3,-2 5,-4 8,-6zm-100 -119c4,9 13,13 20,9 7,-3 8,-13 4,-21 -5,-9 -14,-13 -20,-9 -7,3 -9,13 -4,21zm23 114l-59 -60c-2,-1 -2,-4 0,-6l8 -9c2,-1 5,-1 7,0l50 51c1,1 1,3 1,4l-3 7 22 23c-1,1 -2,2 -4,3l0 0c-2,2 -3,3 -4,5l-18 -18zm52 24c7,3 13,8 19,14 1,1 2,2 3,3 2,2 2,5 0,7 -2,2 -5,2 -7,0 -7,-8 -15,-14 -25,-17 3,-2 7,-5 10,-7zm-15 6c16,-12 34,-24 48,-38 15,-14 28,-29 42,-44 14,-15 -8,-33 -18,-19 -12,14 -27,32 -40,46 -15,15 -30,29 -44,41 -11,8 1,23 12,14zm-7 -5l0 0 0 0 0 0 0 0 0 0 0 0 0 0 0 0 0 0 0 0 0 0 0 0 0 0 0 0 0 0 0 0 0 0 0 0 0 0 0 0 0 0 0 0 0 0 0 0 0 0 0 0 0 0 0 0 0 0 0 0 0 0 0 0 0 0 0 0 0 0 0 0 1 0 0 0 0 0 0 0 0 0 0 0 0 0 0 0 0 0 0 0 0 0 0 0 0 0 0 0 0 0 0 0 0 0 0 0 0 0 0 0 0 0 0 0 0 0 0 0 0 0 0 0 0 0 0 0 0 0 0 0 0 0 0 0 0 0 0 0 0 0 0 0 0 0 0 0 0 0 0 0 0 0 0 0 0 0 0 0 0 0 0 0 0 0 0 0 0 0 0 0c1,1 3,0 3,0 2,-2 2,-4 0,-5 -1,-1 -3,-1 -4,0 -1,1 -1,2 -1,3l0 0 0 0 0 0 0 0 0 0 0 0 0 0 0 0 0 0 0 0 0 0 0 0 0 0 0 0 0 0 0 0 0 0 0 0 0 0 0 0 0 0 0 0 0 0 0 0 0 0 0 0 0 0 0 0 0 0 0 1 0 0 0 0 0 0 0 0 0 0 0 0 0 0 0 0 0 0 0 0 0 0 0 0 0 0 0 0 0 0 0 0 0 0 0 0 0 0 0 0 0 0 0 0 0 0 0 0 0 0 0 0 0 0 0 0 0 0 1 0 0 0 0 0 0 0 0 0 0 0 0 0 0 0 0 0 0 0 0 0 0 0 0 0 0 0 0 0 0 0 0 0 0 0 0 0 0 0 0 0 0 0 0 0 0 0 0 0 0 0 0 0 0 1zm87 -90l0 0 0 0 0 0 0 0 0 0 0 0 0 0 0 0 0 0 0 0 0 0 0 0 0 0 0 0 0 0 0 0 0 0 0 0 0 0 0 0 0 0 0 0 0 0 0 0 0 0 0 0 0 0 0 0 0 0 1 0 0 0 0 0 0 0 0 0 0 0 0 0 0 0 0 0 0 0 0 0 0 0 0 0 0 0 0 0 0 0 0 0 0 0 0 0 0 0 0 0 0 0 0 0 0 0 0 0 0 0 0 0 1 0 0 0 0 0 0 0 0 0 0 0 0 0 0 0 0 0 0 0 0 0 0 0 0 0 0 0 0 0 0 0 0 0 0 0 0 0 0 0 0 0 0 0 0 0 0 0 0 0 0 0 0 0 1 0 0 0 0 0 0 0 0 0 0 0 0 0 0 0 0 0 0 0 0 0 0 0 0 0 0 0 0 0 0 0 0 0 0 0 0 0 0 0 0 0 0 0 0 0 0 0 0 0 0 0 0 0 0 0 0 0 0 0 1 0 0 0 0 0 0 0 0 0 0 0 0 0 0 0 0 0 0 0 0 1 0 0 0 0 0 0 0 0 0 0 0 0 0 0 0 0 0 0 0 0 0 0 0 0 0 0 0 0 0 0 0 0 0 0 0 0 0 0 0 0 0 0 0 0 0 0 0 0 0 0 0 0 0 0 0 0 0 0 0 0 0 0 0 0 0 0 0 0 0 0 0 0 0 0 0 0 0 0 0 0 0 0 0 0 0 0 0 0 0 0 0 0 0 0 0 0 0 0 0 0 0 0 0 1 0 0 0 0 0 0 0 0 0 0 1 0 0 0 0 0 0 0 0 0 0 0 0 0 0 0 0 0 0 0 0 0 0 0 0 0 0 0 0 0 0 0 0 0 0 0 0 0 0 0 0 0 0 0 0 0 0 0 0 0 0 0 0 0 0 0 0 0 0 0 0 0 0 0 0 0 0 0c0,1 -1,2 -1,3 -1,1 -3,1 -5,0 -1,-1 -1,-3 0,-4l1 -1zm192 -154c-3,1 -6,1 -9,1 -17,2 -66,3 -80,-1 -5,-2 7,-4 8,-5 17,-4 70,-4 81,3 1,1 1,1 0,2zm-33 7c-6,0 -13,0 -19,0 -6,0 -12,0 -14,0 -2,0 -4,0 -6,0 -3,0 -3,0 -6,-1 -3,0 -7,0 -11,-1 -4,0 -8,-1 -8,-6 1,-4 2,-14 2,-16 0,-6 1,-13 1,-19 -10,-3 -21,-6 -31,-9 -2,-1 -5,-2 -8,-2 -3,-1 -3,-2 -3,-4 0,-1 0,-2 3,-4 5,-2 13,-5 15,-6 2,-1 4,-2 5,-3 8,-3 15,-7 23,-11 11,-5 23,-10 34,-15 14,-7 9,-7 23,0 2,1 4,1 6,2 17,8 34,16 51,24 2,1 3,2 5,3 3,1 9,4 13,6 3,1 4,1 4,4 0,4 0,3 -4,4 -13,4 -26,8 -40,12 2,12 3,23 5,35 0,2 0,2 -2,3 -2,1 -4,2 -6,2 -3,1 -7,1 -11,1 -4,1 -7,1 -11,1 -2,0 -6,0 -10,0zm33 -48c-1,-5 -2,-6 -7,-7 -4,-1 -8,-2 -13,-2 -16,-2 -37,-2 -54,0 -4,1 -8,1 -12,2 -6,2 -5,3 -6,7 -1,1 0,1 -1,0 -1,-5 0,-8 4,-10 10,-3 32,-4 42,-4 10,0 20,0 30,2 4,0 9,1 13,2 5,2 5,3 5,9 0,1 0,3 -1,1zm-370 415c10,-2 9,-21 8,-29 0,-10 -3,-49 3,-54 4,-3 13,-7 23,-8 9,-2 19,-2 26,-1l1 0c7,2 12,3 15,3 2,0 2,1 2,1l0 0c0,-2 0,-4 -4,-5 -5,-2 -14,-4 -33,-3l0 0c-15,0 -31,3 -46,7 -21,5 -40,13 -48,17l0 0c-8,4 -12,3 -16,2 1,9 4,26 6,43 3,20 7,40 8,44 1,0 1,0 1,1 0,0 0,0 0,0 1,1 2,2 4,2 2,0 4,-1 7,-2 4,-1 9,-3 12,-6 8,-5 21,-9 31,-12zm-67 -89c6,-3 14,-4 21,-5l0 0c6,0 8,-2 9,-3 -3,-2 -10,-1 -21,1 -11,3 -26,9 -42,18l0 0 0 0 -2 1c-2,1 -22,12 -46,12l0 0 0 0 0 0 0 0 0 0 -1 0c0,0 0,0 0,0 -5,0 -10,0 -15,-1 -4,-1 -8,-2 -11,-3l0 1 0 0 0 0 0 1 0 0c0,2 0,8 13,17l0 0 0 0c3,2 6,3 9,5 3,1 5,2 8,3l0 0c1,0 1,0 2,1 1,1 1,3 -1,4 0,0 -1,1 -2,2 0,0 -1,1 -2,1 -9,7 -20,9 -27,10 1,1 1,1 2,2l0 0 0 0c0,0 0,1 0,1 3,3 9,11 30,14l0 0c11,2 21,1 29,-1 9,-2 16,-5 21,-7l0 0c7,-4 13,-7 19,-10 5,-3 3,-32 0,-44 0,-2 -1,-4 -1,-5 0,-3 0,-4 0,-5 0,0 0,0 0,0l0 0c0,-5 3,-8 8,-10zm427 144c7,2 12,2 16,2 7,0 6,0 11,-2 16,-9 17,-34 18,-48 0,-3 0,-5 0,-7l0 0 0 0c1,-7 2,-26 2,-43 1,-9 1,-16 1,-21 -5,4 -14,9 -30,4l0 0c-35,-10 -65,-18 -92,-23 -27,-5 -52,-8 -76,-8 -24,0 -49,3 -76,8 -27,5 -57,13 -92,23l0 0c-16,5 -25,0 -30,-4 0,5 0,12 1,21 0,17 1,36 2,43 0,0 0,0 0,0 0,2 0,4 0,7 1,14 2,39 18,48 1,0 1,1 2,1l0 0c0,0 2,1 9,1 4,0 9,0 16,-2 67,-19 108,-29 150,-29 41,0 83,10 150,29zm-298 -73c2,-3 3,-6 4,-9 1,-2 1,-4 2,-6 1,-1 1,-2 1,-3 2,-4 3,-8 5,-12 0,0 0,0 0,-1 0,0 0,0 0,0 0,0 0,0 0,0 0,0 1,0 1,0 0,0 0,0 0,0 1,2 2,4 3,6 1,2 2,3 2,4 2,3 3,5 5,8 0,1 1,2 1,2 1,2 2,3 2,3 1,1 1,2 2,3 0,0 0,1 1,1 0,1 1,1 1,1 0,0 0,0 1,0 -1,1 -1,1 -1,1 -1,0 -2,0 -2,1 -1,0 -2,0 -2,0 -1,1 -2,1 -2,1 -1,0 -2,1 -3,1 0,0 0,0 0,0 0,0 0,0 0,0 0,-1 0,-1 0,-2 0,0 0,0 0,0 0,0 0,-1 0,-1 0,-1 -1,-2 -1,-2 0,-1 0,-2 -1,-2 0,-1 0,-1 0,-1 -1,-1 -1,-1 -1,-1 -2,1 -4,1 -6,2 -2,1 -4,2 -6,3 0,0 0,0 0,0 0,2 -1,3 -1,4 0,1 -1,2 -1,3 0,1 0,2 0,3 0,0 0,1 0,1 0,0 0,0 0,0 0,1 0,1 -1,1 0,0 0,0 -1,0 -1,1 -2,1 -3,2 -1,0 -1,0 -2,1 -1,0 -1,0 -2,1 0,0 -1,0 -1,0 0,0 0,0 1,-1 0,0 0,-1 1,-2 0,-1 1,-2 1,-2 1,-1 1,-3 2,-4 0,-1 1,-3 1,-4zm12 -20c0,2 -1,4 -2,6 0,1 -1,3 -2,5 0,0 1,0 1,0 2,-1 5,-2 7,-3 -1,-3 -2,-5 -3,-7 -1,0 -1,0 -1,-1zm34 2c0,1 1,2 1,3 0,1 0,2 0,2 0,1 0,2 0,2 0,1 0,2 1,3 0,0 0,0 0,0 0,0 0,0 -1,0 0,0 -1,0 -2,1 0,0 -1,0 -1,0 -2,1 -3,1 -4,1 0,0 0,0 0,0 0,0 -1,0 -1,1 0,-1 0,-1 0,-1 1,-1 1,-2 1,-2 0,-1 0,-2 0,-3 0,0 0,-1 1,-2 0,-1 0,-2 0,-3 0,-5 0,-10 0,-14 0,-1 0,-2 0,-3 -1,-1 -1,-2 -1,-3 0,0 0,-1 0,-2 0,0 0,-1 -1,-2 0,0 0,0 0,0 0,0 1,0 1,0 0,0 1,-1 2,-1 0,0 1,0 1,0 0,0 0,0 0,0 1,0 1,0 1,-1 1,0 2,0 3,-1 0,0 1,0 1,0 0,1 0,1 0,1 -1,1 -1,1 -1,2 0,1 0,2 0,3 0,0 0,1 0,2 0,1 -1,2 -1,3 0,1 0,3 0,4 1,0 1,-1 1,-1 1,-2 3,-4 4,-6 1,-1 2,-2 2,-3 1,-1 2,-2 2,-3 0,-1 1,-2 1,-2 0,-1 1,-1 1,-2 0,0 0,0 0,0 0,0 0,0 0,0 1,0 2,-1 2,-1 1,0 2,0 2,0 0,0 0,0 0,0 1,0 1,0 2,-1 1,0 2,0 3,0 0,0 1,0 1,-1 0,1 -1,1 -1,1 -1,1 -1,1 -2,2 0,0 -1,1 -1,2 -1,0 -2,1 -2,2 -1,1 -2,3 -3,4 -1,1 -2,3 -3,4 -1,2 -2,3 -3,5 1,1 2,2 3,3 2,1 3,2 4,3 2,2 3,3 4,4 1,1 1,2 2,2 1,1 1,1 2,2 0,0 0,0 0,0 1,0 1,0 2,1 -1,0 -1,0 -2,0 0,0 -1,0 -2,0 -1,1 -1,1 -2,1 -1,0 -2,0 -2,0 -1,1 -2,1 -2,1 -1,0 -1,0 -1,0 0,0 0,0 0,0 0,-1 0,-1 0,-1 0,-1 0,-1 -1,-1 0,-1 0,-1 0,-2 -1,0 -1,0 -2,-1 -1,-1 -2,-3 -4,-4 -1,-2 -3,-3 -5,-5 0,3 0,5 0,7zm34 -8c1,-4 3,-9 5,-13 1,-3 2,-5 3,-7 1,-2 2,-5 3,-7 0,0 0,0 0,0 0,0 0,0 1,0 0,0 0,0 0,0 0,0 0,0 0,0 0,0 0,0 0,0 0,2 1,3 2,4 1,2 2,5 4,8 1,2 2,4 3,6 1,2 2,4 2,6 1,1 2,2 2,3 0,0 0,0 0,0 1,1 1,2 2,3 0,0 1,1 1,1 0,1 1,1 1,2 0,0 1,0 1,0 -1,0 -1,0 -1,0 -1,0 -2,0 -2,1 -1,0 -2,0 -2,0 -2,0 -3,0 -4,0 -1,0 -1,0 -1,0 0,0 0,0 0,0 0,-1 0,-1 0,-1 0,-1 0,-1 0,-2 0,-1 0,-2 -1,-2 0,-1 0,-2 -1,-3 0,0 0,-1 -1,-2 -2,0 -4,1 -6,1 -2,0 -4,1 -6,1 0,0 0,0 0,0 0,0 0,0 0,0 0,1 -1,2 -1,3 0,1 -1,2 -1,3 0,1 0,2 0,3 0,1 0,1 0,1 0,1 0,1 0,1 0,0 0,0 0,0 -1,0 -2,0 -3,0 -1,0 -1,1 -2,1 -1,0 -3,0 -4,0 0,1 -1,1 -1,1 0,-1 1,-1 1,-1 0,-1 1,-1 1,-2 0,0 0,0 0,0 1,-1 1,-1 1,-2 1,-1 1,-2 2,-3 0,0 0,0 0,0 0,-1 1,-3 2,-4zm11 -16c-1,3 -2,6 -3,9 0,0 0,0 -1,1 2,-1 3,-1 4,-1 2,0 3,0 4,-1 -1,-2 -2,-5 -4,-8zm33 -3c0,-1 0,-2 0,-3 0,-1 0,-2 0,-2 0,-1 0,-2 0,-2 -1,-1 -1,-2 -1,-3 0,0 0,0 0,0 0,0 0,0 0,0 2,0 4,-1 6,-1 0,0 0,0 0,0 2,0 5,0 7,0 3,0 5,0 7,0 1,0 1,0 1,0 0,0 0,0 0,0 0,1 -1,2 -1,3 0,0 0,1 0,2 0,1 0,1 0,2 0,1 0,2 0,3 0,7 0,13 0,20 0,0 0,0 1,0 0,0 1,0 2,0 0,0 0,-1 0,-1 0,1 0,1 0,1 0,0 0,1 0,1 0,1 0,1 -1,2 0,0 0,0 0,1 0,0 0,0 0,0 0,0 0,0 0,0 0,1 0,2 0,2 0,1 0,2 0,2 0,1 0,2 1,2 0,1 0,1 0,2 0,0 0,0 0,0 0,0 0,0 0,0 -3,0 -5,0 -7,0 0,0 0,0 0,0 0,0 0,0 0,0 0,-1 0,-1 0,-2 0,0 0,-1 0,-2 0,0 0,-1 0,-2 0,0 0,-1 0,-1 -2,0 -5,0 -8,0 -3,0 -6,0 -9,0 0,1 0,1 0,2 0,1 0,1 0,2 0,1 1,1 1,2 0,0 0,1 0,1 0,0 0,1 0,1 0,0 0,0 0,0 -1,0 -1,0 -1,0 -2,0 -4,0 -6,0 0,0 0,0 0,0 0,0 0,0 0,0 0,-1 0,-1 0,-2 0,0 0,-1 0,-2 0,0 0,-1 0,-2 0,0 0,-1 0,-1 0,0 0,0 0,0 0,-1 0,-1 0,-1 0,-1 0,-1 0,-1 0,-1 0,-1 0,-2 0,0 0,-1 0,-1 0,0 0,0 0,0 0,0 0,0 0,0 1,0 1,0 2,0 0,-1 0,-1 1,-1 0,0 1,-1 1,-3 1,-1 1,-2 1,-4 1,-2 1,-4 2,-6 0,-2 0,-4 1,-6zm13 -6c-1,0 -1,0 -2,0 -2,0 -3,0 -5,0 0,3 -1,6 -1,9 0,4 -1,7 -2,9 0,2 0,3 -1,4 0,1 -1,2 -1,3 3,0 6,0 9,0 1,0 2,0 3,0 0,-5 0,-9 0,-13 0,-4 0,-8 0,-12zm19 29c0,-1 0,-1 1,-2 0,-1 0,-1 0,-2 0,-1 0,-2 0,-3 0,0 0,-1 0,-2 0,-5 0,-10 0,-15 0,-1 0,-2 0,-3 0,0 0,-1 0,-2 0,-1 0,-1 0,-2 -1,-1 -1,-2 -1,-2 0,-1 0,-1 0,-1 0,0 0,0 0,0 1,0 1,0 1,0 2,0 4,0 6,0 2,0 5,1 7,1 2,0 4,0 5,0 0,0 0,0 1,0 0,0 -1,0 -1,0 0,1 0,2 -1,3 0,0 0,0 0,0 0,1 0,1 -1,1 0,1 0,1 0,2 0,0 0,0 0,0 0,0 -1,0 -1,0 0,0 -1,-1 -2,-1 0,0 -1,0 -1,-1 -1,0 -2,0 -2,0 -1,0 -2,0 -3,0 0,0 0,0 0,0 0,0 -1,0 -1,0 0,3 0,7 0,10 2,0 4,0 5,0 2,0 4,0 6,1 0,0 0,0 1,0 -1,0 -1,0 -1,0 0,1 -1,1 -1,2 0,0 0,0 0,0 0,0 0,1 0,1 0,0 0,0 0,0 -1,0 -1,1 -1,1 0,0 0,0 0,0 0,1 -1,1 -1,1 0,1 0,1 0,1 0,0 0,0 0,0 -1,-1 -1,-1 -2,-1 -1,-1 -1,-1 -2,-1 0,0 -1,0 -2,0 0,0 -1,-1 -2,-1 0,4 0,8 0,11 1,0 3,0 4,0 1,0 2,0 3,0 2,0 3,0 4,-1 1,0 2,0 3,-1 0,0 1,0 1,0 0,0 0,0 0,1 -1,0 -1,1 -1,1 0,1 -1,1 -1,2 0,0 0,0 0,0 0,1 0,1 -1,2 0,0 0,1 0,1 0,0 0,0 0,0 0,0 -1,0 -1,0 -2,0 -3,0 -5,0 -2,0 -4,0 -6,0 0,0 0,0 0,0 -1,0 -2,0 -3,0 -1,0 -3,0 -4,0 0,0 0,0 0,0 0,0 0,-1 0,-1zm38 -7c0,1 0,2 0,3 0,1 0,2 0,2 0,1 1,2 1,3 0,0 0,1 0,2 0,0 0,0 0,0 0,0 0,0 0,0 -1,0 -1,0 -2,0 -1,0 -1,0 -2,0 0,0 0,0 0,0 -1,0 -2,0 -4,0 0,0 0,-1 0,-1 0,0 0,0 0,0 0,-1 0,-1 1,-2 0,-1 0,-2 0,-2 0,-1 0,-2 0,-3 0,-1 0,-1 0,-3 0,-6 0,-13 0,-19 -1,-1 -1,-2 -2,-3 0,-1 -1,-1 -1,-2 0,0 -1,0 -1,0 1,0 1,0 1,0 0,0 0,0 0,0 0,0 0,0 0,0 2,0 3,0 4,0 0,0 0,0 1,0 1,0 2,0 3,1 0,0 0,0 0,0 0,0 0,0 0,0 0,0 0,0 1,1 0,0 0,0 0,0 0,0 0,0 0,0 0,1 0,1 0,1 0,0 0,0 0,0 0,0 1,1 1,1 0,0 0,0 0,0 3,4 6,9 10,14 0,0 0,0 0,0 1,0 1,-1 2,-1 2,-3 5,-6 8,-9 0,0 0,0 0,0 0,0 0,-1 0,-1 0,0 0,0 0,0 1,0 1,-1 1,-1 0,0 0,-1 0,-1 0,0 0,0 0,0 0,-1 0,-1 0,-1 1,0 1,0 1,0 0,0 1,0 2,1 0,0 1,0 2,0 0,0 0,0 0,0 0,0 1,0 1,0 0,0 0,0 0,0 1,0 2,1 2,1 0,0 1,0 1,0 0,0 0,0 -1,0 0,1 -1,2 -1,2 0,1 -1,2 -1,2 0,1 0,2 0,2 0,1 0,2 0,3 0,5 0,10 0,15 0,1 0,2 0,2 0,1 0,2 0,3 0,1 0,1 0,2 0,1 1,2 1,2 0,1 0,1 0,1 0,0 0,0 -1,0 0,0 0,0 0,0 -1,0 -2,-1 -3,-1 0,0 0,0 0,0 -2,0 -3,0 -4,-1 0,0 0,0 0,0 0,0 0,0 0,0 0,-1 0,-1 0,-2 0,-1 0,-2 1,-2 0,-1 0,-2 0,-3 0,-1 0,-2 0,-3 0,-4 0,-9 0,-13 -3,3 -6,7 -9,10 0,0 0,0 0,0 -1,1 -1,1 -2,2 0,0 0,0 0,0 0,0 0,0 0,0 -3,-4 -6,-8 -9,-12 -1,-1 -1,-2 -2,-3 0,5 0,9 0,13zm63 1c-2,2 -4,5 -7,7 -2,3 -5,5 -8,8 0,0 1,1 1,1 0,1 0,2 0,2 0,1 0,1 0,1 0,0 0,0 0,0 -1,0 -2,-1 -2,-1 0,0 0,0 0,0 -1,0 -1,0 -2,0 0,0 0,0 0,0 -1,0 -2,-1 -3,-1 0,0 -1,0 -1,0 0,0 0,0 0,0 0,0 0,-1 0,-1 0,0 0,-1 0,-2 0,0 0,0 0,0 1,0 1,-1 1,-2 0,-1 0,-1 0,-2 0,-1 0,-2 0,-3 0,-5 0,-10 0,-14 0,-1 0,-2 0,-3 0,-1 0,-2 0,-3 0,0 0,-1 -1,-2 0,-1 0,-2 0,-2 0,-1 0,-1 0,-1 0,0 0,0 0,0 1,1 3,1 4,1 0,0 0,0 0,0 1,0 1,1 2,1 1,0 1,0 2,0 0,0 0,0 0,0 0,0 0,1 0,1 0,0 0,1 0,2 -1,0 -1,1 -1,2 0,1 0,1 0,2 0,1 0,2 0,3 0,5 0,9 0,13 5,-5 10,-10 15,-15 0,0 0,-1 0,-1 0,0 0,0 0,0 -1,-1 -1,-2 -1,-2 0,0 0,-1 0,-1 0,0 0,0 1,0 1,1 2,1 3,2 0,0 0,0 0,0 1,0 2,0 2,0 1,1 1,1 2,1 0,0 0,0 0,0 0,0 0,0 0,1 0,0 0,1 0,2 0,0 0,1 -1,2 0,0 0,1 0,2 0,1 0,2 0,3 0,5 0,9 0,14 0,1 0,2 0,3 0,1 0,2 0,2 1,1 1,2 1,3 0,1 0,1 0,2 0,0 0,1 1,1 -1,0 -1,0 -1,0 0,-1 -1,-1 -1,-1 -1,0 -2,0 -3,-1 0,0 0,0 0,0 -1,0 -2,-1 -3,-1 -1,0 -1,0 -1,0 0,0 0,0 0,-1 0,0 1,-1 1,-2 0,0 0,-1 0,-2 0,0 0,0 0,0 0,0 0,-1 0,-2 0,-1 0,-2 0,-3 0,-4 0,-9 0,-13zm42 16c0,5 0,10 0,14 0,1 0,2 0,3 0,0 0,0 0,0 0,1 0,2 0,3 0,1 1,1 1,2 0,1 0,2 0,3 0,0 0,0 0,0 0,0 0,0 0,0 -1,-1 -3,-1 -4,-2 -1,0 -1,-1 -2,-1 0,0 0,0 0,0 0,0 -1,0 -2,-1 0,0 0,0 0,0 0,0 0,0 0,0 0,-1 0,-2 1,-2 0,-1 0,-2 0,-2 0,-1 0,-2 0,-3 0,0 0,-1 0,-2 0,-2 0,-3 0,-5 0,0 0,0 0,0 0,0 0,0 0,0 -1,1 -2,2 -3,3 -1,1 -2,2 -3,2 -1,1 -2,2 -3,3 -1,0 -2,1 -3,1 0,0 0,0 0,0 0,0 0,0 0,0 -2,-1 -3,-1 -5,-2 0,0 -1,0 -1,0 -1,-1 -1,-1 -1,-1 0,0 0,0 0,0 2,-1 3,-2 4,-2 1,-1 1,-2 2,-2 1,-1 1,-1 2,-2 1,-1 1,-1 2,-2 0,0 0,0 0,0 0,0 1,-1 1,-1 0,0 0,0 0,0 1,-1 1,-1 1,-1 0,0 -1,-1 -1,-1 0,-1 -1,-1 -1,-1 -2,-2 -3,-3 -3,-5 -1,-1 -1,-3 -1,-4 0,-2 0,-3 1,-5 0,-1 1,-1 2,-2 2,0 3,0 5,0 1,1 3,1 6,2 0,1 1,1 2,2 0,0 0,0 0,0 1,0 2,0 2,1 0,0 0,0 0,0 1,0 1,0 2,0 0,0 0,1 0,1 0,0 0,0 0,0 0,1 0,1 0,2 0,1 -1,1 -1,2 0,1 0,1 0,2 0,1 0,2 0,3zm-8 2c0,1 1,2 2,2 0,-4 0,-9 0,-13 -1,0 -2,-1 -3,-1 0,0 -1,0 -2,1 -1,0 -1,0 -1,1 -1,0 -1,1 -1,2 0,1 0,2 1,3 0,1 1,2 1,3 1,1 2,2 3,2zm-233 55c-3,1 -5,1 -7,0 -2,0 -4,-1 -6,-2 -1,-1 -2,-3 -3,-5 -1,-1 -1,-4 -1,-6 0,-3 0,-5 1,-8 1,-2 2,-4 4,-6 1,-3 3,-4 6,-6 2,-1 4,-2 7,-3 2,-1 4,-1 6,0 2,0 4,1 6,2 2,2 3,3 4,5 0,2 1,5 1,7 0,3 -1,5 -1,8 -1,2 -3,4 -4,6 -2,2 -4,4 -6,5 -2,1 -5,2 -7,3zm1 -5c1,-1 3,-1 4,-2 1,-1 2,-2 3,-3 0,0 0,0 0,0 1,-2 2,-3 3,-5 0,-1 0,-3 0,-5 0,-2 0,-3 0,-5 -1,-1 -2,-3 -3,-4 0,0 0,0 0,0 -1,-1 -2,-2 -4,-2 -1,0 -3,0 -4,0 -2,1 -3,1 -5,2 -1,1 -2,2 -3,4 -1,1 -2,3 -2,4 -1,2 -1,3 -1,5 0,2 0,4 1,5 0,2 1,3 2,4 1,1 3,2 4,2 1,0 3,0 5,0zm28 -2c0,-1 0,-2 1,-2 0,-1 0,-2 0,-3 0,0 0,-1 0,-2 0,-1 0,-2 0,-3 0,-5 0,-10 0,-14 0,-1 0,-2 0,-3 0,-1 0,-2 0,-3 0,0 0,-1 0,-2 -1,0 -1,-1 -1,-2 0,0 0,0 0,0 0,0 0,0 0,0 1,0 2,0 2,-1 1,0 1,0 2,0 0,0 0,0 0,0 0,0 0,0 0,0 2,0 3,0 4,0 0,0 0,0 0,0 0,0 0,0 0,0 0,1 0,2 0,2 0,1 -1,2 -1,3 0,0 0,0 0,0 0,0 0,1 0,2 0,1 0,2 0,3 0,7 0,13 0,20 1,0 2,-1 3,-1 1,0 2,0 3,-1 1,0 3,0 4,-1 0,0 0,0 0,0 1,0 2,-1 3,-2 0,0 1,0 1,0 0,0 0,0 -1,1 0,1 0,2 -1,3 0,0 0,0 0,0 0,0 0,0 0,0 0,0 0,0 0,0 0,0 0,0 0,0 0,2 -1,3 -1,4 0,0 0,0 0,0 -1,0 -1,0 -1,0 -1,0 -3,0 -5,1 -2,0 -3,0 -5,0 0,0 0,0 0,0 -1,1 -2,1 -3,1 -1,0 -2,0 -4,0 0,0 0,0 0,0 0,0 0,0 0,0zm32 -13c0,-5 0,-10 0,-15 0,-1 0,-2 0,-3 0,0 0,-1 -1,-2 0,-1 0,-1 0,-2 0,-1 0,-2 0,-2 -1,0 -1,-1 -1,-1 1,0 1,0 1,0 0,0 1,0 2,0 0,0 1,0 2,0 0,0 0,0 0,0 0,0 1,0 2,0 3,0 6,0 8,1 3,0 5,1 7,3 1,2 3,3 4,6 1,2 1,4 1,7 0,2 0,5 -1,7 -1,2 -2,4 -4,5 -2,2 -4,3 -6,4 0,0 0,0 0,0 -2,1 -5,1 -8,1 -1,0 -1,0 -2,1 0,0 -1,0 -1,0 -1,0 -2,0 -2,0 -1,0 -1,0 -2,0 0,0 0,0 -1,0 0,0 1,0 1,-1 0,0 0,-1 0,-2 0,-1 0,-1 0,-2 1,-1 1,-2 1,-2 0,-1 0,-2 0,-3zm6 5c2,0 3,-1 5,-1 1,-1 3,-2 4,-3 1,-1 2,-2 3,-4 1,-1 1,-3 1,-5 0,-2 0,-3 -1,-5 -1,-2 -1,-3 -3,-4 -1,-2 -2,-2 -4,-3 -1,-1 -3,-1 -5,-1 0,0 0,0 0,0 0,5 0,9 0,13 0,4 0,9 0,13zm32 -6c0,-5 0,-10 0,-15 0,-1 0,-1 0,-2 0,-1 0,-2 -1,-3 0,-1 0,-1 0,-2 0,-1 0,-1 0,-2 0,0 -1,-1 -1,-1 1,0 1,0 1,0 1,0 2,0 4,0 0,0 0,0 0,0 1,0 1,0 2,0 1,1 1,1 1,1 2,0 4,0 5,0 1,1 3,1 4,2 1,1 2,2 2,3 0,0 0,0 0,0 1,2 1,3 1,4 0,2 0,3 -1,4 -1,1 -2,2 -3,3 0,0 0,0 -1,0 0,0 0,0 0,0 0,0 0,0 0,0 1,0 1,0 1,0 1,1 1,1 2,1 1,1 2,3 3,4 0,1 1,2 1,4 0,2 -1,3 -1,4 -1,1 -2,2 -3,3 -2,1 -3,1 -5,2 -2,0 -4,0 -6,0 0,0 0,0 0,0 0,0 -1,0 -1,0 -1,0 -1,0 -1,0 -2,0 -3,0 -4,0 0,0 0,0 -1,0 1,0 1,0 1,-1 0,0 0,-1 0,-2 0,0 0,0 0,0 0,-1 0,-1 0,-2 1,-1 1,-2 1,-2 0,0 0,0 0,0 0,-1 0,-2 0,-3zm6 -20c0,3 0,7 0,10 1,0 1,0 2,0 0,0 0,0 0,0 1,0 2,-1 2,-1 0,0 0,0 0,0 1,-1 1,-1 1,-2 1,-1 1,-1 1,-2 0,-1 0,-2 -1,-2 0,-1 0,-1 -1,-2 0,0 -1,-1 -2,-1 0,0 0,0 0,0 -1,0 -1,0 -2,0zm0 13c0,5 0,9 0,13 1,0 2,0 3,0 1,0 2,-1 2,-1 1,-1 1,-1 2,-2 0,-1 0,-2 0,-3 0,-1 0,-2 0,-2 0,0 0,0 0,0 -1,-1 -1,-2 -2,-3 -1,0 -1,-1 -2,-1 -1,0 -2,-1 -3,-1zm41 21c-3,0 -5,-1 -7,-2 -2,-1 -4,-3 -6,-4 -1,-2 -2,-4 -3,-7 -1,-2 -1,-4 -1,-7 0,-2 0,-5 1,-7 1,-2 2,-3 4,-5 2,-1 3,-2 6,-3 2,0 4,-1 7,0 2,0 4,1 6,2 3,1 4,3 6,5 2,2 3,4 4,7 0,2 1,4 1,7 0,2 -1,5 -1,7 -1,2 -3,3 -4,4 -2,2 -4,3 -6,3 0,0 0,0 0,0 -2,1 -5,1 -7,0zm1 -4c1,0 3,0 4,-1 1,0 2,-1 3,-2 0,0 0,0 0,0 1,0 2,-2 3,-3 0,-1 1,-3 1,-4 0,-2 -1,-4 -1,-6 -1,-2 -2,-4 -3,-5 -1,-2 -2,-3 -4,-4 -1,-1 -3,-1 -4,-2 -2,0 -3,0 -5,1 -1,0 -2,1 -3,2 -1,1 -2,2 -2,3 -1,2 -1,3 -1,5 0,2 0,4 1,6 0,1 1,3 2,4 1,2 3,3 4,4 2,1 3,1 5,2zm37 -4c-1,-2 -2,-4 -3,-6 -1,-1 -1,-3 -2,-4 -1,-1 -1,-3 -2,-4 -1,-2 -1,-3 -2,-4 0,0 -1,-1 -1,-2 0,0 0,0 0,0 -1,0 -1,-1 -1,-1 -1,0 -1,-1 -1,-1 0,0 1,0 1,0 0,0 0,0 0,0 2,1 3,1 4,1 0,0 0,0 0,0 1,1 1,1 2,1 1,0 2,0 2,0 0,1 1,1 1,1 0,0 0,0 0,0 0,0 0,0 0,1 0,0 0,0 0,1 0,0 0,0 0,1 0,0 0,1 0,1 1,2 3,5 4,7 0,1 1,2 1,3 0,0 0,0 0,0 2,-3 3,-5 5,-7 0,-1 0,-1 0,-1 0,0 0,0 0,0 0,-1 0,-1 1,-1 0,0 0,-1 0,-1 0,0 0,-1 0,-1 0,0 0,0 0,0 0,0 0,0 0,0 1,0 1,0 2,0 0,0 0,0 0,0 1,1 1,1 2,1 0,0 0,0 0,0 0,0 0,0 1,0 1,1 2,1 3,1 0,0 0,1 0,1 0,0 0,0 0,0 -1,0 -1,1 -2,1 0,0 -1,1 -1,1 0,0 0,0 0,0 -1,1 -1,2 -2,3 0,0 -1,1 -2,3 -1,1 -2,3 -3,4 0,0 0,0 0,0 0,1 -1,2 -1,3 0,2 0,3 0,5 0,1 0,2 0,3 0,1 0,2 0,3 0,0 0,1 0,2 0,1 1,1 1,2 0,0 0,1 0,1 0,0 0,0 -1,0 0,0 -1,-1 -1,-1 -1,0 -2,0 -2,0 0,0 0,0 0,0 -1,-1 -3,-1 -4,-1 0,-1 0,-1 0,-1 0,0 0,0 0,0 0,-1 0,-1 0,-2 0,-1 0,-1 1,-2 0,-1 0,-2 0,-2 0,-1 0,-2 0,-3 0,-2 0,-4 0,-6zm110 -13c10,3 29,8 37,13 3,3 8,5 12,6 2,1 5,2 7,2 2,0 3,-1 4,-2 0,0 0,0 0,0 0,-1 0,-1 1,-1 1,-4 5,-24 8,-44 2,-17 5,-34 6,-43 -4,1 -8,2 -16,-2l0 0c-8,-4 -27,-12 -48,-17 -15,-4 -31,-7 -46,-7l0 0c-19,-1 -28,1 -33,3 -4,1 -4,3 -4,5l0 0c0,0 0,-1 2,-1 3,0 8,-1 15,-3l1 0c7,-1 17,-1 26,1 17,3 22,4 27,18 3,9 -3,70 1,72zm52 -93c7,1 15,2 21,5 5,2 8,5 8,10l0 0c0,0 0,0 0,0 0,1 0,2 0,5 -1,10 -3,25 -4,33 -2,8 0,14 6,17 8,4 9,5 16,9l0 0c5,2 12,5 21,7 8,2 18,3 29,1l0 0c21,-3 27,-11 30,-14 0,0 0,-1 0,-1l0 0 0 0c1,-1 1,-1 2,-2 -7,-1 -18,-3 -27,-10 -1,0 -2,-1 -2,-1 -1,-1 -2,-2 -2,-2 -2,-1 -2,-3 -1,-4 1,-1 1,-1 2,-1l0 0c3,-1 5,-2 8,-3 3,-2 6,-3 9,-5l0 0 0 0c13,-9 13,-15 13,-17l0 0 0 -1 0 0 0 0 0 0c-3,0 -6,1 -11,2 -5,1 -10,1 -15,1 0,0 0,0 -1,0l0 0 0 0 0 0 0 0 0 0 0 0c-24,0 -44,-11 -46,-12l-2 -1 0 0 0 0c-16,-9 -31,-15 -42,-18 -11,-2 -18,-3 -21,-1 0,1 3,3 9,3l0 0zm-481 -134c-8,-3 -16,-11 -22,-16 -16,-16 -28,-20 -49,-27 -5,-1 -11,-3 -16,-4l-43 -15c-10,-4 -17,-8 -23,-15 -12,-12 -17,-36 -5,-51 -8,6 -15,14 -17,27 -1,12 2,26 9,34 6,7 11,11 18,16 -9,-2 -10,-3 -18,-10 -1,42 22,47 36,77 7,15 7,17 5,28 44,1 23,-37 27,-42 5,1 3,4 7,8 6,6 18,13 25,21 15,17 6,26 4,45 7,-4 23,-23 25,-34 2,-9 -1,-16 -4,-23 -12,-21 -13,-9 -13,-18 11,1 15,5 29,4 7,0 19,-2 25,-5zm-111 -63c6,-3 6,-7 12,-10 3,-2 26,-14 30,-14 0,11 -5,13 1,26 2,6 8,12 15,14 -2,-22 2,-38 18,-45 -1,-4 -14,-29 6,-39 3,1 4,3 5,5 0,-16 -3,-31 -6,-39 -8,-4 -23,-12 -27,-17 -16,-13 -17,-23 -23,-34 -5,3 -7,11 -8,19 -1,11 5,18 4,23 -3,0 -5,-3 -8,-5 -11,-7 -20,-10 -34,-8 -15,3 -30,11 -35,22 18,-1 10,3 34,10 2,1 4,1 6,2 4,1 4,1 5,2 -1,3 0,2 -3,4 -18,7 -29,6 -36,24 -5,12 -10,29 10,44l7 -8c7,-7 27,-22 38,-22 -5,7 -8,5 -13,17 -4,10 -3,20 2,29zm559 63c8,-3 16,-11 22,-16 16,-16 28,-20 49,-27 5,-1 11,-3 16,-4l43 -15c10,-4 17,-8 23,-15 12,-12 17,-36 5,-51 8,6 15,14 17,27 1,12 -2,26 -9,34 -6,7 -11,11 -18,16 9,-2 10,-3 18,-10 1,42 -22,47 -36,77 -7,15 -7,17 -5,28 -44,1 -23,-37 -27,-42 -5,1 -3,4 -7,8 -6,6 -18,13 -25,21 -15,17 -6,26 -4,45 -7,-4 -23,-23 -25,-34 -2,-9 1,-16 4,-23 12,-21 13,-9 13,-18 -11,1 -15,5 -29,4 -7,0 -19,-2 -25,-5zm111 -63c-5,-3 -5,-7 -12,-10 -2,-2 -25,-14 -30,-14 1,11 6,13 0,26 -3,6 -9,12 -15,14 2,-22 -2,-38 -19,-45 1,-4 15,-29 -5,-39 -3,1 -4,3 -6,5 0,-16 4,-31 7,-39 8,-4 22,-12 27,-17 16,-13 17,-23 23,-34 4,3 7,11 8,19 0,11 -5,18 -5,23 4,0 6,-3 9,-5 11,-7 20,-10 34,-8 15,3 30,11 34,22 -18,-1 -9,3 -33,10 -3,1 -4,1 -6,2 -4,1 -4,1 -5,2 1,3 0,2 3,4 18,7 28,6 36,24 5,12 9,29 -10,44l-7 -8c-7,-7 -28,-22 -38,-22 4,7 7,5 13,17 4,10 3,20 -3,29zm-585 -348c-3,19 4,37 17,42 -2,8 -5,11 -5,21 0,8 4,15 9,17 5,-4 8,-13 22,-16 42,-8 77,-14 116,-32 5,-2 9,-4 12,-6l0 49c-15,10 -47,20 -50,21 -4,1 -8,1 -13,1 -21,1 -49,-8 -58,-15 -2,-2 -4,-4 -7,-5 -5,2 -10,8 -12,14 -2,9 2,13 4,20 -16,3 -29,12 -37,20 -18,18 -18,29 -21,36 -5,-3 -7,-12 -7,-19 -1,-12 3,-16 3,-24 -3,1 -7,5 -12,8 -5,3 -8,4 -14,6 -11,0 -18,-2 -26,-6 -6,-3 -13,-11 -15,-16 16,-2 9,-3 20,-8 6,-3 13,-4 19,-6 -3,-13 -41,-5 -38,-50 1,-7 3,-15 10,-25 3,2 6,7 8,10 6,6 24,23 31,21 1,0 1,-1 1,-1 0,0 1,-1 -2,-4 -4,-4 -7,-7 -9,-15 -2,-10 -1,-19 5,-25 7,11 30,24 35,24 1,-9 -4,-12 0,-25 2,-4 8,-16 13,-14 1,1 1,1 1,2zm-92 3c-2,2 -5,4 -8,7 -2,-34 13,-45 22,-64 2,-5 6,-17 7,-20 1,-8 4,-12 0,-20 32,-1 19,36 20,42 4,-1 2,1 4,-3 1,-3 0,-2 2,-5 1,-2 5,-5 6,-6 24,-24 19,-30 16,-58 8,6 20,20 22,34 0,9 -2,16 -5,23 -8,17 -12,8 -11,16 10,0 10,-9 39,1l-5 3c-1,2 -2,3 -4,5 -25,31 -22,26 -67,44 -14,6 -31,14 -38,26 -8,15 -12,35 -2,51 -2,-4 -5,-5 -8,-10 -2,-4 -4,-10 -4,-14 -4,-23 4,-39 19,-53 9,-8 8,-10 -5,1zm592 -3c2,19 -4,37 -17,42 1,8 5,11 5,21 -1,8 -4,15 -10,17 -4,-4 -7,-13 -21,-16 -42,-8 -77,-14 -117,-32 -3,-1 -6,-3 -8,-4l0 49c15,9 44,18 47,19 3,1 8,1 12,1 21,1 49,-8 58,-15 3,-2 4,-4 8,-5 4,2 10,8 11,14 3,9 -1,13 -3,20 15,3 28,12 37,20 18,18 17,29 21,36 4,-3 6,-12 7,-19 1,-12 -4,-16 -4,-24 3,1 8,5 13,8 5,3 8,4 13,6 12,0 19,-2 27,-6 5,-3 12,-11 15,-16 -16,-2 -10,-3 -20,-8 -6,-3 -14,-4 -20,-6 4,-13 41,-5 38,-50 0,-7 -2,-15 -10,-25 -2,2 -5,7 -8,10 -5,6 -24,23 -31,21 0,0 0,-1 0,-1 0,0 -1,-1 1,-4 5,-4 7,-7 9,-15 2,-10 2,-19 -4,-25 -7,11 -31,24 -35,24 -1,-9 4,-12 -1,-25 -1,-4 -8,-16 -12,-14 -2,1 -2,1 -1,2zm-179 24l0 -12 0 -17c-12,-1 -30,-2 -70,-2 -39,0 -57,1 -70,2l0 17 0 98 40 0c8,-7 18,-13 27,-19 27,-18 55,-36 69,-60 0,0 0,0 0,0l0 33c-2,17 -13,32 -29,46l33 0 0 -79 0 -7zm270 -21c3,2 6,4 9,7 2,-34 -13,-45 -22,-64 -2,-5 -6,-17 -8,-20 0,-8 -3,-12 0,-20 -32,-1 -18,36 -20,42 -3,-1 -2,1 -3,-3 -1,-3 -1,-2 -2,-5 -2,-2 -5,-5 -7,-6 -24,-24 -18,-30 -15,-58 -8,6 -21,20 -22,34 -1,9 1,16 5,23 8,17 12,8 11,16 -11,0 -11,-9 -40,1l5 3c2,2 3,3 4,5 26,31 23,26 67,44 15,6 31,14 38,26 9,15 12,35 3,51 2,-4 5,-5 8,-10 2,-4 3,-10 4,-14 3,-23 -5,-39 -19,-53 -9,-8 -9,-10 4,1zm-355 -92c-2,-17 17,-30 31,-17 0,-3 -1,-5 -3,-7 -2,-1 -4,-3 -6,-3 -5,-2 -10,-1 -15,1 -2,2 -4,3 -5,5 -2,2 -3,4 -4,7 -1,5 0,10 2,14zm11 74c0,1 -4,1 -4,1 -21,1 -42,2 -64,4 -1,0 -2,0 -3,-1 -1,-1 -1,-2 -1,-3 -1,-4 -2,-10 -1,-15 1,-3 6,-4 9,-4 11,-3 23,-4 34,-5 9,0 17,0 26,0 0,0 4,0 4,1 0,0 -3,1 -3,1 -13,3 -11,18 -1,20 0,0 4,1 4,1zm50 0c9,-2 9,-18 0,-19 0,0 -4,-1 -4,-1 0,-1 4,-1 4,-1 5,0 27,1 31,4 1,2 0,4 0,6 0,4 0,7 0,11 0,1 0,3 -1,4 -1,0 -2,0 -3,0 -10,0 -17,-1 -27,-2 0,0 -4,0 -4,-1 0,-1 4,-1 4,-1zm21 -25c-5,-13 -15,-24 -27,-31 0,0 0,0 -1,-1 0,0 -1,0 -2,-1 -1,0 -2,-1 -3,-1 -1,-1 -2,-2 -3,-2 -5,-2 -10,-3 -10,-3 0,0 4,2 9,4 7,5 17,16 20,33l14 2 3 0zm-104 -3c1,-18 15,-30 23,-36 0,0 -5,1 -10,2 -1,1 -2,1 -3,2 -2,0 -3,1 -3,1 -2,1 -3,2 -3,2 -14,7 -25,18 -33,32l29 -3zm7 42c-18,14 -36,31 -36,51l0 31c0,0 0,0 0,0 13,-19 36,-34 60,-50 16,-10 31,-20 45,-33 9,0 19,0 28,0 1,0 1,0 0,0 0,0 0,0 0,0 -44,-4 -85,-4 -129,0 0,0 0,0 -1,1 -1,0 0,0 0,0 12,0 23,0 33,0zm41 683c-3,3 -7,5 -9,6l0 13 2 -1c2,0 4,-2 6,-3 3,-2 5,-3 8,-5l2 -2c1,0 2,-1 2,-1l0 0 0 0c7,-4 14,-7 20,-10l0 0c-7,-1 -15,-2 -22,-3 -1,1 -2,2 -4,3 -1,1 -3,2 -5,3zm248 -148c6,-16 8,-32 8,-47 -3,-4 -7,-8 -10,-13 -1,-2 -2,-3 -3,-5 3,22 1,43 -7,65l0 1c3,-1 7,-1 12,-1zm-11 -153c-8,-31 -14,-66 -9,-104 2,-20 5,-34 9,-45 4,-10 8,-17 11,-23l0 0c0,0 0,0 0,0 0,-1 1,-1 2,-3l3 -7 -15 3c0,0 0,1 -1,1l0 0c-6,12 -16,31 -21,72 -5,43 2,80 11,115 2,-3 5,-5 8,-7l2 -2zm-1 47c1,4 2,7 2,10 2,-4 4,-7 5,-10 -2,0 -4,0 -7,0zm-512 -235l14 3 70 -65 -5 -11 -79 73zm514 3l14 -3 -79 -73 -5 11 70 65zm-253 492c-3,-1 -6,-3 -9,-6 -2,-1 -4,-2 -5,-3 -2,-1 -3,-2 -4,-2 -7,0 -14,1 -22,2 7,3 13,6 20,10l0 0 0 0c0,0 1,1 2,1l2 2c3,2 5,3 8,5 2,1 4,3 6,3l2 1 0 -13zm-245 -154c-8,-22 -10,-43 -8,-64 0,1 -1,3 -2,4 -3,5 -7,9 -10,13 0,16 2,31 8,47 4,0 9,0 12,0zm-2 -96c0,-3 1,-6 2,-10 -3,0 -5,0 -7,0 1,3 3,6 5,10zm11 -48c9,-35 16,-72 11,-115 -5,-41 -15,-60 -22,-72l0 0c0,0 0,-1 -1,-1l-14 -3 3 7c1,2 2,2 2,3 0,0 0,0 0,0l0 0c3,6 7,13 11,23 3,11 7,25 9,45 4,38 -1,73 -9,104l2 2c3,2 5,4 8,7zm59 -273l5 12 350 0 5 -12 -360 0zm180 190l0 234c-25,0 -49,2 -77,8 -15,2 -30,6 -47,11l0 -2c2,-1 3,-4 2,-7 0,0 0,0 0,0 0,-4 -2,-8 -9,-12 -6,-2 -17,-4 -37,-4l0 0 0 0c-11,1 -23,2 -35,5 -10,2 -20,5 -29,7 -3,-5 -5,-10 -8,-16 -13,-34 -7,-68 1,-104 1,0 2,0 3,0 10,-2 19,-6 25,-15 1,0 1,-1 1,-2 1,-2 -1,-4 -4,-5 -4,0 -10,-4 -17,-9 7,-28 13,-57 13,-89l218 0 0 -169 169 0c4,0 5,-1 8,2 21,20 43,40 64,60 0,0 0,0 0,1 -7,12 -17,32 -22,73 -1,12 -1,23 -1,33l-218 0zm0 369l0 4c0,0 0,0 -1,-1 -1,-1 -3,-2 -5,-3 2,0 4,0 6,0zm-69 -490c1,-2 2,-3 0,-7 -2,-5 -3,-5 2,-1 0,0 0,0 0,0 0,0 0,0 0,0 1,2 2,3 2,4 0,2 0,3 -1,4 0,0 0,0 0,0 0,1 0,1 0,1 0,0 0,0 0,0 -1,1 -2,2 -1,2 0,1 0,1 1,2 1,0 1,0 2,-1 1,0 2,-2 2,-4 0,-4 1,-5 3,-5 2,-1 2,-1 0,-3 0,0 -1,0 -1,0 0,0 0,0 0,0 -2,-2 -4,-3 -6,-4 -2,0 -3,0 -6,0 -7,0 -8,1 -8,2 0,0 0,1 1,2 0,1 0,2 1,4 0,2 0,2 0,3 0,2 0,3 0,4 0,0 0,0 0,0 0,0 0,0 0,0 1,8 4,12 8,14 0,0 0,0 0,0 1,1 3,2 4,2 2,0 3,0 4,-1 2,-1 4,-3 4,-6 0,0 0,0 0,0 1,-8 0,-8 3,-2 3,6 5,11 4,19 0,0 0,1 -1,1 0,0 0,0 0,0 0,1 0,2 0,2 0,0 0,0 0,0 0,1 -1,1 -1,1 0,1 0,1 0,1 -1,7 -1,7 -2,0 0,-2 0,-4 0,-6 0,-3 1,-6 -1,-10 -1,1 -2,2 -5,3 0,0 0,0 0,0 0,0 0,0 -1,0 -3,1 -5,1 -6,1 -2,-1 -4,-1 -6,-2 0,0 0,0 0,0 0,0 0,0 0,0 0,-1 -1,-1 -1,-1 -1,-1 -1,-1 -1,-1 0,0 0,0 0,0 0,0 0,-1 0,-1 0,0 -1,0 -1,1 0,0 0,0 0,1 0,0 0,0 0,0 0,0 0,0 0,0 0,1 0,1 0,1 0,0 0,0 0,0 0,0 0,0 0,0 0,0 0,0 0,0 0,0 0,0 0,0 0,0 0,1 -1,1 0,0 0,0 0,0 0,0 0,0 0,0 0,0 0,0 0,0 0,1 0,2 0,3 0,0 0,0 0,0 0,0 0,0 0,0 -1,1 -1,2 -1,3 0,0 0,0 0,0 0,0 0,1 0,1 0,1 0,1 0,1 -1,0 -1,0 -1,0 -1,2 0,4 0,5 0,0 0,0 0,0 0,0 0,0 0,0 0,0 0,1 1,1 0,0 0,0 0,0 0,0 0,0 0,0 0,0 0,0 0,0 0,0 0,0 0,0 1,0 1,0 2,0 1,0 2,0 2,0 4,1 8,1 17,-5 3,-2 3,-2 1,2 0,1 -1,2 -2,3 0,0 0,0 0,0 -1,0 -1,1 -1,1 0,1 0,1 0,2 0,1 1,2 2,3 0,0 1,1 3,0 0,0 1,0 1,0 2,0 4,-1 5,-2 2,-2 3,-3 3,-4 1,-6 0,-6 2,0 0,0 0,0 0,1 0,0 0,0 0,0 0,1 -1,3 -3,5 0,0 0,0 0,0 -1,2 -4,3 -6,4 -2,0 -4,0 -4,1 0,1 0,2 0,3 0,0 0,0 0,0 0,0 0,1 0,1 -1,1 -1,2 0,3 1,2 4,2 6,2 3,-1 5,-1 7,-2 0,0 0,0 0,0 2,-1 4,-2 5,-3 1,-2 2,-4 2,-5 0,0 0,0 0,0 -1,0 -1,0 -1,0 -2,0 -3,1 -4,2 0,1 -1,1 -1,2 0,1 -1,2 -4,4 -4,2 -2,0 0,-3 0,-1 1,-1 1,-2 0,0 0,0 0,0 0,0 0,0 0,0 1,-3 2,-3 3,-4 0,0 0,0 0,0 1,-1 1,-1 1,-1 0,0 0,0 0,0 0,0 0,-1 0,-1 0,0 0,0 0,0 1,0 1,0 2,0 0,0 0,0 0,0 0,0 0,0 0,0 1,-1 1,-1 1,-1 0,0 0,0 0,0 1,0 1,0 2,0 1,-1 1,-2 2,-2 0,-1 0,-2 -1,-3 0,0 0,0 0,0 -1,-1 -2,-2 -3,-2 0,0 0,0 0,0 0,-1 -1,-1 -1,-1 -3,-2 -3,-2 0,-2 2,0 3,0 4,1 0,0 1,0 1,0 0,-2 0,-3 -1,-5 0,0 0,0 0,0 -1,-1 -2,-2 -4,-3 0,0 0,0 0,0 0,0 0,0 0,0 -1,0 -2,-1 -3,-1 -5,0 -5,2 -4,-4 1,-9 -7,-4 -4,-9 1,0 1,0 1,0 0,-1 0,-1 0,-1 0,0 0,-1 0,-1 0,0 0,0 0,0 1,0 1,-1 1,-1 0,-3 0,-5 -1,-7 -1,0 -1,-1 -2,-1 0,-1 -1,-1 -2,-1 0,0 -1,0 -2,0 -2,1 -2,3 -3,5 -1,4 -3,7 -7,6 -6,-1 -6,-6 -3,-9zm-69 45c0,0 -1,1 -1,1 0,0 0,0 0,0 -1,0 -1,0 -1,0 -1,1 -4,3 -6,6 -3,4 -6,9 -7,11 0,0 0,0 0,0 0,0 0,1 0,1 0,0 -1,0 -1,0 0,1 0,1 0,2 0,4 0,9 8,13 0,0 0,0 0,0 1,0 2,0 3,1 1,0 2,0 3,0 3,1 3,1 0,2 -2,1 -3,1 -4,1 0,0 -1,0 -1,0 0,1 1,1 2,2 0,0 0,0 0,0 2,1 5,1 6,1 7,1 14,-1 20,-4 6,-3 12,-6 17,-11 -2,-1 -3,-1 -3,-1 0,0 0,0 0,0 -1,-1 -1,-1 -1,-1 0,0 0,0 0,0 0,0 0,0 0,0 0,0 -1,-1 -3,-2 -1,0 -5,3 -8,5 -3,1 -6,3 -8,4 -2,1 -2,1 -1,-2 1,-2 4,-4 6,-5 3,-2 6,-3 6,-5 0,-1 0,-2 0,-2 -1,-2 -1,-3 0,-5 2,-3 1,-3 2,0 0,2 0,4 1,5 1,0 2,1 4,0 3,0 3,-2 3,-3 1,-1 1,-2 1,-3 2,-2 2,-2 2,1 1,3 2,3 3,3 1,0 3,-1 4,-2 1,-1 2,-1 3,-2 2,-1 4,0 6,0 1,0 1,1 1,1 4,0 9,0 13,-1 4,-2 7,-3 8,-6 0,0 0,0 0,0 1,-2 1,-4 0,-6 0,-2 -1,-4 -3,-6 -1,0 -2,0 -3,0 -2,1 -3,1 -5,1 -1,0 -2,0 -3,0 -2,0 -3,0 -4,0 0,0 0,0 0,0 0,0 0,0 0,0 -1,0 -1,0 -2,1 -1,0 -1,1 -2,2 -2,2 -5,4 -8,4 -4,0 -4,0 -1,-2 1,-1 2,-2 3,-2 2,-1 3,-2 4,-3 1,-1 1,-2 2,-3 0,-1 0,-2 0,-3 0,0 -1,0 -1,0 0,0 0,0 0,0 0,0 0,0 0,0 0,0 0,0 0,0 0,0 0,0 0,0 0,0 -1,0 -1,0 0,0 0,0 0,0 -1,1 -1,1 -1,1 0,0 0,0 0,0 -1,0 -1,1 -2,1 -3,2 -2,2 -1,-1 0,-1 0,-1 0,-2 0,0 0,0 0,0 1,-1 1,-1 2,-2 0,0 0,0 0,0 0,0 0,0 1,-1 0,0 0,0 0,0 0,0 0,0 0,0 1,-1 2,-2 3,-4 0,-1 1,-3 1,-5 0,0 0,0 0,0 1,-4 2,-12 0,-20 -1,-5 -2,-10 -5,-12 0,0 0,0 -1,0 0,0 0,0 0,0 0,0 -1,0 -1,0 0,0 0,-1 0,-1 -1,-1 -2,-1 -1,-2 0,0 0,0 0,0 0,-1 0,-1 1,0 0,-1 0,-1 0,-1 0,0 0,0 1,0 2,0 3,1 4,2 0,0 0,0 0,0 0,0 1,0 1,0 1,0 3,0 5,-1 1,0 1,-1 2,-1 0,0 0,-1 0,-1 0,0 0,0 0,0 0,-1 -1,-2 -3,-3 -1,0 -3,-1 -4,-2 0,0 0,0 -1,0 -1,-1 -3,-2 -4,-2 0,0 0,0 0,0 -1,-1 -3,-1 -5,-2 0,0 0,0 0,0 0,0 0,0 0,0 -1,0 -1,0 -1,1 -1,1 -1,3 -1,5 0,0 0,0 0,0 -1,2 -1,3 -2,5 -1,3 -1,4 -2,0 0,-3 0,-5 0,-7 0,-1 1,-3 1,-5 -1,0 -3,-1 -5,0 -2,0 -5,1 -7,3 0,0 0,0 0,0 -1,1 -1,1 -1,1 0,1 0,1 0,2 0,1 0,1 -1,1 -3,2 -6,4 -9,6 -1,2 -2,3 -2,5 1,0 1,1 2,1 1,0 2,1 3,2 0,0 0,0 0,1 0,0 0,0 0,0 0,1 0,2 -1,2 0,1 -1,1 -2,2 -1,0 -2,1 -2,1 -1,1 -2,1 -3,1 0,0 0,0 0,0 -1,1 -2,2 -3,3 0,2 -1,3 -1,5 0,0 0,0 0,0 0,0 0,0 0,0 0,1 -1,2 -1,3 0,2 0,5 0,6 0,5 1,6 3,8 0,0 0,0 0,0 1,0 1,0 2,1 0,0 0,0 0,0 0,1 0,1 0,1 0,0 0,0 0,1 0,0 0,0 0,0 0,1 0,2 0,4 1,-1 2,-2 3,-3 3,-3 6,-7 6,-7 0,0 0,0 0,0 0,0 0,0 0,0 3,-3 2,-4 1,-7 -1,-1 -2,-3 -2,-6 0,-5 0,-5 2,-1 0,1 1,2 2,4 0,0 0,0 0,0 0,1 1,2 2,3 2,1 3,1 4,1 0,0 0,0 0,0 0,0 0,0 0,0 3,0 5,0 7,-2 2,-1 3,-3 3,-5 0,0 0,0 0,0 1,-2 1,-4 1,-5 0,-4 0,-6 3,-9 2,-3 2,-3 1,1 0,3 -1,4 -1,4 0,0 0,1 0,1 0,0 0,1 0,2 0,1 0,2 1,3 0,3 -1,5 -2,7 -1,1 -2,2 -2,3 0,0 1,0 1,0 2,1 4,2 4,6 0,1 1,2 1,3 -1,-1 -2,-1 -2,-2 -1,0 -1,-1 -1,-1 0,0 0,0 0,0 -4,-3 -4,-3 -13,-1 -5,2 -7,4 -8,6 -1,1 -2,2 -3,3 0,0 0,0 0,0 -1,1 -1,1 -1,2 0,0 0,0 0,0 0,0 -1,0 -1,0 0,0 0,0 0,0 0,0 0,0 0,0 0,1 -1,2 -1,2 0,1 -1,1 -1,1 0,1 0,1 0,1 0,0 0,0 0,0 -1,0 -1,1 -1,1 0,0 0,0 0,0 -1,1 -1,2 -2,3 -1,0 -1,1 -2,1 0,1 0,1 -1,2 0,2 -1,3 -1,5 0,2 1,4 1,5 1,1 1,2 1,3 1,0 1,0 2,1 0,-1 0,-1 1,-2 0,0 0,-1 1,-1 2,-3 2,-3 1,0 0,1 0,2 0,3 0,2 0,4 -1,5 -1,1 -1,2 -3,3 -1,0 -2,1 -2,1 0,1 -1,1 -1,1 0,1 0,1 0,1 0,0 0,0 0,0 -1,0 -1,0 -1,0 0,0 0,0 0,0 0,0 0,0 0,0 0,0 0,0 0,0 0,0 0,0 0,0 0,0 0,0 0,0 0,0 0,0 0,0 0,0 0,1 0,1 -1,1 -2,1 -2,2 0,0 -1,0 -1,0 0,0 0,0 0,0 0,0 0,0 0,0 -1,1 -2,0 1,-3 1,-3 2,-4 3,-6 1,0 1,0 2,-1 0,-1 -1,-1 -2,-2 -1,-2 -3,-4 -3,-8 -1,-1 0,-2 0,-4 0,-1 0,-3 -1,-3 0,-1 0,-1 -2,0 0,0 0,0 0,0 0,0 -1,0 -1,0 0,0 0,0 0,0 -1,0 -2,0 -2,0zm-39 23c1,-1 1,-1 2,-1 -3,-2 -6,-1 -9,0 -1,0 -1,0 0,1 1,0 2,1 3,1 1,0 2,-1 4,-1zm-5 -68c0,0 0,0 0,0 -1,2 -2,3 -3,4 0,0 0,0 0,0 -6,8 -8,13 -11,20 0,1 -1,2 -1,3 0,0 0,0 0,0 0,1 -1,2 0,3 0,1 0,2 0,2 1,0 1,0 2,-2 0,-1 2,-3 4,-6 5,-4 7,-3 9,-2 1,0 2,1 3,1 0,-1 -1,-1 -1,-2 -1,-2 -2,-4 0,-10 0,0 0,0 0,0 0,0 0,0 0,0 0,-1 1,-2 1,-2 0,0 0,0 0,0 1,-2 2,-3 2,-4 0,-1 0,-2 -1,-2 0,0 0,0 0,0 0,-1 0,-1 1,-4 0,0 0,0 0,0 1,0 1,-1 1,-1 0,-1 1,-2 1,-3 0,0 0,0 0,0 0,0 0,0 0,0 0,-1 0,-1 0,-1 0,0 0,0 0,0 -2,1 -4,4 -7,6zm31 44c0,0 0,0 1,0 -1,-2 0,-3 0,-5 0,0 1,-1 1,-1 0,0 0,0 0,0 0,-2 -1,-5 -1,-7 0,0 -1,-1 -1,-1 0,-1 0,-2 -1,-3 0,1 0,1 -1,1 -2,2 -5,3 -7,5 -3,1 -5,2 -6,4 -2,1 -2,2 -2,3 0,0 0,0 0,0 0,1 0,1 -1,2 0,2 -1,2 -2,3 0,1 -1,2 -2,3 0,1 0,2 0,2 1,1 1,2 2,2 0,1 1,1 2,1 0,0 0,0 0,0 2,1 4,1 6,0 3,-1 1,3 0,3 0,0 0,0 0,0 0,0 0,0 0,0 -1,1 -1,1 -2,1 0,0 0,0 0,0 0,0 0,0 -1,0 0,0 0,0 0,0 0,0 0,0 0,0 -6,0 -7,0 -9,-2 0,0 -1,-1 -2,-2 -2,-1 -4,-1 -5,-1 -3,1 -5,1 -8,-2 -1,-2 -2,-1 1,-1 2,0 5,0 8,0 2,-1 4,-2 4,-4 0,0 0,0 0,0 0,0 0,0 0,0 1,-1 2,-2 2,-2 1,0 1,0 1,-1 1,-1 1,-1 1,-1 0,0 0,0 0,0 1,-1 1,-2 2,-3 0,-1 0,-2 1,-4 1,-1 3,-2 6,-3 3,-1 6,-3 8,-6 1,-1 2,-2 3,-3 2,-2 5,-5 2,-8 -6,-7 -7,-7 -9,-7 -1,0 -2,-1 -3,-1 0,0 0,0 -1,0 0,-1 0,-1 0,-1 0,-1 0,-3 0,-4 0,-1 0,-3 -1,-4 0,-1 -2,-1 -5,0 -1,1 -2,1 -3,2 0,1 -1,1 -1,2 0,1 0,2 1,2 0,0 1,0 2,0 0,0 0,0 0,0 0,0 1,0 1,0 3,-1 3,-1 1,2 0,0 -1,0 -1,0 0,0 0,0 0,0 -3,2 -10,7 -7,13 1,0 2,-1 3,-1 0,0 0,0 0,0 1,-1 3,-2 6,-2 1,0 1,1 2,1 0,0 0,0 0,0 1,0 1,0 2,0 0,0 1,0 1,0 0,0 0,0 0,0 0,0 0,0 1,0 0,0 0,0 0,0 0,0 0,0 0,0 1,0 2,0 3,0 5,0 5,-1 0,2 -3,1 -6,1 -8,1 -2,0 -3,0 -5,1 -2,1 -2,4 -2,6 0,2 0,3 0,5 -1,1 0,1 -2,0 0,0 -1,1 -1,0 0,0 0,0 0,0 0,-1 0,-1 -1,-3 0,0 0,0 0,0 0,0 0,0 0,0 0,0 0,0 0,0 0,-1 0,-1 0,-1 0,0 0,0 0,0 -2,0 -4,-1 -5,-2 -2,-1 -3,-1 -7,5 -2,2 -3,4 -4,6 0,0 0,0 0,0 -1,5 1,9 -1,9 0,0 0,0 0,0 -2,0 -2,-4 -3,-6 0,-1 0,-2 0,-3 0,1 0,1 0,1 0,1 0,1 0,2 -1,0 -1,1 -1,2 0,0 0,1 0,2 1,2 1,5 3,9 1,2 2,4 4,7 0,0 0,0 0,0 0,0 0,0 0,0 0,0 1,0 1,1 0,0 0,1 0,1 1,1 2,2 3,3 0,0 0,0 0,0 1,0 2,0 3,0 3,-1 3,-2 3,-4 0,-1 0,-1 0,-2 1,-4 1,-4 2,0 2,5 6,5 9,5 1,0 2,0 4,1 0,0 0,0 1,0 3,-1 6,-1 8,-4 0,0 0,0 0,0 1,-1 2,-3 3,-4 0,0 0,0 0,0 1,-2 2,-4 3,-6 0,0 0,0 0,0 -8,-2 -19,-13 -7,-7 2,1 4,2 7,2 0,0 1,-1 1,-1 0,0 0,0 0,0zm5 -18c-2,-1 -3,0 -5,1 1,1 1,1 2,2 1,1 2,2 3,3 0,2 0,3 1,5 0,0 0,0 0,0 0,0 0,0 0,0 0,2 -1,4 -1,5 0,0 0,0 0,0 0,1 0,1 0,1 1,0 1,0 2,-1 0,0 0,0 0,0 0,0 0,0 0,0 2,-1 5,-1 7,-2 1,0 3,-1 5,-2 1,0 1,-1 2,-2 0,0 0,-1 0,-2 0,0 0,0 0,0 0,0 0,-1 0,-1 2,-3 -1,-6 -2,-7 -1,0 -1,0 -1,-1 0,0 0,0 0,0 0,0 0,0 0,0 -2,-2 -3,-7 -3,-11 0,-4 1,-8 2,-11 2,-3 4,-4 6,-5 0,0 0,0 0,0 2,-1 4,-2 2,-5 -1,-1 -1,-1 -2,-1 0,0 0,0 0,0 0,0 0,0 0,-1 -2,0 -2,0 -1,-1 0,0 0,0 0,0 0,0 0,0 0,0 0,0 0,0 0,0 0,0 0,0 0,0 1,-1 1,-1 1,-1 0,0 0,0 0,0 0,0 0,0 0,0 0,0 0,0 0,0 0,0 0,0 0,0 1,0 1,-1 1,-1 0,-1 0,-1 0,-1 1,0 1,0 1,0 0,-1 1,-1 1,-2 2,-1 3,-3 6,-5 0,0 0,0 0,0 0,0 0,0 1,0 0,0 0,0 0,0 1,-1 1,-1 2,-2 1,-1 2,-2 1,-3 -1,-1 -1,-1 1,-2 0,0 1,0 1,0 0,0 0,0 0,0 4,0 2,-2 -1,-1 -1,0 -4,1 -5,2 -3,1 -5,2 -6,2 -3,1 -3,1 -1,-1 2,-3 -2,-2 -4,-2 -2,0 -5,1 -7,2 0,0 0,0 0,0 -3,1 -6,2 -7,4 0,0 -1,1 -1,2 0,1 1,3 1,4 2,3 2,3 -1,1 -2,-1 -3,-3 -3,-5 -1,-2 -6,1 -7,2 -3,1 -6,2 -9,4 -2,1 -4,3 -6,4 0,0 0,0 0,0 -2,3 -2,3 1,2 2,0 4,-1 8,3 0,0 0,0 0,0 0,0 0,0 0,0 0,1 0,1 0,2 0,1 0,2 1,4 1,1 2,2 3,2 0,0 0,0 0,0 1,0 2,1 3,2 1,0 2,1 2,1 1,0 1,0 2,0 0,-1 0,-1 1,-1 0,0 0,0 0,0 0,-1 0,-1 0,-1 0,0 0,0 0,0 0,-1 0,-2 -1,-3 0,-1 -1,-2 -1,-3 0,-1 0,-3 0,-4 0,0 0,0 0,0 0,-1 0,-1 0,-2 0,-1 -1,-3 -1,-4 0,-4 -1,-4 2,-1 3,4 3,6 3,8 0,2 0,3 1,4 0,1 0,1 1,1 0,0 0,0 0,0 0,0 1,0 1,0 1,0 1,0 2,-1 1,-1 2,-2 3,-4 1,-2 0,-2 2,0 0,1 0,1 0,1 1,1 1,1 0,2 0,0 -1,0 -1,1 -1,1 -2,3 -4,5 -6,5 -6,5 -5,7 1,1 1,2 2,3 0,2 0,3 0,4 0,1 0,1 0,2 0,1 1,2 2,3 2,1 3,2 4,6 1,3 1,3 -2,0 0,0 0,0 -1,0 0,0 0,0 0,0 0,0 0,-1 0,-1 -1,-2 -3,-3 -4,-3zm-21 42c0,0 0,0 0,0 -2,1 -2,0 -4,0 0,0 0,0 -1,0 0,0 0,0 0,0 0,0 0,0 0,0 -3,3 6,1 7,1 1,0 6,-3 2,-2 0,0 0,1 -1,1 0,0 0,0 0,0 0,0 0,0 0,0 0,0 -1,0 -1,0 0,0 0,0 0,0 0,0 -1,0 -1,0 0,0 0,0 -1,0 0,0 0,0 0,0zm78 19c1,1 1,1 2,2 0,0 0,0 0,0 1,0 1,0 1,0 2,1 3,2 4,2 0,0 0,0 0,0 3,3 6,5 9,7 1,1 2,1 3,0 1,0 1,0 1,0 0,-1 0,-1 0,-1 1,-1 0,-2 -1,-3 -1,-1 -2,-1 -2,-2 -9,-6 -2,-3 -12,-4 0,0 -9,-3 -5,-1zm4 -6c-1,1 -2,2 0,2 1,1 2,1 4,0 3,-1 6,-2 9,-3 1,-1 14,-4 8,-5 0,0 0,0 0,0 -1,0 -2,-1 -2,-1 0,0 0,0 0,0 -1,0 -2,0 -2,0 0,0 0,0 0,0 -3,-1 -4,-2 -5,-3 -1,0 -2,-1 -2,-1 -1,0 -1,0 -1,1 0,0 0,0 0,0 -1,0 -1,1 -1,1 0,0 0,0 0,0 -1,1 -2,2 -2,4 0,0 0,0 0,0 0,0 0,0 0,0 0,0 0,0 0,0 -2,1 -2,2 -3,3 0,0 0,0 0,0 0,0 -1,1 -2,1 0,0 0,0 0,0 0,0 0,0 0,0 0,1 0,1 -1,1zm-14 -3c-3,1 -8,3 -5,5 0,0 0,0 0,0 0,0 1,0 1,0 0,0 0,0 0,0 0,0 1,1 2,1 4,1 12,2 4,-3 0,0 0,0 0,0 0,0 0,0 0,0 0,-1 -1,-2 -1,-2 -1,-1 -1,-1 -1,-1zm6 0c1,0 2,1 3,1 1,-1 2,-1 3,-2 2,-1 3,-3 4,-4 1,-1 1,-2 2,-3 1,-2 1,-3 -1,-3 0,0 0,0 0,0 0,0 0,0 0,0 0,1 -2,1 -5,2 -2,1 -4,2 -4,3 0,0 0,0 0,0 -2,1 -3,2 -3,3 0,0 0,1 0,1 0,0 0,0 0,0 0,1 1,1 1,2zm41 -10c2,-4 4,-8 -1,-9 -1,0 -1,0 -2,0 -1,0 -3,0 -4,0 0,0 0,0 0,0 0,0 -1,0 -1,0 0,0 0,0 0,0 -2,1 -3,1 -4,1 -2,0 -3,1 -5,1 0,1 -1,1 -2,2 0,0 0,0 0,0 -3,3 -5,2 -1,4 0,0 0,0 0,0 1,1 3,2 5,3 2,0 3,1 4,1 5,0 9,2 11,-3 0,0 0,0 0,0zm-50 -4c0,1 0,1 0,2 1,0 1,1 2,1 1,1 2,1 3,1 0,0 2,0 3,-1 0,0 0,0 0,0 1,0 2,-1 3,-1 6,-2 8,-3 9,-4 0,-1 0,-1 0,-1 0,0 0,0 0,0 0,0 0,-1 -1,-1 -1,-1 -3,-1 -4,-1 0,0 -1,1 -2,2 -1,0 -1,1 -2,1 -2,1 -4,2 -7,2 -1,0 -3,0 -4,0zm60 -51c-1,-2 -3,-4 -3,-5 -1,1 -1,1 -2,1 0,1 0,1 1,2 1,2 2,2 2,3 1,4 -2,6 3,6 3,0 0,-6 -1,-7zm154 142c0,0 1,0 1,0 0,0 0,0 1,0 0,-1 0,-1 -1,-2 0,-1 -1,2 -1,2zm27 171c0,0 0,0 0,0 0,-1 1,-1 1,-2 1,0 1,0 1,0 0,0 0,0 0,0 1,1 1,1 2,1 0,0 0,0 0,0 0,1 0,1 1,2 0,0 1,0 1,0 0,0 0,0 0,0 0,0 0,0 0,0 0,0 0,0 1,0 0,0 0,0 0,0 0,0 0,0 0,0 0,0 0,0 0,0 1,0 1,0 1,0 1,0 1,0 2,0 2,0 0,0 2,2 0,0 0,0 0,0 1,1 1,1 1,2 0,0 0,0 0,0 0,0 0,0 0,1 0,0 0,0 0,0 1,1 1,1 1,2 2,2 1,-2 5,-4 1,0 2,0 2,-1 1,0 2,-1 2,-2 0,-1 0,-3 0,-4 0,0 0,0 0,0 -1,-1 -1,-2 -2,-3 0,0 0,-1 -1,-1 0,0 0,-1 -1,-1 0,-1 0,-2 0,-3 0,0 0,-1 0,-1 0,-2 0,-2 1,-1 2,0 4,1 5,3 2,2 2,5 3,1 1,-1 1,-3 1,-4 -1,-3 -2,-4 -3,-5 0,-1 -1,-2 -1,-3 -1,-2 -1,-1 1,-1 7,0 10,6 9,0 0,0 0,0 0,0 0,-2 -1,-3 -2,-4 -2,-3 -4,-4 -5,-4 0,0 0,0 0,0 -1,-1 -2,-1 -2,-1 -2,-2 -2,-1 0,-2 1,0 3,-1 4,-1 2,0 4,0 5,1 3,1 5,4 2,-3 -1,-2 -2,-3 -3,-4 -5,-4 -9,-2 -12,-1 -1,0 -2,1 -2,1 -1,0 -1,0 -1,-1 -1,-2 0,-3 1,-5 2,-2 5,-2 3,-3 -2,-1 -3,-1 -4,-1 -1,0 -2,0 -4,0 -1,0 -2,1 -3,1 -1,1 -1,1 -2,0 -1,-2 -2,-2 -4,-2 -1,0 -2,0 -2,-1 -2,-4 -5,-5 -9,-6 -1,-1 -1,-1 -1,-2 0,0 0,-1 1,-1 0,-1 0,-2 1,-3 0,0 0,0 0,0 0,-2 0,-3 0,-4 -1,-6 5,-1 11,2 7,2 7,1 13,7 0,0 0,0 0,0 0,1 1,1 1,1 1,2 3,3 4,4 2,0 6,2 4,0 -1,-3 -2,-5 -2,-10 0,-1 0,-1 1,-1 5,-1 9,-2 12,-4 4,-1 6,-4 8,-8 2,-3 2,-6 2,-9 0,-2 0,-3 0,-5 0,-3 0,-5 2,-7 1,-1 4,-3 -1,-1 -2,0 -2,1 -3,2 0,0 -1,1 -1,1 -1,1 -1,1 -2,0 -2,-1 -3,-3 -5,-4 -1,-1 -3,-2 -6,-3 -1,0 -2,-1 -2,-2 -1,-1 -1,-2 -1,-3 0,0 1,-1 1,-2 0,-1 1,-2 2,-3 1,-1 1,-1 0,0 -2,0 -3,0 -4,1 -2,1 -2,2 -3,3 0,0 0,0 0,0 0,0 0,1 -1,2 0,0 0,1 0,1 0,0 -1,0 -1,0 -1,-1 -3,-2 -4,-3 0,0 0,0 0,0 0,-1 -1,-1 -1,-2 0,0 0,-1 0,-2 0,0 1,-1 1,-1 2,-2 4,-2 7,-3 0,0 1,0 2,-1 0,0 0,0 0,0 4,-1 8,-2 9,-6 1,-2 0,-1 0,-1 -1,1 -3,2 -6,3 -1,0 -3,1 -5,1 -3,0 -5,0 -6,-1 0,0 0,0 -1,0 0,0 0,-1 0,-1 0,-4 12,-8 21,-11 4,-1 7,-2 9,-3 2,-1 4,-3 6,-4 2,-2 3,-4 4,-6 3,-8 -1,-13 -2,-15 0,0 0,0 0,-1 -1,0 -1,0 -2,-1 0,0 -1,-1 -2,-1 0,0 0,0 0,0 0,0 -1,0 -1,-1 -1,0 -2,0 -2,0 -3,-1 -6,-1 -8,-1 0,0 0,0 0,0 -1,0 -1,0 -2,0 -3,1 -6,2 -8,4 -2,1 -4,3 -6,5 0,0 0,0 -1,1 -1,2 -3,3 -6,4 -2,0 -4,-1 -5,-2 -2,-1 -2,-3 -3,-2 0,1 -1,2 -1,3 0,1 0,3 1,4 0,0 1,1 1,1 1,1 2,1 3,2 1,0 2,0 3,0 2,0 3,-1 3,-2 0,0 0,0 0,0 1,0 1,-1 2,-1 1,-1 1,-1 1,0 3,4 1,6 -1,8 -2,1 -3,2 1,2 1,0 2,-1 3,-1 1,0 2,-1 3,-2 1,-1 2,-3 2,-5 0,-1 0,-1 1,-1 1,0 2,1 2,1 2,0 3,1 5,1 1,-1 2,-1 3,-2 3,-2 -4,0 -7,-3 -1,-1 -1,-2 -1,-4 0,-1 1,-2 2,-3 2,-2 6,-4 10,-3 3,1 5,2 6,4 1,1 2,4 1,7 0,2 -1,4 -2,6 -2,1 -3,2 -5,3 -3,2 -7,3 -12,5 -7,2 -14,4 -20,9 -4,4 -5,8 -5,13 1,9 9,12 16,15 9,4 17,7 17,16 0,0 0,0 0,0 -1,3 -2,6 -3,8 -2,2 -5,4 -8,5 -8,2 -15,2 -22,0 -7,-2 -14,-6 -20,-10 0,0 0,0 0,0 -1,-1 -2,-3 -3,-5 0,0 0,0 0,0 0,-1 -1,-1 -1,-2 0,0 0,0 0,0 -1,-2 -3,-4 -4,-6 -1,-2 -6,-6 -4,-8 0,0 1,0 1,-1 2,0 3,-2 2,-3 -1,-1 -2,-2 -2,-4 0,-2 0,-3 0,-5 0,-1 0,-2 1,-3 1,-3 1,-3 2,0 1,4 1,7 3,8 1,2 3,3 5,3 2,0 2,0 1,-1 -1,-2 -2,-5 -1,-10 0,-2 0,-5 1,-8 1,-2 1,-4 2,-5 1,-1 1,-1 2,0 0,1 0,1 1,1 0,0 0,0 0,0 1,2 2,3 4,3 1,0 3,0 4,-1 0,0 0,0 0,0 0,0 0,0 1,-1 1,0 0,0 0,0 -3,-1 -7,-4 -4,-16 0,0 0,-1 1,-2 0,-2 1,-4 1,-7 0,-3 0,-5 -1,-7 0,0 0,-1 0,-2 0,-2 -1,-2 1,-1 1,0 3,0 4,0 1,0 2,0 3,0 5,-2 -1,0 -4,-2 -1,-1 -2,-2 -3,-3 -1,-1 -1,-2 -2,-3 -1,0 -1,-1 -1,-1 0,0 0,0 0,0 -1,0 -1,0 -1,0 -1,-1 -2,-1 -2,-2 0,0 0,0 0,0 0,0 0,0 0,0 0,-1 0,-1 0,-2 0,0 0,0 0,0 1,-1 1,-3 0,-4 0,-1 -1,-1 -2,-2 -1,-1 0,1 -1,3 0,2 -1,3 -3,3 -1,0 -1,0 -2,-1 0,0 0,-1 0,-2 0,-1 -1,-1 -2,-2 -1,-1 -2,-1 -4,-1 0,-1 0,0 0,0 1,1 1,2 1,4 0,0 0,0 0,0 -1,0 -1,0 -1,1 -1,0 -4,0 -7,0 -1,-1 -3,-1 -3,-1 -5,0 -6,2 -6,2 -1,1 -1,1 -1,1 -1,1 -2,1 -4,1 0,0 -1,0 -1,0 -1,0 -2,0 -2,1 -1,0 -1,0 -2,1 0,0 0,0 0,0 0,0 0,0 -1,0 0,0 0,0 0,0 0,1 -1,1 -2,1 0,1 0,1 2,3 0,0 0,0 0,0 0,0 0,0 0,1 0,2 0,3 0,4 1,1 2,2 3,2 1,0 1,0 1,1 0,1 0,3 1,4 0,1 0,1 -1,1 -1,0 -3,1 -4,1 -3,0 -6,0 -10,-1 -7,-1 -7,-4 -7,-7 0,-1 -1,0 -2,0 -1,1 -1,2 -2,3 0,0 0,0 0,0 0,0 0,1 0,1 0,1 1,2 1,3 1,1 2,2 3,3 5,3 12,1 18,0 0,0 0,0 1,0 1,0 2,-1 1,0 0,1 0,1 0,2 -1,1 -1,2 0,3 0,0 1,1 1,2 0,2 0,3 0,4 -1,1 0,0 1,0 1,0 2,-1 2,-2 0,-1 0,-1 0,-2 1,1 1,1 1,1 3,1 4,1 6,1 0,0 0,0 0,0 0,0 0,0 0,0 0,0 0,0 0,0 0,0 0,0 0,0 0,0 0,0 1,0 0,0 0,0 0,0 0,0 1,0 1,0 0,0 0,0 0,0 2,0 4,0 6,0 2,0 4,0 5,-1 0,0 0,0 0,0 0,0 0,0 0,0 0,0 0,0 0,0 0,0 0,0 0,0 0,0 1,1 1,1 0,0 0,0 0,0 2,0 2,0 1,1 0,0 0,1 -2,0 0,1 0,1 0,1 0,0 -1,0 -1,0 -2,1 -6,2 -8,2 -1,0 -1,0 -1,1 -2,3 -8,2 -12,1 -2,0 -3,0 -3,0 -2,0 -4,0 -5,0 -2,0 -3,0 -5,1 -2,0 -3,1 -5,2 -1,0 -2,1 -3,0 -1,1 -1,2 -2,3 0,0 0,0 0,0 -2,4 -4,10 -1,16 1,0 1,0 1,0 0,0 0,0 0,0 0,0 0,0 0,0 2,2 2,2 -1,2 -7,1 -10,4 -12,7 -2,1 -2,2 -4,2 0,0 0,0 0,0 0,0 0,0 0,0 -4,1 -8,1 -12,2 0,0 0,0 -1,0 -2,-2 -2,-4 -3,-6 0,-2 -1,-3 -2,-4 0,0 0,0 0,0 0,-1 -1,-1 -2,-1 -1,0 -2,0 -3,-1 -1,-1 -1,-1 -2,-1 0,0 0,0 0,0 -2,0 -1,0 -3,0 0,0 0,0 0,0 0,0 -1,0 -1,1 -1,0 -1,0 0,0 0,0 1,0 1,0 1,1 2,1 2,2 0,0 0,0 0,0 0,0 0,1 0,1 0,0 0,1 0,1 0,0 -1,0 -1,0 0,0 -1,0 -2,1 -1,0 -1,0 -2,0 -1,0 -2,0 -2,0 0,0 -1,-1 -1,0 0,0 0,0 0,0 -2,0 -3,1 -4,2 0,0 0,0 0,0 -1,1 -1,1 -1,3 0,0 0,1 0,1 -1,2 0,1 0,0 1,-1 2,-2 5,-2 1,0 0,0 1,1 0,2 1,4 3,4 1,1 3,1 5,0 1,0 1,0 1,1 2,1 3,2 4,2 1,0 2,0 4,0 0,0 1,0 1,0 2,0 1,0 1,1 -2,1 -3,2 -5,3 -1,0 -3,0 -4,0 0,0 0,0 0,0 -1,0 -2,0 -3,-1 0,0 0,0 0,0 -1,0 -3,-1 -4,0 -1,0 -1,1 -1,1 0,0 0,0 0,0 0,0 -1,1 -2,2 -1,1 -2,2 -2,3 0,1 0,2 0,2 0,2 0,1 1,0 1,0 1,-1 3,-1 1,0 1,0 1,1 0,0 1,1 1,1 0,2 1,4 4,3 2,0 3,0 4,-1 0,-1 1,-2 1,-3 1,-1 1,-1 1,-1 4,0 5,-1 6,-3 1,0 1,0 2,-1 1,-1 1,-1 1,0 5,5 -1,9 2,9 2,0 3,-1 4,-1 1,-1 2,-2 3,-2 5,-5 4,3 2,6 -1,1 1,1 2,0 2,0 4,-1 5,-2 1,0 1,0 2,-1 0,0 1,-1 1,-1 1,-1 1,-2 2,-3 3,-7 4,4 2,9 -1,1 -1,1 1,1 3,-1 6,-2 9,-4 3,-2 5,-5 5,-8 0,-2 -1,-2 1,-2 1,1 2,1 2,2 1,1 2,2 2,3 1,3 -2,5 2,3 0,0 0,0 0,0 1,-1 2,-2 2,-3 0,-1 0,-1 2,-1 1,1 3,2 5,4 1,2 2,4 2,5 0,0 0,0 0,1 -1,1 -2,1 -2,1 0,0 0,0 0,0 -1,0 -1,0 -2,2 -1,1 0,1 -1,1 -4,-1 -7,0 -10,2 -2,1 -4,1 -6,2 -2,0 -4,1 -5,1 0,0 0,0 0,0 -4,0 -6,0 -6,7 0,0 0,1 1,1 0,0 0,0 0,0 0,3 1,5 1,8 0,0 0,0 0,0 0,0 0,0 0,0 0,0 0,1 0,2 0,1 0,2 0,2 0,0 1,1 1,1 0,0 0,0 0,0 0,1 0,2 0,4 1,0 1,1 1,2 1,3 -1,3 -3,5 -1,1 -4,2 -7,8 -4,7 -7,8 -9,7 -2,-1 -3,-3 -4,-6 0,0 0,0 0,0 -1,-1 -2,-3 -2,-3 0,0 -1,0 -1,0 0,0 0,0 0,0 0,-1 -1,-1 -1,-1 -1,0 -2,0 -3,0 -2,0 -3,0 -3,-1 -1,0 -1,0 -2,0 0,0 0,0 -1,-1 -1,0 -2,1 -3,1 0,0 -1,0 -1,1 0,0 0,0 0,0 1,0 1,0 1,0 0,0 0,0 0,0 0,0 1,0 2,1 0,0 0,0 0,0 0,0 0,0 0,0 1,0 1,0 1,1 0,1 -1,1 -1,2 0,0 0,0 0,1 0,0 0,0 -1,0 -3,0 -5,0 -6,1 0,1 -1,2 -1,3 0,1 0,1 1,0 0,0 1,0 1,-1 0,0 0,0 0,0 1,0 1,0 2,1 0,0 1,0 3,0 0,0 0,0 1,1 0,1 0,2 1,3 1,0 2,1 4,1 1,0 1,-1 1,1 -1,1 -1,2 -1,2 0,1 0,2 0,2 0,0 0,0 0,0 0,1 0,1 -1,1 0,1 0,2 -1,2 0,2 0,3 0,4 2,3 1,0 2,-1 1,0 2,-1 3,-1 0,0 0,0 1,0 0,0 0,0 1,1 1,0 2,1 4,-1 2,0 3,-1 4,-2 0,0 0,0 0,-1 1,0 1,0 1,0 5,0 6,0 9,-2 0,0 0,0 0,0 0,0 0,0 1,0 1,0 1,0 1,0 3,4 3,5 2,8 0,3 0,2 2,1 2,-1 3,-3 4,-4 2,-2 2,-4 2,-7 -1,-1 -1,-2 -1,-3 0,-2 0,-2 2,-1 1,1 2,2 3,3 1,1 2,2 2,4 1,6 3,0 5,-3 2,-5 1,-6 0,-9 0,-1 -1,-1 -1,-2 0,-2 -1,-2 1,-1 7,0 7,7 8,4 1,-2 1,-4 1,-5 1,-7 -2,-11 -4,-13 -1,0 -1,-1 -1,-1 0,0 0,0 0,0 0,-1 0,-2 0,-2 0,-1 0,-3 0,-3 0,-1 0,-2 -1,-2 0,0 0,0 0,0 0,-1 0,-1 0,-2 -1,-1 -1,-1 1,-1 0,0 1,0 2,-1 0,0 0,0 0,0 0,0 1,0 2,-1 0,0 0,0 0,0 0,0 0,0 0,-1 0,-3 0,-7 2,-10 3,-9 13,-14 6,-5 0,0 -1,1 -1,2 0,0 0,0 0,0 0,0 0,0 0,0 0,0 0,0 0,0 -1,2 -4,8 -2,13 1,0 1,1 1,1 0,0 0,0 0,0 0,0 1,1 1,1 1,1 2,2 3,3 2,1 3,3 5,3 1,1 3,3 5,4 4,4 9,8 16,10 1,0 1,0 1,1 0,5 2,6 4,8 1,0 1,1 1,1 1,1 3,3 4,5 1,1 1,2 1,3 0,1 0,2 -1,3 0,0 0,0 -1,1 0,0 0,0 0,0 0,0 0,0 -1,0 0,-1 -1,-1 -1,-2 0,0 0,0 0,0 -2,-2 -4,-6 -8,-3 0,0 -1,0 -2,0 -1,0 -2,1 -3,2 0,0 0,0 0,0 -1,1 -1,2 -1,3 0,2 1,-1 4,-1 1,0 1,-1 1,0 1,1 1,1 2,2 1,1 1,1 0,1 0,1 -1,1 -1,2 0,0 0,0 0,0 -1,0 -1,0 -1,1 0,0 -1,0 -1,1 0,1 -1,7 0,5 0,-1 1,-1 1,-1 0,0 0,0 1,0zm-58 -135c-1,-1 -3,-2 -5,-4 -5,-5 -12,-11 -10,-17 1,-1 2,-2 3,-3 2,-2 4,-5 3,-7 -1,-1 -1,-2 -1,-3 0,0 0,0 0,0 0,-1 0,-2 -1,-3 -1,-1 -2,-1 -3,-2 -1,0 0,1 0,2 0,0 0,0 0,0 0,1 0,1 0,2 0,0 0,1 -1,1 0,0 0,0 0,0 0,0 -1,0 -2,0 0,-1 0,-1 -1,-2 0,0 0,0 0,0 0,0 0,0 -1,-1 -1,0 -1,-1 -1,-2 -1,0 -3,-1 -3,-2 -2,0 -3,0 -5,1 -1,0 -1,0 -2,0 -1,1 0,1 1,1 1,-1 2,0 4,2 0,1 0,1 0,1 -1,1 -1,1 -1,1 -1,1 -2,2 -1,5 0,1 1,2 2,3 0,0 0,0 0,0 0,0 1,0 1,1 0,0 0,0 0,0 0,0 0,0 0,0 0,2 0,2 0,3 -1,1 -1,1 0,3 0,2 1,2 -1,1 -1,0 -1,0 -2,-1 0,0 -1,-1 -1,-1 -1,-1 -1,-2 -1,-3 0,0 0,0 0,0 0,0 0,0 -1,-1 -1,-2 -1,-2 -2,-2 -1,-1 -2,-1 -3,-1 -1,0 -2,0 -3,0 -1,0 -2,0 -3,1 -1,1 -1,2 -2,3 0,1 1,0 4,1 2,0 1,0 1,1 -1,1 -1,2 -1,3 0,0 0,1 1,2 1,1 1,1 2,2 1,0 2,0 4,0 0,0 0,0 0,0 0,0 0,0 0,0 1,0 2,1 2,1 2,2 3,3 7,2 1,0 1,0 1,2 -1,2 -2,3 -4,4 -1,1 -4,1 -2,2 1,0 2,1 3,1 2,0 3,-1 4,-2 1,0 1,0 2,-1 1,0 1,0 1,1 1,1 1,3 2,4 0,0 0,0 -1,1 -1,2 -3,3 -5,3 -5,0 -9,-3 -6,2 1,1 1,2 3,3 2,2 5,2 7,3 1,0 2,0 2,0 1,0 1,0 1,1 0,3 -3,3 -5,4 -1,0 -1,0 0,1 1,1 2,1 3,1 4,1 6,1 8,0 1,0 1,0 1,-1 0,-1 -1,-2 -1,-2 0,-2 0,-3 0,-5 0,0 0,0 0,0 0,0 0,0 0,0 1,-1 1,-3 2,-4 0,0 0,0 0,0 1,-2 2,-3 4,-4 1,-1 2,-1 3,-2zm23 -19c2,0 4,1 5,1 2,1 3,2 3,3 0,1 0,1 0,1 0,1 -1,1 -2,2 -1,0 -2,0 -3,-1 -2,0 -2,0 -3,-1 0,0 0,0 0,0 0,0 0,0 -1,0 0,-1 0,0 0,-1 0,-1 0,-2 0,-3 0,-1 0,0 1,-1zm-2 -3c0,0 0,0 0,0 0,0 0,-1 0,-1 0,0 0,0 0,0 0,-1 0,-3 2,-3 1,0 3,1 5,2 0,0 0,0 0,0 1,1 2,2 3,3 0,2 0,2 -2,2 0,-1 0,-1 -1,-1 0,0 0,0 0,0 -1,0 -1,0 -2,-1 0,0 -1,0 -1,0 0,0 0,0 0,0 -1,0 -2,0 -3,0 -1,0 -1,0 -1,-1z"/>
   <path class="fil3" d="M623 791c0,0 0,-1 1,-1 -1,0 -1,0 -1,0l0 1z"/>
   <line class="fil4" x1="595" y1="686" x2="595" y2= "686" />
  </g>
 </g>
</svg>
