<?xml version="1.0" encoding="utf-8"?>
<!-- Generator: Adobe Illustrator 17.1.0, SVG Export Plug-In . SVG Version: 6.00 Build 0)  -->
<!DOCTYPE svg PUBLIC "-//W3C//DTD SVG 1.1//EN" "http://www.w3.org/Graphics/SVG/1.1/DTD/svg11.dtd">
<svg version="1.1" id="Layer_1" xmlns="http://www.w3.org/2000/svg" xmlns:xlink="http://www.w3.org/1999/xlink" x="0px" y="0px"
	 viewBox="0 0 43.7 24.8" enable-background="new 0 0 43.7 24.8" xml:space="preserve">
<path fill-rule="evenodd" clip-rule="evenodd" fill="#000003" d="M10.1,14.4l-0.8,8.9c0,0.4,1.2,0.8,1.5,0.8
	c1.8,0.3,3.6,0.4,5.5,0.5c2.7,0.1,5.5,0.2,8.2,0.1c2.4-0.1,4.9-0.1,7.3-0.5c0.4-0.1,2.5-0.5,2.5-1l-1.3-8.8l10.6-3.2l0,0v-1.1
	L21.8,0h0L0,10.2v1.1L10.1,14.4L10.1,14.4z M31,22c0.1,0,0.2,0.1,0.3,0.1l0,0c0.4,0.1,1.5,0.5,1.6,0.7c0,0.4-2.2,0.5-2.4,0.6
	c-1.7,0.2-3.4,0.3-5,0.3c-3.8,0.1-7.7,0.1-11.5-0.3c-0.6-0.1-1.3-0.1-1.9-0.3c-0.2,0-0.9-0.1-1-0.3c-0.1-0.2,0.5-0.6,0.7-0.6
	c0.2-0.1,0.4-0.1,0.6-0.1c0.1,0,0.2-0.1,0.3-0.1C16.4,20.9,26.8,20.8,31,22L31,22z M32.5,12.4L32.5,12.4L32.5,12.4
	c0-0.1,0-0.1-0.1-0.2c0,0,0-0.1,0-0.1l0,0l0,0l0,0l0,0c-0.1-0.1-0.2-0.2-0.3-0.3c-0.1-0.1-0.3-0.2-0.4-0.2c-0.8-0.3-1.8-0.5-2.8-0.6
	L28.4,11h0c-2.1-0.3-4.5-0.4-6.9-0.4c-2.4,0-4.8,0.1-6.9,0.4l-0.1,0c-1,0.1-2,0.3-3,0.6v0c-0.2,0.1-0.4,0.1-0.5,0.2
	c-0.1,0.1-0.3,0.2-0.3,0.3l0,0l0,0c0,0,0,0.1,0,0.1v0c0,0,0,0.1,0,0.1l0,0l0,0.1l0,0.1l-0.3,1.1l-0.2-1.1c0,0,0-0.1,0-0.1v0
	c0,0,0-0.1,0-0.1c0-0.1,0-0.1,0-0.2c0-0.1,0-0.1,0-0.2h0l0,0l0,0l0,0c0.1-0.2,0.2-0.4,0.3-0.5c0.1-0.1,0.3-0.2,0.5-0.3
	c0.8-0.4,1.8-0.6,2.8-0.7l0.4-0.1l0,0c1.1-0.2,2.3-0.3,3.5-0.4c1.2-0.1,2.4-0.1,3.7-0.1c0.3,0,0.2,0,0.5,0c1.3,0,2.5,0,3.7,0.1
	c1.2,0.1,2.4,0.2,3.5,0.4l0,0l0.4,0.1c0.9,0.1,1.9,0.3,2.8,0.7l0,0c0.2,0.1,0.3,0.2,0.5,0.3c0.1,0.1,0.2,0.3,0.3,0.5l0,0l0,0l0,0
	c0,0.1,0,0.1,0,0.2c0,0.1,0,0.1,0,0.2l0,0.1h0c0,0,0,0.1,0,0.1l-0.1,1.1L32.5,12.4L32.5,12.4z M10.7,12.2L10.7,12.2L10.7,12.2
	L10.7,12.2z"/>
</svg>
