<?xml version="1.0" encoding="utf-8"?>
<!-- Generator: Adobe Illustrator 17.1.0, SVG Export Plug-In . SVG Version: 6.00 Build 0)  -->
<!DOCTYPE svg PUBLIC "-//W3C//DTD SVG 1.1//EN" "http://www.w3.org/Graphics/SVG/1.1/DTD/svg11.dtd">
<svg version="1.1" id="Layer_1" xmlns="http://www.w3.org/2000/svg" xmlns:xlink="http://www.w3.org/1999/xlink" x="0px" y="0px"
	 viewBox="0 0 640 640" enable-background="new 0 0 640 640" xml:space="preserve">
<g>
	<g>
		<path fill="#A6D1FF" d="M481.3,23.3c-12.9-3.8-26.4-2.2-38.1,4.5c-11.8,6.7-20.2,17.8-23.6,31c-16.2,63.4-39.9,126.7-70.4,188.3
			c-2.6,5.2-0.5,11.6,4.8,14.1c5.2,2.6,11.6,0.5,14.1-4.8c31.2-62.9,55.4-127.6,71.9-192.4c2-7.7,6.8-14,13.6-17.9
			c6.6-3.8,14.4-4.7,21.7-2.6c13.9,4,22.5,17.8,19.9,32c-7.1,39.8-26.7,120.3-77.6,212.8c-51,92.5-120.4,174.7-206.9,244.9
			c-0.3,0.2-0.6,0.4-0.9,0.6c-14.1,11.4-28.9,22.7-44.2,33.7c-0.4,0.3-0.7,0.5-1,0.8c-2.3,1.7-4.7,3.4-7,5c-2.7,1.9-5.4,1.6-6.7,1.3
			c-2.4-0.6-4.5-2.2-5.7-4.4c-1.9-3.4-1.2-7.7,1.6-10.3c35.1-33.2,125-125.5,201.5-265.5c2.8-5.1,0.9-11.5-4.2-14.3
			c-5.1-2.8-11.5-0.9-14.3,4.2C296.2,345.9,260,398,227.1,439.7v-51c26.6-5.9,46.8-33.5,46.8-66.5V63.6C274,28.5,249.7,0,219.9,0
			h-48c-5.8,0-10.6,4.7-10.6,10.6v59.1c0,5.8,4.7,10.6,10.6,10.6c5.8,0,10.6-4.7,10.6-10.6V21.1h37.5c18.2,0,33,19.1,33,42.5v258.5
			c0,25.7-16.3,46.6-36.3,46.6c-5.8,0-10.6,4.7-10.6,10.6v86.2c-7.8,9.3-15.7,18.5-23.6,27.3V111.9c0-5.8-4.7-10.6-10.6-10.6
			c-5.8,0-10.6,4.7-10.6,10.6v403.9c-11.7,12.3-21.6,21.9-29,28.9c-9.7,9.2-12,23.9-5.7,35.7c4,7.5,11.1,12.9,19.4,14.9
			c2.3,0.5,4.5,0.8,6.8,0.8c2.9,0,5.7-0.4,8.4-1.2v12.3c0,18.1,14.8,32.9,32.9,32.9s32.9-14.8,32.9-32.9v-59.9
			c215.7-176.6,273.8-382.9,289-468C520.6,54.4,505.6,30.4,481.3,23.3z M206,607.1c0,6.5-5.3,11.8-11.8,11.8
			c-6.5,0-11.8-5.3-11.8-11.8v-25.4c8.1-5.9,15.9-11.8,23.6-17.7V607.1z"/>
	</g>
</g>
</svg>
