<?xml version="1.0" encoding="utf-8"?>
<!-- Generator: Adobe Illustrator 17.1.0, SVG Export Plug-In . SVG Version: 6.00 Build 0)  -->
<!DOCTYPE svg PUBLIC "-//W3C//DTD SVG 1.1//EN" "http://www.w3.org/Graphics/SVG/1.1/DTD/svg11.dtd">
<svg version="1.1" id="Layer_1" xmlns="http://www.w3.org/2000/svg" xmlns:xlink="http://www.w3.org/1999/xlink" x="0px" y="0px"
	 viewBox="0 0 640 640" enable-background="new 0 0 640 640" xml:space="preserve">
<g>
	<g>
		<g>
			<path fill="#A6D1FF" d="M234.7,394.7c0,5.9,4.8,10.7,10.7,10.7H288c5.9,0,10.7-4.8,10.7-10.7v-64c0-5.9-4.8-10.7-10.7-10.7h-42.7
				c-5.9,0-10.7,4.8-10.7,10.7L234.7,394.7L234.7,394.7z M256,341.3h21.3V384H256V341.3z"/>
			<path fill="#A6D1FF" d="M245.3,277.3H288c5.9,0,10.7-4.8,10.7-10.7v-64c0-5.9-4.8-10.7-10.7-10.7h-42.7
				c-5.9,0-10.7,4.8-10.7,10.7v64C234.7,272.6,239.4,277.3,245.3,277.3z M256,213.3h21.3V256H256V213.3z"/>
			<path fill="#A6D1FF" d="M165.5,201.1L320,108.4l154.5,92.7c1.7,1,3.6,1.5,5.5,1.5c3.6,0,7.2-1.8,9.2-5.2c3-5.1,1.4-11.6-3.6-14.6
				L330.7,90V21.3H384v21.3h-32c-5.9,0-10.7,4.8-10.7,10.7S346.1,64,352,64h42.7c5.9,0,10.7-4.8,10.7-10.7V10.7
				c0-5.9-4.8-10.7-10.7-10.7H320c-5.9,0-10.7,4.8-10.7,10.7V90l-154.8,92.9c-5,3-6.7,9.6-3.6,14.6
				C153.9,202.5,160.4,204.2,165.5,201.1z"/>
			<path fill="#A6D1FF" d="M117.3,405.3c5.9,0,10.7-4.8,10.7-10.7v-64c0-5.9-4.8-10.7-10.7-10.7H74.7c-5.9,0-10.7,4.8-10.7,10.7V352
				c0,5.9,4.8,10.7,10.7,10.7s10.7-4.8,10.7-10.7v-10.7h21.3v53.3C106.7,400.6,111.4,405.3,117.3,405.3z"/>
			<path fill="#A6D1FF" d="M192,544V234.7c0-5.9-4.8-10.7-10.7-10.7c-5.9,0-10.7,4.8-10.7,10.7V544c0,5.9,4.8,10.7,10.7,10.7
				C187.2,554.7,192,549.9,192,544z"/>
			<path fill="#A6D1FF" d="M138.7,597.3h362.7c5.9,0,10.7-4.8,10.7-10.7c0-5.9-4.8-10.7-10.7-10.7h-96V469.3H416
				c5.9,0,10.7-4.8,10.7-10.7S421.9,448,416,448H224c-5.9,0-10.7,4.8-10.7,10.7s4.8,10.7,10.7,10.7h10.7V576h-96
				c-5.9,0-10.7,4.8-10.7,10.7C128,592.6,132.8,597.3,138.7,597.3z M330.7,533.3c5.9,0,10.7-4.8,10.7-10.7c0-5.9-4.8-10.7-10.7-10.7
				v-42.7H384V576h-53.3L330.7,533.3L330.7,533.3z M256,469.3h53.3V512c-5.9,0-10.7,4.8-10.7,10.7c0,5.9,4.8,10.7,10.7,10.7V576H256
				V469.3z"/>
			<path fill="#A6D1FF" d="M565.3,458.7h-42.7c-5.9,0-10.7,4.8-10.7,10.7v64c0,5.9,4.8,10.7,10.7,10.7h42.7
				c5.9,0,10.7-4.8,10.7-10.7v-64C576,463.4,571.2,458.7,565.3,458.7z M554.7,522.7h-21.3V480h21.3V522.7z"/>
			<path fill="#A6D1FF" d="M565.3,330.7h-42.7c-5.9,0-10.7,4.8-10.7,10.7v64c0,5.9,4.8,10.7,10.7,10.7h42.7
				c5.9,0,10.7-4.8,10.7-10.7v-64C576,335.4,571.2,330.7,565.3,330.7z M554.7,394.7h-21.3V352h21.3V394.7z"/>
			<path fill="#A6D1FF" d="M544,618.7H96c-5.9,0-10.7,4.8-10.7,10.7c0,5.9,4.8,10.7,10.7,10.7h448c5.9,0,10.7-4.8,10.7-10.7
				C554.7,623.4,549.9,618.7,544,618.7z"/>
			<path fill="#A6D1FF" d="M629.3,234.7c-5.9,0-10.7,4.8-10.7,10.7V256H501.3c-5.9,0-10.7,4.8-10.7,10.7c0,5.9,4.8,10.7,10.7,10.7
				h117.3v352c0,5.9,4.8,10.7,10.7,10.7c5.9,0,10.7-4.8,10.7-10.7v-384C640,239.4,635.2,234.7,629.3,234.7z"/>
			<path fill="#A6D1FF" d="M341.3,394.7c0,5.9,4.8,10.7,10.7,10.7h42.7c5.9,0,10.7-4.8,10.7-10.7v-64c0-5.9-4.8-10.7-10.7-10.7H352
				c-5.9,0-10.7,4.8-10.7,10.7L341.3,394.7L341.3,394.7z M362.7,341.3H384V384h-21.3L362.7,341.3L362.7,341.3z"/>
			<path fill="#A6D1FF" d="M106.7,522.7c0-1.4-0.6-138.7-53.3-138.7C0.6,384,0,521.3,0,522.7c0,25.8,18.4,47.3,42.7,52.3v54.4
				c0,5.9,4.8,10.7,10.7,10.7S64,635.2,64,629.3v-54.4C88.3,570,106.7,548.4,106.7,522.7z M53.3,554.7c-17.6,0-32-14.4-32-32
				c0-53.1,14.3-117.3,32-117.3s32,64.2,32,117.3C85.3,540.3,71,554.7,53.3,554.7z"/>
			<path fill="#A6D1FF" d="M469.3,544V224c0-5.9-4.8-10.7-10.7-10.7c-5.9,0-10.7,4.8-10.7,10.7v320c0,5.9,4.8,10.7,10.7,10.7
				C464.6,554.7,469.3,549.9,469.3,544z"/>
			<path fill="#A6D1FF" d="M352,277.3h42.7c5.9,0,10.7-4.8,10.7-10.7v-64c0-5.9-4.8-10.7-10.7-10.7H352c-5.9,0-10.7,4.8-10.7,10.7
				v64C341.3,272.6,346.1,277.3,352,277.3z M362.7,213.3H384V256h-21.3L362.7,213.3L362.7,213.3z"/>
			<path fill="#A6D1FF" d="M10.7,373.3c5.9,0,10.7-4.8,10.7-10.7v-85.3h117.3c5.9,0,10.7-4.8,10.7-10.7c0-5.9-4.8-10.7-10.7-10.7
				H21.3v-10.7c0-5.9-4.8-10.7-10.7-10.7S0,239.4,0,245.3v117.3C0,368.6,4.8,373.3,10.7,373.3z"/>
		</g>
	</g>
</g>
</svg>
