<svg id="Слой_1" data-name="Слой 1" xmlns="http://www.w3.org/2000/svg" viewBox="0 0 35.64 34.94"><defs><style>.cls-1{fill:none;stroke:#fff;stroke-miterlimit:22.93;stroke-width:2.83px;}.cls-1,.cls-2{fill-rule:evenodd;}.cls-2{fill:#d0a158;}</style></defs><title>Calendar</title><path class="cls-1" d="M17.82,33.52a16.26,16.26,0,0,0,16.4-16.05A16.26,16.26,0,0,0,17.82,1.42,16.26,16.26,0,0,0,1.42,17.47,16.26,16.26,0,0,0,17.82,33.52Z"/><path class="cls-2" d="M6.6,8.7V26.24a2.3,2.3,0,0,0,2.3,2.3H26.74a2.3,2.3,0,0,0,2.3-2.3V8.7a2.3,2.3,0,0,0-2.3-2.3H8.9A2.31,2.31,0,0,0,6.6,8.7ZM8.9,26.24V16.32H26.74v9.93ZM26.74,8.7V14H8.9V8.7Z"/><path class="cls-2" d="M13.51,13.45a2,2,0,1,0-2-2,2,2,0,0,0,2,2Zm0-2.31a.29.29,0,1,1-.29.29A.27.27,0,0,1,13.51,11.14Z"/><path class="cls-2" d="M22.13,13.45a2,2,0,1,0-2-2,2,2,0,0,0,2,2Zm0-2.31a.29.29,0,1,1-.29.29A.27.27,0,0,1,22.13,11.14Z"/></svg>