<?xml version="1.0" encoding="utf-8"?>
<!-- Generator: Adobe Illustrator 17.1.0, SVG Export Plug-In . SVG Version: 6.00 Build 0)  -->
<!DOCTYPE svg PUBLIC "-//W3C//DTD SVG 1.1//EN" "http://www.w3.org/Graphics/SVG/1.1/DTD/svg11.dtd">
<svg version="1.1" id="Layer_1" xmlns="http://www.w3.org/2000/svg" xmlns:xlink="http://www.w3.org/1999/xlink" x="0px" y="0px"
	 viewBox="120.3 58.9 399.4 394.2" enable-background="new 120.3 58.9 399.4 394.2" xml:space="preserve">
<g>
	<path fill="#D5A353" d="M152.7,125.2v261.6c0,18.9,15.4,34.3,34.3,34.3H453c18.9,0,34.3-15.4,34.3-34.3V125.2
		c0-18.9-15.4-34.3-34.3-34.3H187C168.2,90.9,152.7,106.3,152.7,125.2z M187,386.8v-148H453v148H187z M453,125.2v79.3H187v-79.3H453
		z"/>
	<path fill="#D5A353" d="M255.7,196c16.7,0,30-13.3,30-30s-13.3-30-30-30s-30,13.3-30,30S238.9,196,255.7,196z M255.7,161.6
		c2.6,0,4.3,1.7,4.3,4.3s-1.7,4.3-4.3,4.3s-4.3-1.7-4.3-4.3S253.1,161.6,255.7,161.6z"/>
	<path fill="#D5A353" d="M384.3,196c16.7,0,30-13.3,30-30s-13.3-30-30-30s-30,13.3-30,30S367.6,196,384.3,196z M384.3,161.6
		c2.6,0,4.3,1.7,4.3,4.3s-1.7,4.3-4.3,4.3s-4.3-1.7-4.3-4.3S381.8,161.6,384.3,161.6z"/>
</g>
</svg>
