<svg xmlns="http://www.w3.org/2000/svg" viewBox="0 0 33.81 33.11"><defs><style>.cls-1{fill:none;stroke:#f9f8f7;stroke-miterlimit:10;}.cls-1,.cls-2{fill-rule:evenodd;}.cls-2{fill:#d0a158;}</style></defs><title>Group</title><g id="Слой_1" data-name="Слой 1"><path class="cls-1" d="M15.31,31.88a16.26,16.26,0,0,0,16.4-16.05A16.26,16.26,0,0,0,15.31-.23,16.26,16.26,0,0,0-1.1,15.82,16.26,16.26,0,0,0,15.31,31.88Z" transform="translate(1.6 0.73)"/><path class="cls-2" d="M22.18,12.61A2.74,2.74,0,0,0,24,11.88,2.61,2.61,0,0,0,24.75,10,2.74,2.74,0,0,0,24,8.21a2.61,2.61,0,0,0-1.83-.73,2.74,2.74,0,0,0-1.83.73A2.33,2.33,0,0,0,19.61,10a2.74,2.74,0,0,0,.73,1.83,2.61,2.61,0,0,0,1.83.73Zm1,12.11a1.07,1.07,0,0,1-1.83,1.1,6.78,6.78,0,0,0-2.49-2.49,7.19,7.19,0,0,0-6.9,0,6.78,6.78,0,0,0-2.49,2.49,1,1,0,0,1-1.47.37,1,1,0,0,1-.37-1.47,9.48,9.48,0,0,1,3.3-3.3,6.72,6.72,0,0,1,1-.51,4.79,4.79,0,0,1-1.32-3.3,5.3,5.3,0,0,1,.59-2.35,6.63,6.63,0,0,0-2.71-.51A6.89,6.89,0,0,0,5,15.62a6.78,6.78,0,0,0-2.49,2.49,1,1,0,0,1-1.47.37A1,1,0,0,1,.69,17,9.49,9.49,0,0,1,4,13.71a6.74,6.74,0,0,1,1-.51A4.1,4.1,0,0,1,3.62,10,4.71,4.71,0,0,1,5,6.67a4.78,4.78,0,0,1,6.75,0A4.71,4.71,0,0,1,13.16,10a4.93,4.93,0,0,1-1.32,3.3c.29.15.51.22.81.37a4.51,4.51,0,0,1,2.64-.81,4.86,4.86,0,0,1,2.64.81,2.72,2.72,0,0,1,.81-.37A4.79,4.79,0,0,1,17.41,10a4.71,4.71,0,0,1,1.39-3.37,4.59,4.59,0,0,1,3.37-1.39A4.76,4.76,0,0,1,27,10a4.92,4.92,0,0,1-1.32,3.3,4.48,4.48,0,0,1,1,.51,9.48,9.48,0,0,1,3.3,3.3,1.07,1.07,0,1,1-1.83,1.1,6.78,6.78,0,0,0-2.49-2.49,6.89,6.89,0,0,0-3.45-.88,8.48,8.48,0,0,0-2.71.51,4.84,4.84,0,0,1,.59,2.35A4.93,4.93,0,0,1,18.73,21a4.48,4.48,0,0,1,1,.51,8.22,8.22,0,0,1,3.38,3.15Zm-7.85-4.48a2.74,2.74,0,0,0,1.83-.73,2.61,2.61,0,0,0,.73-1.83,2.74,2.74,0,0,0-.73-1.83,2.61,2.61,0,0,0-1.83-.73,2.74,2.74,0,0,0-1.83.73,2.61,2.61,0,0,0-.73,1.83,2.51,2.51,0,0,0,2.57,2.57Zm-6.9-7.63a2.74,2.74,0,0,0,1.83-.73A2.61,2.61,0,0,0,11,10a2.74,2.74,0,0,0-.73-1.83,2.61,2.61,0,0,0-1.83-.73,2.43,2.43,0,0,0-1.76.73A2.61,2.61,0,0,0,5.9,10a2.74,2.74,0,0,0,.73,1.83A2.56,2.56,0,0,0,8.39,12.61Z" transform="translate(1.6 0.73)"/></g></svg>