<?xml version="1.0" encoding="utf-8"?>
<!-- Generator: Adobe Illustrator 17.1.0, SVG Export Plug-In . SVG Version: 6.00 Build 0)  -->
<!DOCTYPE svg PUBLIC "-//W3C//DTD SVG 1.1//EN" "http://www.w3.org/Graphics/SVG/1.1/DTD/svg11.dtd">
<svg version="1.1" id="Layer_1" xmlns="http://www.w3.org/2000/svg" xmlns:xlink="http://www.w3.org/1999/xlink" x="0px" y="0px"
	 viewBox="0 0 40.4 28.8" enable-background="new 0 0 40.4 28.8" xml:space="preserve">
<path fill-rule="evenodd" clip-rule="evenodd" fill="#D5A353" d="M29.6,10c1,0,1.8-0.4,2.5-1c0.6-0.6,1-1.5,1-2.5c0-1-0.4-1.8-1-2.5
	c-0.6-0.6-1.5-1-2.5-1c-1,0-1.8,0.4-2.5,1s-1,1.5-1,2.5c0,1,0.4,1.8,1,2.5C27.7,9.6,28.6,10,29.6,10L29.6,10z M30.9,26.5
	c0.4,0.7,0.2,1.6-0.5,2c-0.7,0.4-1.6,0.2-2-0.5c-0.8-1.4-2-2.6-3.4-3.4c-1.4-0.8-3-1.2-4.7-1.2s-3.3,0.4-4.7,1.2
	c-1.4,0.8-2.6,2-3.4,3.4c-0.4,0.7-1.3,1-2,0.5c-0.7-0.4-1-1.3-0.5-2c1.1-1.9,2.7-3.4,4.5-4.5c0.5-0.3,0.9-0.5,1.4-0.7
	c-1.1-1.2-1.8-2.7-1.8-4.5c0-1.1,0.3-2.2,0.8-3.2c-1.1-0.5-2.4-0.7-3.7-0.7c-1.7,0-3.3,0.4-4.7,1.2c-1.4,0.8-2.6,2-3.4,3.4
	c-0.4,0.7-1.3,1-2,0.5c-0.7-0.4-1-1.3-0.5-2c1.1-1.9,2.7-3.4,4.5-4.5c0.5-0.3,0.9-0.5,1.4-0.7C5,9.8,4.3,8.2,4.3,6.5
	c0-1.8,0.7-3.4,1.9-4.6C7.4,0.7,9.1,0,10.8,0s3.4,0.7,4.6,1.9c1.2,1.2,1.9,2.8,1.9,4.6c0,1.7-0.7,3.3-1.8,4.5
	c0.4,0.2,0.7,0.3,1.1,0.5c1-0.7,2.2-1.1,3.6-1.1c1.3,0,2.5,0.4,3.6,1.1c0.3-0.2,0.7-0.4,1.1-0.5c-1.1-1.2-1.8-2.7-1.8-4.5
	c0-1.8,0.7-3.4,1.9-4.6C26.1,0.7,27.8,0,29.6,0c1.8,0,3.4,0.7,4.6,1.9c1.2,1.2,1.9,2.8,1.9,4.6c0,1.7-0.7,3.3-1.8,4.5
	c0.5,0.2,1,0.4,1.4,0.7c1.8,1.1,3.4,2.6,4.5,4.5c0.4,0.7,0.2,1.6-0.5,2c-0.7,0.4-1.6,0.2-2-0.5c-0.8-1.4-2-2.6-3.4-3.4
	c-1.4-0.8-3-1.2-4.7-1.2c-1.3,0-2.5,0.3-3.7,0.7c0.5,0.9,0.8,2,0.8,3.2c0,1.7-0.7,3.3-1.8,4.5c0.5,0.2,1,0.4,1.4,0.7
	C28.2,23.1,29.8,24.7,30.9,26.5L30.9,26.5z M20.2,20.4c1,0,1.8-0.4,2.5-1c0.6-0.6,1-1.5,1-2.5s-0.4-1.8-1-2.5c-0.6-0.6-1.5-1-2.5-1
	s-1.8,0.4-2.5,1c-0.6,0.6-1,1.5-1,2.5s0.4,1.8,1,2.5C18.4,20,19.2,20.4,20.2,20.4L20.2,20.4z M10.8,10c1,0,1.8-0.4,2.5-1
	c0.6-0.6,1-1.5,1-2.5c0-1-0.4-1.8-1-2.5c-0.6-0.6-1.5-1-2.5-1S9,3.4,8.4,4c-0.6,0.6-1,1.5-1,2.5c0,1,0.4,1.8,1,2.5
	C9,9.6,9.9,10,10.8,10z"/>
</svg>
