<svg xmlns="http://www.w3.org/2000/svg" viewBox="0 0 33.81 33.11"><defs><style>.cls-1{fill:none;stroke:#fff;stroke-miterlimit:10;}.cls-1,.cls-2{fill-rule:evenodd;}.cls-2{fill:#d0a158;}</style></defs><title>level-master</title><g id="Слой_1" data-name="Слой 1"><path class="cls-1" d="M15.31,31.88a16.26,16.26,0,0,0,16.4-16.05A16.26,16.26,0,0,0,15.31-.23,16.26,16.26,0,0,0-1.1,15.82,16.26,16.26,0,0,0,15.31,31.88Z" transform="translate(1.6 0.73)"/><path class="cls-2" d="M8.45,26a2.11,2.11,0,1,0-1.29-1,2.12,2.12,0,0,0,1.29,1Zm17-13.64-.38,1.19H23.83a.9.9,0,0,0-.53,1.63h0l1,.74-.39,1.19a.91.91,0,0,0,1.45,1l1-.7,1,.74a.9.9,0,0,0,1.26-.2.89.89,0,0,0,.13-.81h0L28.35,16l1-.74a.9.9,0,0,0-.6-1.63H27.59l-.4-1.19a.9.9,0,0,0-1.72,0Zm-20.34,0,.38,1.19H6.77a.9.9,0,0,1,.53,1.63h0l-1,.74.39,1.19a.91.91,0,0,1-1.45,1l-1-.7-1,.74A.9.9,0,0,1,2,18a.89.89,0,0,1-.13-.81h0L2.26,16l-1-.74a.9.9,0,0,1,.6-1.63H3l.38-1.19a.91.91,0,0,1,1.72,0Zm11-9.76.38,1.19h1.26a.9.9,0,0,1,.53,1.63h0l-1,.74.39,1.19a.91.91,0,0,1-1.45,1l-1-.7-1,.74a.9.9,0,0,1-1.26-.2.89.89,0,0,1-.13-.81h0l.39-1.19-1-.74a.9.9,0,0,1,.6-1.63H14l.38-1.19a.91.91,0,0,1,1.72,0ZM9.44,7.27l3.27,5.67h0l2.51,4.36,2.51-4.35h0L21,7.23a.91.91,0,0,1,1.24-.33h0l0,0h0a.89.89,0,0,1,.3.51h0v0h0v.07h0v0a.92.92,0,0,1-.06.24L19,18a.9.9,0,0,1-.46.52l-2.06,1L18,22.1,18,22a3.92,3.92,0,1,1-.36,3.1l-2.44-4.23L12.7,25.27A3.92,3.92,0,1,1,12.38,22l0,.08L14,19.49l-2.06-1a.89.89,0,0,1-.46-.52L7.78,8a.9.9,0,0,1,1.66-.72Zm13,14.9a2.12,2.12,0,1,0,1,1.29A2.13,2.13,0,0,0,22.49,22.17Z" transform="translate(1.6 0.73)"/></g></svg>