<svg xmlns="http://www.w3.org/2000/svg" viewBox="0 0 33.81 33.11"><defs><style>.cls-1{fill:none;stroke:#fff;stroke-miterlimit:10;}.cls-1,.cls-2{fill-rule:evenodd;}.cls-2{fill:#d0a158;}</style></defs><title>level-noob</title><g id="Слой_1" data-name="Слой 1"><path class="cls-1" d="M15.31,31.88a16.26,16.26,0,0,0,16.4-16.05A16.26,16.26,0,0,0,15.31-.23,16.26,16.26,0,0,0-1.1,15.82,16.26,16.26,0,0,0,15.31,31.88Z" transform="translate(1.6 0.73)"/><path class="cls-2" d="M8.24,25A2.3,2.3,0,0,0,10,24.85a2,2,0,0,0,1-1.34,2.3,2.3,0,0,0-.19-1.72,2,2,0,0,0-1.34-1A2.3,2.3,0,0,0,7.73,21a2,2,0,0,0-1,1.34A2.3,2.3,0,0,0,6.9,24a2.46,2.46,0,0,0,1.34,1Zm1-19.84,3.44,6h0l2.68,4.59,2.68-4.59h0l3.51-6.06a.88.88,0,0,1,1.27-.32h.06a.88.88,0,0,1,.32.51h0v.06h0a.38.38,0,0,1-.06.26L19.34,16.17a.91.91,0,0,1-.51.58l-2.1,1.34,1.59,2.74v-.06a4,4,0,0,1,2.49-1.91,3.82,3.82,0,0,1,3.13.45,4,4,0,0,1,1.91,2.49,3.82,3.82,0,0,1-.45,3.13,4,4,0,0,1-2.49,1.91,3.82,3.82,0,0,1-3.13-.45A4.15,4.15,0,0,1,17.87,24l-2.55-4.46-2.68,4.59a4,4,0,0,1-1.85,2.23,4.38,4.38,0,0,1-3.13.45,4.25,4.25,0,0,1-2.49-1.91,4.38,4.38,0,0,1-.44-3.13A4.25,4.25,0,0,1,6.64,19.3a4.37,4.37,0,0,1,3.13-.45,4.25,4.25,0,0,1,2.49,1.91l.06.06,1.59-2.74-2.17-1a1.13,1.13,0,0,1-.51-.57L7.54,6a.92.92,0,0,1,.58-1.21.93.93,0,0,1,1.15.45ZM23,21a2.26,2.26,0,0,0-1.72-.19,2.45,2.45,0,0,0-1.34,1,2.27,2.27,0,0,0-.19,1.72,2.45,2.45,0,0,0,1,1.34,2.26,2.26,0,0,0,1.72.19,2.45,2.45,0,0,0,1.34-1,2.26,2.26,0,0,0,.19-1.72A2,2,0,0,0,23,21Z" transform="translate(1.6 0.73)"/></g></svg>