<?xml version="1.0" encoding="utf-8"?>
<!-- Generator: Adobe Illustrator 17.1.0, SVG Export Plug-In . SVG Version: 6.00 Build 0)  -->
<!DOCTYPE svg PUBLIC "-//W3C//DTD SVG 1.1//EN" "http://www.w3.org/Graphics/SVG/1.1/DTD/svg11.dtd">
<svg version="1.1" id="Layer_1" xmlns="http://www.w3.org/2000/svg" xmlns:xlink="http://www.w3.org/1999/xlink" x="0px" y="0px"
	 viewBox="0 0 640 640" enable-background="new 0 0 640 640" xml:space="preserve">
<path fill-rule="evenodd" clip-rule="evenodd" fill="#D4A253" d="M152.8,588.5c13.8,3.7,27.7,1.5,39.1-5.1
	c11.4-6.6,20.3-17.5,24-31.3c3.7-13.8,1.5-27.7-5.1-39.1c-6.6-11.4-17.5-20.3-31.3-24c-13.8-3.7-27.7-1.5-39.1,5.1
	c-11.4,6.6-20.3,17.5-24,31.3c-3.7,13.8-1.5,27.7,5.1,39.1C128.1,575.9,139.1,584.8,152.8,588.5L152.8,588.5z M338.7,19.3l9.4,29
	l30.5-0.1c12.1,0,22,9.8,22,22c0,7.3-3.6,13.8-9.1,17.8l0,0l-24.7,17.9l9.5,29c3.8,11.6-2.6,24-14.1,27.7
	c-7.5,2.5-15.5,0.6-21.1-4.2l-23.3-17l-24.7,18c-9.8,7.1-23.5,5-30.7-4.8c-4.3-5.9-5.2-13.2-3.1-19.7l-0.1,0l9.5-29L244.1,88
	c-9.8-7.1-12-20.9-4.9-30.8c4.6-6.4,12.1-9.6,19.4-9l28.9,0.1l9.4-29C300.6,7.7,313,1.3,324.5,5.1C331.5,7.3,336.6,12.8,338.7,19.3
	L338.7,19.3z M177,131.8l79.6,137.8l0,0l61.2,106L379,269.7l0-0.1l0,0l80.2-138.9c6.1-10.5,19.6-14.1,30.1-8l0.5,0.3h0l0.5,0.3
	l0.9,0.6l0,0l0.4,0.3l0.1,0l0.4,0.3l0.1,0l0.3,0.3c3.9,3.3,6.4,7.7,7.4,12.5l0,0l0,0.2l0.1,0.3l0.1,0.5l0,0.2l0,0.3l0,0.2l0,0.3
	l0,0.2l0,0.3l0,0.2l0,0.4l0,0.2l0,0.4l0,0.2l0,0.4c0,0.5,0,1.1-0.1,1.6l0,0.1l0,0.4c-0.2,2-0.7,4-1.4,6l-88.6,242.5
	c-1.8,5.4-5.7,10-11.2,12.7l-50.1,24.2l36.5,63.2l0.7-1.3c12.2-21.2,32.5-37.7,58-44.5c25.5-6.8,51.3-2.7,72.5,9.6
	c21.2,12.2,37.7,32.5,44.5,58c6.8,25.5,2.7,51.3-9.6,72.5c-12.2,21.2-32.5,37.7-58,44.5c-25.5,6.8-51.3,2.7-72.5-9.6
	c-20.4-11.8-36.4-31-43.7-55.1l-59.4-102.8l-61.2,106c-7.7,22.6-23.2,40.7-42.7,51.9c-21.2,12.2-47,16.4-72.5,9.6
	c-25.5-6.8-45.8-23.3-58-44.5c-12.2-21.2-16.4-47-9.6-72.5c6.8-25.5,23.3-45.8,44.5-58c21.2-12.2,47-16.4,72.5-9.6
	c25.5,6.8,45.8,23.3,58,44.5l1.1,2l36.9-63.9l-50.1-24.2c-5.5-2.7-9.4-7.3-11.2-12.7l-88.8-243.1c-4.1-11.4,1.8-24,13.2-28.2
	C160.5,117.2,172.1,122,177,131.8L177,131.8z M494.3,494.1c-11.4-6.6-25.3-8.8-39.1-5.1c-13.7,3.7-24.7,12.6-31.3,24
	c-6.6,11.4-8.8,25.3-5.1,39.1c3.7,13.7,12.6,24.7,24,31.3c11.4,6.6,25.3,8.8,39.1,5.1c13.7-3.7,24.7-12.6,31.3-24
	c6.6-11.4,8.8-25.3,5.1-39.1C514.7,511.7,505.8,500.7,494.3,494.1z"/>
</svg>
