<?xml version="1.0" encoding="utf-8"?>
<!-- Generator: Adobe Illustrator 17.1.0, SVG Export Plug-In . SVG Version: 6.00 Build 0)  -->
<!DOCTYPE svg PUBLIC "-//W3C//DTD SVG 1.1//EN" "http://www.w3.org/Graphics/SVG/1.1/DTD/svg11.dtd">
<svg version="1.1" id="Layer_1" xmlns="http://www.w3.org/2000/svg" xmlns:xlink="http://www.w3.org/1999/xlink" x="0px" y="0px"
	 viewBox="0 0 640 640" enable-background="new 0 0 640 640" xml:space="preserve">
<path fill-rule="evenodd" clip-rule="evenodd" fill="#D4A253" d="M167.9,544.2c12.5,3.4,25.2,1.3,35.6-4.6c10.4-6,18.5-16,21.9-28.5
	c3.4-12.5,1.3-25.2-4.6-35.6c-6-10.4-16-18.5-28.5-21.9c-12.5-3.4-25.2-1.3-35.6,4.6c-10.4,6-18.5,16-21.9,28.5
	c-3.4,12.5-1.3,25.2,4.6,35.6C145.4,532.7,155.4,540.8,167.9,544.2L167.9,544.2z M544.9,242l-8.5,26.4l-27.8-0.1c-11,0-20,9-20,20
	c0,6.7,3.3,12.6,8.3,16.2l0,0l22.5,16.3l-8.6,26.4c-3.4,10.5,2.3,21.8,12.9,25.3c6.9,2.2,14.1,0.6,19.2-3.8l21.2-15.5l22.5,16.4
	c8.9,6.5,21.4,4.5,27.9-4.4c3.9-5.4,4.8-12.1,2.8-17.9l0.1,0l-8.6-26.4l22.5-16.3c9-6.5,11-19,4.5-28c-4.2-5.8-11-8.7-17.7-8.2
	l-26.3,0L583,242c-3.4-10.5-14.7-16.3-25.2-12.9C551.5,231.1,546.8,236.1,544.9,242L544.9,242z M94.5,242l8.5,26.4l27.8-0.1
	c11,0,20,9,20,20c0,6.7-3.3,12.6-8.3,16.2l0,0l-22.5,16.3l8.6,26.4c3.4,10.5-2.3,21.8-12.9,25.3c-6.9,2.2-14.1,0.6-19.2-3.8
	l-21.2-15.5L53,369.6c-8.9,6.5-21.4,4.5-27.9-4.4c-3.9-5.4-4.8-12.1-2.8-17.9l-0.1,0l8.6-26.4L8.3,304.6c-9-6.5-11-19-4.5-28
	c4.2-5.8,11-8.7,17.7-8.2l26.3,0l8.5-26.4c3.4-10.5,14.7-16.3,25.2-12.9C87.9,231.1,92.6,236.1,94.5,242L94.5,242z M337.2,25.9
	l8.5,26.4l27.8-0.1c11,0,20,9,20,20c0,6.7-3.3,12.6-8.3,16.2l0,0l-22.5,16.3l8.6,26.4c3.4,10.5-2.3,21.8-12.9,25.3
	c-6.9,2.2-14.1,0.6-19.2-3.8l-21.2-15.5l-22.5,16.4c-8.9,6.5-21.4,4.5-27.9-4.4c-3.9-5.4-4.8-12.1-2.8-17.9l-0.1,0l8.6-26.4
	L251,88.5c-9-6.5-11-19-4.5-28c4.2-5.8,11-8.7,17.7-8.2l26.3,0l8.5-26.4c3.4-10.5,14.7-16.3,25.2-12.9C330.6,15,335.3,20,337.2,25.9
	L337.2,25.9z M189.9,128.3l72.5,125.5l0,0l55.7,96.5l55.7-96.4l0-0.1l0,0l73-126.5c5.5-9.6,17.8-12.8,27.4-7.3l0.4,0.3h0l0.4,0.3
	l0.8,0.6l0,0l0.4,0.3l0,0l0.3,0.3l0.1,0l0.3,0.3c3.5,3,5.9,7,6.7,11.4l0,0l0,0.2l0.1,0.3l0.1,0.5l0,0.2l0,0.3l0,0.2l0,0.3l0,0.2
	l0,0.3l0,0.2l0,0.3l0,0.2l0,0.3l0,0.2l0,0.3c0,0.5,0,1,0,1.5l0,0.1l0,0.4c-0.2,1.8-0.6,3.7-1.3,5.4l-80.7,220.8
	c-1.7,4.9-5.2,9.1-10.2,11.5l-45.7,22l33.2,57.5l0.7-1.2c11.1-19.3,29.6-34.3,52.8-40.5c23.2-6.2,46.7-2.4,66,8.7
	c19.3,11.1,34.3,29.6,40.5,52.8c6.2,23.2,2.4,46.7-8.7,66c-11.1,19.3-29.6,34.3-52.8,40.5c-23.2,6.2-46.7,2.4-66-8.7
	c-18.5-10.7-33.2-28.2-39.8-50.2l-54-93.6l-55.7,96.5c-7,20.6-21.1,37-38.8,47.3c-19.3,11.1-42.8,14.9-66,8.7
	c-23.2-6.2-41.7-21.2-52.8-40.5c-11.1-19.3-14.9-42.8-8.7-66c6.2-23.2,21.2-41.7,40.5-52.8c19.3-11.1,42.8-14.9,66-8.7
	c23.2,6.2,41.7,21.2,52.8,40.5l1,1.8L290,399l-45.7-22c-5-2.4-8.6-6.7-10.2-11.5l-80.9-221.3c-3.8-10.4,1.6-21.9,12-25.6
	C174.9,115,185.4,119.4,189.9,128.3L189.9,128.3z M478.9,458.3c-10.4-6-23-8-35.6-4.6c-12.5,3.3-22.5,11.5-28.5,21.9
	c-6,10.4-8,23-4.6,35.6c3.3,12.5,11.5,22.5,21.9,28.5c10.4,6,23,8,35.6,4.6c12.5-3.3,22.5-11.5,28.5-21.9c6-10.4,8-23,4.6-35.6
	C497.4,474.2,489.2,464.3,478.9,458.3z"/>
</svg>
