<?xml version="1.0" encoding="utf-8"?>
<!-- Generator: Adobe Illustrator 17.1.0, SVG Export Plug-In . SVG Version: 6.00 Build 0)  -->
<!DOCTYPE svg PUBLIC "-//W3C//DTD SVG 1.1//EN" "http://www.w3.org/Graphics/SVG/1.1/DTD/svg11.dtd">
<svg version="1.1" id="Layer_1" xmlns="http://www.w3.org/2000/svg" xmlns:xlink="http://www.w3.org/1999/xlink" x="0px" y="0px"
	 viewBox="0 0 640 640" enable-background="new 0 0 640 640" xml:space="preserve">
<path fill="#D5A353" d="M151.9,535.4c13.5,4.5,28.4,1.5,40.4-4.5c12-6,21-18,24-31.4c4.5-13.5,1.5-28.4-4.5-40.4
	c-6-12-18-21-31.4-24c-13.5-4.5-28.4-1.5-40.4,4.5c-12,6-21,18-24,31.4c-4.5,13.5-1.5,28.4,4.5,40.4
	C126.5,521.9,138.5,530.9,151.9,535.4L151.9,535.4z M175.9,69.8l80.8,140.7l0,0l62.9,107.8l62.9-107.8l0,0l0,0l82.3-142.2
	c6-10.5,19.5-15,29.9-7.5l0,0l0,0l0,0h1.5l0,0l0,0l0,0l0,0l0,0l0,0c4.5,3,6,7.5,7.5,12l0,0l0,0l0,0l0,0l0,0l0,0l0,0l0,0l0,0l0,0l0,0
	l0,0l0,0l0,0l0,0l0,0v1.5l0,0l0,0c0,1.5,0,4.5-1.5,6l-89.8,247c-1.5,6-6,10.5-12,13.5L351,372.2l37.4,64.4v-1.5
	c12-21,32.9-38.9,58.4-44.9c25.4-7.5,52.4-3,73.4,10.5c21,12,38.9,32.9,44.9,58.4c7.5,25.4,3,52.4-10.5,73.4
	c-12,21-32.9,38.9-58.4,44.9c-25.4,7.5-52.4,3-73.4-10.5c-21-12-37.4-31.4-44.9-55.4l-59.9-104.8l-62.9,107.8
	c-7.5,22.5-24,41.9-43.4,52.4c-21,12-47.9,16.5-73.4,10.5c-25.4-7.5-46.4-24-58.4-44.9S63.6,484.5,69.6,459
	c7.5-25.4,24-46.4,44.9-58.4s47.9-16.5,73.4-10.5c25.4,7.5,46.4,24,58.4,44.9l1.5,1.5l37.4-64.4l-50.9-24c-6-3-9-7.5-12-13.5
	l-86.8-247c-4.5-12,1.5-24,13.5-28.4C159.4,54.8,171.4,60.8,175.9,69.8L175.9,69.8z M499.3,439.6c-12-6-25.4-9-40.4-4.5
	c-13.5,4.5-25.4,13.5-31.4,24c-6,12-9,25.4-4.5,40.4c4.5,13.5,13.5,25.4,24,31.4c12,6,25.4,9,40.4,4.5c13.5-4.5,25.4-13.5,31.4-24
	c6-12,9-25.4,4.5-40.4C520.2,457.5,511.2,445.6,499.3,439.6z"/>
</svg>
