<svg xmlns="http://www.w3.org/2000/svg" viewBox="0 0 33.81 33.11"><defs><style>.cls-1{fill:none;stroke:#fff;stroke-miterlimit:10;}.cls-1,.cls-2{fill-rule:evenodd;}.cls-2{fill:#d0a158;}</style></defs><title>level-medium</title><g id="Слой_1" data-name="Слой 1"><path class="cls-1" d="M15.31,31.88a16.26,16.26,0,0,0,16.4-16.05A16.26,16.26,0,0,0,15.31-.23,16.26,16.26,0,0,0-1.1,15.82,16.26,16.26,0,0,0,15.31,31.88Z" transform="translate(1.6 0.73)"/><path class="cls-2" d="M8.49,24.46a2.1,2.1,0,1,0-1.28-1,2.11,2.11,0,0,0,1.28,1ZM25.41,10.9,25,12.09H23.78a.9.9,0,0,0-.52,1.62h0l1,.73-.39,1.18a.9.9,0,0,0,1.44,1l1-.69,1,.74a.9.9,0,0,0,1.38-1h0l-.39-1.18,1-.73a.9.9,0,0,0-.59-1.62H27.51l-.38-1.18A.9.9,0,0,0,26,10.33a.88.88,0,0,0-.6.58ZM5.2,10.9l.38,1.18H6.83a.9.9,0,0,1,.52,1.62h0l-1,.73.39,1.18a.9.9,0,0,1-1.44,1l-1-.69-1,.74a.9.9,0,0,1-1.38-1h0l.39-1.18-1-.73a.9.9,0,0,1,.59-1.62H3.1l.38-1.18a.9.9,0,0,1,1.72,0ZM9.48,5.8l3.25,5.63h0l2.5,4.33,2.5-4.33h0L21,5.76a.9.9,0,0,1,1.23-.33h0l0,0h0a.89.89,0,0,1,.3.51h0v0h0v.07h0v0a.89.89,0,0,1-.06.24L19,16.45a.89.89,0,0,1-.46.52l-2,1L18,20.54l0-.05a3.9,3.9,0,1,1-.36,3.08l-2.43-4.2-2.5,4.33a3.9,3.9,0,1,1-.32-3.21l0,.08L14,18l-2-1a.89.89,0,0,1-.46-.52L7.82,6.52A.91.91,0,0,1,9.48,5.8Zm13,14.8a2.11,2.11,0,1,0,1,1.28A2.09,2.09,0,0,0,22.44,20.6Z" transform="translate(1.6 0.73)"/></g></svg>