<?xml version="1.0" encoding="utf-8"?>
<!-- Generator: Adobe Illustrator 17.1.0, SVG Export Plug-In . SVG Version: 6.00 Build 0)  -->
<!DOCTYPE svg PUBLIC "-//W3C//DTD SVG 1.1//EN" "http://www.w3.org/Graphics/SVG/1.1/DTD/svg11.dtd">
<svg version="1.1" id="Layer_1" xmlns="http://www.w3.org/2000/svg" xmlns:xlink="http://www.w3.org/1999/xlink" x="0px" y="0px"
	 viewBox="0 0 640 640" enable-background="new 0 0 640 640" xml:space="preserve">
<path fill-rule="evenodd" clip-rule="evenodd" fill="#D4A253" d="M168.2,512.6c12.5,3.4,25.2,1.3,35.6-4.6c10.4-6,18.5-16,21.9-28.5
	c3.4-12.5,1.3-25.2-4.6-35.6c-6-10.4-16-18.5-28.5-21.9c-12.5-3.4-25.2-1.3-35.6,4.6c-10.4,6-18.5,16-21.9,28.5
	c-3.4,12.5-1.3,25.2,4.6,35.6C145.7,501.1,155.7,509.2,168.2,512.6L168.2,512.6z M545.4,210.3l-8.5,26.4l-27.8-0.1
	c-11.1,0-20,9-20,20c0,6.7,3.3,12.6,8.3,16.2l0,0l22.5,16.3l-8.6,26.4c-3.4,10.5,2.3,21.8,12.9,25.3c6.9,2.2,14.1,0.6,19.2-3.8
	l21.2-15.5l22.5,16.4c8.9,6.5,21.4,4.5,27.9-4.4c3.9-5.4,4.8-12.1,2.9-17.9l0.1,0l-8.6-26.4l22.5-16.3c9-6.5,11-19,4.5-28
	c-4.2-5.8-11-8.7-17.7-8.2l-26.3,0l-8.5-26.4c-3.4-10.5-14.7-16.3-25.2-12.9C552,199.4,547.3,204.3,545.4,210.3L545.4,210.3z
	 M94.8,210.3l8.5,26.4l27.8-0.1c11.1,0,20,9,20,20c0,6.7-3.3,12.6-8.3,16.2l0,0l-22.5,16.3l8.6,26.4c3.4,10.5-2.3,21.8-12.9,25.3
	c-6.9,2.2-14.1,0.6-19.2-3.8l-21.2-15.5l-22.5,16.4c-8.9,6.5-21.4,4.5-27.9-4.4c-3.9-5.4-4.8-12.1-2.9-17.9l-0.1,0l8.6-26.4
	L8.5,272.9c-9-6.5-11-19-4.5-28c4.2-5.8,11-8.7,17.7-8.2l26.3,0l8.5-26.4c3.4-10.5,14.7-16.3,25.2-12.9
	C88.2,199.4,92.8,204.3,94.8,210.3L94.8,210.3z M190.2,96.5l72.5,125.6l0,0l55.8,96.6l55.7-96.5l0-0.1l0,0l73.1-126.6
	c5.5-9.6,17.8-12.8,27.4-7.3l0.4,0.3h0l0.4,0.3l0.8,0.6l0,0l0.4,0.3l0,0l0.3,0.3l0.1,0l0.3,0.3c3.5,3,5.9,7,6.7,11.4l0,0l0,0.2
	l0.1,0.3l0.1,0.5l0,0.2l0,0.3l0,0.2l0,0.3l0,0.2l0,0.3l0,0.2l0,0.3l0,0.2l0,0.3l0,0.2l0,0.3c0,0.5,0,1,0,1.5l0,0.1l0,0.4
	c-0.2,1.8-0.6,3.7-1.3,5.4l-80.7,220.9c-1.7,4.9-5.2,9.1-10.2,11.5l-45.7,22l33.2,57.6l0.7-1.2c11.1-19.3,29.6-34.3,52.8-40.5
	c23.2-6.2,46.7-2.4,66,8.7c19.3,11.1,34.3,29.6,40.5,52.8c6.2,23.2,2.4,46.7-8.7,66c-11.1,19.3-29.6,34.3-52.8,40.5
	c-23.2,6.2-46.7,2.4-66-8.7c-18.5-10.7-33.2-28.2-39.8-50.2l-54.1-93.6l-55.7,96.5c-7,20.6-21.1,37.1-38.9,47.3
	c-19.3,11.1-42.8,14.9-66,8.7c-23.2-6.2-41.7-21.3-52.8-40.5c-11.1-19.3-14.9-42.8-8.7-66c6.2-23.2,21.3-41.7,40.5-52.8
	c19.3-11.1,42.8-14.9,66-8.7c23.2,6.2,41.7,21.3,52.8,40.5l1,1.8l33.6-58.2l-45.7-22c-5-2.4-8.6-6.7-10.2-11.5l-80.9-221.4
	c-3.8-10.4,1.6-21.9,12-25.7C175.2,83.2,185.7,87.6,190.2,96.5L190.2,96.5z M479.3,426.6c-10.4-6-23.1-8-35.6-4.6
	c-12.5,3.3-22.5,11.5-28.5,21.9c-6,10.4-8,23.1-4.7,35.6c3.3,12.5,11.5,22.5,21.9,28.5c10.4,6,23.1,8,35.6,4.6
	c12.5-3.3,22.5-11.5,28.5-21.9c6-10.4,8-23.1,4.6-35.6C497.8,442.6,489.7,432.6,479.3,426.6z"/>
</svg>
