<svg xmlns="http://www.w3.org/2000/svg" viewBox="0 0 33.81 33.11"><defs><style>.cls-1{fill:none;stroke:#fff;stroke-miterlimit:10;}.cls-1,.cls-2{fill-rule:evenodd;}.cls-2{fill:#d0a158;}</style></defs><title>level-beginner</title><g id="Слой_1" data-name="Слой 1"><path class="cls-1" d="M15.31,31.88a16.26,16.26,0,0,0,16.4-16.05A16.26,16.26,0,0,0,15.31-.23,16.26,16.26,0,0,0-1.1,15.82,16.26,16.26,0,0,0,15.31,31.88Z" transform="translate(1.6 0.73)"/><path class="cls-2" d="M8.37,26.34a2.17,2.17,0,1,0-1.32-1,2.16,2.16,0,0,0,1.32,1Zm7.84-24,.4,1.22h1.29a.93.93,0,0,1,.54,1.68h0l-1,.75.4,1.22a.93.93,0,0,1-1.48,1l-1-.72-1,.76a.92.92,0,0,1-1.43-1h0L13.26,6l-1-.75A.93.93,0,0,1,12,3.95a.92.92,0,0,1,.82-.38H14l.4-1.22a.93.93,0,0,1,1.76,0ZM9.39,7.09l3.36,5.81h0l2.58,4.47,2.58-4.46h0L21.29,7a.93.93,0,0,1,1.27-.34h0l0,0h.05a.94.94,0,0,1,.31.53h0v0h0v0h0v0h0v0a.36.36,0,0,1,0,.07h0v0a1.09,1.09,0,0,1-.06.25L19.21,18.07a.92.92,0,0,1-.47.54l-2.11,1,1.54,2.66,0-.05a4,4,0,1,1-.37,3.18l-2.5-4.33-2.58,4.47a4,4,0,1,1-.33-3.31l0,.08L14,19.63l-2.11-1a.92.92,0,0,1-.47-.54L7.69,7.82a.93.93,0,0,1,1.7-.73ZM22.77,22.37a2.18,2.18,0,1,0,1,1.32A2.16,2.16,0,0,0,22.77,22.37Z" transform="translate(1.6 0.73)"/></g></svg>