<svg id="Слой_1" data-name="Слой 1" xmlns="http://www.w3.org/2000/svg" viewBox="0 0 35.64 34.94"><defs><style>.cls-1{fill:none;stroke-width:2.83px;}.cls-1,.cls-3{stroke:#fff;stroke-miterlimit:22.93;}.cls-1,.cls-2,.cls-3{fill-rule:evenodd;}.cls-2{fill:#d0a158;}.cls-3{fill:#fff;stroke-width:0.22px;}</style></defs><title>sand-clock</title><path class="cls-1" d="M17.82,33.52a16.26,16.26,0,0,0,16.4-16.05A16.26,16.26,0,0,0,17.82,1.42,16.26,16.26,0,0,0,1.42,17.47,16.26,16.26,0,0,0,17.82,33.52Z"/><path class="cls-2" d="M19.33,17.47l3.51-4L27,8.63a1.14,1.14,0,0,0-.86-1.88H9.52a1.14,1.14,0,0,0-.8,2l4.1,4.73,3.51,4-3.51,4-4.1,4.73a1.14,1.14,0,0,0,.8,2H26.13A1.14,1.14,0,0,0,27,26.32l-4.15-4.8-3.51-4Zm1.79-5.54H14.53L12,9H23.63Z"/><polygon class="cls-3" points="17.85 18.93 14.76 22.41 20.94 22.41 17.85 18.93"/></svg>