<svg xmlns="http://www.w3.org/2000/svg" viewBox="0 0 33.81 33.11"><defs><style>.cls-1{fill:none;stroke:#fff;stroke-miterlimit:10;}.cls-1,.cls-2{fill-rule:evenodd;}.cls-2{fill:#d0a158;}</style></defs><title>single</title><g id="Слой_1" data-name="Слой 1"><path class="cls-1" d="M15.31,31.88a16.26,16.26,0,0,0,16.4-16.05A16.26,16.26,0,0,0,15.31-.23,16.26,16.26,0,0,0-1.1,15.82,16.26,16.26,0,0,0,15.31,31.88Z" transform="translate(1.6 0.73)"/><path class="cls-2" d="M15.3,17.64a4.23,4.23,0,0,0,3.13-1.33,4.5,4.5,0,0,0,1.33-3.13,4,4,0,0,0-.47-1.93,4.12,4.12,0,0,0-1-1.33h-6a5,5,0,0,0-1,1.33,4.85,4.85,0,0,0-.47,1.93,4.23,4.23,0,0,0,1.33,3.13,4.12,4.12,0,0,0,3.13,1.33ZM8.17,5.78a1,1,0,0,1-1-1,1,1,0,0,1,1-1H22.3a1,1,0,0,1,1,1,1,1,0,0,1-1,1H20.1V8.91h0a7.14,7.14,0,0,1,1,1.47,6.65,6.65,0,0,1,.67,2.8,6.39,6.39,0,0,1-1.87,4.53c-.2.2-.4.33-.6.53a13.07,13.07,0,0,1,2.4,1.07h0A12.54,12.54,0,0,1,26.36,24a1,1,0,1,1-1.73.93A10.6,10.6,0,0,0,20.7,21h0a5.45,5.45,0,0,0-1.27-.6L18.1,21.9a1,1,0,0,1-1.4.07l-.13-.13h0l-1.2-1.6L14.1,21.9l-.2.2a1,1,0,0,1-1.4-.2l-1.2-1.47a13.3,13.3,0,0,0-1.4.67H9.83A10.43,10.43,0,0,0,6,25a1,1,0,1,1-1.73-.93,13.4,13.4,0,0,1,4.6-4.67.07.07,0,0,0,.07-.07,9.76,9.76,0,0,1,2.4-1.07h.07a4.34,4.34,0,0,1-.6-.53A6.51,6.51,0,0,1,8.9,13.24a6.65,6.65,0,0,1,.67-2.8,4.51,4.51,0,0,1,.93-1.53h0V5.78ZM18.1,7.91V5.78H12.5V7.91Z" transform="translate(1.6 0.73)"/></g></svg>