<svg xmlns="http://www.w3.org/2000/svg" viewBox="0 0 33.81 33.11"><defs><style>.cls-1{fill:none;stroke:#fff;stroke-miterlimit:10;}.cls-1,.cls-2{fill-rule:evenodd;}.cls-2{fill:#d0a158;}</style></defs><title>time-small</title><g id="Слой_1" data-name="Слой 1"><path class="cls-1" d="M15.31,31.88a16.26,16.26,0,0,0,16.4-16.05A16.26,16.26,0,0,0,15.31-.23,16.26,16.26,0,0,0-1.1,15.82,16.26,16.26,0,0,0,15.31,31.88Z" transform="translate(1.6 0.73)"/><path class="cls-2" d="M15.29,13.23l3.18-3.72,2.45-2.81H9.66l2.45,2.81,3.18,3.72ZM16.75,15l3.45,3.9,4,4.63A1.12,1.12,0,0,1,24.1,25a1,1,0,0,1-.73.27H7.21a1,1,0,0,1-1.09-1.09,1.11,1.11,0,0,1,.36-.82l4-4.63,3.45-3.9-3.45-3.81-4-4.63a.89.89,0,0,1-.36-.82A1,1,0,0,1,7.21,4.52H23.37a1,1,0,0,1,.73.27,1,1,0,0,1,.09,1.54L20.2,11l-3.45,4Zm1.72,5.36-3.18-3.63-3.18,3.63Z" transform="translate(1.6 0.73)"/></g></svg>