<svg xmlns="http://www.w3.org/2000/svg" viewBox="0 0 32.81 32.11"><defs><style>.cls-1{fill:none;}.cls-1,.cls-2{fill-rule:evenodd;}.cls-2{fill:#d0a158;}</style></defs><title>time-biggest</title><g id="Слой_1" data-name="Слой 1"><path class="cls-1" d="M9,26.25A16.26,16.26,0,0,0,25.38,10.2,16.26,16.26,0,0,0,9-5.86,16.26,16.26,0,0,0-7.43,10.2,16.26,16.26,0,0,0,9,26.25Z" transform="translate(7.43 5.86)"/><path class="cls-2" d="M10.41,10.2l3.33-3.85,3.95-4.56A1.08,1.08,0,0,0,16.87,0H1.08A1.09,1.09,0,0,0,.32,1.86L4.21,6.35,7.55,10.2,4.21,14,.32,18.54a1.09,1.09,0,0,0,.76,1.86H16.87a1.08,1.08,0,0,0,.82-1.79L13.74,14,10.41,10.2Zm1.7-5.27H5.85L3.45,2.17h11Z" transform="translate(7.43 5.86)"/></g></svg>