<svg xmlns="http://www.w3.org/2000/svg" viewBox="0 0 33.81 33.11"><defs><style>.cls-1{fill:none;stroke:#fff;stroke-miterlimit:10;}.cls-1,.cls-2{fill-rule:evenodd;}.cls-2{fill:#d0a158;}</style></defs><title>time-average</title><g id="Слой_1" data-name="Слой 1"><path class="cls-1" d="M15.31,31.88a16.26,16.26,0,0,0,16.4-16.05A16.26,16.26,0,0,0,15.31-.23,16.26,16.26,0,0,0-1.1,15.82,16.26,16.26,0,0,0,15.31,31.88Z" transform="translate(1.6 0.73)"/><path class="cls-2" d="M16.81,15.29l3.51-4.06,4.15-4.8a1.14,1.14,0,0,0-.86-1.88H7a1.14,1.14,0,0,0-.8,2l4.1,4.73,3.51,4.06-3.51,4.06-4.1,4.73A1.14,1.14,0,0,0,7,26H23.62a1.14,1.14,0,0,0,.86-1.88l-4.16-4.8-3.51-4.05ZM18.6,9.74l-3.3,3.8L12,9.74,9.49,6.83H21.12Z" transform="translate(1.6 0.73)"/></g></svg>