<?xml version="1.0" encoding="utf-8"?>
<!-- Generator: Adobe Illustrator 17.1.0, SVG Export Plug-In . SVG Version: 6.00 Build 0)  -->
<!DOCTYPE svg PUBLIC "-//W3C//DTD SVG 1.1//EN" "http://www.w3.org/Graphics/SVG/1.1/DTD/svg11.dtd">
<svg version="1.1" id="Layer_1" xmlns="http://www.w3.org/2000/svg" xmlns:xlink="http://www.w3.org/1999/xlink" x="0px" y="0px"
	 viewBox="0 0 24.8 28.2" enable-background="new 0 0 24.8 28.2" xml:space="preserve">
<path fill-rule="evenodd" clip-rule="evenodd" fill="#D5A353" d="M12.4,12.2l3.5-4.1l2.7-3.1h-6.2H6.2l2.7,3.1L12.4,12.2L12.4,12.2z
	 M14,14.1l3.8,4.3l4.4,5.1c0.4,0.5,0.4,1.3-0.1,1.7c-0.2,0.2-0.5,0.3-0.8,0.3v0h-8.9H3.5c-0.7,0-1.2-0.5-1.2-1.2
	c0-0.3,0.1-0.6,0.4-0.9l4.4-5.1l3.8-4.3L7.1,9.8L2.7,4.7C2.4,4.5,2.3,4.2,2.3,3.8c0-0.7,0.5-1.2,1.2-1.2h8.9h8.9v0
	c0.3,0,0.6,0.1,0.8,0.3c0.5,0.4,0.6,1.2,0.1,1.7l-4.4,5.1L14,14.1L14,14.1z M15.9,20L12.4,16L8.9,20H15.9z"/>
</svg>
