<?xml version="1.0" encoding="utf-8"?>
<!-- Generator: Adobe Illustrator 17.1.0, SVG Export Plug-In . SVG Version: 6.00 Build 0)  -->
<!DOCTYPE svg PUBLIC "-//W3C//DTD SVG 1.1//EN" "http://www.w3.org/Graphics/SVG/1.1/DTD/svg11.dtd">
<svg version="1.1" id="Capa_1" xmlns="http://www.w3.org/2000/svg" xmlns:xlink="http://www.w3.org/1999/xlink" x="0px" y="0px"
	 viewBox="0 0 640 640" enable-background="new 0 0 640 640" xml:space="preserve">
<g>
	<g>
		<g>
			<path fill="#A6D1FF" d="M567.7,247.7h-61.9c-3.6,0-7.1,0.7-10.3,1.9V92.9c0-17.1-13.9-31-31-31h-43.2c1.2-3.2,1.9-6.7,1.9-10.3
				V31c0-17.1-13.9-31-31-31H247.7c-17.1,0-31,13.9-31,31v20.6c0,3.6,0.7,7.1,1.9,10.3h-43.2c-17.1,0-31,13.9-31,31v156.7
				c-3.2-1.2-6.7-1.9-10.3-1.9H72.3c-17.1,0-31,13.9-31,31c0,13.4,8.7,24.8,20.6,29.1v53.5c0,25.2,18.3,46.2,42.2,50.7
				c4.4,24,25.4,42.2,50.7,42.2h113.5v61.9h-17.8L230,578.1h-54.5c-17.1,0-31,13.9-31,31v31h351v-31c0-17.1-13.9-31-31-31H410
				l-20.6-61.9h-17.8v-61.9h113.5c25.2,0,46.2-18.3,50.7-42.2c24-4.4,42.2-25.4,42.2-50.7v-53.5c12-4.3,20.6-15.6,20.6-29.1
				C598.7,261.6,584.8,247.7,567.7,247.7z M237.4,31c0-5.7,4.6-10.3,10.3-10.3h144.5c5.7,0,10.3,4.6,10.3,10.3v20.6
				c0,5.7-4.6,10.3-10.3,10.3h-20.6H268.4h-20.6c-5.7,0-10.3-4.6-10.3-10.3V31z M361.3,82.6v10.3c0,5.7-4.6,10.3-10.3,10.3H289
				c-5.7,0-10.3-4.6-10.3-10.3V82.6H361.3z M165.2,92.9c0-5.7,4.6-10.3,10.3-10.3h72.3h10.3v10.3c0,17.1,13.9,31,31,31H351
				c17.1,0,31-13.9,31-31V82.6h10.3h72.3c5.7,0,10.3,4.6,10.3,10.3v237.4H165.2V92.9z M103.2,330.3v10.3v49.7
				c-12-4.3-20.6-15.6-20.6-29.1v-51.6h20.6V330.3z M72.3,289c-5.7,0-10.3-4.6-10.3-10.3c0-5.7,4.6-10.3,10.3-10.3h61.9
				c5.7,0,10.3,4.6,10.3,10.3c0,5.7-4.6,10.3-10.3,10.3H72.3z M144.5,307.8v22.5h-20.6v-20.6h10.3
				C137.8,309.7,141.3,308.9,144.5,307.8z M374.5,536.8l13.8,41.3h-16.6v20.6h92.9c5.7,0,10.3,4.6,10.3,10.3v10.3H165.2V609
				c0-5.7,4.6-10.3,10.3-10.3H351v-20.6h-99.2l13.8-41.3h44.2v-20.6H289v-61.9H351v61.9h-20.6v20.6H374.5z M516.1,402.6
				c0,17.1-13.9,31-31,31H154.8c-17.1,0-31-13.9-31-31V351h392.3V402.6z M516.1,330.3h-20.6v-22.5c3.2,1.2,6.7,1.9,10.3,1.9h10.3
				V330.3z M557.4,361.3c0,13.4-8.7,24.8-20.6,29.1v-49.7v-10.3v-20.6h20.6V361.3z M567.7,289h-61.9c-5.7,0-10.3-4.6-10.3-10.3
				c0-5.7,4.6-10.3,10.3-10.3h61.9c5.7,0,10.3,4.6,10.3,10.3C578.1,284.4,573.4,289,567.7,289z"/>
			<path fill="#A6D1FF" d="M412.9,144.5H227.1c-22.8,0-41.3,18.5-41.3,41.3s18.5,41.3,41.3,41.3h185.8c22.8,0,41.3-18.5,41.3-41.3
				S435.7,144.5,412.9,144.5z M412.9,206.5H227.1c-11.4,0-20.6-9.3-20.6-20.6c0-11.4,9.3-20.6,20.6-20.6h185.8
				c11.4,0,20.6,9.3,20.6,20.6C433.5,197.2,424.3,206.5,412.9,206.5z"/>
		</g>
	</g>
</g>
</svg>
