<?xml version="1.0" encoding="utf-8"?>
<!-- Generator: Adobe Illustrator 17.1.0, SVG Export Plug-In . SVG Version: 6.00 Build 0)  -->
<!DOCTYPE svg PUBLIC "-//W3C//DTD SVG 1.1//EN" "http://www.w3.org/Graphics/SVG/1.1/DTD/svg11.dtd">
<svg version="1.1" id="Layer_1" xmlns="http://www.w3.org/2000/svg" xmlns:xlink="http://www.w3.org/1999/xlink" x="0px" y="0px"
	 viewBox="0 0 640 640" enable-background="new 0 0 640 640" xml:space="preserve">
<g>
	<g>
		<path fill="#A6D1FF" d="M491.1,2.3c-8.7-4.6-18.9-2.1-24.6,5.9L280.9,259.6L93.9,9.2c-5.7-8-16-10.4-24.6-5.8
			C60.7,8.1,57,18.1,60.6,27.3c0.1,0.3,0.3,0.6,0.4,0.9L115.7,135c2.7,5.2,9,7.2,14.2,4.6c5.2-2.7,7.2-9,4.6-14.2L91.1,40.6
			L394.5,447c2.1,2.8,5.2,4.2,8.5,4.2c2.2,0,4.4-0.7,6.3-2.1c4.7-3.5,5.6-10.1,2.1-14.8l-70.1-94L499.5,27c0.1-0.3,0.3-0.6,0.4-0.9
			C503.5,16.9,499.8,6.9,491.1,2.3z M327.2,321.6l-33.1-44.3L469.5,39.6L327.2,321.6z"/>
	</g>
</g>
<g>
	<g>
		<path fill="#A6D1FF" d="M492,516.2c-7-10.1-17.5-16.8-29.6-19c-12.1-2.2-24.3,0.5-34.3,7.5c-20.8,14.4-26,43.1-11.5,63.9
			c8.9,12.8,23.2,19.7,37.8,19.7c9,0,18.1-2.7,26.1-8.2C501.3,565.6,506.5,537,492,516.2z M468.5,562.7c-11.2,7.8-26.7,5-34.5-6.2
			c-7.8-11.2-5-26.7,6.2-34.5c4.2-2.9,9.1-4.4,14.1-4.4c1.5,0,3,0.1,4.5,0.4c6.5,1.2,12.2,4.8,16,10.3
			C482.5,539.4,479.7,554.9,468.5,562.7z"/>
	</g>
</g>
<g>
	<g>
		<path fill="#A6D1FF" d="M154.3,534.8c-2.2-12.1-9-22.5-19.2-29.5c-10.1-6.9-22.3-9.5-34.4-7.3c-12.1,2.2-22.5,9-29.5,19.2
			c-14.3,20.9-9,49.5,11.9,63.8c7.7,5.3,16.7,8.1,25.9,8.1c2.8,0,5.7-0.3,8.5-0.8c12.1-2.2,22.5-9,29.5-19.2
			C153.9,559.1,156.5,546.9,154.3,534.8z M129.6,557.3c-3.8,5.5-9.4,9.1-15.9,10.4s-13.1-0.2-18.6-3.9c-11.3-7.7-14.2-23.2-6.4-34.5
			c4.8-7,12.6-10.8,20.5-10.8c4.8,0,9.7,1.4,14,4.3c5.5,3.8,9.1,9.4,10.4,15.9C134.8,545.2,133.4,551.8,129.6,557.3z"/>
	</g>
</g>
<g>
	<g>
		<path fill="#A6D1FF" d="M607.9,591.2c-5.5-7.2-13.8-11.6-22.9-12c-14-0.7-33.5-2.7-52.6-7.9c1.7-4.5,3-9.2,3.8-14.1
			c4-21.9-0.8-44-13.5-62.3c-21.9-31.6-62.3-44-98.3-30.2c-5.4,2.1-8.1,8.2-6,13.6c2.1,5.4,8.2,8.1,13.6,6
			c26.8-10.3,57-1.1,73.4,22.5c9.5,13.6,13.1,30.2,10.1,46.5c-1.2,6.5-3.3,12.7-6.4,18.3c-0.4,0.6-0.7,1.2-1,1.8
			c-4.5,7.8-10.7,14.6-18.3,19.8c-13.6,9.5-30.2,13.1-46.5,10.1c-16.3-3-30.6-12.1-40-25.7c-16-23.1-14.5-54.2,3.7-75.6
			c3.4-4,3.3-9.9-0.1-13.8L291.9,357.6c-2.1-2.4-5.3-3.7-8.5-3.6l-3.2,0.2c-1.6-0.3-3.3-0.2-4.9,0.3l-23,1.3l-98.5-192.7
			c-2.7-5.2-9-7.2-14.2-4.6c-5.2,2.7-7.2,9-4.6,14.2l86,168.1l-90.1,122c-33.9-9.3-70.2,3.7-90.4,33.2C14.5,534,24.2,585.9,62,611.9
			c14.4,9.9,30.8,14.6,47,14.6c26.5,0,52.7-12.6,68.8-36.1c19.5-28.5,19.2-65.9,0.1-94l103.3-119l104.1,118.4
			c-19,28.2-19.1,65.6,0.6,94c12.7,18.3,31.7,30.5,53.6,34.5c5,0.9,10,1.3,15,1.3c13.8,0,27.3-3.4,39.5-10.1
			c11,9.7,36.5,24.4,89.7,24.5c0,0,0,0,0,0c14.1,0,26.6-10,29.7-23.9C615.3,607.4,613.3,598.3,607.9,591.2z M156.3,489
			c-3.4,3.9-3.4,9.8,0,13.8c18.3,21.3,20,52.4,4.1,75.6c-19.4,28.3-58.2,35.5-86.4,16.1c-28.3-19.4-35.5-58.2-16.1-86.4
			c16.3-23.7,46.4-33.1,73.2-22.9c4.4,1.7,9.4,0.2,12.2-3.6l88.3-119.7l4.9,9.7c1.9,3.7,5.8,6,10,5.7l7.1-0.4L156.3,489z
			 M592.8,611.6c-0.9,4.2-4.8,7.3-9.1,7.3c0,0,0,0,0,0c-41,0-62.1-9.6-71.9-16.3c4-3.8,7.5-7.9,10.6-12.3
			c22.4,6.7,45.5,9.1,61.6,9.9c2.8,0.1,5.4,1.5,7.1,3.7C592.1,605.2,593.6,607.9,592.8,611.6z"/>
	</g>
</g>
</svg>
