<?xml version="1.0" encoding="utf-8"?>
<!-- Generator: Adobe Illustrator 17.1.0, SVG Export Plug-In . SVG Version: 6.00 Build 0)  -->
<!DOCTYPE svg PUBLIC "-//W3C//DTD SVG 1.1//EN" "http://www.w3.org/Graphics/SVG/1.1/DTD/svg11.dtd">
<svg version="1.1" id="Layer_1" xmlns="http://www.w3.org/2000/svg" xmlns:xlink="http://www.w3.org/1999/xlink" x="0px" y="0px"
	 viewBox="0 0 640 640" enable-background="new 0 0 640 640" xml:space="preserve">
<g>
	<g>
		<path fill="#A6D1FF" d="M639.2,96.8c-1.6-3.7-5.2-6.2-9.3-6.2h-80.7V10c0-8.7-10.9-13.3-17.1-7.1l-60.5,60.5
			c-1.9,1.9-2.9,4.4-2.9,7.1V157l-21.1,21.1c-47.6-44.2-111.3-71.2-181.2-71.2c-58.5,0-114.1,18.6-160.7,53.8
			c-45,34.1-78.7,82.5-94.8,136.3c-1.6,5.3,1.4,10.9,6.7,12.5c5.3,1.6,10.9-1.4,12.5-6.7c30.9-103.5,128.1-175.9,236.2-175.9
			c64.4,0,123,24.8,167,65.4L410,215.8c-24.4-22.2-54-39-87.3-48.1c-5.3-1.5-10.8,1.7-12.3,7c-1.5,5.3,1.7,10.8,7,12.3
			c29.9,8.1,56.5,23.1,78.4,42.9l-31.3,31.3c-26.2-22.9-60.5-36.8-98-36.8c-82.1,0-149,66.8-149,149s66.8,149,149,149
			s149-66.8,149-149c0-37.5-13.9-71.8-36.8-98l31.3-31.3c31.1,34.6,49.7,80.3,49.7,129.2c0,106.5-86.6,193.1-193.1,193.1
			S73.5,479.9,73.5,373.4s86.6-193.1,193.1-193.1c5.5,0,10-4.5,10-10c0-5.5-4.5-10-10-10c-117.5,0-213.1,95.6-213.1,213.1
			S149,586.5,266.6,586.5s213.1-95.6,213.1-213.1c0-54.4-20.7-105.1-55.5-143.4l23.6-23.6c40.5,44,65.4,102.6,65.4,167
			c0,135.9-110.6,246.5-246.5,246.5S20,509.3,20,373.4c0-6.9,0.3-13.8,0.8-20.6c0.5-5.5-3.6-10.4-9.2-10.8
			c-5.5-0.5-10.4,3.6-10.8,9.2C0.3,358.5,0,366,0,373.4C0,520.4,119.6,640,266.6,640s266.6-119.6,266.6-266.6
			c0-69.9-27.1-133.6-71.2-181.2l21.1-21.1h86.5c2.7,0,5.2-1.1,7.1-2.9l60.5-60.5C639.9,104.9,640.8,100.6,639.2,96.8z M395.5,373.4
			c0,71.1-57.8,128.9-128.9,128.9s-128.9-57.8-128.9-128.9c0-71.1,57.8-128.9,128.9-128.9c31.9,0,61.2,11.7,83.8,31l-23.7,23.7
			c-16.4-13.3-37.3-21.3-60.1-21.3c-52.7,0-95.5,42.9-95.5,95.5s42.9,95.5,95.5,95.5s95.5-42.9,95.5-95.5c0-22.7-8-43.6-21.3-60.1
			l23.7-23.7C383.8,312.2,395.5,341.5,395.5,373.4z M258.9,379.9c3.7,4.4,10.6,4.7,14.7,0.6l13.9-13.9c0.7,2.1,1.1,4.4,1.1,6.8
			c0,12.2-9.9,22-22,22c-12.2,0-22-9.9-22-22s9.9-22,22-22c2.4,0,4.7,0.4,6.8,1.1l-13.9,13.9C255.8,370,255.6,376,258.9,379.9z
			 M288.4,337.4c-6.4-3.9-13.8-6.1-21.8-6.1c-23.2,0-42.1,18.9-42.1,42.1c0,23.2,18.9,42.1,42.1,42.1c23.2,0,42.1-18.9,42.1-42.1
			c0-8-2.2-15.4-6.1-21.8l24-24c9.7,12.7,15.5,28.6,15.5,45.8c0,41.6-33.9,75.5-75.5,75.5s-75.5-33.9-75.5-75.5
			c0-41.6,33.9-75.5,75.5-75.5c17.2,0,33.1,5.8,45.8,15.5L288.4,337.4z M488.8,74.6l40.4-40.4v62.4L488.8,137V74.6z M565.4,151.1
			H503l40.4-40.4h62.4L565.4,151.1z"/>
	</g>
</g>
</svg>
