<?xml version="1.0" encoding="UTF-8"?>
<!DOCTYPE svg PUBLIC "-//W3C//DTD SVG 1.1//EN" "http://www.w3.org/Graphics/SVG/1.1/DTD/svg11.dtd">
<!-- Creator: CorelDRAW X7 -->
<svg xmlns="http://www.w3.org/2000/svg" xml:space="preserve" width="6523px" height="10078px" version="1.1" style="shape-rendering:geometricPrecision; text-rendering:geometricPrecision; image-rendering:optimizeQuality; fill-rule:evenodd; clip-rule:evenodd"
viewBox="0 0 38731 59839"
 xmlns:xlink="http://www.w3.org/1999/xlink">
 <defs>
  <style type="text/css">
   <![CDATA[
    .fil0 {fill:#FEFEFE}
    .fil2 {fill:#D7AC4D}
    .fil1 {fill:#D7AC4D}
   ]]>
  </style>
     <clipPath id="id0">
      <path d="M19576 23074l-81 67 1 0c18,-2 35,-9 49,-21 15,-12 26,-27 31,-46z"/>
     </clipPath>
    <clipPath id="id1">
     <path d="M22292 20844l-81 67 0 0c19,-2 36,-9 50,-21 14,-12 25,-27 31,-46z"/>
    </clipPath>
 </defs>
 <g id="Слой_x0020_1">
  <metadata id="CorelCorpID_0Corel-Layer"/>
  <g id="_707695528">
   <path class="fil0" d="M30650 38766c684,-1416 -607,-2457 -52,-3903 1685,-1104 7073,-318 7464,-3311 144,-1105 -355,-1307 -608,-1976 -174,-462 -186,-748 -179,-910 26,-558 810,-658 664,-1554 -37,-229 -146,-400 -254,-481 -111,-83 -220,-76 -248,-300 -30,-243 354,-398 262,-1305 -49,-158 -542,-492 -652,-977 -677,-3000 979,-688 1003,-3547l-4112 -3609c-1316,-1845 1498,-942 -2414,-4859 -293,-294 -2722,-3650 -2759,-3658 -4598,-937 -2733,1955 -6143,2252 -342,29 -8243,-3609 -9282,-2380 -2204,2606 1738,11318 449,12423 -3327,2852 897,7190 1256,8663 85,347 -101,826 -928,1925 -137,182 -266,351 -387,509 754,1037 1371,2078 1493,2836 0,0 569,3360 -999,4941l-2472 2491 224 191c725,183 7662,3352 8531,3888 4213,2597 3558,3102 9432,4026 -672,-1939 -172,-9547 711,-11375z"/>
   <path class="fil0" d="M30584 38868c691,-1430 -613,-2480 -52,-3940 1701,-1114 7140,-321 7534,-3343 146,-1115 -358,-1318 -613,-1993 -299,-792 -224,-949 -90,-1166 81,-131 820,-803 610,-1448 -174,-538 -540,-363 -502,-680 18,-156 173,-406 226,-687 64,-338 24,-701 -9,-716 -208,-234 -459,-379 -548,-737 -798,-3225 890,-799 914,-3726l-4151 -3644c-1328,-1862 1513,-950 -2436,-4904 -1771,-2203 -2640,-3591 -2691,-3601 -4642,-947 -4115,471 -7557,771 -1080,94 528,4943 1417,5941 1151,1292 1438,6105 1438,8993 0,559 -1441,1351 -1670,1490 -166,100 -1011,-2029 -2437,-2723 -1622,-789 -4486,-3795 -6402,-2153 -3359,2879 905,7258 1267,8745 86,350 -102,834 -937,1943 -138,184 -268,355 -391,514 761,1047 1384,2098 1508,2862 0,0 574,3393 -1009,4989l-2495 2514 226 193c732,185 7735,3383 8612,3924 4253,2622 3592,3132 9521,4064 -679,-1957 -174,-9637 717,-11482z"/>
   <path class="fil1" d="M31172 39603c717,-1485 -571,-2927 11,-4443 1766,-1156 7111,-232 7521,-3369 151,-1158 -372,-1369 -637,-2070 -513,-1360 197,-1253 320,-2273 75,-624 -273,-958 -485,-1195 -25,-28 699,-1276 99,-1773 -691,-573 -581,-1568 -426,-1841 283,-503 1100,-371 1117,-2428l-4310 -3782c-1379,-1933 1571,-987 -2529,-5092 -767,-768 -1468,-1981 -2351,-2875 1467,-4596 -3429,-9853 -8234,-8125 -3638,1307 -4076,983 -7634,1389 -6105,695 -9902,3651 -11466,11223 -837,4059 1548,11462 7129,15520 1170,1231 4529,4215 4831,6078 0,0 596,3522 -1048,5179l-2520 2540 -8282 3055c-3858,4700 -3392,11449 5915,12006 9806,954 13770,-10270 26522,2512 -45,-148 -4242,-9270 -4285,-9524 -65,-383 -123,-877 -167,-1452l-14 -7c-148,-2955 3,-7694 923,-9253zm-1372 10517c-5735,-910 -5122,-1427 -9303,-4005 -870,-536 -7806,-3705 -8532,-3888l-224 -191 1402 -1412 -69 -33 929 -936c1583,-1596 1009,-4989 1009,-4989 -124,-764 -747,-1815 -1508,-2862 123,-159 253,-330 391,-514 835,-1109 1023,-1593 937,-1943 -362,-1487 -4626,-5866 -1267,-8745 861,-738 2519,129 4169,-302 892,-732 1842,-1190 2595,-2081 -565,-1518 -3952,-7488 2152,-7755 3451,-151 1653,-3128 6295,-2181 51,10 920,1398 2691,3601 3949,3954 1108,3042 2436,4904l4151 3644c-24,2927 -1712,501 -914,3726 89,358 340,503 548,737 33,15 73,378 9,716 -53,281 -208,531 -226,687 -38,317 328,142 502,680 210,645 -529,1317 -610,1448 -134,217 -209,374 90,1166 255,675 759,878 613,1993 -394,3022 -5833,2229 -7534,3343 -561,1460 743,2510 52,3940 -860,1780 -1359,8988 -784,11252z"/>
   <path class="fil2" d="M13991 20318c1328,-158 1823,631 2247,1152 37,-21 406,-347 815,-564 823,-437 1638,-908 -938,-908 -7,0 -2094,99 -2124,320z"/>
   <g>
    <path class="fil2" d="M16238 21470c24,50 72,86 131,92 89,9 168,-56 177,-145 6,-59 -20,-114 -65,-147l-243 200z"/>
    <path class="fil2" d="M16400 21594c-8,86 55,163 141,171 86,9 162,-54 171,-140 8,-86 -54,-163 -141,-172 -86,-8 -162,55 -171,141z"/>
    <path class="fil2" d="M16577 21803c-8,83 53,157 136,165 83,8 156,-52 165,-135 8,-83 -53,-157 -136,-165 -83,-9 -157,52 -165,135z"/>
    <path class="fil2" d="M16754 22012c-8,80 50,151 130,159 80,8 152,-50 159,-130 8,-80 -50,-152 -130,-159 -80,-8 -151,50 -159,130z"/>
    <path class="fil2" d="M16447 21298c24,50 72,87 131,92 89,9 168,-56 177,-145 6,-59 -20,-113 -65,-146l-243 199z"/>
    <path class="fil2" d="M16609 21422c-8,86 55,163 141,171 86,9 162,-54 171,-140 8,-86 -54,-163 -140,-171 -87,-9 -163,54 -172,140z"/>
    <path class="fil2" d="M16786 21631c-8,84 53,157 136,166 83,8 157,-53 165,-136 8,-83 -53,-157 -136,-165 -83,-8 -157,52 -165,135z"/>
    <path class="fil2" d="M16963 21841c-8,80 50,151 130,159 80,8 152,-51 159,-131 8,-80 -50,-151 -130,-159 -80,-8 -151,51 -159,131z"/>
    <path class="fil2" d="M17139 22050c-7,77 49,145 126,153 77,7 146,-49 153,-126 8,-77 -49,-145 -125,-153 -77,-7 -146,49 -154,126z"/>
    <path class="fil2" d="M17316 22259c-7,74 47,140 121,147 74,7 140,-47 147,-121 7,-74 -47,-139 -121,-147 -74,-7 -140,47 -147,121z"/>
    <path class="fil2" d="M17493 22468c-7,71 45,134 116,141 70,7 134,-45 141,-116 7,-71 -45,-134 -116,-141 -71,-7 -134,45 -141,116z"/>
    <path class="fil2" d="M17670 22677c-7,68 42,129 110,135 68,7 129,-43 135,-111 7,-67 -43,-128 -111,-135 -67,-6 -128,43 -134,111z"/>
    <path class="fil2" d="M17846 22886c-6,65 41,123 106,129 65,7 123,-41 129,-106 6,-64 -41,-122 -106,-129 -65,-6 -122,41 -129,106z"/>
    <path class="fil2" d="M18023 23095c-6,62 39,117 101,123 62,7 117,-39 123,-100 6,-62 -39,-117 -101,-123 -62,-7 -117,39 -123,100z"/>
    <path class="fil2" d="M18200 23305c-6,58 37,111 96,117 58,5 111,-38 116,-96 6,-59 -37,-112 -96,-117 -58,-6 -111,37 -116,96z"/>
    <path class="fil2" d="M18376 23514c-5,56 36,105 91,111 56,5 106,-36 111,-91 6,-56 -35,-106 -91,-111 -56,-6 -105,35 -111,91z"/>
    <path class="fil2" d="M18553 23723c-5,53 33,100 86,105 53,5 100,-34 105,-86 5,-53 -33,-100 -86,-105 -53,-5 -100,33 -105,86z"/>
    <path class="fil2" d="M18730 23932c-5,50 31,94 81,99 49,5 94,-32 99,-81 5,-50 -32,-94 -82,-99 -49,-5 -93,31 -98,81z"/>
    <path class="fil2" d="M18906 24141c-4,47 30,88 77,93 46,5 88,-30 92,-76 5,-47 -29,-88 -76,-93 -47,-5 -88,29 -93,76z"/>
    <path class="fil2" d="M19083 24350c-4,44 28,83 71,87 44,4 83,-27 87,-71 4,-44 -28,-83 -71,-87 -44,-4 -83,28 -87,71z"/>
    <path class="fil2" d="M19260 24559c-4,41 25,77 66,81 41,4 77,-25 81,-66 4,-41 -26,-77 -67,-81 -40,-4 -76,26 -80,66z"/>
    <path class="fil2" d="M19436 24769c-3,37 24,71 62,74 37,4 71,-23 75,-61 3,-38 -24,-71 -62,-75 -37,-4 -71,24 -75,62z"/>
    <path class="fil2" d="M19613 24978c-3,34 22,65 56,68 35,4 66,-21 69,-56 4,-35 -22,-65 -56,-69 -35,-3 -66,22 -69,57z"/>
    <path class="fil2" d="M19790 25187c-3,31 20,59 51,63 32,3 60,-20 63,-52 3,-31 -20,-60 -52,-63 -31,-3 -59,20 -62,52z"/>
    <path class="fil2" d="M19966 25396c-2,29 18,54 47,57 28,3 54,-18 57,-47 2,-28 -18,-54 -47,-57 -28,-2 -54,18 -57,47z"/>
    <path class="fil2" d="M16656 21127c24,49 72,86 131,92 89,9 169,-57 177,-146 6,-58 -20,-113 -65,-146l-243 200z"/>
    <path class="fil2" d="M16818 21251c-8,86 55,162 141,171 86,8 163,-54 171,-141 8,-86 -54,-162 -140,-171 -86,-8 -163,55 -172,141z"/>
    <path class="fil2" d="M16995 21460c-8,83 53,157 136,165 83,8 157,-52 165,-135 8,-83 -53,-157 -136,-166 -83,-8 -157,53 -165,136z"/>
    <path class="fil2" d="M17172 21669c-8,80 50,151 130,159 80,8 152,-50 159,-130 8,-80 -50,-152 -130,-159 -80,-8 -151,50 -159,130z"/>
    <path class="fil2" d="M17348 21878c-7,77 49,146 126,153 77,8 146,-48 153,-125 8,-77 -49,-146 -125,-153 -77,-8 -146,48 -154,125z"/>
    <path class="fil2" d="M17525 22087c-7,74 47,140 121,147 74,8 140,-46 147,-120 7,-74 -47,-140 -121,-147 -74,-8 -140,46 -147,120z"/>
    <path class="fil2" d="M17702 22296c-7,71 45,135 116,142 70,7 134,-45 141,-116 7,-71 -45,-134 -116,-141 -71,-7 -134,45 -141,115z"/>
    <path class="fil2" d="M17879 22506c-7,68 42,128 110,135 68,6 129,-43 135,-111 7,-68 -43,-128 -110,-135 -68,-7 -129,43 -135,111z"/>
    <path class="fil2" d="M18055 22715c-6,65 41,122 106,129 65,6 123,-41 129,-106 6,-65 -41,-123 -106,-129 -65,-6 -122,41 -129,106z"/>
    <path class="fil2" d="M18232 22924c-6,62 39,117 101,123 62,6 117,-39 123,-101 6,-62 -39,-117 -101,-123 -62,-6 -117,39 -123,101z"/>
    <path class="fil2" d="M18409 23133c-6,59 37,111 96,117 58,6 111,-37 116,-96 6,-59 -37,-111 -95,-117 -59,-6 -112,37 -117,96z"/>
    <path class="fil2" d="M18585 23342c-5,56 36,106 91,111 56,6 106,-35 111,-91 6,-56 -35,-105 -91,-111 -56,-5 -105,35 -111,91z"/>
    <path class="fil2" d="M18762 23551c-5,53 33,100 86,105 53,5 100,-33 105,-86 5,-53 -33,-100 -86,-105 -53,-5 -100,34 -105,86z"/>
    <path class="fil2" d="M18939 23760c-5,50 31,94 81,99 50,5 94,-31 99,-81 5,-50 -32,-94 -81,-99 -50,-5 -94,32 -99,81z"/>
    <path class="fil2" d="M19115 23970c-4,46 30,88 77,92 46,5 88,-29 92,-76 5,-46 -29,-88 -76,-93 -47,-4 -88,30 -93,77z"/>
    <path class="fil2" d="M19292 24179c-4,43 28,82 71,87 44,4 83,-28 87,-72 4,-43 -28,-82 -71,-87 -44,-4 -83,28 -87,72z"/>
    <path class="fil2" d="M19469 24388c-4,41 25,77 66,81 41,4 77,-26 81,-67 4,-40 -26,-76 -67,-80 -40,-4 -76,25 -80,66z"/>
    <path class="fil2" d="M19645 24597c-3,38 24,71 62,75 37,4 71,-24 75,-62 3,-37 -24,-71 -62,-74 -37,-4 -71,23 -75,61z"/>
    <path class="fil2" d="M19822 24806c-3,35 22,66 57,69 34,3 65,-22 68,-57 4,-34 -22,-65 -56,-68 -35,-4 -66,22 -69,56z"/>
    <path class="fil2" d="M19999 25015c-3,32 20,60 51,63 32,3 60,-20 63,-51 3,-32 -20,-60 -52,-63 -31,-3 -59,20 -62,51z"/>
    <path class="fil2" d="M20175 25224c-2,29 18,54 47,57 29,3 54,-18 57,-46 3,-29 -18,-54 -47,-57 -28,-3 -54,18 -57,46z"/>
    <path class="fil2" d="M16865 20955c24,50 72,86 131,92 89,9 169,-56 177,-145 6,-59 -20,-114 -65,-146l-243 199z"/>
    <path class="fil2" d="M17027 21079c-8,86 55,163 141,171 86,9 163,-54 171,-140 8,-86 -54,-163 -140,-171 -86,-9 -163,54 -172,140z"/>
    <path class="fil2" d="M17204 21288c-8,83 53,157 136,166 83,8 157,-53 165,-136 8,-83 -53,-157 -136,-165 -83,-8 -157,52 -165,135z"/>
    <path class="fil2" d="M17381 21498c-8,80 50,151 130,159 80,7 152,-51 159,-131 8,-80 -50,-151 -130,-159 -80,-8 -151,51 -159,131z"/>
    <path class="fil2" d="M17558 21707c-8,77 48,145 125,153 77,7 146,-49 153,-126 8,-77 -48,-145 -125,-153 -77,-8 -146,49 -153,126z"/>
    <path class="fil2" d="M17734 21916c-7,74 47,140 121,147 74,7 140,-47 147,-121 7,-74 -47,-140 -121,-147 -74,-7 -140,47 -147,121z"/>
    <path class="fil2" d="M17911 22125c-7,71 45,134 116,141 71,7 134,-45 141,-116 7,-71 -45,-134 -116,-141 -71,-7 -134,45 -141,116z"/>
    <path class="fil2" d="M18088 22334c-7,68 42,128 110,135 68,7 129,-43 135,-111 7,-68 -43,-128 -110,-135 -68,-6 -129,43 -135,111z"/>
    <path class="fil2" d="M18264 22543c-6,65 41,123 106,129 65,7 123,-41 129,-106 6,-65 -41,-122 -106,-129 -65,-6 -122,41 -129,106z"/>
    <path class="fil2" d="M18441 22752c-6,62 39,117 101,123 62,6 117,-39 123,-101 6,-61 -39,-116 -101,-123 -62,-6 -117,40 -123,101z"/>
    <path class="fil2" d="M18618 22961c-6,59 37,112 96,117 58,6 111,-37 117,-96 5,-58 -38,-111 -96,-116 -59,-6 -112,37 -117,95z"/>
    <path class="fil2" d="M18794 23171c-5,55 36,105 91,111 56,5 106,-36 111,-91 6,-56 -35,-106 -91,-111 -56,-6 -105,35 -111,91z"/>
    <path class="fil2" d="M18971 23380c-5,53 33,99 86,105 53,5 100,-34 105,-86 5,-53 -33,-100 -86,-105 -53,-6 -100,33 -105,86z"/>
    <path class="fil2" d="M19148 23589c-5,50 31,94 81,99 50,5 94,-32 99,-81 5,-50 -32,-94 -81,-99 -50,-5 -94,31 -99,81z"/>
    <path class="fil2" d="M19324 23798c-4,47 30,88 77,93 46,5 88,-30 92,-76 5,-47 -29,-89 -76,-93 -46,-5 -88,29 -93,76z"/>
    <path class="fil2" d="M19501 24007c-4,44 28,83 71,87 44,4 83,-28 87,-71 4,-44 -27,-83 -71,-87 -44,-4 -83,28 -87,71z"/>
    <path class="fil2" d="M19678 24216c-4,41 25,77 66,81 41,4 77,-26 81,-66 4,-41 -26,-77 -66,-81 -41,-4 -77,26 -81,66z"/>
    <path class="fil2" d="M19854 24425c-3,38 24,72 62,75 37,4 71,-24 75,-61 3,-38 -24,-71 -62,-75 -37,-4 -71,24 -75,61z"/>
    <path class="fil2" d="M20031 24635c-3,34 22,65 57,68 34,4 65,-21 68,-56 4,-35 -22,-65 -56,-69 -35,-3 -66,22 -69,57z"/>
    <path class="fil2" d="M20208 24844c-3,31 20,59 51,62 32,4 60,-19 63,-51 3,-32 -20,-60 -51,-63 -32,-3 -60,20 -63,52z"/>
    <path class="fil2" d="M20384 25053c-2,28 19,54 47,57 29,2 54,-18 57,-47 3,-28 -18,-54 -47,-57 -28,-2 -54,18 -57,47z"/>
    <path class="fil2" d="M17074 20783c24,50 72,87 131,93 89,8 169,-57 177,-146 6,-59 -20,-113 -65,-146l-243 199z"/>
    <path class="fil2" d="M17236 20908c-8,86 55,162 141,171 86,8 163,-55 171,-141 9,-86 -54,-162 -140,-171 -86,-8 -163,55 -172,141z"/>
    <path class="fil2" d="M17413 21117c-8,83 53,157 136,165 83,8 157,-53 165,-136 8,-83 -53,-157 -136,-165 -83,-8 -157,53 -165,136z"/>
    <path class="fil2" d="M17590 21326c-8,80 50,151 130,159 80,8 152,-51 159,-131 8,-80 -50,-151 -130,-159 -80,-7 -151,51 -159,131z"/>
    <path class="fil2" d="M17767 21535c-8,77 48,146 125,153 77,8 146,-48 153,-125 8,-77 -48,-146 -125,-154 -77,-7 -146,49 -153,126z"/>
    <path class="fil2" d="M17943 21744c-7,74 47,140 121,147 74,8 140,-46 147,-120 7,-74 -47,-140 -121,-147 -74,-8 -140,46 -147,120z"/>
    <path class="fil2" d="M18120 21953c-7,71 45,134 116,141 71,7 134,-44 141,-115 7,-71 -45,-134 -116,-141 -71,-7 -134,44 -141,115z"/>
    <path class="fil2" d="M18297 22163c-7,67 43,128 110,135 68,6 129,-43 135,-111 7,-68 -43,-129 -110,-135 -68,-7 -129,43 -135,111z"/>
    <path class="fil2" d="M18473 22372c-6,65 41,122 106,129 65,6 123,-41 129,-106 6,-65 -41,-123 -106,-129 -65,-7 -122,41 -129,106z"/>
    <path class="fil2" d="M18650 22581c-6,62 39,117 101,123 62,6 117,-39 123,-101 6,-62 -39,-117 -101,-123 -62,-6 -117,39 -123,101z"/>
    <path class="fil2" d="M18827 22790c-6,59 37,111 96,117 58,6 111,-37 117,-96 5,-59 -38,-111 -96,-117 -59,-6 -112,37 -117,96z"/>
    <path class="fil2" d="M19003 22999c-5,56 36,106 91,111 56,5 106,-35 111,-91 6,-56 -35,-105 -91,-111 -56,-5 -105,35 -111,91z"/>
    <path class="fil2" d="M19180 23208c-5,53 33,100 86,105 53,5 100,-33 105,-86 5,-53 -33,-100 -86,-105 -53,-5 -100,33 -105,86z"/>
    <path class="fil2" d="M19357 23417c-5,50 31,94 81,99 50,5 94,-31 99,-81 5,-50 -32,-94 -81,-99 -50,-5 -94,32 -99,81z"/>
    <path class="fil2" d="M19533 23626c-4,47 30,89 77,93 46,5 88,-29 92,-76 5,-47 -29,-88 -76,-93 -46,-4 -88,30 -93,76z"/>
    <path class="fil2" d="M19710 23836c-4,43 28,82 71,86 44,5 83,-27 87,-71 4,-43 -27,-82 -71,-87 -44,-4 -83,28 -87,72z"/>
    <path class="fil2" d="M19887 24045c-4,40 25,77 66,81 41,4 77,-26 81,-67 4,-40 -26,-77 -66,-81 -41,-4 -77,26 -81,67z"/>
    <path class="fil2" d="M20063 24254c-3,38 24,71 62,75 37,3 71,-24 75,-62 3,-37 -24,-71 -62,-74 -37,-4 -71,23 -75,61z"/>
    <path class="fil2" d="M20240 24463c-3,35 22,65 57,69 34,3 65,-22 68,-57 4,-34 -22,-65 -56,-68 -35,-4 -65,21 -69,56z"/>
    <path class="fil2" d="M20417 24672c-3,32 20,60 51,63 32,3 60,-20 63,-52 3,-31 -20,-59 -51,-62 -32,-3 -60,20 -63,51z"/>
    <path class="fil2" d="M17283 20612c24,50 72,86 131,92 89,9 169,-56 177,-145 6,-59 -20,-114 -65,-146l-243 199z"/>
    <path class="fil2" d="M17445 20736c-8,86 55,163 141,171 86,9 163,-54 171,-140 9,-86 -54,-163 -140,-171 -86,-9 -163,54 -172,140z"/>
    <path class="fil2" d="M17622 20945c-8,83 53,157 136,165 83,9 157,-52 165,-135 8,-83 -53,-157 -136,-165 -83,-8 -157,52 -165,135z"/>
    <path class="fil2" d="M17799 21154c-8,80 50,152 130,160 80,7 152,-51 160,-131 7,-80 -51,-151 -131,-159 -80,-8 -151,50 -159,130z"/>
    <path class="fil2" d="M17976 21364c-8,77 48,145 125,153 77,7 146,-49 153,-126 8,-77 -48,-145 -125,-153 -77,-8 -146,49 -153,126z"/>
    <path class="fil2" d="M18152 21573c-7,74 47,139 121,147 74,7 140,-47 147,-121 7,-74 -47,-140 -121,-147 -74,-7 -139,47 -147,121z"/>
    <path class="fil2" d="M18329 21782c-7,71 45,134 116,141 71,7 134,-45 141,-116 7,-71 -45,-134 -116,-141 -71,-7 -134,45 -141,116z"/>
    <path class="fil2" d="M18506 21991c-7,68 43,128 110,135 68,7 129,-43 135,-111 7,-68 -43,-128 -110,-135 -68,-7 -129,43 -135,111z"/>
    <path class="fil2" d="M18682 22200c-6,65 41,123 106,129 65,6 123,-41 129,-106 7,-65 -41,-122 -106,-129 -65,-6 -122,41 -129,106z"/>
    <path class="fil2" d="M18859 22409c-6,62 39,117 101,123 62,6 117,-39 123,-101 6,-62 -39,-117 -101,-123 -62,-6 -117,39 -123,101z"/>
    <path class="fil2" d="M19036 22618c-6,59 37,112 96,117 58,6 111,-37 117,-96 5,-58 -38,-111 -96,-117 -59,-5 -112,38 -117,96z"/>
    <path class="fil2" d="M19212 22828c-5,55 36,105 91,110 56,6 106,-35 111,-91 6,-55 -35,-105 -91,-111 -56,-5 -105,36 -111,92z"/>
    <path class="fil2" d="M19389 23037c-5,52 33,99 86,105 53,5 100,-34 105,-87 5,-52 -33,-99 -86,-104 -53,-6 -100,33 -105,86z"/>
    <path class="fil2" d="M19566 23246c-5,50 31,94 81,99 50,5 94,-32 99,-81 5,-50 -32,-94 -81,-99 -50,-5 -94,31 -99,81z"/>
    <path class="fil2" d="M19742 23455c-4,47 30,88 77,93 46,4 88,-30 92,-76 5,-47 -29,-89 -76,-93 -46,-5 -88,29 -93,76z"/>
    <path class="fil2" d="M19919 23664c-4,44 28,83 71,87 44,4 83,-28 87,-71 4,-44 -27,-83 -71,-87 -44,-4 -83,27 -87,71z"/>
    <path class="fil2" d="M20096 23873c-4,41 25,77 66,81 41,4 77,-26 81,-66 4,-41 -26,-77 -66,-81 -41,-4 -77,26 -81,66z"/>
    <path class="fil2" d="M20272 24082c-3,38 24,71 62,75 37,4 71,-24 75,-61 3,-38 -24,-71 -62,-75 -37,-4 -71,24 -75,61z"/>
    <path class="fil2" d="M20449 24291c-3,35 22,66 57,69 34,4 65,-22 68,-56 4,-35 -22,-66 -56,-69 -35,-3 -65,22 -69,56z"/>
    <path class="fil2" d="M17492 20440c24,50 72,87 131,93 89,8 169,-57 177,-146 6,-59 -20,-113 -65,-146l-243 199z"/>
    <path class="fil2" d="M17655 20565c-9,86 54,162 140,171 86,8 163,-55 171,-141 9,-86 -54,-162 -140,-171 -86,-8 -163,55 -171,141z"/>
    <path class="fil2" d="M17831 20774c-8,83 53,157 136,165 83,8 157,-53 165,-136 8,-83 -53,-157 -136,-165 -83,-8 -157,53 -165,136z"/>
    <path class="fil2" d="M18008 20983c-8,80 50,151 130,159 80,8 152,-51 160,-131 7,-80 -51,-151 -131,-159 -80,-8 -151,51 -159,131z"/>
    <path class="fil2" d="M18185 21192c-8,77 48,145 125,153 77,8 146,-49 153,-126 8,-77 -48,-145 -125,-153 -77,-7 -146,49 -153,126z"/>
    <path class="fil2" d="M18361 21401c-7,74 47,140 121,147 74,7 140,-47 147,-120 7,-74 -47,-140 -121,-148 -74,-7 -139,47 -147,121z"/>
    <path class="fil2" d="M18538 21610c-7,71 45,134 116,141 71,7 134,-45 141,-115 7,-71 -45,-134 -116,-141 -71,-7 -134,44 -141,115z"/>
    <path class="fil2" d="M18715 21819c-7,68 43,129 110,135 68,7 129,-43 135,-110 7,-68 -42,-129 -110,-135 -68,-7 -129,43 -135,110z"/>
    <path class="fil2" d="M18891 22029c-6,64 41,122 106,129 65,6 123,-41 129,-106 7,-65 -41,-123 -106,-129 -65,-7 -122,41 -129,106z"/>
    <path class="fil2" d="M19068 22238c-6,62 39,117 101,123 62,6 117,-39 123,-101 6,-62 -39,-117 -101,-123 -62,-6 -117,39 -123,101z"/>
    <path class="fil2" d="M19245 22447c-6,59 37,111 96,117 58,6 111,-37 117,-96 5,-59 -38,-111 -96,-117 -59,-6 -112,37 -117,96z"/>
    <path class="fil2" d="M19421 22656c-5,56 36,105 91,111 56,5 106,-35 111,-91 6,-56 -35,-106 -91,-111 -55,-6 -105,35 -111,91z"/>
    <path class="fil2" d="M19598 22865c-5,53 33,100 86,105 53,5 100,-33 105,-86 5,-53 -33,-100 -86,-105 -53,-5 -100,33 -105,86z"/>
    <path class="fil2" d="M19775 23074c-5,50 31,94 81,99 50,5 94,-31 99,-81 5,-50 -32,-94 -81,-99 -50,-5 -94,32 -99,81z"/>
    <path class="fil2" d="M19951 23283c-4,47 30,89 77,93 46,5 88,-29 92,-76 5,-47 -29,-88 -76,-93 -46,-4 -88,30 -93,76z"/>
    <path class="fil2" d="M20128 23493c-4,43 28,82 71,86 44,5 83,-27 87,-71 5,-44 -27,-82 -71,-87 -44,-4 -83,28 -87,72z"/>
    <path class="fil2" d="M20451 23909c-4,34 21,65 56,68 35,4 65,-22 69,-56 3,-35 -22,-65 -57,-69 -34,-3 -65,22 -68,57z"/>
    <path class="fil2" d="M17701 20269c24,50 72,86 131,92 89,9 169,-56 177,-145 6,-59 -20,-114 -65,-147l-243 200z"/>
    <path class="fil2" d="M17864 20393c-9,86 54,163 140,171 86,9 163,-54 171,-140 9,-86 -54,-163 -140,-171 -86,-9 -163,54 -171,140z"/>
    <path class="fil2" d="M18040 20602c-8,83 53,157 136,165 83,8 157,-52 165,-135 8,-83 -53,-157 -136,-165 -83,-9 -157,52 -165,135z"/>
    <path class="fil2" d="M18217 20811c-8,80 51,152 130,159 80,8 152,-50 160,-130 7,-80 -51,-151 -131,-159 -80,-8 -151,50 -159,130z"/>
    <path class="fil2" d="M18394 21020c-8,77 48,146 125,154 77,7 146,-49 153,-126 8,-77 -48,-146 -125,-153 -77,-8 -146,48 -153,125z"/>
    <path class="fil2" d="M18570 21230c-7,74 47,139 121,147 74,7 140,-47 147,-121 7,-74 -47,-140 -121,-147 -74,-7 -139,47 -147,121z"/>
    <path class="fil2" d="M18747 21439c-7,71 45,134 116,141 71,7 134,-45 141,-116 7,-71 -45,-134 -116,-141 -71,-7 -134,45 -141,116z"/>
    <path class="fil2" d="M18924 21648c-7,68 43,128 110,135 68,7 129,-43 135,-111 7,-68 -42,-128 -110,-135 -68,-7 -129,43 -135,111z"/>
    <path class="fil2" d="M19100 21857c-6,65 41,123 106,129 65,6 123,-41 129,-106 7,-65 -41,-122 -106,-129 -65,-6 -122,41 -129,106z"/>
    <path class="fil2" d="M19277 22066c-6,62 39,117 101,123 62,6 117,-39 123,-101 6,-62 -39,-117 -101,-123 -62,-6 -117,39 -123,101z"/>
    <path class="fil2" d="M19454 22275c-6,59 37,111 96,117 58,6 111,-37 117,-96 5,-59 -38,-111 -96,-117 -59,-5 -111,37 -117,96z"/>
    <path class="fil2" d="M19630 22484c-5,56 36,106 91,111 56,6 106,-35 111,-91 6,-55 -35,-105 -91,-111 -55,-5 -105,36 -111,91z"/>
    <path class="fil2" d="M19807 22694c-5,52 33,99 86,104 53,6 100,-33 105,-86 5,-52 -33,-99 -86,-105 -53,-5 -100,34 -105,87z"/>
    <path class="fil2" d="M19984 22903c-5,49 31,94 81,99 50,4 94,-32 99,-82 5,-49 -32,-94 -81,-98 -50,-5 -94,31 -99,81z"/>
    <path class="fil2" d="M20160 23112c-4,47 30,88 77,93 46,4 88,-30 93,-77 4,-46 -30,-88 -77,-92 -46,-5 -88,29 -93,76z"/>
    <path class="fil2" d="M17911 20097c23,50 71,87 130,92 89,9 169,-56 177,-145 6,-59 -20,-113 -65,-146l-242 199z"/>
    <path class="fil2" d="M18073 20221c-9,87 54,163 140,172 86,8 163,-55 171,-141 9,-86 -54,-163 -140,-171 -86,-8 -163,54 -171,140z"/>
    <path class="fil2" d="M18249 20431c-8,83 53,157 136,165 83,8 157,-53 165,-136 8,-83 -53,-157 -136,-165 -83,-8 -157,53 -165,136z"/>
    <path class="fil2" d="M18426 20640c-8,80 51,151 131,159 80,8 151,-51 159,-131 7,-80 -51,-151 -131,-159 -80,-8 -151,51 -159,131z"/>
    <path class="fil2" d="M18603 20849c-8,77 48,145 125,153 77,8 146,-49 153,-126 8,-77 -48,-145 -125,-153 -77,-7 -146,49 -153,126z"/>
    <path class="fil2" d="M18779 21058c-7,74 47,140 121,147 74,7 140,-47 147,-121 7,-74 -47,-139 -121,-147 -74,-7 -139,47 -147,121z"/>
    <path class="fil2" d="M18956 21267c-7,71 45,134 116,141 71,7 134,-45 141,-116 7,-70 -45,-134 -116,-141 -71,-7 -134,45 -141,116z"/>
    <path class="fil2" d="M19133 21476c-7,68 43,129 110,135 68,7 129,-43 135,-110 7,-68 -42,-129 -110,-135 -68,-7 -129,42 -135,110z"/>
    <path class="fil2" d="M19309 21685c-6,65 41,123 106,129 65,7 123,-41 129,-105 7,-65 -41,-123 -106,-129 -65,-7 -122,41 -129,105z"/>
    <path class="fil2" d="M19486 21895c-6,61 39,116 101,123 62,6 117,-40 123,-101 6,-62 -39,-117 -101,-123 -62,-6 -117,39 -123,101z"/>
    <path class="fil2" d="M19663 22104c-6,59 37,111 96,117 59,5 111,-38 117,-96 5,-59 -38,-111 -96,-117 -59,-6 -111,37 -117,96z"/>
    <path class="fil2" d="M19839 22313c-5,56 36,105 91,111 56,5 106,-35 111,-91 6,-56 -35,-106 -91,-111 -55,-6 -105,35 -111,91z"/>
    <path class="fil2" d="M20016 22522c-5,53 33,100 86,105 53,5 100,-33 105,-86 5,-53 -33,-100 -86,-105 -53,-5 -100,33 -105,86z"/>
    <path class="fil2" d="M20193 22731c-5,50 31,94 81,99 50,5 94,-31 99,-81 5,-50 -32,-94 -81,-99 -50,-5 -94,31 -99,81z"/>
    <path class="fil2" d="M18120 19926c23,50 71,86 130,92 89,9 169,-56 177,-145 6,-59 -20,-114 -65,-147l-242 200z"/>
    <path class="fil2" d="M18282 20050c-9,86 54,163 140,171 86,9 163,-54 171,-140 9,-86 -54,-163 -140,-172 -86,-8 -163,55 -171,141z"/>
    <path class="fil2" d="M18458 20259c-8,83 53,157 136,165 83,8 157,-52 165,-135 8,-83 -53,-157 -136,-165 -83,-9 -157,52 -165,135z"/>
    <path class="fil2" d="M18635 20468c-8,80 51,151 131,159 80,8 151,-50 159,-130 8,-80 -51,-152 -131,-159 -80,-8 -151,50 -159,130z"/>
    <path class="fil2" d="M18812 20677c-8,77 48,146 125,153 77,8 146,-48 153,-125 8,-77 -48,-146 -125,-153 -77,-8 -146,48 -153,125z"/>
    <path class="fil2" d="M18988 20886c-7,74 47,140 121,148 74,7 140,-47 147,-121 7,-74 -47,-140 -121,-147 -74,-7 -139,47 -147,120z"/>
    <path class="fil2" d="M19165 21096c-7,71 45,134 116,141 71,7 134,-45 141,-116 7,-71 -45,-134 -116,-141 -71,-7 -134,45 -141,116z"/>
    <path class="fil2" d="M19342 21305c-7,68 43,128 111,135 67,6 128,-43 135,-111 6,-68 -43,-128 -111,-135 -68,-7 -129,43 -135,111z"/>
    <path class="fil2" d="M19518 21514c-6,65 41,122 106,129 65,6 123,-41 129,-106 7,-65 -41,-123 -106,-129 -64,-6 -122,41 -129,106z"/>
    <path class="fil2" d="M19695 21723c-6,62 39,117 101,123 62,6 117,-39 123,-101 6,-62 -39,-117 -101,-123 -62,-6 -117,39 -123,101z"/>
    <path class="fil2" d="M19872 21932c-6,59 37,111 96,117 59,6 111,-37 117,-96 5,-59 -38,-111 -96,-117 -59,-6 -111,37 -117,96z"/>
    <path class="fil2" d="M18329 19754c23,50 71,87 130,92 89,9 169,-56 177,-145 6,-59 -20,-113 -64,-146l-243 199z"/>
    <path class="fil2" d="M18491 19878c-9,86 54,163 140,171 86,9 163,-54 171,-140 9,-86 -54,-163 -140,-171 -86,-9 -163,54 -171,140z"/>
    <path class="fil2" d="M18667 20087c-8,84 53,157 136,166 83,8 157,-53 165,-136 8,-83 -53,-157 -136,-165 -83,-8 -157,52 -165,135z"/>
    <path class="fil2" d="M18844 20297c-8,80 51,151 131,159 80,8 151,-51 159,-131 8,-80 -51,-151 -131,-159 -80,-8 -151,51 -159,131z"/>
    <path class="fil2" d="M19021 20506c-8,77 48,145 125,153 77,7 146,-49 153,-126 8,-77 -48,-145 -125,-153 -77,-7 -146,49 -153,126z"/>
    <path class="fil2" d="M19197 20715c-7,74 47,140 121,147 74,7 140,-47 147,-121 7,-74 -47,-139 -121,-147 -74,-7 -139,47 -147,121z"/>
    <path class="fil2" d="M19374 20924c-7,71 45,134 116,141 71,7 134,-45 141,-116 7,-71 -45,-134 -116,-141 -71,-7 -134,45 -141,116z"/>
    <path class="fil2" d="M19551 21133c-7,68 43,129 111,135 67,7 128,-43 135,-111 6,-67 -43,-128 -111,-135 -68,-6 -129,43 -135,111z"/>
    <path class="fil2" d="M18538 19583c23,49 72,86 130,92 89,9 169,-57 178,-146 5,-58 -21,-113 -65,-146l-243 200z"/>
    <path class="fil2" d="M18700 19707c-9,86 54,162 140,171 86,8 163,-54 171,-141 9,-86 -54,-162 -140,-171 -86,-8 -163,55 -171,141z"/>
    <path class="fil2" d="M18876 19916c-8,83 53,157 136,165 83,8 157,-52 165,-135 8,-83 -53,-157 -136,-166 -83,-8 -156,53 -165,136z"/>
    <path class="fil2" d="M19053 20125c-8,80 51,151 131,159 80,8 151,-50 159,-130 8,-80 -51,-152 -131,-159 -80,-8 -151,50 -159,130z"/>
    <path class="fil2" d="M19230 20334c-8,77 48,146 125,153 77,8 146,-48 153,-125 8,-77 -48,-146 -125,-153 -77,-8 -146,48 -153,125z"/>
    <path class="fil2" d="M18747 19411c23,50 72,86 130,92 89,9 169,-56 178,-145 5,-59 -21,-114 -65,-146l-243 199z"/>
    <g style="clip-path:url(#id0)">
     <image transform="matrix(0.313176 -0.257034 0.257034 0.313176 19480.2 23139.3)" x="0" y="0" width="299" height="102" xlink:href="4.svg_Images\4.svg_ImgID1.png"/>
    </g>
    <polygon class="fil2" points="18982,19609 18982,19609 "/>
    <path class="fil2" d="M18978 19601l0 0c1,3 2,5 3,7 -1,-2 -2,-4 -3,-7z"/>
    <polygon class="fil2" points="18969,19577 18969,19578 "/>
    <polygon class="fil2" points="18969,19579 18970,19581 "/>
    <path class="fil2" d="M18974 19593c-2,-4 -3,-8 -4,-12 1,4 2,8 4,12l0 0z"/>
    <path class="fil2" d="M16930 22221c-7,77 49,146 126,153 77,8 146,-48 153,-125 8,-77 -49,-146 -126,-153 -76,-8 -145,48 -153,125z"/>
    <path class="fil2" d="M17107 22430c-7,74 47,140 121,148 74,7 140,-47 147,-121 7,-74 -47,-140 -121,-147 -74,-8 -140,47 -147,120z"/>
    <path class="fil2" d="M17284 22640c-7,71 45,134 116,141 70,7 134,-45 141,-116 7,-71 -45,-134 -116,-141 -71,-7 -134,45 -141,116z"/>
    <path class="fil2" d="M17460 22849c-6,68 43,128 111,135 68,6 129,-43 135,-111 7,-68 -43,-128 -111,-135 -67,-7 -128,43 -135,111z"/>
    <path class="fil2" d="M17637 23058c-6,65 41,122 106,129 65,6 123,-41 129,-106 6,-65 -41,-123 -106,-129 -65,-6 -122,41 -129,106z"/>
    <path class="fil2" d="M17814 23267c-6,62 39,117 101,123 62,6 117,-39 123,-101 6,-62 -39,-117 -101,-123 -62,-6 -117,39 -123,101z"/>
    <path class="fil2" d="M17991 23476c-6,59 37,111 96,117 58,6 111,-37 116,-96 6,-59 -37,-111 -96,-117 -58,-6 -111,37 -116,96z"/>
    <path class="fil2" d="M18167 23685c-5,56 35,106 91,111 56,6 106,-35 111,-91 6,-56 -35,-105 -91,-111 -56,-5 -105,36 -111,91z"/>
    <path class="fil2" d="M18344 23894c-5,53 33,100 86,105 53,6 100,-33 105,-86 5,-52 -33,-99 -86,-105 -53,-5 -100,34 -105,86z"/>
    <path class="fil2" d="M18697 24313c-4,46 30,88 76,93 47,4 89,-30 93,-77 5,-46 -29,-88 -76,-92 -47,-5 -88,29 -93,76z"/>
    <path class="fil2" d="M18874 24522c-4,44 28,82 71,87 44,4 83,-28 87,-72 4,-43 -28,-82 -71,-86 -44,-5 -83,27 -87,71z"/>
    <path class="fil2" d="M19051 24731c-4,41 25,77 66,81 41,4 77,-26 81,-67 4,-40 -26,-76 -67,-80 -40,-4 -76,25 -80,66z"/>
    <path class="fil2" d="M19227 24940c-3,38 24,71 62,75 37,4 71,-24 74,-61 4,-38 -23,-72 -61,-75 -37,-4 -71,24 -75,61z"/>
    <path class="fil2" d="M19404 25149c-3,35 22,66 56,69 35,3 66,-22 69,-56 4,-35 -22,-66 -56,-69 -35,-4 -66,22 -69,56z"/>
    <path class="fil2" d="M19581 25358c-3,32 20,60 51,63 32,3 60,-20 63,-51 3,-32 -20,-60 -52,-63 -31,-3 -59,20 -62,51z"/>
    <path class="fil2" d="M19757 25568c-2,28 18,53 47,56 28,3 54,-18 57,-46 2,-29 -18,-54 -47,-57 -28,-3 -54,18 -57,47z"/>
    <path class="fil2" d="M18512 24110c-5,49 31,94 81,98 50,5 94,-31 99,-81 5,-49 -32,-94 -81,-99 -50,-4 -94,32 -99,82z"/>
    <path class="fil2" d="M20281 23695c-4,41 26,77 67,81 40,4 76,-25 80,-66 4,-41 -25,-77 -66,-81 -40,-4 -77,26 -81,66z"/>
    <path class="fil2" d="M20329 23333c-4,44 28,83 71,87 44,4 83,-28 87,-71 4,-44 -28,-83 -71,-87 -44,-4 -83,27 -87,71z"/>
    <circle class="fil0" cx="16386" cy="21209" r="16"/>
    <circle class="fil0" cx="16595" cy="21037" r="16"/>
    <circle class="fil0" cx="16807" cy="20863" r="16"/>
    <circle class="fil0" cx="17015" cy="20693" r="16"/>
    <circle class="fil0" cx="17226" cy="20519" r="16"/>
    <circle class="fil0" cx="17432" cy="20352" r="16"/>
    <circle class="fil0" cx="17643" cy="20178" r="16"/>
    <circle class="fil0" cx="17849" cy="20009" r="16"/>
    <circle class="fil0" cx="18061" cy="19837" r="16"/>
    <circle class="fil0" cx="18269" cy="19664" r="16"/>
    <circle class="fil0" cx="18476" cy="19493" r="16"/>
    <circle class="fil0" cx="16170" cy="20928" r="16"/>
    <circle class="fil0" cx="16379" cy="20756" r="16"/>
    <circle class="fil0" cx="16590" cy="20581" r="16"/>
    <circle class="fil0" cx="16799" cy="20412" r="16"/>
    <circle class="fil0" cx="17010" cy="20237" r="16"/>
    <circle class="fil0" cx="17216" cy="20070" r="16"/>
    <circle class="fil0" cx="17427" cy="19897" r="16"/>
    <circle class="fil0" cx="17633" cy="19728" r="16"/>
    <circle class="fil0" cx="17845" cy="19556" r="16"/>
    <circle class="fil0" cx="18053" cy="19383" r="16"/>
    <circle class="fil0" cx="18260" cy="19212" r="16"/>
    <path class="fil2" d="M18898 19536c-8,86 55,162 141,171 86,8 163,-55 171,-141 8,-86 -54,-162 -140,-171 -86,-8 -163,55 -172,141z"/>
    <path class="fil2" d="M19122 19760c-7,66 42,126 109,132 66,7 126,-42 132,-109 7,-66 -42,-126 -109,-132 -66,-7 -126,42 -132,109z"/>
    <path class="fil2" d="M19117 19760c-8,77 48,145 125,153 77,7 146,-49 153,-126 8,-77 -48,-145 -125,-153 -77,-8 -146,49 -153,126z"/>
    <path class="fil2" d="M19293 19969c-7,74 47,140 121,147 74,7 140,-47 147,-121 7,-74 -47,-140 -121,-147 -74,-7 -139,47 -147,121z"/>
    <path class="fil2" d="M19470 20178c-7,71 45,134 116,141 71,7 134,-45 141,-116 7,-71 -45,-134 -116,-141 -71,-7 -134,45 -141,116z"/>
    <path class="fil2" d="M19647 20387c-7,68 43,128 110,135 68,7 129,-43 135,-111 7,-68 -42,-128 -110,-135 -68,-6 -129,43 -135,111z"/>
    <path class="fil2" d="M19823 20596c-6,65 41,123 106,129 65,7 123,-41 129,-106 7,-64 -41,-122 -106,-129 -65,-6 -122,41 -129,106z"/>
    <path class="fil2" d="M20000 20805c-6,62 39,117 101,123 62,6 117,-39 123,-101 6,-61 -39,-116 -101,-123 -62,-6 -117,40 -123,101z"/>
    <path class="fil2" d="M20177 21015c-6,58 37,111 96,116 58,6 111,-37 117,-96 5,-58 -38,-111 -96,-116 -59,-6 -111,37 -117,96z"/>
    <path class="fil2" d="M20353 21224c-5,55 36,105 91,111 56,5 106,-36 111,-91 6,-56 -35,-106 -91,-111 -55,-6 -105,35 -111,91z"/>
    <path class="fil2" d="M20530 21433c-5,53 33,99 86,105 53,5 100,-34 105,-86 5,-53 -33,-100 -86,-105 -53,-5 -100,33 -105,86z"/>
    <path class="fil2" d="M20883 21851c-4,47 30,88 77,93 46,5 88,-30 93,-76 4,-47 -30,-89 -77,-93 -46,-5 -88,29 -93,76z"/>
    <path class="fil2" d="M21060 22060c-4,44 28,83 71,87 44,4 83,-28 87,-71 5,-44 -27,-83 -71,-87 -44,-4 -83,28 -87,71z"/>
    <path class="fil2" d="M21237 22269c-4,41 26,77 66,81 41,4 77,-26 81,-66 4,-41 -26,-77 -66,-81 -41,-4 -77,26 -81,66z"/>
    <path class="fil2" d="M21414 22478c-4,38 23,72 61,75 38,4 71,-23 75,-61 3,-38 -24,-71 -62,-75 -37,-4 -71,24 -74,61z"/>
    <path class="fil2" d="M21590 22688c-3,34 22,65 57,68 34,4 65,-21 68,-56 4,-35 -21,-65 -56,-69 -35,-3 -65,22 -69,57z"/>
    <path class="fil2" d="M21767 22897c-3,31 20,59 51,63 32,3 60,-20 63,-52 3,-32 -20,-60 -51,-63 -32,-3 -60,20 -63,52z"/>
    <path class="fil2" d="M21944 23106c-3,28 18,54 46,57 29,2 54,-18 57,-47 3,-28 -18,-54 -47,-57 -28,-2 -54,18 -56,47z"/>
    <path class="fil2" d="M22297 23524c-2,23 14,43 37,45 22,2 42,-14 44,-37 2,-22 -14,-42 -36,-44 -23,-3 -43,14 -45,36z"/>
    <path class="fil2" d="M20698 21648c-5,50 31,94 81,99 50,5 94,-32 99,-81 5,-50 -31,-94 -81,-99 -50,-5 -94,31 -99,81z"/>
    <path class="fil2" d="M22131 23318c-2,26 16,48 42,51 25,2 48,-16 51,-42 2,-25 -17,-48 -42,-51 -26,-2 -48,17 -51,42z"/>
    <path class="fil2" d="M18888 19923c-8,77 48,146 125,153 77,8 146,-48 153,-125 8,-77 -48,-146 -125,-153 -77,-8 -146,48 -153,125z"/>
    <path class="fil2" d="M19064 20133c-7,73 47,139 121,147 74,7 140,-47 147,-121 7,-74 -47,-140 -121,-147 -74,-7 -139,47 -147,121z"/>
    <path class="fil2" d="M19241 20342c-7,71 45,134 116,141 71,7 134,-45 141,-116 7,-71 -45,-134 -116,-141 -71,-7 -134,45 -141,116z"/>
    <path class="fil2" d="M19418 20551c-7,68 43,128 110,135 68,6 129,-43 135,-111 7,-68 -42,-128 -110,-135 -68,-7 -129,43 -135,111z"/>
    <path class="fil2" d="M19594 20760c-6,65 41,123 106,129 65,6 123,-41 129,-106 7,-65 -41,-123 -106,-129 -65,-6 -122,41 -129,106z"/>
    <path class="fil2" d="M19771 20969c-6,62 39,117 101,123 62,6 117,-39 123,-101 6,-62 -39,-117 -101,-123 -62,-6 -117,39 -123,101z"/>
    <path class="fil2" d="M19948 21178c-6,59 37,111 96,117 58,6 111,-37 117,-96 5,-59 -38,-111 -96,-117 -59,-6 -112,37 -117,96z"/>
    <path class="fil2" d="M20124 21387c-5,56 36,106 91,111 56,6 106,-35 111,-91 6,-56 -35,-105 -91,-111 -55,-5 -105,36 -111,91z"/>
    <path class="fil2" d="M20301 21596c-5,53 33,100 86,105 53,6 100,-33 105,-86 5,-52 -33,-99 -86,-105 -53,-5 -100,34 -105,86z"/>
    <path class="fil2" d="M20654 22015c-4,46 30,88 77,93 46,4 88,-30 93,-77 4,-46 -30,-88 -77,-92 -46,-5 -88,29 -93,76z"/>
    <path class="fil2" d="M20831 22224c-4,44 28,82 71,87 44,4 83,-28 87,-72 5,-43 -27,-82 -71,-86 -44,-5 -83,27 -87,71z"/>
    <path class="fil2" d="M21008 22433c-4,41 26,77 66,81 41,4 77,-26 81,-66 4,-41 -26,-77 -66,-81 -41,-4 -77,25 -81,66z"/>
    <path class="fil2" d="M21185 22642c-4,38 23,71 61,75 37,4 71,-24 75,-61 3,-38 -24,-71 -62,-75 -37,-4 -71,24 -74,61z"/>
    <path class="fil2" d="M21361 22851c-3,35 22,66 57,69 34,3 65,-22 68,-56 4,-35 -21,-66 -56,-69 -35,-4 -65,22 -69,56z"/>
    <path class="fil2" d="M21538 23060c-3,32 20,60 51,63 32,3 60,-20 63,-51 3,-32 -20,-60 -51,-63 -32,-3 -60,20 -63,51z"/>
    <path class="fil2" d="M21715 23270c-3,28 18,54 46,56 29,3 54,-18 57,-46 3,-29 -18,-54 -47,-57 -28,-3 -54,18 -56,47z"/>
    <path class="fil2" d="M22068 23688c-2,22 14,42 37,45 22,2 42,-15 44,-37 2,-23 -14,-43 -36,-45 -23,-2 -43,14 -45,37z"/>
    <path class="fil2" d="M20469 21812c-5,49 31,94 81,99 50,4 94,-32 99,-82 5,-49 -31,-94 -81,-98 -50,-5 -94,31 -99,81z"/>
    <path class="fil2" d="M21902 23482c-2,25 16,48 42,50 25,3 48,-16 51,-41 2,-26 -17,-48 -42,-51 -26,-2 -48,16 -51,42z"/>
    <path class="fil2" d="M18845 20294c-8,77 48,146 125,153 77,8 146,-48 153,-125 8,-77 -48,-146 -125,-153 -77,-8 -146,48 -153,125z"/>
    <path class="fil2" d="M19021 20503c-7,74 47,140 121,147 74,8 140,-46 147,-120 7,-74 -47,-140 -121,-147 -73,-8 -139,46 -147,120z"/>
    <path class="fil2" d="M19198 20712c-7,71 45,135 116,142 71,6 134,-45 141,-116 7,-71 -45,-134 -116,-141 -71,-7 -134,45 -141,115z"/>
    <path class="fil2" d="M19375 20922c-7,67 43,128 111,135 67,6 128,-43 135,-111 6,-68 -43,-128 -111,-135 -68,-7 -129,43 -135,111z"/>
    <path class="fil2" d="M19551 21131c-6,65 41,122 106,129 65,6 123,-41 129,-106 7,-65 -41,-123 -106,-129 -64,-6 -122,41 -129,106z"/>
    <path class="fil2" d="M19728 21340c-6,62 39,117 101,123 62,6 117,-39 123,-101 6,-62 -39,-117 -101,-123 -62,-6 -117,39 -123,101z"/>
    <path class="fil2" d="M19905 21549c-6,59 37,111 96,117 59,6 111,-37 117,-96 6,-59 -37,-111 -96,-117 -59,-6 -111,37 -117,96z"/>
    <path class="fil2" d="M20082 21758c-6,56 35,106 91,111 55,6 105,-35 110,-91 6,-56 -35,-105 -91,-111 -55,-5 -105,35 -110,91z"/>
    <path class="fil2" d="M20258 21967c-5,53 34,100 86,105 53,5 100,-33 105,-86 5,-53 -33,-100 -86,-105 -53,-5 -100,34 -105,86z"/>
    <path class="fil2" d="M20612 22386c-5,46 29,88 76,92 46,5 88,-29 93,-76 4,-46 -30,-88 -77,-93 -46,-4 -88,30 -92,77z"/>
    <path class="fil2" d="M20788 22595c-4,43 28,82 72,87 43,4 82,-28 86,-72 5,-43 -27,-82 -71,-87 -44,-4 -82,28 -87,72z"/>
    <path class="fil2" d="M20965 22804c-4,40 26,77 66,81 41,4 77,-26 81,-67 4,-40 -26,-76 -66,-80 -41,-4 -77,25 -81,66z"/>
    <path class="fil2" d="M21142 23013c-4,38 23,71 61,75 38,4 71,-24 75,-62 3,-37 -24,-71 -62,-74 -37,-4 -71,23 -74,61z"/>
    <path class="fil2" d="M21318 23222c-3,35 22,66 57,69 34,3 65,-22 69,-57 3,-34 -22,-65 -57,-68 -35,-4 -65,22 -69,56z"/>
    <path class="fil2" d="M21495 23431c-3,32 20,60 51,63 32,3 60,-20 63,-51 3,-32 -20,-60 -51,-63 -32,-3 -60,20 -63,51z"/>
    <path class="fil2" d="M21672 23640c-3,29 18,54 46,57 29,3 54,-18 57,-46 3,-29 -18,-54 -47,-57 -28,-3 -54,18 -56,46z"/>
    <path class="fil2" d="M20426 22182c-5,50 31,94 81,99 50,5 94,-31 99,-81 5,-49 -31,-94 -81,-99 -50,-5 -94,32 -99,81z"/>
    <path class="fil2" d="M21859 23853c-2,25 16,48 42,50 25,3 48,-16 51,-41 2,-26 -16,-49 -42,-51 -25,-3 -48,16 -51,42z"/>
    <path class="fil2" d="M18632 20457c-7,77 49,145 126,153 77,7 145,-49 153,-126 7,-77 -49,-145 -126,-153 -77,-7 -145,49 -153,126z"/>
    <path class="fil2" d="M18809 20666c-7,74 47,140 120,147 74,7 140,-47 148,-121 7,-74 -47,-139 -121,-147 -74,-7 -140,47 -147,121z"/>
    <path class="fil2" d="M18985 20875c-7,71 45,134 116,141 71,7 134,-45 141,-116 7,-71 -45,-134 -116,-141 -70,-7 -134,45 -141,116z"/>
    <path class="fil2" d="M19162 21084c-7,68 43,129 111,135 68,7 128,-43 135,-111 7,-67 -43,-128 -111,-135 -68,-6 -128,43 -135,111z"/>
    <path class="fil2" d="M19339 21293c-7,65 41,123 106,129 65,7 122,-41 129,-105 6,-65 -41,-123 -106,-129 -65,-7 -123,41 -129,105z"/>
    <path class="fil2" d="M19516 21503c-7,61 39,116 100,122 62,7 117,-39 123,-100 6,-62 -39,-117 -101,-123 -61,-6 -116,39 -122,101z"/>
    <path class="fil2" d="M19692 21712c-6,58 37,111 96,117 59,5 111,-38 117,-96 6,-59 -37,-112 -96,-117 -59,-6 -111,37 -117,96z"/>
    <path class="fil2" d="M19869 21921c-6,56 35,105 91,111 56,5 105,-36 111,-91 5,-56 -35,-106 -91,-111 -56,-6 -106,35 -111,91z"/>
    <path class="fil2" d="M20046 22130c-6,53 33,100 86,105 52,5 99,-34 105,-86 5,-53 -34,-100 -87,-105 -52,-5 -99,33 -104,86z"/>
    <path class="fil2" d="M20399 22548c-5,47 29,88 76,93 47,5 88,-29 93,-76 5,-47 -30,-88 -76,-93 -47,-5 -88,30 -93,76z"/>
    <path class="fil2" d="M20576 22757c-5,44 27,83 71,87 44,4 82,-27 87,-71 4,-44 -28,-83 -72,-87 -43,-4 -82,28 -86,71z"/>
    <path class="fil2" d="M20752 22966c-4,41 26,77 67,81 40,4 76,-25 80,-66 4,-41 -25,-77 -66,-81 -40,-4 -77,26 -81,66z"/>
    <path class="fil2" d="M20929 23176c-4,37 24,71 61,74 38,4 71,-23 75,-61 4,-38 -24,-71 -61,-75 -38,-3 -71,24 -75,62z"/>
    <path class="fil2" d="M21106 23385c-4,34 22,65 56,69 35,3 65,-22 69,-57 3,-34 -22,-65 -57,-69 -34,-3 -65,22 -68,57z"/>
    <path class="fil2" d="M21282 23594c-3,31 20,60 52,63 31,3 60,-20 63,-52 3,-31 -20,-59 -52,-63 -31,-3 -60,20 -63,52z"/>
    <path class="fil2" d="M21459 23803c-3,29 18,54 47,57 28,3 54,-18 56,-47 3,-28 -18,-54 -46,-57 -29,-2 -54,19 -57,47z"/>
    <path class="fil2" d="M20213 22345c-4,50 32,94 82,99 49,5 94,-31 98,-81 5,-50 -31,-94 -81,-99 -49,-5 -94,31 -99,81z"/>
    <path class="fil2" d="M21647 24015c-3,26 16,48 41,51 26,2 49,-16 51,-42 3,-25 -16,-48 -42,-50 -25,-3 -48,16 -50,41z"/>
    <path class="fil2" d="M18437 20639c-8,77 48,146 125,153 77,8 146,-48 153,-125 8,-77 -48,-146 -125,-153 -77,-8 -146,48 -153,125z"/>
    <path class="fil2" d="M18613 20848c-7,74 47,140 121,148 74,7 140,-47 147,-121 7,-74 -47,-140 -121,-147 -74,-8 -139,47 -147,120z"/>
    <path class="fil2" d="M18790 21058c-7,70 45,134 116,141 71,7 134,-45 141,-116 7,-71 -45,-134 -116,-141 -71,-7 -134,45 -141,116z"/>
    <path class="fil2" d="M18967 21267c-7,68 43,128 110,135 68,6 129,-43 135,-111 7,-68 -42,-128 -110,-135 -68,-7 -129,43 -135,111z"/>
    <path class="fil2" d="M19143 21476c-6,65 41,122 106,129 65,6 123,-41 129,-106 7,-65 -41,-123 -106,-129 -65,-6 -122,41 -129,106z"/>
    <path class="fil2" d="M19320 21685c-6,62 39,117 101,123 62,6 117,-39 123,-101 6,-62 -39,-117 -101,-123 -62,-6 -117,39 -123,101z"/>
    <path class="fil2" d="M19497 21894c-6,59 37,111 96,117 58,6 111,-37 117,-96 5,-59 -38,-111 -96,-117 -59,-6 -112,37 -117,96z"/>
    <path class="fil2" d="M19673 22103c-5,56 36,106 91,111 56,6 106,-35 111,-91 6,-56 -35,-105 -91,-111 -55,-5 -105,36 -111,91z"/>
    <path class="fil2" d="M19850 22312c-5,53 33,100 86,105 53,6 100,-33 105,-86 5,-53 -33,-99 -86,-105 -53,-5 -100,34 -105,86z"/>
    <path class="fil2" d="M20203 22731c-4,46 30,88 77,93 46,4 88,-30 92,-77 5,-46 -29,-88 -76,-93 -46,-4 -88,30 -93,77z"/>
    <path class="fil2" d="M20380 22940c-4,43 28,82 71,87 44,4 83,-28 87,-72 5,-43 -27,-82 -71,-86 -44,-5 -83,27 -87,71z"/>
    <path class="fil2" d="M20557 23149c-4,41 26,77 66,81 41,4 77,-26 81,-67 4,-40 -26,-76 -66,-80 -41,-4 -77,25 -81,66z"/>
    <path class="fil2" d="M20734 23358c-4,38 23,71 61,75 37,4 71,-24 75,-61 3,-38 -24,-72 -62,-75 -37,-4 -71,24 -74,61z"/>
    <path class="fil2" d="M20910 23567c-3,35 22,66 57,69 34,3 65,-22 68,-56 4,-35 -21,-66 -56,-69 -35,-4 -65,22 -69,56z"/>
    <path class="fil2" d="M21087 23776c-3,32 20,60 51,63 32,3 60,-20 63,-51 3,-32 -20,-60 -51,-63 -32,-3 -60,20 -63,51z"/>
    <path class="fil2" d="M21264 23986c-3,28 18,53 46,56 29,3 54,-18 57,-46 3,-29 -18,-54 -47,-57 -28,-3 -54,18 -56,47z"/>
    <path class="fil2" d="M20018 22528c-5,49 31,94 81,98 50,5 94,-31 99,-81 5,-49 -31,-94 -81,-99 -50,-4 -94,32 -99,82z"/>
    <path class="fil2" d="M21451 24198c-2,25 16,48 42,50 25,3 48,-16 51,-41 2,-26 -17,-48 -42,-51 -26,-2 -48,16 -51,42z"/>
    <path class="fil2" d="M18208 20822c-7,77 49,145 126,153 77,7 146,-49 153,-126 8,-77 -48,-145 -125,-153 -77,-7 -146,49 -154,126z"/>
    <path class="fil2" d="M18385 21031c-7,74 47,140 121,147 74,7 140,-47 147,-121 7,-74 -47,-139 -121,-147 -74,-7 -140,47 -147,121z"/>
    <path class="fil2" d="M18562 21240c-7,71 45,134 116,141 71,7 134,-45 141,-116 7,-71 -45,-134 -116,-141 -71,-7 -134,45 -141,116z"/>
    <path class="fil2" d="M18739 21449c-7,68 42,129 110,135 68,7 129,-43 135,-111 7,-67 -43,-128 -110,-135 -68,-6 -129,43 -135,111z"/>
    <path class="fil2" d="M18915 21658c-6,65 41,123 106,129 65,7 123,-41 129,-106 6,-64 -41,-122 -106,-129 -65,-6 -122,41 -129,106z"/>
    <path class="fil2" d="M19092 21867c-6,62 39,117 101,123 62,7 117,-39 123,-100 6,-62 -39,-117 -101,-123 -62,-7 -117,39 -123,100z"/>
    <path class="fil2" d="M19269 22077c-6,58 37,111 96,117 58,5 111,-38 117,-96 5,-59 -38,-112 -96,-117 -59,-6 -112,37 -117,96z"/>
    <path class="fil2" d="M19445 22286c-5,56 36,105 91,111 56,5 106,-36 111,-91 6,-56 -35,-106 -91,-111 -56,-6 -105,35 -111,91z"/>
    <path class="fil2" d="M19622 22495c-5,53 33,100 86,105 53,5 100,-34 105,-86 5,-53 -33,-100 -86,-105 -53,-5 -100,33 -105,86z"/>
    <path class="fil2" d="M19975 22913c-4,47 30,88 77,93 46,5 88,-29 92,-76 5,-47 -29,-88 -76,-93 -46,-5 -88,29 -93,76z"/>
    <path class="fil2" d="M20152 23122c-4,44 28,83 71,87 44,4 83,-27 87,-71 4,-44 -27,-83 -71,-87 -44,-4 -83,28 -87,71z"/>
    <path class="fil2" d="M20329 23331c-4,41 25,77 66,81 41,4 77,-25 81,-66 4,-41 -26,-77 -66,-81 -41,-4 -77,26 -81,66z"/>
    <path class="fil2" d="M20505 23541c-3,37 24,71 62,74 37,4 71,-23 75,-61 3,-38 -24,-71 -62,-75 -37,-3 -71,24 -75,62z"/>
    <path class="fil2" d="M20682 23750c-3,34 22,65 57,68 34,4 65,-21 68,-56 4,-35 -22,-65 -56,-69 -35,-3 -66,22 -69,57z"/>
    <path class="fil2" d="M20859 23959c-3,31 20,60 51,63 32,3 60,-20 63,-52 3,-31 -20,-60 -51,-63 -32,-3 -60,20 -63,52z"/>
    <path class="fil2" d="M21035 24168c-2,29 19,54 47,57 29,3 54,-18 57,-47 3,-28 -18,-54 -47,-57 -28,-2 -54,18 -57,47z"/>
    <path class="fil2" d="M19790 22710c-5,50 31,94 81,99 50,5 94,-31 99,-81 5,-50 -32,-94 -81,-99 -50,-5 -94,31 -99,81z"/>
    <path class="fil2" d="M21223 24380c-2,26 16,48 42,51 25,2 48,-16 50,-42 3,-25 -16,-48 -41,-50 -26,-3 -48,16 -51,41z"/>
    <path class="fil2" d="M18150 21200c-8,77 49,145 125,153 77,7 146,-49 154,-126 7,-77 -49,-145 -126,-153 -77,-7 -146,49 -153,126z"/>
    <path class="fil2" d="M18327 21409c-8,74 46,140 120,147 74,7 140,-47 147,-121 8,-74 -46,-139 -120,-147 -74,-7 -140,47 -147,121z"/>
    <path class="fil2" d="M18503 21618c-7,71 45,134 116,141 71,7 134,-45 141,-116 7,-71 -45,-134 -116,-141 -71,-7 -134,45 -141,116z"/>
    <path class="fil2" d="M18680 21827c-7,68 43,129 111,135 68,7 128,-43 135,-111 6,-67 -43,-128 -111,-135 -68,-6 -128,43 -135,111z"/>
    <path class="fil2" d="M18857 22036c-7,65 41,123 105,129 65,7 123,-41 129,-106 7,-64 -41,-122 -105,-129 -65,-6 -123,41 -129,106z"/>
    <path class="fil2" d="M19033 22245c-6,62 39,117 101,123 62,7 117,-39 123,-100 6,-62 -39,-117 -101,-123 -62,-7 -117,39 -123,100z"/>
    <path class="fil2" d="M19210 22455c-6,58 37,111 96,117 59,5 111,-38 117,-96 6,-59 -37,-112 -96,-117 -59,-6 -111,37 -117,96z"/>
    <path class="fil2" d="M19387 22664c-6,56 35,105 91,111 55,5 105,-36 111,-91 5,-56 -36,-106 -91,-111 -56,-6 -106,35 -111,91z"/>
    <path class="fil2" d="M19563 22873c-5,53 34,100 86,105 53,5 100,-34 105,-86 5,-53 -33,-100 -86,-105 -53,-5 -99,33 -105,86z"/>
    <path class="fil2" d="M19917 23291c-5,47 29,88 76,93 47,5 88,-30 93,-76 4,-47 -30,-88 -76,-93 -47,-5 -89,29 -93,76z"/>
    <path class="fil2" d="M20093 23500c-4,44 28,83 72,87 43,4 82,-27 86,-71 5,-44 -27,-83 -71,-87 -43,-4 -82,28 -87,71z"/>
    <path class="fil2" d="M20270 23709c-4,41 26,77 66,81 41,4 77,-25 81,-66 4,-41 -26,-77 -66,-81 -41,-4 -77,26 -81,66z"/>
    <path class="fil2" d="M20447 23919c-4,37 24,71 61,74 38,4 71,-23 75,-61 4,-38 -24,-71 -61,-75 -38,-3 -72,24 -75,62z"/>
    <path class="fil2" d="M20623 24128c-3,34 22,65 57,68 34,4 65,-21 69,-56 3,-35 -22,-65 -57,-69 -34,-3 -65,22 -69,57z"/>
    <path class="fil2" d="M20800 24337c-3,31 20,60 52,63 31,3 59,-20 62,-52 3,-31 -20,-60 -51,-63 -32,-3 -60,20 -63,52z"/>
    <path class="fil2" d="M20977 24546c-3,29 18,54 46,57 29,3 54,-18 57,-47 3,-28 -18,-54 -46,-57 -29,-2 -54,18 -57,47z"/>
    <path class="fil2" d="M19731 23088c-5,50 32,94 81,99 50,5 94,-31 99,-81 5,-50 -31,-94 -81,-99 -50,-5 -94,31 -99,81z"/>
    <path class="fil2" d="M17976 21364c-8,77 48,145 125,153 77,7 146,-49 153,-126 8,-77 -48,-145 -125,-153 -77,-8 -146,49 -153,126z"/>
    <path class="fil2" d="M18152 21573c-7,74 47,139 121,147 74,7 140,-47 147,-121 7,-74 -47,-140 -121,-147 -74,-7 -139,47 -147,121z"/>
    <path class="fil2" d="M18329 21782c-7,71 45,134 116,141 71,7 134,-45 141,-116 7,-71 -45,-134 -116,-141 -71,-7 -134,45 -141,116z"/>
    <path class="fil2" d="M18506 21991c-7,68 43,128 110,135 68,7 129,-43 135,-111 7,-68 -43,-128 -110,-135 -68,-7 -129,43 -135,111z"/>
    <path class="fil2" d="M18682 22200c-6,65 41,123 106,129 65,6 123,-41 129,-106 7,-65 -41,-122 -106,-129 -65,-6 -122,41 -129,106z"/>
    <path class="fil2" d="M18859 22409c-6,62 39,117 101,123 62,6 117,-39 123,-101 6,-62 -39,-117 -101,-123 -62,-6 -117,39 -123,101z"/>
    <path class="fil2" d="M19036 22618c-6,59 37,112 96,117 58,6 111,-37 117,-96 5,-58 -38,-111 -96,-117 -59,-5 -112,38 -117,96z"/>
    <path class="fil2" d="M19212 22828c-5,55 36,105 91,110 56,6 106,-35 111,-91 6,-55 -35,-105 -91,-111 -56,-5 -105,36 -111,92z"/>
    <path class="fil2" d="M19389 23037c-5,52 33,99 86,105 53,5 100,-34 105,-87 5,-52 -33,-99 -86,-104 -53,-6 -100,33 -105,86z"/>
    <path class="fil2" d="M19742 23455c-4,47 30,88 77,93 46,4 88,-30 92,-76 5,-47 -29,-89 -76,-93 -46,-5 -88,29 -93,76z"/>
    <path class="fil2" d="M19919 23664c-4,44 28,83 71,87 44,4 83,-28 87,-71 4,-44 -27,-83 -71,-87 -44,-4 -83,27 -87,71z"/>
    <path class="fil2" d="M20096 23873c-4,41 25,77 66,81 41,4 77,-26 81,-66 4,-41 -26,-77 -66,-81 -41,-4 -77,26 -81,66z"/>
    <path class="fil2" d="M20272 24082c-3,38 24,71 62,75 37,4 71,-24 75,-61 3,-38 -24,-71 -62,-75 -37,-4 -71,24 -75,61z"/>
    <path class="fil2" d="M20449 24291c-3,35 22,66 57,69 34,4 65,-22 68,-56 4,-35 -22,-66 -56,-69 -35,-3 -65,22 -69,56z"/>
    <path class="fil2" d="M20626 24501c-3,31 20,59 51,62 32,3 60,-20 63,-51 3,-32 -20,-60 -51,-63 -32,-3 -60,20 -63,52z"/>
    <path class="fil2" d="M20803 24710c-3,28 18,54 46,56 29,3 54,-18 57,-46 3,-29 -18,-54 -47,-57 -28,-3 -54,18 -56,47z"/>
    <path class="fil2" d="M19557 23252c-5,50 31,94 81,99 50,5 94,-32 99,-81 5,-50 -32,-94 -81,-99 -50,-5 -94,31 -99,81z"/>
    <path class="fil2" d="M17938 21744c-8,77 48,145 125,153 77,7 146,-49 153,-126 8,-77 -48,-145 -125,-153 -77,-7 -146,49 -153,126z"/>
    <path class="fil2" d="M18114 21953c-7,74 47,140 121,147 74,7 140,-47 147,-121 7,-74 -47,-140 -121,-147 -73,-7 -139,47 -147,121z"/>
    <path class="fil2" d="M18291 22162c-7,71 45,134 116,141 71,7 134,-45 141,-116 7,-71 -45,-134 -116,-141 -71,-7 -134,45 -141,116z"/>
    <path class="fil2" d="M18468 22371c-7,68 43,128 111,135 67,7 128,-43 135,-111 6,-68 -43,-128 -111,-135 -68,-6 -129,43 -135,111z"/>
    <path class="fil2" d="M18644 22580c-6,65 41,123 106,129 65,7 123,-41 129,-106 7,-64 -41,-122 -106,-129 -64,-6 -122,41 -129,106z"/>
    <path class="fil2" d="M18821 22789c-6,62 39,117 101,123 62,6 117,-39 123,-101 6,-61 -39,-116 -101,-123 -62,-6 -117,40 -123,101z"/>
    <path class="fil2" d="M18998 22999c-6,58 37,111 96,116 59,6 111,-37 117,-95 6,-59 -37,-112 -96,-117 -59,-6 -111,37 -117,96z"/>
    <path class="fil2" d="M19175 23208c-6,55 35,105 91,111 55,5 105,-36 110,-91 6,-56 -35,-106 -91,-111 -55,-6 -105,35 -110,91z"/>
    <path class="fil2" d="M19351 23417c-5,53 34,100 86,105 53,5 100,-34 105,-86 5,-53 -33,-100 -86,-105 -53,-5 -100,33 -105,86z"/>
    <path class="fil2" d="M19705 23835c-5,47 29,88 76,93 46,5 88,-30 93,-76 4,-47 -30,-89 -77,-93 -46,-5 -88,29 -92,76z"/>
    <path class="fil2" d="M19881 24044c-4,44 28,83 72,87 43,4 82,-28 86,-71 5,-44 -27,-83 -71,-87 -44,-4 -82,28 -87,71z"/>
    <path class="fil2" d="M20058 24253c-4,41 26,77 66,81 41,4 77,-26 81,-66 4,-41 -26,-77 -66,-81 -41,-4 -77,26 -81,66z"/>
    <path class="fil2" d="M20235 24463c-4,37 23,71 61,74 38,4 71,-23 75,-61 4,-38 -24,-71 -62,-75 -37,-4 -71,24 -74,62z"/>
    <path class="fil2" d="M20411 24672c-3,34 22,65 57,68 34,4 65,-21 69,-56 3,-35 -22,-65 -57,-69 -34,-3 -65,22 -69,57z"/>
    <path class="fil2" d="M20588 24881c-3,31 20,59 52,63 31,3 59,-20 62,-52 3,-32 -20,-60 -51,-63 -32,-3 -60,20 -63,52z"/>
    <path class="fil2" d="M19519 23632c-5,50 31,94 81,99 50,5 94,-32 99,-81 5,-50 -31,-94 -81,-99 -50,-5 -94,31 -99,81z"/>
    <path class="fil2" d="M17729 21915c-8,77 48,146 125,153 77,8 146,-48 153,-125 8,-77 -48,-146 -125,-153 -77,-8 -146,48 -153,125z"/>
    <path class="fil2" d="M17905 22124c-7,74 47,140 121,147 74,8 140,-46 147,-120 7,-74 -47,-140 -121,-147 -74,-8 -139,46 -147,120z"/>
    <path class="fil2" d="M18082 22334c-7,70 45,134 116,141 71,7 134,-45 141,-116 7,-71 -45,-134 -116,-141 -71,-7 -134,45 -141,116z"/>
    <path class="fil2" d="M18259 22543c-7,68 43,128 111,135 67,6 128,-43 135,-111 6,-68 -43,-128 -111,-135 -68,-7 -129,43 -135,111z"/>
    <path class="fil2" d="M18435 22752c-6,65 41,122 106,129 65,6 123,-41 129,-106 7,-65 -41,-123 -106,-129 -64,-6 -122,41 -129,106z"/>
    <path class="fil2" d="M18612 22961c-6,62 39,117 101,123 62,6 117,-39 123,-101 6,-62 -39,-117 -101,-123 -62,-6 -117,39 -123,101z"/>
    <path class="fil2" d="M18789 23170c-6,59 37,111 96,117 59,6 111,-37 117,-96 6,-59 -37,-111 -96,-117 -59,-6 -111,37 -117,96z"/>
    <path class="fil2" d="M18965 23379c-5,56 36,106 92,111 55,6 105,-35 110,-91 6,-56 -35,-105 -91,-111 -55,-5 -105,35 -111,91z"/>
    <path class="fil2" d="M19142 23588c-5,53 34,100 86,105 53,5 100,-33 105,-86 5,-53 -33,-100 -86,-105 -53,-5 -100,34 -105,86z"/>
    <path class="fil2" d="M19496 24007c-5,46 29,88 76,92 46,5 88,-29 93,-76 4,-46 -30,-88 -77,-93 -46,-4 -88,30 -92,77z"/>
    <path class="fil2" d="M19672 24216c-4,43 28,82 72,87 43,4 82,-28 86,-72 5,-43 -27,-82 -71,-86 -44,-5 -82,27 -87,71z"/>
    <path class="fil2" d="M19849 24425c-4,41 26,77 66,81 41,4 77,-26 81,-67 4,-40 -26,-76 -66,-80 -41,-4 -77,25 -81,66z"/>
    <path class="fil2" d="M20026 24634c-4,38 23,71 61,75 38,4 71,-24 75,-62 3,-37 -24,-71 -62,-74 -37,-4 -71,23 -74,61z"/>
    <path class="fil2" d="M20202 24843c-3,35 22,66 57,69 34,3 65,-22 68,-56 4,-35 -21,-66 -56,-69 -35,-4 -65,22 -69,56z"/>
    <path class="fil2" d="M20379 25052c-3,32 20,60 51,63 32,3 60,-20 63,-51 3,-32 -20,-60 -51,-63 -32,-3 -60,20 -63,51z"/>
    <path class="fil2" d="M19310 23804c-5,49 31,94 81,98 50,5 94,-31 99,-81 5,-49 -31,-94 -81,-99 -50,-4 -94,32 -99,82z"/>
    <path class="fil2" d="M17509 22084c-8,77 48,145 125,153 77,7 146,-49 153,-126 8,-77 -48,-145 -125,-153 -77,-7 -146,49 -153,126z"/>
    <path class="fil2" d="M17685 22293c-7,74 47,140 121,147 74,7 140,-47 147,-121 7,-74 -47,-139 -121,-147 -73,-7 -139,47 -147,121z"/>
    <path class="fil2" d="M17862 22502c-7,71 45,134 116,141 71,7 134,-45 141,-116 7,-71 -45,-134 -116,-141 -71,-7 -134,45 -141,116z"/>
    <path class="fil2" d="M18039 22711c-7,68 43,129 111,135 67,7 128,-43 135,-111 6,-67 -43,-128 -111,-135 -68,-6 -129,43 -135,111z"/>
    <path class="fil2" d="M18215 22920c-6,65 41,123 106,129 65,7 123,-41 129,-106 7,-64 -41,-122 -106,-129 -64,-6 -122,42 -129,106z"/>
    <path class="fil2" d="M18392 23129c-6,62 39,117 101,123 62,7 117,-39 123,-100 6,-62 -39,-117 -101,-123 -62,-7 -117,39 -123,100z"/>
    <path class="fil2" d="M18569 23339c-6,58 37,111 96,117 59,5 111,-38 117,-96 6,-59 -37,-112 -96,-117 -59,-6 -111,37 -117,96z"/>
    <path class="fil2" d="M18746 23548c-6,56 35,105 91,111 55,5 105,-36 110,-91 6,-56 -35,-106 -91,-111 -55,-6 -105,35 -110,91z"/>
    <path class="fil2" d="M18922 23757c-5,53 34,100 86,105 53,5 100,-34 105,-86 5,-53 -33,-100 -86,-105 -53,-5 -100,33 -105,86z"/>
    <path class="fil2" d="M19276 24175c-5,47 29,88 76,93 46,5 88,-29 93,-76 4,-47 -30,-88 -77,-93 -46,-5 -88,30 -92,76z"/>
    <path class="fil2" d="M19452 24384c-4,44 28,83 72,87 43,4 82,-27 86,-71 5,-44 -27,-83 -71,-87 -44,-4 -82,28 -87,71z"/>
    <path class="fil2" d="M19629 24593c-4,41 26,77 66,81 41,4 77,-25 81,-66 4,-41 -26,-77 -66,-81 -41,-4 -77,26 -81,66z"/>
    <path class="fil2" d="M19806 24803c-4,37 23,71 61,74 38,4 71,-23 75,-61 3,-38 -24,-71 -62,-75 -37,-3 -71,24 -74,62z"/>
    <path class="fil2" d="M19982 25012c-3,34 22,65 57,69 34,3 65,-22 69,-57 3,-34 -22,-65 -57,-69 -34,-3 -65,22 -69,57z"/>
    <path class="fil2" d="M20159 25221c-3,31 20,60 51,63 32,3 60,-20 63,-52 3,-31 -20,-60 -51,-63 -32,-3 -60,20 -63,52z"/>
    <path class="fil2" d="M19090 23972c-5,50 31,94 81,99 50,5 94,-31 99,-81 5,-50 -31,-94 -81,-99 -50,-5 -94,31 -99,81z"/>
    <path class="fil2" d="M17471 22464c-8,77 49,145 126,153 76,8 145,-49 153,-126 7,-77 -49,-145 -126,-153 -77,-7 -146,49 -153,126z"/>
    <path class="fil2" d="M17648 22673c-8,74 46,140 120,147 74,7 140,-47 147,-121 8,-73 -46,-139 -120,-147 -74,-7 -140,47 -147,121z"/>
    <path class="fil2" d="M17824 22882c-7,71 45,134 116,141 71,7 134,-45 141,-115 7,-71 -45,-135 -116,-142 -71,-6 -134,45 -141,116z"/>
    <path class="fil2" d="M18001 23091c-7,68 43,129 111,135 68,7 128,-43 135,-110 6,-68 -43,-129 -111,-135 -68,-7 -128,42 -135,110z"/>
    <path class="fil2" d="M18178 23301c-7,64 41,122 105,128 65,7 123,-41 129,-105 7,-65 -41,-123 -105,-129 -65,-7 -123,41 -129,106z"/>
    <path class="fil2" d="M18354 23510c-6,61 39,117 101,123 62,6 117,-39 123,-101 6,-62 -39,-117 -101,-123 -62,-6 -117,39 -123,101z"/>
    <path class="fil2" d="M18531 23719c-6,59 37,111 96,117 59,6 111,-37 117,-96 6,-59 -37,-111 -96,-117 -59,-6 -111,37 -117,96z"/>
    <path class="fil2" d="M18708 23928c-6,56 35,105 91,111 55,5 105,-35 111,-91 5,-56 -36,-106 -91,-111 -56,-6 -106,35 -111,91z"/>
    <path class="fil2" d="M18884 24137c-5,53 34,100 86,105 53,5 100,-33 105,-86 6,-53 -33,-100 -86,-105 -52,-5 -99,33 -105,86z"/>
    <path class="fil2" d="M19238 24555c-5,47 29,89 76,93 47,5 88,-29 93,-76 4,-47 -30,-88 -76,-93 -47,-4 -89,30 -93,76z"/>
    <path class="fil2" d="M19414 24764c-4,44 28,83 72,87 43,5 82,-27 87,-71 4,-44 -28,-82 -72,-87 -43,-4 -82,28 -87,71z"/>
    <path class="fil2" d="M19591 24974c-4,40 26,76 66,80 41,4 77,-25 81,-66 4,-41 -25,-77 -66,-81 -41,-4 -77,26 -81,67z"/>
    <path class="fil2" d="M19768 25183c-4,37 24,71 61,75 38,3 71,-24 75,-62 4,-37 -24,-71 -61,-75 -38,-3 -72,24 -75,62z"/>
    <path class="fil2" d="M19944 25392c-3,34 22,65 57,69 34,3 65,-22 69,-57 3,-34 -22,-65 -57,-69 -34,-3 -65,22 -69,57z"/>
    <path class="fil2" d="M19052 24352c-5,50 32,94 81,99 50,5 94,-31 99,-81 5,-50 -31,-94 -81,-99 -50,-5 -94,32 -99,81z"/>
   </g>
   <path class="fil2" d="M18954 19240c23,50 72,86 131,92 89,9 168,-56 177,-145 5,-59 -21,-114 -65,-147l-243 200z"/>
   <path class="fil2" d="M19116 19364c-9,86 54,163 140,171 86,9 163,-54 171,-140 9,-86 -54,-163 -140,-172 -86,-8 -163,55 -171,141z"/>
   <path class="fil2" d="M19292 19573c-8,83 53,157 136,165 83,8 157,-52 165,-135 8,-83 -52,-157 -135,-165 -83,-9 -157,52 -166,135z"/>
   <path class="fil2" d="M19469 19782c-8,80 51,151 131,159 80,8 151,-50 159,-130 8,-80 -51,-151 -131,-159 -80,-8 -151,50 -159,130z"/>
   <path class="fil2" d="M19163 19068c23,50 72,87 131,92 89,9 168,-56 177,-145 5,-59 -21,-113 -65,-146l-243 199z"/>
   <path class="fil2" d="M19325 19192c-9,86 54,163 140,171 86,9 163,-54 171,-140 9,-86 -54,-163 -140,-171 -86,-9 -163,54 -171,140z"/>
   <path class="fil2" d="M19502 19402c-9,83 52,156 135,165 83,8 157,-53 165,-136 8,-83 -52,-157 -135,-165 -83,-8 -157,52 -165,136z"/>
   <path class="fil2" d="M19678 19611c-8,80 51,151 131,159 80,8 151,-51 159,-131 8,-80 -51,-151 -131,-159 -80,-8 -151,51 -159,131z"/>
   <path class="fil2" d="M19855 19820c-8,77 49,145 126,153 76,7 145,-49 153,-126 7,-77 -49,-145 -126,-153 -77,-7 -146,49 -153,126z"/>
   <path class="fil2" d="M20032 20029c-8,74 46,140 120,147 74,7 140,-47 147,-121 8,-74 -46,-139 -120,-147 -74,-7 -140,47 -147,121z"/>
   <path class="fil2" d="M20208 20238c-7,71 45,134 116,141 71,7 134,-45 141,-116 7,-71 -45,-134 -116,-141 -71,-7 -134,45 -141,116z"/>
   <path class="fil2" d="M20385 20447c-7,68 43,129 111,135 68,7 128,-43 135,-111 6,-67 -43,-128 -111,-135 -68,-6 -128,43 -135,111z"/>
   <path class="fil2" d="M20562 20656c-7,65 41,123 105,129 65,7 123,-41 129,-106 7,-64 -41,-122 -105,-129 -65,-6 -123,41 -129,106z"/>
   <path class="fil2" d="M20738 20865c-6,62 39,117 101,123 62,7 117,-39 123,-100 6,-62 -39,-117 -101,-123 -62,-7 -117,39 -123,100z"/>
   <path class="fil2" d="M20915 21075c-6,58 37,111 96,117 59,5 111,-38 117,-96 6,-59 -37,-112 -96,-117 -59,-6 -111,37 -117,96z"/>
   <path class="fil2" d="M21092 21284c-6,56 35,105 91,111 55,5 105,-36 111,-91 5,-56 -36,-106 -91,-111 -56,-6 -106,35 -111,91z"/>
   <path class="fil2" d="M21268 21493c-5,53 34,100 86,105 53,5 100,-34 105,-86 6,-53 -33,-100 -86,-105 -52,-5 -99,33 -105,86z"/>
   <path class="fil2" d="M21445 21702c-5,50 31,94 81,99 50,5 94,-32 99,-81 5,-50 -31,-94 -81,-99 -50,-5 -94,31 -99,81z"/>
   <path class="fil2" d="M21622 21911c-5,47 29,88 76,93 47,5 88,-30 93,-76 4,-47 -30,-88 -76,-93 -47,-5 -89,29 -93,76z"/>
   <path class="fil2" d="M21798 22120c-4,44 28,83 72,87 43,4 82,-27 87,-71 4,-44 -28,-83 -72,-87 -43,-4 -82,28 -87,71z"/>
   <path class="fil2" d="M21975 22329c-4,41 26,77 66,81 41,4 77,-25 81,-66 4,-41 -25,-77 -66,-81 -41,-4 -77,26 -81,66z"/>
   <path class="fil2" d="M22152 22539c-4,37 24,71 61,74 38,4 71,-23 75,-61 4,-38 -24,-71 -61,-75 -38,-3 -72,24 -75,62z"/>
   <path class="fil2" d="M22328 22748c-3,34 22,65 57,68 34,4 65,-21 69,-56 3,-35 -22,-65 -57,-69 -34,-3 -65,22 -69,57z"/>
   <path class="fil2" d="M22505 22957c-3,31 20,59 52,63 31,3 59,-20 62,-52 4,-31 -20,-60 -51,-63 -32,-3 -60,20 -63,52z"/>
   <path class="fil2" d="M22682 23166c-3,29 18,54 46,57 29,3 54,-18 57,-47 3,-28 -18,-54 -46,-57 -29,-2 -54,18 -57,47z"/>
   <path class="fil2" d="M19372 18897c23,49 72,86 131,92 89,9 168,-56 177,-146 6,-58 -21,-113 -65,-146l-243 200z"/>
   <path class="fil2" d="M19534 19021c-9,86 54,162 140,171 86,8 163,-54 171,-141 9,-86 -54,-162 -140,-171 -86,-8 -163,55 -171,141z"/>
   <path class="fil2" d="M19711 19230c-9,83 52,157 135,165 83,8 157,-52 165,-135 8,-83 -52,-157 -135,-166 -83,-8 -157,53 -165,136z"/>
   <path class="fil2" d="M19887 19439c-8,80 51,151 131,159 80,8 151,-50 159,-130 8,-80 -51,-152 -131,-159 -80,-8 -151,50 -159,130z"/>
   <path class="fil2" d="M20064 19648c-8,77 49,146 126,153 77,8 145,-48 153,-125 7,-77 -49,-146 -126,-153 -77,-8 -146,48 -153,125z"/>
   <path class="fil2" d="M20241 19857c-8,74 46,140 120,147 74,8 140,-46 147,-120 8,-74 -46,-140 -120,-147 -74,-8 -140,46 -147,120z"/>
   <path class="fil2" d="M20417 20067c-7,70 45,134 116,141 71,7 134,-45 141,-116 7,-71 -45,-134 -116,-141 -71,-7 -134,45 -141,116z"/>
   <path class="fil2" d="M20594 20276c-7,68 43,128 111,135 68,6 128,-43 135,-111 6,-68 -43,-128 -111,-135 -68,-7 -128,43 -135,111z"/>
   <path class="fil2" d="M20771 20485c-7,65 41,122 106,129 64,6 122,-41 128,-106 7,-65 -41,-123 -105,-129 -65,-6 -123,41 -129,106z"/>
   <path class="fil2" d="M20947 20694c-6,62 39,117 101,123 62,6 117,-39 123,-101 6,-62 -39,-117 -101,-123 -62,-6 -117,39 -123,101z"/>
   <path class="fil2" d="M21124 20903c-6,59 37,111 96,117 59,6 111,-37 117,-96 6,-59 -37,-111 -96,-117 -59,-6 -111,37 -117,96z"/>
   <path class="fil2" d="M21301 21112c-6,56 35,106 91,111 56,6 105,-35 111,-91 5,-56 -36,-105 -91,-111 -56,-5 -106,35 -111,91z"/>
   <path class="fil2" d="M21477 21321c-5,53 34,100 86,105 53,5 100,-33 105,-86 6,-53 -33,-100 -86,-105 -52,-5 -99,34 -105,86z"/>
   <path class="fil2" d="M21654 21530c-5,50 32,94 81,99 50,5 94,-31 99,-81 5,-50 -31,-94 -81,-99 -50,-5 -94,32 -99,81z"/>
   <path class="fil2" d="M21831 21740c-5,46 29,88 76,92 47,5 88,-29 93,-76 4,-46 -30,-88 -76,-93 -47,-4 -89,30 -93,77z"/>
   <path class="fil2" d="M22007 21949c-4,43 28,82 72,87 43,4 82,-28 87,-72 4,-43 -28,-82 -72,-87 -43,-4 -82,28 -87,72z"/>
   <path class="fil2" d="M22184 22158c-4,41 26,77 66,81 41,4 77,-26 81,-67 4,-40 -25,-76 -66,-80 -41,-4 -77,25 -81,66z"/>
   <path class="fil2" d="M22361 22367c-4,38 24,71 61,75 38,4 71,-24 75,-62 4,-37 -24,-71 -61,-74 -38,-4 -71,23 -75,61z"/>
   <path class="fil2" d="M22538 22576c-4,35 21,66 56,69 35,3 65,-22 69,-57 3,-34 -22,-65 -57,-68 -34,-4 -65,22 -68,56z"/>
   <path class="fil2" d="M22714 22785c-3,32 20,60 52,63 31,3 59,-20 62,-51 4,-32 -20,-60 -51,-63 -32,-3 -60,20 -63,51z"/>
   <path class="fil2" d="M22891 22994c-3,29 18,54 46,57 29,3 54,-18 57,-46 3,-29 -18,-54 -46,-57 -29,-3 -54,18 -57,46z"/>
   <path class="fil2" d="M19581 18725c23,50 72,86 131,92 89,9 168,-56 177,-145 6,-59 -21,-114 -65,-146l-243 199z"/>
   <path class="fil2" d="M19743 18849c-9,86 54,163 140,171 86,9 163,-54 171,-140 9,-86 -54,-163 -140,-171 -86,-9 -163,54 -171,140z"/>
   <path class="fil2" d="M19920 19058c-9,83 52,157 135,166 83,8 157,-53 165,-136 8,-83 -52,-157 -135,-165 -83,-8 -157,52 -165,135z"/>
   <path class="fil2" d="M20096 19268c-8,80 51,151 131,159 80,8 151,-51 159,-131 8,-80 -51,-151 -131,-159 -80,-8 -151,51 -159,131z"/>
   <path class="fil2" d="M20273 19477c-8,77 49,145 126,153 77,7 145,-49 153,-126 7,-77 -49,-145 -126,-153 -77,-8 -145,49 -153,126z"/>
   <path class="fil2" d="M20450 19686c-8,74 46,140 120,147 74,7 140,-47 147,-121 8,-74 -46,-140 -120,-147 -74,-7 -140,47 -147,121z"/>
   <path class="fil2" d="M20626 19895c-7,71 45,134 116,141 71,7 134,-45 141,-116 7,-71 -45,-134 -116,-141 -71,-7 -134,45 -141,116z"/>
   <path class="fil2" d="M20803 20104c-7,68 43,128 111,135 68,7 128,-43 135,-111 6,-68 -43,-128 -111,-135 -68,-6 -128,43 -135,111z"/>
   <path class="fil2" d="M20980 20313c-7,65 41,123 106,129 64,7 122,-41 129,-106 6,-65 -41,-122 -106,-129 -65,-6 -123,41 -129,106z"/>
   <path class="fil2" d="M21156 20522c-6,62 39,117 101,123 62,6 117,-39 123,-101 6,-61 -39,-116 -101,-123 -61,-6 -117,40 -123,101z"/>
   <path class="fil2" d="M21333 20732c-6,58 37,111 96,116 59,6 111,-37 117,-96 6,-58 -37,-111 -96,-116 -59,-6 -111,37 -117,96z"/>
   <path class="fil2" d="M21510 20941c-6,55 35,105 91,111 56,5 105,-36 111,-91 5,-56 -36,-106 -91,-111 -56,-6 -106,35 -111,91z"/>
   <path class="fil2" d="M21686 21150c-5,53 34,99 87,105 52,5 99,-34 104,-86 6,-53 -33,-100 -86,-105 -52,-5 -99,33 -105,86z"/>
   <path class="fil2" d="M21863 21359c-5,50 32,94 81,99 50,5 94,-32 99,-81 5,-50 -31,-94 -81,-99 -50,-5 -94,31 -99,81z"/>
   <path class="fil2" d="M22040 21568c-5,47 29,88 76,93 47,5 88,-30 93,-76 4,-47 -30,-89 -76,-93 -47,-5 -89,29 -93,76z"/>
   <path class="fil2" d="M22216 21777c-4,44 28,83 72,87 43,4 82,-28 87,-71 4,-44 -28,-83 -72,-87 -43,-4 -82,28 -87,71z"/>
   <path class="fil2" d="M22393 21986c-4,41 26,77 66,81 41,4 77,-26 81,-66 4,-41 -25,-77 -66,-81 -41,-4 -77,26 -81,66z"/>
   <path class="fil2" d="M22570 22195c-4,38 24,72 61,75 38,4 71,-24 75,-61 4,-38 -24,-71 -61,-75 -38,-4 -71,24 -75,61z"/>
   <path class="fil2" d="M22747 22405c-4,34 21,65 56,68 35,4 65,-21 69,-56 3,-35 -22,-65 -57,-69 -34,-3 -65,22 -68,57z"/>
   <path class="fil2" d="M22923 22614c-3,31 20,59 52,62 31,4 59,-19 62,-51 4,-32 -19,-60 -51,-63 -32,-3 -60,20 -63,52z"/>
   <path class="fil2" d="M23100 22823c-3,28 18,54 46,57 29,2 54,-18 57,-47 3,-28 -18,-54 -46,-57 -29,-2 -54,18 -57,47z"/>
   <path class="fil2" d="M19790 18553c23,50 72,87 131,93 89,8 168,-57 177,-146 6,-59 -21,-113 -65,-146l-243 199z"/>
   <path class="fil2" d="M19952 18678c-9,86 54,162 140,171 86,8 163,-55 171,-141 9,-86 -54,-162 -140,-171 -86,-8 -163,55 -171,141z"/>
   <path class="fil2" d="M20129 18887c-9,83 52,157 135,165 83,8 157,-53 165,-136 8,-83 -52,-156 -135,-165 -83,-8 -157,53 -165,136z"/>
   <path class="fil2" d="M20305 19096c-8,80 51,151 131,159 80,8 151,-51 159,-130 8,-80 -51,-152 -131,-160 -80,-7 -151,51 -159,131z"/>
   <path class="fil2" d="M20482 19305c-8,77 49,146 126,153 77,8 145,-48 153,-125 7,-77 -49,-146 -126,-154 -77,-7 -145,49 -153,126z"/>
   <path class="fil2" d="M20659 19514c-8,74 46,140 120,147 74,8 140,-46 147,-120 8,-74 -46,-140 -120,-147 -74,-8 -140,46 -147,120z"/>
   <path class="fil2" d="M20835 19723c-7,71 45,134 116,141 71,7 134,-44 141,-115 7,-71 -45,-134 -116,-141 -71,-7 -134,44 -141,115z"/>
   <path class="fil2" d="M21012 19933c-7,67 43,128 111,135 68,6 128,-43 135,-111 7,-68 -43,-129 -111,-135 -68,-7 -128,43 -135,111z"/>
   <path class="fil2" d="M21189 20142c-7,65 41,122 106,129 64,6 122,-41 129,-106 6,-65 -41,-123 -106,-129 -65,-7 -123,41 -129,106z"/>
   <path class="fil2" d="M21365 20351c-6,62 39,117 101,123 62,6 117,-39 123,-101 6,-62 -39,-117 -101,-123 -61,-6 -117,39 -123,101z"/>
   <path class="fil2" d="M21542 20560c-6,59 37,111 96,117 59,6 111,-37 117,-96 6,-59 -37,-111 -96,-117 -59,-6 -111,37 -117,96z"/>
   <path class="fil2" d="M21719 20769c-6,56 35,106 91,111 56,5 105,-35 111,-91 5,-56 -36,-105 -91,-111 -56,-5 -106,35 -111,91z"/>
   <path class="fil2" d="M21895 20978c-5,53 34,100 87,105 52,5 99,-33 104,-86 6,-53 -33,-100 -86,-105 -52,-5 -99,33 -105,86z"/>
   <path class="fil2" d="M22072 21187c-5,50 32,94 81,99 50,5 94,-31 99,-81 5,-50 -31,-94 -81,-99 -50,-5 -94,32 -99,81z"/>
   <path class="fil2" d="M22249 21397c-5,46 29,88 76,92 47,5 88,-29 93,-76 4,-47 -30,-88 -76,-93 -47,-4 -89,30 -93,77z"/>
   <path class="fil2" d="M22426 21606c-5,43 27,82 71,86 43,5 82,-27 87,-71 4,-43 -28,-82 -72,-87 -43,-4 -82,28 -86,72z"/>
   <path class="fil2" d="M22602 21815c-4,40 26,77 67,81 40,4 76,-26 80,-67 4,-40 -25,-77 -66,-81 -41,-4 -77,26 -81,67z"/>
   <path class="fil2" d="M22779 22024c-4,38 24,71 61,75 38,3 71,-24 75,-62 4,-37 -24,-71 -61,-74 -38,-4 -71,23 -75,61z"/>
   <path class="fil2" d="M22956 22233c-4,35 21,65 56,69 35,3 65,-22 69,-57 3,-34 -22,-65 -57,-68 -34,-4 -65,21 -68,56z"/>
   <path class="fil2" d="M23132 22442c-3,32 20,60 52,63 31,3 59,-20 62,-52 4,-31 -19,-59 -51,-62 -32,-3 -60,20 -63,51z"/>
   <path class="fil2" d="M19999 18382c23,50 72,86 131,92 89,9 168,-56 177,-145 6,-59 -21,-114 -65,-146l-243 199z"/>
   <path class="fil2" d="M20161 18506c-9,86 54,163 140,171 86,9 163,-54 172,-140 8,-86 -55,-163 -141,-171 -86,-9 -163,54 -171,140z"/>
   <path class="fil2" d="M20338 18715c-9,83 52,157 135,165 83,9 157,-52 165,-135 8,-83 -52,-157 -135,-165 -83,-8 -157,52 -165,135z"/>
   <path class="fil2" d="M20514 18924c-8,80 51,152 131,160 80,7 151,-51 159,-131 8,-80 -51,-151 -131,-159 -80,-8 -151,50 -159,130z"/>
   <path class="fil2" d="M20691 19134c-8,77 49,145 126,153 77,7 145,-49 153,-126 7,-77 -49,-145 -126,-153 -77,-8 -145,49 -153,126z"/>
   <path class="fil2" d="M20868 19343c-8,74 46,139 120,147 74,7 140,-47 147,-121 8,-74 -46,-140 -120,-147 -74,-7 -140,47 -147,121z"/>
   <path class="fil2" d="M21044 19552c-7,71 45,134 116,141 71,7 134,-45 141,-116 7,-71 -45,-134 -116,-141 -71,-7 -134,45 -141,116z"/>
   <path class="fil2" d="M21221 19761c-7,68 43,128 111,135 68,7 128,-43 135,-111 7,-68 -43,-128 -111,-135 -68,-7 -128,43 -135,111z"/>
   <path class="fil2" d="M21398 19970c-7,65 41,123 106,129 64,6 122,-41 129,-106 6,-65 -41,-122 -106,-129 -65,-6 -123,41 -129,106z"/>
   <path class="fil2" d="M21574 20179c-6,62 40,117 101,123 62,6 117,-39 123,-101 6,-62 -39,-117 -101,-123 -61,-6 -116,39 -123,101z"/>
   <path class="fil2" d="M21751 20388c-6,59 37,112 96,117 59,6 111,-37 117,-96 6,-58 -37,-111 -96,-117 -59,-5 -111,38 -117,96z"/>
   <path class="fil2" d="M21928 20598c-6,55 35,105 91,110 56,6 105,-35 111,-91 5,-55 -36,-105 -91,-110 -56,-6 -106,35 -111,91z"/>
   <path class="fil2" d="M22104 20807c-5,52 34,99 87,105 52,5 99,-34 104,-87 6,-52 -33,-99 -86,-104 -52,-6 -99,33 -105,86z"/>
   <path class="fil2" d="M22281 21016c-5,50 32,94 81,99 50,5 94,-32 99,-81 5,-50 -31,-94 -81,-99 -50,-5 -94,31 -99,81z"/>
   <path class="fil2" d="M22458 21225c-5,47 29,88 76,93 47,4 88,-30 93,-76 5,-47 -30,-89 -76,-93 -47,-5 -89,29 -93,76z"/>
   <path class="fil2" d="M22635 21434c-5,44 27,83 71,87 43,4 82,-28 87,-71 4,-44 -28,-83 -72,-87 -43,-4 -82,27 -86,71z"/>
   <path class="fil2" d="M22811 21643c-4,41 26,77 67,81 40,4 76,-26 80,-66 4,-41 -25,-77 -66,-81 -41,-4 -77,26 -81,66z"/>
   <path class="fil2" d="M22988 21852c-4,38 24,71 61,75 38,4 71,-24 75,-61 4,-38 -24,-71 -61,-75 -38,-4 -71,24 -75,61z"/>
   <path class="fil2" d="M23165 22062c-4,34 21,65 56,68 35,4 65,-22 69,-56 3,-35 -22,-66 -57,-69 -34,-3 -65,22 -68,57z"/>
   <g style="clip-path:url(#id1)">
    <image transform="matrix(0.313176 -0.257034 0.257034 0.313176 22195.6 20909.3)" x="0" y="0" width="299" height="102" xlink:href="4.svg_Images\4.svg_ImgID2.png"/>
   </g>
   <path class="fil2" d="M19646 19991c-8,77 49,146 125,153 77,8 146,-48 154,-125 7,-77 -49,-146 -126,-153 -77,-8 -146,48 -153,125z"/>
   <path class="fil2" d="M19823 20200c-8,74 46,140 120,148 74,7 140,-47 147,-121 8,-74 -46,-140 -120,-147 -74,-7 -140,47 -147,120z"/>
   <path class="fil2" d="M19999 20410c-7,71 45,134 116,141 71,7 134,-45 141,-116 7,-71 -45,-134 -116,-141 -71,-7 -134,45 -141,116z"/>
   <path class="fil2" d="M20176 20619c-7,68 43,128 111,135 68,6 128,-43 135,-111 6,-68 -43,-128 -111,-135 -68,-7 -128,43 -135,111z"/>
   <path class="fil2" d="M20353 20828c-7,65 41,122 105,129 65,6 123,-41 129,-106 7,-65 -41,-123 -105,-129 -65,-6 -123,41 -129,106z"/>
   <path class="fil2" d="M20529 21037c-6,62 39,117 101,123 62,6 117,-39 123,-101 6,-62 -39,-117 -101,-123 -62,-6 -117,39 -123,101z"/>
   <path class="fil2" d="M20706 21246c-6,59 37,111 96,117 59,6 111,-37 117,-96 6,-59 -37,-111 -96,-117 -59,-6 -111,37 -117,96z"/>
   <path class="fil2" d="M20883 21455c-6,56 35,106 91,111 55,6 105,-35 111,-91 5,-56 -36,-105 -91,-111 -56,-5 -106,36 -111,91z"/>
   <path class="fil2" d="M21059 21664c-5,53 34,100 86,105 53,6 100,-33 105,-86 6,-52 -33,-99 -86,-105 -53,-5 -99,34 -105,86z"/>
   <path class="fil2" d="M21413 22083c-5,46 29,88 76,93 47,4 88,-30 93,-77 4,-46 -30,-88 -76,-92 -47,-5 -89,29 -93,76z"/>
   <path class="fil2" d="M21589 22292c-4,44 28,82 72,87 43,4 82,-28 86,-72 5,-43 -27,-82 -71,-86 -43,-5 -82,27 -87,71z"/>
   <path class="fil2" d="M21766 22501c-4,41 26,77 66,81 41,4 77,-26 81,-67 4,-40 -25,-76 -66,-80 -41,-4 -77,25 -81,66z"/>
   <path class="fil2" d="M21943 22710c-4,38 24,71 61,75 38,4 71,-24 75,-61 4,-38 -24,-72 -61,-75 -38,-4 -72,24 -75,61z"/>
   <path class="fil2" d="M22119 22919c-3,35 22,66 57,69 34,3 65,-22 69,-56 3,-35 -22,-66 -57,-69 -34,-4 -65,22 -69,56z"/>
   <path class="fil2" d="M22296 23128c-3,32 20,60 52,63 31,3 59,-20 62,-51 3,-32 -20,-60 -51,-63 -32,-3 -60,20 -63,51z"/>
   <path class="fil2" d="M22473 23338c-3,28 18,53 46,56 29,3 54,-18 57,-46 3,-29 -18,-54 -46,-57 -29,-3 -54,18 -57,47z"/>
   <path class="fil2" d="M21227 21880c-5,49 32,94 81,98 50,5 94,-31 99,-81 5,-49 -31,-94 -81,-99 -50,-4 -94,32 -99,82z"/>
   <g>
    <circle class="fil0" cx="18711" cy="19318" r="16"/>
    <circle class="fil0" cx="18920" cy="19146" r="16"/>
    <circle class="fil0" cx="19131" cy="18972" r="16"/>
    <circle class="fil0" cx="19339" cy="18802" r="16"/>
    <circle class="fil0" cx="19551" cy="18628" r="16"/>
    <circle class="fil0" cx="19757" cy="18461" r="16"/>
    <circle class="fil0" cx="19968" cy="18287" r="16"/>
    <circle class="fil0" cx="20174" cy="18118" r="16"/>
    <circle class="fil0" cx="20385" cy="17946" r="16"/>
    <circle class="fil0" cx="20594" cy="17773" r="16"/>
    <circle class="fil0" cx="20800" cy="17602" r="16"/>
    <circle class="fil0" cx="18494" cy="19037" r="16"/>
    <circle class="fil0" cx="18704" cy="18865" r="16"/>
    <circle class="fil0" cx="18915" cy="18690" r="16"/>
    <circle class="fil0" cx="19123" cy="18521" r="16"/>
    <circle class="fil0" cx="19334" cy="18346" r="16"/>
    <circle class="fil0" cx="19540" cy="18179" r="16"/>
    <circle class="fil0" cx="19752" cy="18006" r="16"/>
    <circle class="fil0" cx="19958" cy="17836" r="16"/>
    <circle class="fil0" cx="20169" cy="17665" r="16"/>
    <circle class="fil0" cx="20378" cy="17492" r="16"/>
    <circle class="fil0" cx="20584" cy="17321" r="16"/>
   </g>
   <path class="fil2" d="M20691 19134c-8,77 49,145 126,153 77,7 145,-49 153,-126 7,-77 -49,-145 -126,-153 -77,-8 -145,49 -153,126z"/>
   <path class="fil2" d="M20868 19343c-8,74 46,139 120,147 74,7 140,-47 147,-121 8,-74 -46,-140 -120,-147 -74,-7 -140,47 -147,121z"/>
   <path class="fil2" d="M21044 19552c-7,71 45,134 116,141 71,7 134,-45 141,-116 7,-71 -45,-134 -116,-141 -71,-7 -134,45 -141,116z"/>
   <path class="fil2" d="M21221 19761c-7,68 43,128 111,135 68,7 128,-43 135,-111 7,-68 -43,-128 -111,-135 -68,-7 -128,43 -135,111z"/>
   <path class="fil2" d="M21398 19970c-7,65 41,123 106,129 64,6 122,-41 129,-106 6,-65 -41,-122 -106,-129 -65,-6 -123,41 -129,106z"/>
   <path class="fil2" d="M21574 20179c-6,62 40,117 101,123 62,6 117,-39 123,-101 6,-62 -39,-117 -101,-123 -61,-6 -116,39 -123,101z"/>
   <path class="fil2" d="M21751 20388c-6,59 37,112 96,117 59,6 111,-37 117,-96 6,-58 -37,-111 -96,-117 -59,-5 -111,38 -117,96z"/>
   <path class="fil2" d="M21928 20598c-6,55 35,105 91,110 56,6 105,-35 111,-91 5,-55 -36,-105 -91,-110 -56,-6 -106,35 -111,91z"/>
   <path class="fil2" d="M22104 20807c-5,52 34,99 87,105 52,5 99,-34 104,-87 6,-52 -33,-99 -86,-104 -52,-6 -99,33 -105,86z"/>
   <path class="fil2" d="M22458 21225c-5,47 29,88 76,93 47,4 88,-30 93,-76 5,-47 -30,-89 -76,-93 -47,-5 -89,29 -93,76z"/>
   <path class="fil2" d="M22635 21434c-5,44 27,83 71,87 43,4 82,-28 87,-71 4,-44 -28,-83 -72,-87 -43,-4 -82,27 -86,71z"/>
   <path class="fil2" d="M22811 21643c-4,41 26,77 67,81 40,4 76,-26 80,-66 4,-41 -25,-77 -66,-81 -41,-4 -77,26 -81,66z"/>
   <path class="fil2" d="M22988 21852c-4,38 24,71 61,75 38,4 71,-24 75,-61 4,-38 -24,-71 -61,-75 -38,-4 -71,24 -75,61z"/>
   <path class="fil2" d="M23165 22062c-4,34 21,65 56,68 35,4 65,-22 69,-56 3,-35 -22,-66 -57,-69 -34,-3 -65,22 -68,57z"/>
   <path class="fil2" d="M23341 22271c-3,31 20,59 52,62 31,3 59,-20 63,-51 3,-32 -20,-60 -52,-63 -32,-3 -60,20 -63,52z"/>
   <path class="fil2" d="M23518 22480c-3,28 18,54 47,57 28,2 53,-19 56,-47 3,-29 -18,-54 -46,-57 -29,-3 -54,18 -57,47z"/>
   <path class="fil2" d="M22272 21022c-5,50 32,94 81,99 50,5 94,-32 99,-81 5,-50 -31,-94 -81,-99 -50,-5 -94,31 -99,81z"/>
   <path class="fil2" d="M20653 19514c-7,77 49,145 126,153 77,7 145,-49 153,-126 7,-77 -49,-145 -126,-153 -77,-7 -145,49 -153,126z"/>
   <path class="fil2" d="M20830 19723c-7,74 47,140 121,147 73,7 139,-47 147,-121 7,-74 -47,-140 -121,-147 -74,-7 -140,47 -147,121z"/>
   <path class="fil2" d="M21007 19932c-7,71 44,134 115,141 71,7 134,-45 141,-116 7,-71 -45,-134 -115,-141 -71,-7 -134,45 -141,116z"/>
   <path class="fil2" d="M21183 20141c-6,68 43,128 111,135 68,7 128,-43 135,-111 7,-68 -43,-128 -111,-135 -68,-6 -128,43 -135,111z"/>
   <path class="fil2" d="M21360 20350c-6,65 41,123 106,129 65,7 122,-41 129,-106 6,-64 -41,-122 -106,-129 -65,-6 -123,41 -129,106z"/>
   <path class="fil2" d="M21537 20559c-6,62 39,117 101,123 61,6 116,-39 122,-101 7,-61 -39,-116 -100,-123 -62,-6 -117,40 -123,101z"/>
   <path class="fil2" d="M21713 20769c-5,58 37,111 96,116 59,6 111,-37 117,-95 6,-59 -37,-112 -96,-117 -59,-6 -111,37 -117,96z"/>
   <path class="fil2" d="M21890 20978c-6,55 35,105 91,111 56,5 105,-36 111,-91 5,-56 -35,-106 -91,-111 -56,-6 -106,35 -111,91z"/>
   <path class="fil2" d="M22067 21187c-6,53 33,100 86,105 52,5 99,-34 105,-86 5,-53 -34,-100 -86,-105 -53,-5 -100,33 -105,86z"/>
   <path class="fil2" d="M22420 21605c-5,47 30,88 76,93 47,5 88,-30 93,-76 5,-47 -29,-89 -76,-93 -47,-5 -88,29 -93,76z"/>
   <path class="fil2" d="M22597 21814c-5,44 27,83 71,87 44,4 83,-28 87,-71 4,-44 -28,-83 -71,-87 -44,-4 -83,28 -87,71z"/>
   <path class="fil2" d="M22773 22023c-4,41 26,77 67,81 40,4 77,-26 81,-66 4,-41 -26,-77 -67,-81 -40,-4 -77,26 -81,66z"/>
   <path class="fil2" d="M22950 22233c-4,37 24,71 61,74 38,4 72,-23 75,-61 4,-38 -24,-71 -61,-75 -38,-4 -71,24 -75,62z"/>
   <path class="fil2" d="M23127 22442c-4,34 22,65 56,68 35,4 66,-21 69,-56 3,-35 -22,-65 -56,-69 -35,-3 -66,22 -69,57z"/>
   <path class="fil2" d="M23303 22651c-3,31 20,59 52,63 31,3 60,-20 63,-52 3,-32 -20,-60 -52,-63 -31,-3 -59,20 -63,52z"/>
   <path class="fil2" d="M22235 21402c-5,50 31,94 81,99 49,5 94,-32 99,-81 4,-50 -32,-94 -82,-99 -49,-5 -94,31 -98,81z"/>
   <path class="fil2" d="M20444 19685c-7,77 49,146 126,153 77,8 145,-48 153,-125 7,-77 -49,-146 -126,-153 -77,-8 -145,48 -153,125z"/>
   <path class="fil2" d="M20621 19894c-7,74 47,140 121,147 73,8 139,-46 147,-120 7,-74 -47,-140 -121,-147 -74,-8 -140,46 -147,120z"/>
   <path class="fil2" d="M20798 20104c-7,70 44,134 115,141 71,7 134,-45 141,-116 7,-71 -45,-134 -115,-141 -71,-7 -135,45 -141,116z"/>
   <path class="fil2" d="M20974 20313c-6,68 43,128 111,135 68,6 128,-43 135,-111 7,-68 -43,-128 -111,-135 -68,-7 -128,43 -135,111z"/>
   <path class="fil2" d="M21151 20522c-7,65 41,122 106,129 65,6 122,-41 129,-106 6,-65 -41,-123 -106,-129 -65,-6 -123,41 -129,106z"/>
   <path class="fil2" d="M21328 20731c-7,62 39,117 100,123 62,6 117,-39 123,-101 7,-62 -39,-117 -100,-123 -62,-6 -117,39 -123,101z"/>
   <path class="fil2" d="M21504 20940c-6,59 37,111 96,117 59,6 111,-37 117,-96 6,-59 -37,-111 -96,-117 -59,-6 -111,37 -117,96z"/>
   <path class="fil2" d="M21681 21149c-6,56 35,106 91,111 56,6 105,-35 111,-91 5,-56 -35,-105 -91,-111 -56,-5 -106,35 -111,91z"/>
   <path class="fil2" d="M21858 21358c-6,53 33,100 86,105 52,5 99,-33 105,-86 5,-53 -34,-100 -86,-105 -53,-5 -100,34 -105,86z"/>
   <path class="fil2" d="M22211 21777c-5,46 30,88 76,93 47,4 88,-30 93,-77 5,-46 -29,-88 -76,-93 -47,-4 -88,30 -93,77z"/>
   <path class="fil2" d="M22388 21986c-5,43 27,82 71,87 44,4 82,-28 87,-72 4,-43 -28,-82 -71,-86 -44,-5 -83,27 -87,71z"/>
   <path class="fil2" d="M22564 22195c-4,41 26,77 67,81 40,4 76,-26 80,-67 4,-40 -25,-76 -66,-80 -40,-4 -77,25 -81,66z"/>
   <path class="fil2" d="M22741 22404c-4,38 24,71 61,75 38,4 72,-24 75,-62 4,-37 -24,-71 -61,-74 -38,-4 -71,23 -75,61z"/>
   <path class="fil2" d="M22918 22613c-4,35 22,66 56,69 35,3 66,-22 69,-56 3,-35 -22,-66 -56,-69 -35,-4 -66,22 -69,56z"/>
   <path class="fil2" d="M23094 22822c-3,32 20,60 52,63 31,3 60,-20 63,-51 3,-32 -20,-60 -52,-63 -31,-3 -59,20 -63,51z"/>
   <path class="fil2" d="M22025 21574c-4,49 32,94 82,98 49,5 94,-31 98,-81 5,-49 -31,-94 -81,-99 -49,-4 -94,32 -99,82z"/>
   <path class="fil2" d="M20224 19854c-7,77 49,145 126,153 77,7 145,-49 153,-126 7,-77 -49,-145 -126,-153 -77,-7 -145,49 -153,126z"/>
   <path class="fil2" d="M20401 20063c-7,74 47,140 121,147 73,7 139,-47 147,-121 7,-74 -47,-139 -121,-147 -74,-7 -140,47 -147,121z"/>
   <path class="fil2" d="M20578 20272c-7,71 44,134 115,141 71,7 134,-45 141,-116 7,-71 -45,-134 -115,-141 -71,-7 -134,45 -141,116z"/>
   <path class="fil2" d="M20754 20481c-6,68 43,129 111,135 68,7 128,-43 135,-111 7,-67 -43,-128 -111,-135 -68,-6 -128,43 -135,111z"/>
   <path class="fil2" d="M20931 20690c-6,65 41,123 106,129 65,7 122,-41 129,-106 6,-64 -41,-122 -106,-128 -65,-7 -123,41 -129,105z"/>
   <path class="fil2" d="M21108 20899c-7,62 39,117 100,123 62,7 117,-39 123,-100 7,-62 -39,-117 -100,-123 -62,-7 -117,39 -123,100z"/>
   <path class="fil2" d="M21284 21109c-6,58 37,111 96,117 59,5 111,-38 117,-96 6,-59 -37,-112 -96,-117 -59,-6 -111,37 -117,96z"/>
   <path class="fil2" d="M21461 21318c-6,56 35,105 91,111 56,5 105,-36 111,-91 5,-56 -35,-106 -91,-111 -56,-6 -106,35 -111,91z"/>
   <path class="fil2" d="M21638 21527c-6,53 33,100 86,105 52,5 99,-34 105,-86 5,-53 -34,-100 -86,-105 -53,-5 -100,33 -105,86z"/>
   <path class="fil2" d="M21991 21945c-5,47 30,88 76,93 47,5 88,-29 93,-76 5,-47 -29,-88 -76,-93 -47,-5 -88,30 -93,76z"/>
   <path class="fil2" d="M22168 22154c-5,44 27,83 71,87 44,4 82,-27 87,-71 4,-44 -28,-83 -71,-87 -44,-4 -83,28 -87,71z"/>
   <path class="fil2" d="M22344 22363c-4,41 26,77 67,81 40,4 77,-25 81,-66 4,-41 -26,-77 -67,-81 -40,-4 -77,26 -81,66z"/>
   <path class="fil2" d="M22521 22573c-4,37 24,71 61,74 38,4 72,-23 75,-61 4,-38 -24,-71 -61,-75 -38,-3 -71,24 -75,62z"/>
   <path class="fil2" d="M22698 22782c-4,34 22,65 56,69 35,3 66,-22 69,-57 3,-34 -22,-65 -56,-69 -35,-3 -66,22 -69,57z"/>
   <path class="fil2" d="M22874 22991c-3,31 20,60 52,63 31,3 60,-20 63,-52 3,-31 -20,-59 -52,-63 -31,-3 -59,20 -63,52z"/>
   <path class="fil2" d="M21805 21742c-4,50 32,94 82,99 49,5 94,-31 99,-81 4,-50 -32,-94 -82,-99 -49,-5 -94,31 -99,81z"/>
   <path class="fil2" d="M20186 20234c-7,77 49,145 126,153 77,8 145,-49 153,-126 8,-77 -49,-145 -126,-153 -77,-7 -145,49 -153,126z"/>
   <path class="fil2" d="M20363 20443c-7,74 47,140 121,147 74,7 139,-47 147,-121 7,-73 -47,-139 -121,-147 -74,-7 -140,47 -147,121z"/>
   <path class="fil2" d="M20540 20652c-7,71 45,134 115,141 71,7 134,-45 141,-115 7,-71 -44,-135 -115,-142 -71,-6 -134,45 -141,116z"/>
   <path class="fil2" d="M20716 20861c-6,68 43,129 111,135 68,7 128,-43 135,-110 7,-68 -43,-129 -111,-135 -67,-7 -128,43 -135,110z"/>
   <path class="fil2" d="M20893 21071c-6,64 41,122 106,129 65,6 123,-42 129,-106 6,-65 -41,-123 -106,-129 -65,-7 -123,41 -129,106z"/>
   <path class="fil2" d="M21070 21280c-6,61 39,117 101,123 61,6 117,-39 123,-101 6,-62 -39,-117 -101,-123 -62,-6 -117,39 -123,101z"/>
   <path class="fil2" d="M21246 21489c-5,59 38,111 96,117 59,6 112,-37 117,-96 6,-59 -37,-111 -96,-117 -58,-6 -111,37 -117,96z"/>
   <path class="fil2" d="M21423 21698c-5,56 35,105 91,111 56,5 106,-35 111,-91 6,-56 -35,-106 -91,-111 -56,-6 -105,35 -111,91z"/>
   <path class="fil2" d="M21600 21907c-5,53 33,100 86,105 53,5 100,-33 105,-86 5,-53 -34,-100 -86,-105 -53,-5 -100,33 -105,86z"/>
   <path class="fil2" d="M21953 22325c-4,47 30,89 76,93 47,5 89,-29 93,-76 5,-47 -29,-88 -76,-93 -47,-4 -88,30 -93,76z"/>
   <path class="fil2" d="M22130 22534c-4,44 27,83 71,87 44,5 83,-27 87,-71 4,-44 -28,-82 -71,-87 -44,-4 -83,28 -87,71z"/>
   <path class="fil2" d="M22307 22744c-4,40 25,76 66,80 41,4 77,-25 81,-66 4,-41 -26,-77 -67,-81 -40,-4 -76,26 -80,67z"/>
   <path class="fil2" d="M22483 22953c-3,37 24,71 62,75 37,3 71,-24 74,-62 4,-37 -23,-71 -61,-75 -38,-3 -71,24 -75,62z"/>
   <path class="fil2" d="M22660 23162c-3,34 22,65 56,69 35,3 66,-22 69,-57 4,-34 -22,-65 -56,-69 -35,-3 -66,22 -69,57z"/>
   <path class="fil2" d="M21768 22122c-5,50 31,94 81,99 50,5 94,-31 99,-81 5,-50 -32,-94 -81,-99 -50,-5 -94,32 -99,81z"/>
  </g>
 </g>
</svg>
