<?xml version="1.0" encoding="UTF-8"?>
<!DOCTYPE svg PUBLIC "-//W3C//DTD SVG 1.1//EN" "http://www.w3.org/Graphics/SVG/1.1/DTD/svg11.dtd">
<!-- Creator: CorelDRAW X7 -->
<svg xmlns="http://www.w3.org/2000/svg" xml:space="preserve" width="6559px" height="10206px" version="1.1" style="shape-rendering:geometricPrecision; text-rendering:geometricPrecision; image-rendering:optimizeQuality; fill-rule:evenodd; clip-rule:evenodd"
viewBox="0 0 5819 9055"
 xmlns:xlink="http://www.w3.org/1999/xlink">
 <defs>
  <style type="text/css">
   <![CDATA[
    .fil2 {fill:none}
    .fil0 {fill:#FEFEFE}
    .fil1 {fill:#D7AC4D}
   ]]>
  </style>
 </defs>
 <g id="Слой_x0020_1">
  <metadata id="CorelCorpID_0Corel-Layer"/>
  <g id="_729187544">
   <path class="fil0" d="M4602 5922c103,-214 -91,-371 -8,-589 254,-167 1067,-48 1126,-500 22,-166 -54,-197 -92,-298 -30,-79 -24,-132 -19,-157 8,-44 113,-102 97,-234 -7,-54 -66,-56 -72,-91 -3,-17 14,-45 25,-82 11,-41 17,-93 12,-119 -13,-40 -72,-66 -85,-118 -123,-491 129,-128 132,-567l-620 -545c-198,-278 226,-142 -364,-732 -72,-72 -385,-528 -393,-529 -693,-142 -435,272 -950,316 -161,15 -1046,1270 -1332,1515 -502,431 135,1085 190,1307 3,14 -30,445 26,795 0,0 86,507 -150,745l-373 376 34 29c109,27 1155,505 1286,586 636,392 537,468 1423,607 -176,-507 -125,-1234 107,-1715z"/>
   <path class="fil1" d="M4658 5958c107,-222 -53,-364 34,-590 263,-173 1062,-35 1123,-504 23,-173 -55,-205 -95,-309 -95,-247 22,-140 42,-296 4,-26 4,-94 -2,-139 -5,-42 -69,-91 -69,-91 42,-89 45,-188 13,-244 -70,-98 -95,-202 -74,-255 36,-94 181,-75 183,-396l-643 -565c-206,-289 234,-148 -378,-761 -112,-112 -214,-270 -341,-401 98,-127 151,-304 25,-691 -128,-395 -714,-847 -1179,-680 -544,195 -977,566 -1508,625 -1090,122 -1788,871 -1519,1994 394,1645 -756,1816 20,3082 0,0 -178,-1094 117,-803 0,0 84,867 360,1117 130,118 271,150 407,147 71,-2 -196,-32 -191,-494 1,-85 356,582 822,513l-201 203 -1264 466c-576,702 -506,1710 884,1794 1465,142 2058,-1535 3963,375 -6,-19 -474,-1037 -606,-1340 -24,-98 -43,-193 -58,-283 0,-6 -1,-11 -1,-17l-2 -1c-128,-787 44,-1263 138,-1456zm-219 1479c8,70 19,128 33,169 -878,-138 -780,-214 -1409,-602 -130,-80 -1167,-553 -1275,-581l-24 -20 361 -364c236,-238 150,-745 150,-745 -56,-350 -23,-781 -26,-795 -55,-222 -692,-876 -190,-1307 286,-245 615,-43 773,176 57,79 438,561 513,925 15,72 23,111 64,217 60,151 254,129 247,118 -505,-808 74,-980 -56,-1201 -225,-382 -411,-453 -492,-776 -49,-194 122,-959 283,-974 515,-44 257,-458 950,-316 8,1 321,457 393,529 590,590 166,454 364,732l620 545c-3,439 -255,76 -132,567 13,52 72,78 85,118 5,26 -1,78 -12,119 -11,37 -28,65 -25,82 6,35 65,37 72,91 16,132 -89,190 -97,234 -5,25 -11,78 19,157 38,101 114,132 92,298 -59,452 -872,333 -1126,500 -83,218 111,375 8,589 -203,420 -267,1030 -163,1515z"/>
   <g>
    <path class="fil1" d="M1987 3789c123,391 815,768 1077,486 3,-4 6,-13 7,-17 1,7 2,14 -2,20 -211,308 -1016,-45 -1082,-489z"/>
   </g>
   <path class="fil2" d="M1987 3789c34,322 748,790 1057,506 23,-21 25,-13 27,-37"/>
   <g>
    <path class="fil1" d="M3209 4919c901,154 986,275 1966,203 -803,126 -1203,-4 -1966,-203z"/>
   </g>
   <path class="fil2" d="M3209 4919c811,169 1076,317 1966,203"/>
   <g>
    <path class="fil1" d="M5660 4020c-159,60 -298,91 -438,178 -10,6 -10,4 -21,6l8 -8c144,-129 258,-143 451,-176z"/>
   </g>
   <path class="fil2" d="M5660 4020c-166,45 -257,66 -409,142 -17,8 -21,32 -50,42"/>
   <g>
    <path class="fil1" d="M5155 3270c43,227 76,212 306,245 -225,26 -319,-10 -306,-245z"/>
   </g>
   <path class="fil2" d="M5155 3270c0,233 109,245 306,245"/>
   <g>
    <path class="fil1" d="M5419 3480c-181,-55 141,-108 195,-141 -70,143 -303,33 -195,141z"/>
   </g>
   <path class="fil2" d="M5419 3480c-149,-79 139,-57 195,-141"/>
   <path class="fil1" d="M5644 3519c-396,176 -711,342 -652,822 50,407 -745,114 -917,-85 -272,-312 -361,-847 -716,-1073 -104,-66 -324,277 -74,555 157,174 -84,848 333,993 459,159 1750,620 2102,268 113,-113 54,-247 -3,-378 -148,85 -303,92 -397,-51 -366,-557 -38,-623 303,-785 11,-4 23,-10 36,-17 -43,-88 -81,-193 -15,-249z"/>
  </g>
 </g>
</svg>
