<?xml version="1.0" encoding="UTF-8"?>
<!DOCTYPE svg PUBLIC "-//W3C//DTD SVG 1.1//EN" "http://www.w3.org/Graphics/SVG/1.1/DTD/svg11.dtd">
<!-- Creator: CorelDRAW X7 -->
<svg xmlns="http://www.w3.org/2000/svg" xml:space="preserve" width="6523px" height="10078px" version="1.1" style="shape-rendering:geometricPrecision; text-rendering:geometricPrecision; image-rendering:optimizeQuality; fill-rule:evenodd; clip-rule:evenodd"
viewBox="0 0 5450 8421"
 xmlns:xlink="http://www.w3.org/1999/xlink">
 <defs>
  <style type="text/css">
   <![CDATA[
    .fil2 {fill:none}
    .fil0 {fill:#FEFEFE}
    .fil1 {fill:#D7AC4D}
   ]]>
  </style>
 </defs>
 <g id="Слой_x0020_1">
  <metadata id="CorelCorpID_0Corel-Layer"/>
  <g id="_707685904">
   <path class="fil0" d="M4304 5470c97,-201 -86,-349 -7,-555 239,-156 1004,-45 1060,-470 20,-157 -51,-186 -86,-281 -42,-111 -32,-133 -13,-164 11,-18 115,-113 86,-204 -25,-75 -76,-51 -71,-95 3,-22 25,-57 32,-97 9,-47 3,-98 -1,-101 -29,-33 -65,-53 -77,-103 -113,-454 125,-113 128,-525l-584 -512c-187,-262 213,-134 -343,-691 -249,-310 -371,-505 -378,-506 -654,-134 -402,264 -886,307 -152,13 -104,497 21,637 162,182 203,859 203,1266 0,78 -203,190 -235,209 -23,15 -142,-285 -343,-383 -228,-111 -631,-534 -901,-303 -473,405 127,1022 178,1231 12,49 -14,117 -132,273 -19,26 -37,50 -55,73 108,147 195,295 213,402 0,0 80,478 -142,702l-352 354 32 27c103,26 1089,477 1212,553 599,369 506,440 1340,572 -95,-276 -24,-1357 101,-1616z"/>
   <path class="fil1" d="M4387 5573c101,-209 -81,-412 1,-625 249,-163 1001,-33 1059,-474 21,-163 -53,-193 -90,-291 -72,-192 28,-177 45,-320 11,-88 -38,-135 -68,-168 -4,-4 98,-180 14,-250 -97,-81 -82,-221 -60,-259 40,-71 155,-52 157,-342l-607 -532c-194,-272 222,-139 -355,-717 -108,-108 -207,-278 -331,-404 206,-647 -483,-1387 -1159,-1144 -512,184 -574,139 -1074,196 -859,98 -1394,514 -1614,1579 -118,571 218,1613 1003,2184 165,174 638,593 680,856 0,0 84,495 -147,729l-355 357 -1165 430c-543,661 -478,1611 832,1689 1380,135 1938,-1445 3732,354 -6,-21 -597,-1305 -603,-1340 -9,-54 -17,-124 -23,-205l-2 -1c-21,-416 0,-1082 130,-1302zm-193 1480c-807,-128 -721,-201 -1310,-563 -122,-76 -1098,-522 -1200,-548l-32 -26 198 -199 -10 -5 131 -132c222,-224 142,-702 142,-702 -18,-107 -105,-255 -213,-402 18,-23 36,-47 55,-73 118,-156 144,-224 132,-273 -51,-209 -651,-826 -178,-1231 270,-231 673,192 901,303 201,98 320,398 343,383 32,-19 235,-131 235,-209 0,-407 -41,-1084 -203,-1266 -125,-140 -173,-624 -21,-637 484,-43 232,-441 886,-307 7,1 129,196 378,506 556,557 156,429 343,691l584 512c-3,412 -241,71 -128,525 12,50 48,70 77,103 4,3 10,54 1,101 -7,40 -29,75 -32,97 -5,44 46,20 71,95 29,91 -75,186 -86,204 -19,31 -29,53 13,164 35,95 106,124 86,281 -56,425 -821,314 -1060,470 -79,206 104,354 7,555 -121,250 -191,1265 -110,1583z"/>
   <g>
    <path class="fil1" d="M1848 3443c115,369 767,723 1014,457 3,-3 5,-12 7,-15 0,6 1,13 -3,19 -198,290 -956,-43 -1018,-461z"/>
   </g>
   <path class="fil2" d="M1848 3443c32,303 704,744 995,477 22,-20 23,-13 26,-35"/>
   <g>
    <path class="fil1" d="M2999 4508c848,144 928,259 1852,190 -757,120 -1134,-4 -1852,-190z"/>
   </g>
   <path class="fil2" d="M2999 4508c763,159 1013,298 1852,190"/>
   <g>
    <path class="fil1" d="M5299 3679c-150,57 -281,86 -413,167 -9,6 -8,5 -19,6l8 -7c135,-122 243,-135 424,-166z"/>
   </g>
   <path class="fil2" d="M5299 3679c-156,42 -241,62 -385,133 -16,8 -19,30 -47,40"/>
   <g>
    <path class="fil1" d="M4824 2972c40,214 71,200 288,231 -212,24 -301,-9 -288,-231z"/>
   </g>
   <path class="fil2" d="M4824 2972c0,220 102,231 288,231"/>
   <g>
    <path class="fil1" d="M5072 3170c-170,-51 133,-102 184,-133 -66,135 -286,32 -184,133z"/>
   </g>
   <path class="fil2" d="M5072 3170c-140,-74 131,-53 184,-133"/>
   <path class="fil1" d="M5253 3207c-373,166 -670,322 -614,774 47,383 -701,108 -864,-80 -163,-187 -341,-572 -402,-971 -23,-149 -150,38 -272,-39 -98,-63 -305,261 -69,522 147,164 -80,799 313,936 433,149 1648,584 1980,252 106,-107 50,-233 -3,-356 -139,80 -285,87 -374,-48 -344,-525 -36,-587 286,-739 9,-5 21,-10 33,-16 -40,-83 -76,-183 -14,-235z"/>
  </g>
 </g>
</svg>
