<?xml version="1.0" encoding="utf-8"?>
<!-- Generator: Adobe Illustrator 17.1.0, SVG Export Plug-In . SVG Version: 6.00 Build 0)  -->
<!DOCTYPE svg PUBLIC "-//W3C//DTD SVG 1.1//EN" "http://www.w3.org/Graphics/SVG/1.1/DTD/svg11.dtd">
<svg version="1.1" id="Layer_1" xmlns="http://www.w3.org/2000/svg" xmlns:xlink="http://www.w3.org/1999/xlink" x="0px" y="0px"
	 viewBox="0 0 42.8 46.2" enable-background="new 0 0 42.8 46.2" xml:space="preserve">
<path fill-rule="evenodd" clip-rule="evenodd" fill="#000003" d="M21.9,2.3c0.2-0.1,0.4,0,0.7,0.1c0.2,0.1,0.5,0.2,0.6,0.4l0.1,0.1
	l-0.1,0.1c-0.1,0.3-0.3,0.5-0.6,0.6l0,0c-0.2,0.1-0.5,0.2-0.8,0.2c-0.6,0.1-0.8,0-1.5-0.3l-0.1-0.1L20,3.2L20.2,3
	c0,0,0.4-0.3,0.7-0.5c0.2-0.1,0.4-0.2,0.6-0.2L21.9,2.3L21.9,2.3L21.9,2.3z M21.7,2.5l-0.1,0.1C21.5,2.9,21.5,3,21.6,3
	c0,0,0.1,0,0.1,0c0.1,0,0.1,0,0.2-0.1C21.9,2.9,21.9,2.8,21.7,2.5L21.7,2.5L21.7,2.5z M27.6,44.1c0.1,0,0.1-0.1,0.2-0.2v0
	c0.1-0.1,0.3-0.2,0.5-0.3l0.1,0l0.1,0.1c0.1,0.1,0.2,0.2,0.3,0.3v0c0.1,0.1,0.2,0.2,0.4,0.3l0.1,0l0,0c0,0,0.1,0,0.1,0l0.1,0
	c0,0,0.1,0,0.1,0l0.1,0h0l0.2,0c0.1,0,0.2,0,0.4,0l0.3,0l0,0.2l0,0h0c0.1,0.1,0.1,0.2,0.3,0.2l0,0c0.3,0.2,0.3,0.3,0.3,0.5h0
	c0,0.1,0,0.1,0,0.2l0,0c0.1,0.2,0.1,0.3,0.3,0.5c0.1,0.1,0.1,0.1,0.2,0.2c0-0.1,0.1-0.1,0.1-0.2v0c0.1-0.3,0.2-0.6,0.9-0.9
	c0.2-0.1,0.3-0.1,0.4-0.2c0.3-0.2,0.4-0.4,0.5-0.6c0.1-0.3,0-0.5-0.1-0.8h0c-0.1-0.2-0.2-0.5-0.3-0.7c-0.1-0.1-0.1-0.2-0.2-0.3
	c-0.1-0.1-0.1-0.2-0.2-0.3c-0.2-0.2-0.2-0.4-0.2-0.6c0-0.1,0-0.2,0-0.4l0-0.3l0.3,0.1c0.6,0.1,1,0.4,1.3,0.7
	c0.2,0.2,0.4,0.5,0.5,0.9c0.1-0.2,0.2-0.3,0.2-0.5c0.1-0.3,0.1-0.7,0.1-1c-0.1-0.6-0.3-0.9-0.5-1.2c-0.1-0.2-0.3-0.4-0.4-0.6
	l-0.2-0.3l0.4,0c1.3,0,1.9,0.5,2.2,0.8c0-0.3,0-0.6-0.1-0.8v0c-0.1-0.4-0.2-0.7-0.5-1c-0.4-0.6-0.9-0.8-1.3-1v0
	c-0.2-0.1-0.3-0.1-0.4-0.2l-0.4-0.3l0.4-0.1c0.3-0.1,0.7-0.2,1.1-0.2c0.4,0,0.7,0,1.1,0.1c0.4,0.1,0.7,0.3,0.9,0.5
	c-0.1-0.4-0.2-0.7-0.4-1.1c-0.2-0.5-0.5-0.9-0.8-1.2c-1-0.8-2.1-0.4-2.8-0.1c-0.2,0.1-0.4,0.1-0.5,0.2l-0.2,0l-0.1-0.2
	c-0.1-0.4,0.1-0.8,0.3-1.1c0.3-0.3,0.6-0.5,0.9-0.7c-0.1-0.1-0.2-0.1-0.3-0.2c-0.3-0.2-0.7-0.3-0.9-0.3c-0.3,0-0.6,0-0.8,0
	c-0.3,0.1-0.7,0.2-0.9,0.3l-0.2,0.1l-0.1-0.1c-0.4-0.5-0.4-0.5-1.2-0.5l-0.2,0l-0.1,0l-0.1-0.1L28.6,31l-1.1-0.8L26.7,30L26.5,30
	l0.1-0.2c0-0.1,0.1-0.3,0.2-0.4c0.1-0.2,0.2-0.4,0.2-0.7v0c0.1-0.3,0.1-0.7,0-1c0-0.1,0-0.2,0-0.4l0-0.4l0.4,0.2l2.2,1.1l0.9,0.2
	c0.9-0.1,1.8,0.9,2.3,1.5l0,0c0.1,0.1,0.2,0.2,0.2,0.2c0.3,0.3,0.7,0.6,1.1,0.8c0.3,0.2,0.7,0.3,1.1,0.4c-0.1-0.1-0.1-0.2-0.2-0.3
	c-0.4-0.6-0.7-1.1-0.6-2.4l0-0.2l0.2,0c1.3-0.3,2.3-0.5,3.1-0.9c0.8-0.4,1.4-1,1.9-1.9c0.5-0.8,0.4-1.5,0.4-2.4c0-0.3,0-0.7,0-1
	c0-0.8,0.2-1.3,0.5-1.7c0.2-0.2,0.4-0.3,0.6-0.5c-0.3,0-0.6,0.1-0.8,0.1c-0.4,0.1-0.5,0.3-0.7,0.5c-0.1,0.1-0.2,0.3-0.4,0.4L39,21.2
	l-0.1-0.1c-0.4-0.4-0.8-0.7-1.2-0.9c-0.4-0.3-0.9-0.5-1.5-0.8c-0.2-0.1-0.4-0.3-0.5-0.6c-0.1-0.2-0.1-0.4-0.1-0.6
	c0-0.2,0.1-0.4,0.1-0.6c0.1-0.3,0.3-0.6,0.6-0.8c-0.1,0-0.1,0-0.2,0c-0.3,0-0.6,0.1-0.9,0.3c-0.4,0.2-0.5,0.5-0.6,0.7v0
	c-0.1,0.2-0.1,0.4-0.3,0.6l-0.1,0.2L34,18.5c-0.3-0.1-0.7-0.3-0.9-0.6h0c-0.1-0.1-0.2-0.3-0.3-0.4c-0.1-0.2-0.1-0.3,0-0.5
	c0-0.1,0.1-0.2,0.2-0.3c0.4-0.3,1-0.5,1.6-0.7c0.2,0,0.3-0.1,0.5-0.1l0,0c1.2-0.4,2.2-0.7,2.4-1.9c-0.2,0.3-0.7,0.5-1.6,0.8
	c-0.3,0.1-0.8,0.2-1.3,0.3c-0.5,0.1-1.1,0-1.4-0.2l-0.1-0.1l0-0.1c0-1.1,2.7-2,4.8-2.7c1-0.3,1.8-0.6,2.2-0.8c0.5-0.3,1-0.6,1.5-1
	c0.4-0.4,0.8-0.8,1-1.4c0.6-1.8-0.1-3-0.4-3.5C42.1,5.2,42,5.1,42,5c-0.1-0.1-0.2-0.2-0.3-0.3c-0.1-0.1-0.3-0.2-0.4-0.3v0
	c-0.1-0.1-0.2-0.1-0.4-0.2c-0.2-0.1-0.3-0.1-0.5-0.2c-0.7-0.2-1.3-0.1-2-0.1h0c-0.1,0-0.2,0-0.4,0c-0.8,0.1-1.4,0.4-1.9,0.8
	c-0.5,0.4-1,0.8-1.3,1.2c-0.1,0.1-0.1,0.2-0.2,0.2c-0.4,0.5-0.7,0.9-1.6,1c-0.5,0-0.9-0.1-1.2-0.3c-0.2-0.2-0.4-0.4-0.5-0.7
	c0,0-0.1,0.1-0.1,0.1c-0.2,0.2-0.3,0.5-0.3,0.8c0,0.3,0,0.6,0.2,0.8c0.1,0.1,0.2,0.3,0.3,0.4c0.2,0.1,0.4,0.3,0.6,0.3
	c0.2,0.1,0.5,0.1,0.8,0.1c0.5-0.1,0.6-0.2,0.8-0.4h0c0.1-0.1,0.2-0.2,0.3-0.3l0.2-0.1l0.1,0.2c0.7,0.9,0.2,1.4-0.3,1.8
	c-0.1,0.1-0.2,0.2-0.3,0.2l0,0c0.2,0.1,0.4,0.2,0.7,0.2c0.2,0,0.5-0.1,0.7-0.1c0.2-0.1,0.4-0.2,0.6-0.4C35.8,9.5,36,9.1,36,8.6
	l0-0.3l0.3,0c0.2,0,0.4,0.1,0.6,0.2c0.3,0.1,0.6,0.3,1.2,0.1c0.2-0.1,0.5-0.2,0.7-0.4C38.9,8.3,39,8.2,39,8.1c-1,0-1.6-0.2-1.9-0.5
	c-0.2-0.2-0.3-0.5-0.2-0.8c0-0.3,0.2-0.5,0.4-0.8c0.5-0.6,1.5-1,2.5-0.8c0.6,0.1,1,0.4,1.3,0.9c0.3,0.4,0.4,1,0.4,1.7
	c0,0.6-0.3,1.1-0.6,1.4c-0.3,0.4-0.7,0.6-1.1,0.8c-0.8,0.5-1.8,0.8-2.9,1.1c-1.7,0.5-3.5,1.1-4.8,2.3c-0.8,0.7-0.9,1.2-1.1,1.6
	c-0.1,0.2-0.1,0.3-0.2,0.5l0,1c0.2,2,2.2,2.8,4,3.6c2,0.8,3.9,1.6,3.9,3.8v0c0,0.7-0.3,1.3-0.7,1.8c-0.5,0.6-1.2,0.9-1.8,1.2
	c-1.8,0.6-3.7,0.5-5.4,0c-1.7-0.5-3.3-1.4-4.6-2.3h0c-0.3-0.2-0.6-0.7-0.8-1.2l0,0c-0.1-0.2-0.2-0.3-0.2-0.4l0,0
	c-0.3-0.5-0.7-1-1-1.5c-0.4-0.5-0.7-1-1.1-1.5l-0.1-0.2l0.2-0.1c0.1-0.1,0.3-0.2,0.4-0.3c0.2-0.1,0.5-0.3,0.6-0.6
	c-0.1-0.1-0.1-0.1-0.2-0.2c-0.2-0.2-0.4-0.4-0.5-1.1c0-0.3,0-0.7,0-1c0-0.3,0.1-0.6,0.2-0.8l0.3-0.6l0.2,0.6
	c0.2,0.8,0.4,1.5,0.8,1.9c0.3,0.4,0.8,0.6,1.5,0.6c-0.3-0.4-0.7-1.2-0.5-2.7c0.1-0.4,0.2-1.2,0.4-1.9c0.1-0.5,0.3-0.9,0.5-1.1
	l0.2-0.2l0.2,0.2c0.1,0.1,0.2,0.2,0.2,0.2v0c0.3,0.3,0.6,0.7,1.2,0.7c0.2,0,0.5-0.1,0.8-0.3v0c0.2-0.1,0.3-0.2,0.4-0.3
	c-0.7-0.2-1.8-0.5-1.1-3.7c0-0.1,0.1-0.3,0.1-0.5c0.1-0.5,0.3-1,0.3-1.6c0.1-0.8,0-1.2-0.1-1.7c0-0.2-0.1-0.4-0.1-0.6l-0.1-0.4
	l0.4,0.1c0.3,0.1,0.6,0.1,0.8,0.2c0.3,0,0.6,0,0.8-0.1c0.2-0.1,0.3-0.2,0.4-0.4l0,0c-0.5,0.1-0.8,0.2-1.4-0.2
	c-0.2-0.1-0.4-0.4-0.7-0.6C29,3.3,28.9,3.2,28.8,3c-0.1-0.1-0.2-0.2-0.3-0.3c-0.1-0.1-0.1-0.1-0.2-0.2h0c-0.1-0.1-0.2-0.1-0.3-0.1
	c-0.2,0-0.3-0.1-0.4-0.3l0-0.1l0-0.1c0-0.2,0-0.3,0.1-0.5v0c0.1-0.3,0.2-0.6,0-0.9c-0.1-0.1-0.2-0.3-0.4-0.4c-0.1,0-0.1-0.1-0.2-0.1
	c0,0.3,0,0.5-0.1,0.8c-0.1,0.4-0.4,0.6-0.9,0.7l-0.2,0l-0.1-0.2c-0.1-0.2-0.1-0.3-0.1-0.5c-0.1-0.3-0.1-0.4-0.5-0.7
	C25,0.2,24.7,0.1,24.4,0c-0.1,0-0.1,0-0.2,0c0.3,0.3,0.4,0.6,0.2,1.1l0,0.1l-0.1,0c-0.2,0.1-1,0.1-1.6,0c-0.4,0-0.7-0.1-0.9-0.1
	c-1.2,0-1.3,0.3-1.5,0.5c-0.1,0.1-0.1,0.1-0.2,0.2C20,2,19.7,2,19.4,2c-0.1,0-0.3,0-0.4,0c-0.1,0-0.3,0.1-0.5,0.2
	c-0.1,0.1-0.2,0.1-0.3,0.2l0,0L18,2.6l0,0c-0.2,0.1-0.4,0.2-0.5,0.3c-0.1,0.1,0,0.2,0.3,0.6l0.1,0.1l0,0.1c-0.1,0.5-0.1,0.8,0,1
	c0.1,0.2,0.4,0.4,0.7,0.6l0.1,0l0,0.1l0.2,1l0.1,0.3l-0.3,0c-0.3,0-0.6,0-0.9,0.1c-0.8,0.1-1.5,0.1-2.4,0c-1.9-0.3-1.8-1.3-1.7-1.9
	c-0.2,0-0.3,0.1-0.5,0.3c-0.2,0.2-0.3,0.4-0.4,0.6v0c0,0.1,0,0.1,0,0.2c0,0.3,0.1,0.6,0.2,0.8c0.2,0.3,0.4,0.5,0.7,0.6
	C15,8,16.7,7.7,18,7.4l0.2,0l0.4-0.1l-0.2,0.4c-0.2,0.4-0.1,0.5,0,0.7c0.1,0.1,0.2,0.3,0.2,0.6c0.1,0.6,0.1,0.9-0.1,1.1
	c0.2,0,0.3,0,0.4-0.1c0.2-0.1,0.4-0.3,0.5-0.6l0.1-0.3l0.3,0.1c0.6,0.2,0.8,0.2,1.3,0.2v0h0.1h0l0,0l0.3,0h0c0.1,0,0.2,0,0.3,0
	l0.1,0c0.3,0,0.8,0,1.3,0c0.6,0,1.1-0.1,1.3-0.1l0,0l0,0l0,0l0,0l0.1,0c0,0,0,0,0.1,0c0.5,0.1,0.5,0.2,0.3,0.3
	c0,0.1-0.2,0.2-0.4,0.2l-0.1,0c-0.1,0-0.2,0.1-0.3,0.1c-0.6,0.2-1.6,0.4-2.2,0.5c-0.4,0.8-1.8,0.7-2.9,0.5c-0.3,0-0.6-0.1-0.7-0.1
	c-0.4,0-0.8,0-1.2,0c-0.4,0-0.7,0.1-1.1,0.1c-0.5,0.1-0.8,0.3-1.2,0.4c-0.2,0.1-0.4,0.2-0.6,0.3l-0.1,0L14,11.7l-0.3,0.7l0,0.1
	c-0.4,0.9-1.1,2.3-0.2,3.7l0.1,0.1l0,0l0.1,0.1l0.3,0.4l-0.5,0c-1.8,0.1-2.6,0.9-3.1,1.5c-0.3,0.3-0.5,0.5-0.8,0.7l0,0l0,0l-2.9,0.3
	l-0.1,0l-0.1-0.1c-0.5-0.4-0.6-0.9-0.8-1.4c-0.1-0.3-0.2-0.6-0.4-0.9v0c-0.2-0.2-0.4-0.2-0.6-0.3c-0.2,0-0.4,0-0.6-0.2
	c-0.4-0.3-0.4-0.3-0.6-0.3h0c-0.1,0-0.2,0-0.5-0.1c-0.1,0.1-0.2,0.1-0.3,0.1v0c-0.1,0-0.2,0.1-0.4,0.2l0.1,0c0.2,0,0.3,0,0.4,0.1
	c0.2,0.1,0.3,0.2,0.3,0.4l0,0c0,0.1,0,0.2,0,0.4l0,0.1l-0.1,0.1c-0.1,0.1-0.4,0.1-0.6,0.1c-0.2,0-0.3,0-0.4,0.1
	c-0.3,0.1-0.4,0.1-0.6,0c-0.1,0-0.1-0.1-0.3,0v0c-0.4,0.1-0.6,0.3-0.8,0.5l0,0c-0.1,0.1-0.2,0.2-0.3,0.3c0,0.2-0.1,0.3-0.1,0.5
	C0,19.1,0,19.2,0,19.4c0-0.1,0.1-0.2,0.2-0.3c0.2-0.3,0.5-0.4,1-0.4l0.2,0l0,0.2c0.1,0.5,0.4,0.9,0.7,1.1c0.3,0.2,0.8,0.2,1.4,0
	l0.1,0L3.8,20c0.3,0.3,0.5,0.5,0.8,0.5c0.2,0.1,0.5,0,1.1,0l0.6-0.1l-0.4,0.5c-0.2,0.2-0.5,0.4-0.9,0.5c-0.4,0.1-0.8,0.1-1.1,0.1h0
	c-0.2,0-0.4-0.1-0.6-0.2h0c-0.4-0.1-0.7-0.3-1.1,0c-0.1,0.1-0.1,0.1-0.2,0.2l0,0c-0.1,0.1-0.1,0.3-0.4,0.4c-0.3,0.2-0.5,0.5-0.5,0.9
	c0,0.2,0,0.5,0.1,0.7C1.3,23.2,1.5,23,2,23l0.1,0l0.1,0.1c0.1,0.1,0.1,0.3,0.2,0.5c0.1,0.4,0.2,0.8,1,0.7c0.4-0.1,0.7-0.2,0.9-0.3
	c0.2-0.2,0.3-0.4,0.4-0.8l0-0.1L5,23c1-0.1,1.1-0.3,1.5-0.6c0.1-0.1,0.2-0.2,0.4-0.4L7,21.8L7.2,22c0.8,0.8,0.4,1.7,0.2,2.1
	c0.1,0,0.2,0,0.3,0c0.4,0,0.7-0.2,0.9-0.2c0.3-0.1,0.5-0.3,0.7-0.5c0.2-0.1,0.3-0.3,0.5-0.4l0.3-0.1l0.1,0.3
	c0.2,1.2,0.1,1.5-0.4,1.9c0.2,0,0.4,0,0.6-0.1c0.4-0.1,0.8-0.3,1.2-0.5c0.1-0.1,0.3-0.2,0.4-0.3c0.1-0.1,0.2-0.2,0.3-0.3
	c0.1-0.2,0.2-0.4,0.3-0.6c0.1-0.2,0.1-0.3,0.2-0.4l0.3-0.4l0.1,0.5c0.4,1.7,0.1,2.1-0.2,2.5v0c0.9-0.1,1.8-0.4,2.5-0.8
	c0.7-0.5,1.2-1.2,1.3-2.1l0-0.1l0-0.4l0.3,0.1c0.2,0.1,0.4,0.3,0.6,0.5c0.2,0.2,0.3,0.5,0.3,0.7c0.1,0.4,0,0.7-0.1,1
	c0.2-0.1,0.4-0.2,0.6-0.3v0c0.3-0.2,0.5-0.4,0.5-0.8l0.1-0.3l0.3,0.1c0.3,0.1,0.9,0.6,1.3,1c0.3,0.4,0.6,0.7,0.5,1.1l0,0.1L21,25.5
	c-0.3,0.3-0.5,0.3-0.6,0.4h0c-0.1,0-0.1,0-0.4,0.5l-0.1,0.1l-0.2,0c-0.9-0.2-1.6,0.2-2.3,0.5c-0.5,0.2-0.9,0.4-1.5,0.6
	c-0.5,0.1-0.9,0.1-1.3,0.2h0c-0.9,0.1-1.3,0.1-1.3,1.7l0.1,0.3h0l0.4,1.8l0,0l0,0c0,0.1,0,0.3,0,0.5c0,0.3,0,0.5,0,0.6l0,0.1l0,0.1
	c0,0.2,0.1,0.5,0.2,0.9c0.1,0.2,0.1,0.4,0.1,0.6c0.1,0.7-0.1,0.8-0.6,1.1c-0.4,0.3-1.1,0.7-1.9,2c-0.9,1.7-1.6,2-2.2,1.7
	c-0.4-0.2-0.7-0.8-0.9-1.4l0,0c-0.2-0.4-0.4-0.8-0.5-0.8l-0.1,0L8,36.8c-0.1-0.1-0.2-0.2-0.4-0.2c-0.2,0-0.4,0-0.6,0
	c-0.6,0-0.6,0-0.8-0.1c-0.1,0-0.2-0.1-0.4-0.1c-0.1,0-0.1,0-0.2,0c-0.3,0-0.6,0-0.8,0.1c-0.1,0.1-0.2,0.1-0.3,0.3c0.1,0,0.1,0,0.2,0
	h0c0.1,0,0.2,0.1,0.5,0.2l0,0l0.1,0l0.2,0.1l-0.1,0.2l-0.2,0.5l-0.1,0.2l-0.2,0c-0.7,0-1.2,0.1-1.4,0.3c-0.2,0.2-0.3,0.4-0.3,0.9
	c0.2-0.2,0.3-0.2,0.4-0.3h0c0.1,0,0.2,0,0.4,0c0.1,0,0.4,0.1,0.7,0.1l0.2,0l0,0.2c0.1,0.3,0.2,0.6,0.4,0.7c0.2,0.1,0.5,0.2,0.9,0.2
	l0.3,0l-0.1,0.3c-0.1,0.2-0.1,0.4-0.1,0.6c0,0.2,0,0.3-0.1,0.4l0,0c0,0.1-0.1,0.2-0.2,0.3c-0.1,0.1-0.2,0.3-0.2,0.5
	c-0.1,0.3-0.1,0.6,0,0.8c0.1,0.1,0.1,0.2,0.2,0.3l0.1-0.3l0-0.1l0.1,0l0.6-0.3l0.1-0.1l0.1,0.1c0.1,0,0.2,0.1,0.2,0.1
	c0.3,0.2,0.4,0.3,1,0c0.5-0.2,0.6-0.3,0.8-0.6c0-0.1,0.1-0.1,0.2-0.2l0.1-0.1l0.1,0c1.1,0,1.3-0.1,2.1-0.3h0l0.3-0.1l0.2-0.1
	l0.1,0.2c0.6,1,0.6,1.1,0.5,1.9c0,0.1,0,0.2,0,0.4c0.2-0.1,0.4-0.2,0.5-0.3c0.4-0.3,0.8-0.6,0.9-0.8c0.5-0.6,0.4-1.1,0.4-1.6
	c0-0.2,0-0.5,0-0.9l0-0.4l0.4,0.2c0.2,0.1,0.5,0.3,0.7,0.6c0.3,0.3,0.5,0.6,0.5,1l0.1,0.7l0.1-0.1c0.3-0.4,0.7-0.8,1-1.4
	c0.4-1,0.3-1.4,0-2c-0.1-0.2-0.1-0.3-0.2-0.5l-0.1-0.3l0.4,0c1,0.1,1.4,0.6,1.8,1.2l0.1,0.1c0-0.1,0.1-0.2,0.1-0.3
	c0.1-0.4,0.2-0.8,0.2-1.2c0.2-1.6-0.6-2.6-1-3c-0.1-0.1-0.2-0.3-0.2-0.4h0c0-0.1,0-0.3,0-0.5c0-0.2,0-0.5,0-0.6
	c0-0.2-0.1-0.4-0.2-0.5l0,0c0-0.1-0.1-0.2-0.1-0.3l-0.1-0.3l0.3,0c0.2,0,0.3-0.1,0.5-0.1h0c0.2-0.1,0.4-0.2,0.5-0.2l0,0
	c0,0,0.1-0.1,0.1-0.1c-0.2-0.6,0-1.7,0.4-2.7c0.3-0.9,0.9-1.8,1.6-2.1l0.5-0.3l-0.2,0.6c-0.1,0.2-0.2,0.3-0.3,0.5
	c-0.1,0.2-0.3,0.3-0.3,0.5l0,0l0,0.1l0,0c-0.2,0.3-0.9,1.9-0.4,3.1l0.1,0.2v0c0.1,0.2,0.2,0.3,0.3,0.4c0.2,0.2,0.5,0.5,0.8,0.7
	c0.4,0.3,0.8,0.5,1.1,0.7c0.4,0.2,0.8,0.6,1.2,1c1,0.9,2.2,1.9,4,2.2l0.2,0l0,0.2c0.1,1.3,0.3,1.5,1,2.1c0.1,0.1,0.1,0.1,0.3,0.2
	c0.2,0.1,0.7,0.7,1,1.3c0.1,0.2,0.2,0.4,0.2,0.6c0,0.2,0,0.5-0.2,0.6c-0.1,0.1-0.2,0.2-0.3,0.2l-0.1,0.1l-0.1,0
	c-0.2-0.1-0.3-0.3-0.5-0.5l0,0c-0.4-0.5-0.9-1.2-1.7-0.7c-0.2,0.1-0.4,0.1-0.5,0.2c-0.3,0-0.5,0.1-0.8,0.4l0,0
	c-0.1,0.2-0.2,0.4-0.2,0.7c0,0.1,0,0.2,0,0.3c0.2-0.3,0.3-0.4,0.9-0.5l0.1,0l0.1,0.1l0.5,0.5l0.1,0.1l-0.1,0.2
	c-0.1,0.1-0.2,0.3-0.4,0.4h0c-0.1,0.1-0.2,0.1-0.2,0.2c-0.1,0.1-0.1,0.2-0.2,0.3c0,0.1-0.1,0.1-0.1,0.2c-0.1,0.5-0.1,0.8,0.1,1.1
	L27.6,44.1L27.6,44.1L27.6,44.1L27.6,44.1z M13.9,11.7l-0.6,0.4c-0.4,0.2-0.7,0.6-0.9,1l0,0c-0.2,0.4-0.3,0.8-0.4,1l0,0l0,0
	c-0.1,0.4-0.1,0.8,0,1.1c0,0.3,0.1,0.5,0.2,0.8c-0.4,0.2-1.1,0.4-2.1,0.1c-0.3-0.1-0.5-0.2-0.7-0.4c-0.1-0.1-0.2-0.1-0.3-0.2
	c0.1,0,0.1,0,0.2,0c0.5-0.1,1.1-0.2,1.2-0.9l0-0.2l-0.1-0.1c-0.2-0.1-0.4-0.1-0.6-0.1c-0.5,0-1.1,0-1.7-0.6
	c-0.3-0.2-0.5-0.5-0.7-0.8c-0.1-0.2-0.2-0.5-0.3-0.8c0.5,0.2,1.2,0.3,1.8,0.2c0.6-0.1,1.1-0.3,1.4-0.8l0.1-0.1l0-0.1l-0.3-0.9
	l-0.1-0.3l-0.3,0.1c-0.1,0.1-0.3,0.2-0.4,0.3C8.8,10.8,8.5,11,8,10.9c-0.2,0-0.5-0.1-0.7-0.3c-0.1,0-0.1-0.1-0.2-0.1
	c0.3-0.1,0.6-0.1,0.8-0.3C8.3,10,8.5,9.7,8.7,9.2l0.1-0.3l-0.3,0c-1,0-1.2-0.2-1.5-0.5C6.8,8.3,6.6,8.2,6.4,8L6.3,8L6.2,8
	C5.9,8.1,5.7,8,5.4,8C5.2,7.9,5.1,7.8,4.9,7.6C4.7,7.4,4.6,7.2,4.6,7c0-0.2,0.1-0.4,0.2-0.7L5,6.1L4.7,6C4.2,6,3.9,6,3.7,6.1
	c0-0.1,0-0.1,0-0.2C3.9,5.7,4,5.4,4.2,5.2c0.2-0.2,0.4-0.3,0.7-0.3c0.2,0,0.4,0,0.7,0.1C5.9,5,6.1,5.1,6.2,5.1c0.3,0,0.4,0,0.6,0.6
	C6.9,5.8,7,5.9,7,6v0c0,0.2,0,0.3,0.2,0.6C7.3,6.7,7.4,6.8,7.6,7c0.1,0.1,0.3,0.2,0.4,0.2l0.4,0.1L8.2,6.9c-0.1-0.6-0.1-0.6,0-0.8
	c0-0.1,0.1-0.3,0.2-0.6l0-0.1L8.3,5.3C8.2,5.3,8.1,5.2,8,5.1h0C7.8,4.9,7.6,4.7,7.5,4.3c-0.1-0.5,0.1-0.8,0.3-1
	c0.1-0.1,0.1-0.2,0.2-0.3L8,2.9L7.9,2.8C7.5,2.2,7.1,2.2,6.6,2.3C6.8,2.2,7,2,7.3,1.9c0.4-0.1,0.8-0.1,1.2,0C8.6,2,8.8,2,8.9,2.1
	l-0.1,0l0.1,0c0.1,0.1,0.1,0.1,0.1,0.2c0,0.2,0,0.3,0.4,0.5C9.7,3,9.7,3.1,9.8,3.1l0,0c0,0.1,0.1,0.2,0.2,0.3
	c0.2,0.1,0.3,0.1,0.5,0.1l0,0c0.1-0.1,0.2-0.2,0.2-0.3c0-0.1,0-0.2,0-0.4v0c0-0.1-0.1-0.3-0.2-0.4c0,0,0.1,0,0.1,0
	c0.2,0.1,0.5,0.2,0.6,0.3c0.3,0.3,0.3,0.5,0.3,0.7v0c0,0.2,0,0.5,0.2,0.8c0.4,0.5-0.2,1.1-0.7,1.6c-0.3,0.3-0.5,0.5-0.6,0.8
	c-0.6,1.4,1.1,2.9,2.5,4.1C13.3,11.1,13.7,11.5,13.9,11.7L13.9,11.7z M7.1,24.1L7.1,24.1C7.1,24.1,7.1,24.1,7.1,24.1L7.1,24.1z
	 M19.5,7.2c0.4-0.1,0.9,0,1.3,0.2c0.4,0.2,0.7,0.4,0.7,0.8l0,0.1l-0.1,0.1c-0.1,0.2-0.3,0.3-0.6,0.3c-0.2,0-0.4,0-0.7,0
	c-0.4-0.1-0.6-0.2-0.8-0.3l0,0c0,0-0.1,0-0.1-0.1l-0.1-0.1l0-0.1l0-0.6l0-0.2L19.5,7.2L19.5,7.2z M19.1,6.4L19.1,6.4
	c0-0.1,0-0.2,0-0.3v0c0-0.3,0.1-0.7,0.5-0.7c0.2,0,0.8,0.2,1.2,0.5v0c0.3,0.2,0.6,0.5,0.7,0.8l0.1,0.4L21.1,7
	c-0.1,0-0.2-0.1-0.3-0.1h0c-0.1-0.1-0.3-0.1-0.5-0.2c-0.1,0-0.2,0-0.4,0h0c-0.2,0-0.5,0-0.7-0.1l-0.2-0.1L19.1,6.4z"/>
</svg>
