<?xml version="1.0" encoding="utf-8"?>
<!-- Generator: Adobe Illustrator 17.1.0, SVG Export Plug-In . SVG Version: 6.00 Build 0)  -->
<!DOCTYPE svg PUBLIC "-//W3C//DTD SVG 1.1//EN" "http://www.w3.org/Graphics/SVG/1.1/DTD/svg11.dtd">
<svg version="1.1" id="Layer_1" xmlns="http://www.w3.org/2000/svg" xmlns:xlink="http://www.w3.org/1999/xlink" x="0px" y="0px"
	 viewBox="223.1 205.5 177.1 247.2" enable-background="new 223.1 205.5 177.1 247.2" xml:space="preserve">
<path fill="#FFFFFF" d="M372,226.7c-15.2-13.6-36.9-21.2-60.3-21.2c-23.4,0-45.1,7.6-60.3,21.2c-18.5,16.3-28.3,41.8-28.3,72.8
	c0,67.4,77.7,146.1,81,149.9c2.2,2.2,4.9,3.3,7.6,3.3s5.4-1.1,7.6-3.3c3.3-3.3,81-82,81-149.9C400.2,268,390.4,243,372,226.7z
	 M311.7,351.7c-31,0-55.4-25-55.4-56.5s25-56.5,55.4-56.5c30.4,0,55.4,25,55.4,56.5C367.1,326.2,342.6,351.7,311.7,351.7z"/>
</svg>
