<?xml version="1.0" encoding="utf-8"?>
<!-- Generator: Adobe Illustrator 17.1.0, SVG Export Plug-In . SVG Version: 6.00 Build 0)  -->
<!DOCTYPE svg PUBLIC "-//W3C//DTD SVG 1.1//EN" "http://www.w3.org/Graphics/SVG/1.1/DTD/svg11.dtd">
<svg version="1.1" id="Layer_1" xmlns="http://www.w3.org/2000/svg" xmlns:xlink="http://www.w3.org/1999/xlink" x="0px" y="0px"
	 viewBox="0 0 49.1 52.6" enable-background="new 0 0 49.1 52.6" xml:space="preserve">
<path fill-rule="evenodd" clip-rule="evenodd" fill="#FFFFFF" d="M0,25.5l0.2,0l0-0.2C0.1,25.6,0.2,25.5,0,25.5L0,25.5z M23.7,46.3
	c0.3,0.3,0.8,0.3,1.1,0c0.3-0.3,0.3-0.8,0-1.1c-0.3-0.3-0.8-0.3-1.1,0C23.4,45.5,23.4,46,23.7,46.3L23.7,46.3z M23.9,24.6
	c-0.4,0-0.6,0.3-0.6,0.6c0,0.4,0.3,0.6,0.6,0.6c0.4,0,0.6-0.3,0.6-0.6C24.6,24.9,24.3,24.6,23.9,24.6L23.9,24.6z M45.7,24.4
	c0.3,0.3,0.8,0.3,1,0c0.3-0.3,0.3-0.8,0-1c-0.3-0.3-0.8-0.3-1,0C45.4,23.7,45.4,24.1,45.7,24.4L45.7,24.4z M25.5,47.8
	c-2.8,2.2-5.8-1.6-3.2-3.6c3.7-3.2,7.5-6.6,11.1-10.3c3.5-3.6,7.2-7.9,10-11.6c2.8-3.5,8.1,0.9,4.6,4.8c-3.3,3.8-6.8,7.5-10.4,11
	C33.9,41.6,29.5,44.6,25.5,47.8L25.5,47.8z M16.1,40.1l4.6,4.6c0.2-0.4,0.6-0.9,1-1.2l0,0c0.3-0.3,0.7-0.6,1-0.9L17.2,37l0.6-1.8
	c0.2-0.4,0-0.9-0.3-1.2L4.9,21.4c-0.5-0.5-1.2-0.4-1.6,0l-2.2,2.2c-0.4,0.4-0.4,1.2,0,1.6L16.1,40.1L16.1,40.1z M29.1,46.2
	c-0.8,0.6-1.6,1.2-2.4,1.8c2.4,0.8,4.5,2.2,6.2,4.1c0.5,0.5,1.3,0.6,1.8,0c0.5-0.5,0.4-1.2,0-1.7c-0.3-0.3-0.5-0.6-0.8-0.9
	C32.5,48.1,30.9,47,29.1,46.2L29.1,46.2z M10.4,4.5c2.5-1.3,5.8,0.1,7.4,3.1c0.9,1.8,1.1,3.7,0.5,5.2c-0.5,1.4-0.4,3,0.1,4.3l0,0
	c1,2.4,2.7,4.3,4.9,5.6l2.7,1.5c1.6,1.2,2.9,2.8,3.8,4.7l2.2,4.9c-0.9,0.9-1.8,1.8-2.7,2.6c-1.4-2.1-2.7-4.2-3.9-6l-3.7-5
	c0,0-0.1-0.1-0.1-0.1c-1.9-2.3-3.7-4.6-5.3-7.1l0,0c-0.8-1.3-2.1-2.2-3.5-2.6c-1.6-0.4-3.1-1.6-4-3.4C7.2,9.3,7.9,5.8,10.4,4.5
	L10.4,4.5z M35.4,41.3c-0.6,0.5-1.3,1.1-1.9,1.6c2.4,3.9,4.2,6.8,4.2,6.8c0.4-1.1,0.4-2.3-0.1-3.4L35.4,41.3L35.4,41.3z M10.3,11.5
	c1.1,2.1,3.4,3.1,5,2.3c1.7-0.9,2.1-3.3,1-5.4c-1.1-2.1-3.4-3.1-5-2.3C9.6,7,9.2,9.4,10.3,11.5L10.3,11.5z M25.2,22.5l1.4,0.8
	c0.1,0,0.1,0.1,0.2,0.1c0.3,0.2,0.5,0.4,0.7,0.6c1.4-1.8,2.8-3.7,4.1-5.7l0,0c0.8-1.3,2-2.2,3.5-2.6c1.6-0.5,3.1-1.7,4-3.4
	c0.8-1.5,1-3.1,0.7-4.4c-0.3-1.7-0.1-1.7,1.1-3l2-1.8l0.1,0c0.9,0.2,1.7-0.4,1.9-1.2C45,1,44.5,0.2,43.6,0c-0.9-0.2-1.7,0.4-1.9,1.2
	c0,0.2,0,0.5,0,0.7l-1.9,1.8c-1,1-1.3,1.3-2.4,0.7c-2.5-1.3-5.8,0.1-7.3,3.2c-0.9,1.8-1,3.7-0.5,5.3c0.5,1.4,0.5,3-0.1,4.3l0,0
	C28.6,19.4,27.1,21.3,25.2,22.5L25.2,22.5z M23.5,29.6l-0.7,0.9c-1.3,2-2.8,4.2-4.2,6.5l-0.3-0.3l0.4-1.2c0.1-0.4,0.2-0.8,0.1-1.2
	c-0.1-0.4-0.3-0.7-0.6-1L17,32.1l1.3-2.9c0.6-1.3,1.4-2.5,2.3-3.5l0.3,0.4l0,0l0,0l0,0c0,0,0,0,0.1,0.1l0,0L23.5,29.6L23.5,29.6z
	 M15.9,41.3C13,46,10.6,50,10.6,50c-0.4-1.1-0.4-2.4,0.1-3.5l3.1-7.3l1.5,1.5L15.9,41.3L15.9,41.3z M32.6,13.9
	c1.7,0.9,3.9-0.2,5-2.3c1.1-2.1,0.6-4.6-1-5.4c-1.7-0.9-3.9,0.2-5,2.3C30.5,10.6,30.9,13,32.6,13.9z"/>
</svg>
