<?xml version="1.0" encoding="utf-8"?>
<!-- Generator: Adobe Illustrator 17.1.0, SVG Export Plug-In . SVG Version: 6.00 Build 0)  -->
<!DOCTYPE svg PUBLIC "-//W3C//DTD SVG 1.1//EN" "http://www.w3.org/Graphics/SVG/1.1/DTD/svg11.dtd">
<svg version="1.1" id="Layer_1" xmlns="http://www.w3.org/2000/svg" xmlns:xlink="http://www.w3.org/1999/xlink" x="0px" y="0px"
	 viewBox="0 0 640 640" enable-background="new 0 0 640 640" xml:space="preserve">
<path fill="#FFFFFF" d="M147.9,349.3l-11.7,130.3c0,5.9,17.6,11.7,22,11.7c26.4,4.4,52.7,5.9,80.5,7.3c39.5,1.5,80.5,2.9,120.1,1.5
	c35.1-1.5,71.8-1.5,106.9-7.3c5.9-1.5,36.6-7.3,36.6-14.6l-19-128.9l155.2-46.9l0,0v-16.1L319.3,138.4l0,0L0,287.8v16.1L147.9,349.3
	L147.9,349.3z M454,460.6c1.5,0,2.9,1.5,4.4,1.5l0,0c5.9,1.5,22,7.3,23.4,10.3c0,5.9-32.2,7.3-35.1,8.8c-24.9,2.9-49.8,4.4-73.2,4.4
	c-55.7,1.5-112.8,1.5-168.4-4.4c-8.8-1.5-19-1.5-27.8-4.4c-2.9,0-13.2-1.5-14.6-4.4c-1.5-2.9,7.3-8.8,10.3-8.8
	c2.9-1.5,5.9-1.5,8.8-1.5c1.5,0,2.9-1.5,4.4-1.5C240.2,444.5,392.5,443,454,460.6L454,460.6z M476,320L476,320L476,320
	c0-1.5,0-1.5-1.5-2.9v-1.5l0,0l0,0l0,0l0,0c-1.5-1.5-2.9-2.9-4.4-4.4s-4.4-2.9-5.9-2.9c-11.7-4.4-26.4-7.3-41-8.8l-7.3,0l0,0
	c-30.8-4.4-65.9-5.9-101.1-5.9s-70.3,1.5-101.1,5.9h-1.5c-14.6,1.5-29.3,4.4-43.9,8.8l0,0c-2.9,1.5-5.9,1.5-7.3,2.9
	s-4.4,2.9-4.4,4.4l0,0l0,0v1.5l0,0v1.5l0,0v1.5v1.5l-4.4,16.1l-2.9-16.1V320l0,0v-1.5c0-1.5,0-1.5,0-2.9c0-1.5,0-1.5,0-2.9l0,0l0,0
	l0,0l0,0c1.5-2.9,2.9-5.9,4.4-7.3s4.4-2.9,7.3-4.4c11.7-5.9,26.4-8.8,41-10.3l5.9-1.5l0,0c16.1-2.9,33.7-4.4,51.3-5.9
	c17.6-1.5,35.1-1.5,54.2-1.5c4.4,0,2.9,0,7.3,0c19,0,36.6,0,54.2,1.5c17.6,1.5,35.1,2.9,51.3,5.9l0,0l5.9,1.5
	c13.2,1.5,27.8,4.4,41,10.3l0,0c2.9,1.5,4.4,2.9,7.3,4.4c1.5,1.5,2.9,4.4,4.4,7.3l0,0l0,0l0,0c0,1.5,0,1.5,0,2.9c0,1.5,0,1.5,0,2.9
	v1.5l0,0v1.5l-1.5,16.1L476,320L476,320z M156.7,317.1L156.7,317.1L156.7,317.1L156.7,317.1z"/>
</svg>
